<?xml version="1.0" encoding="utf-8" standalone="no"?>
<!DOCTYPE svg PUBLIC "-//W3C//DTD SVG 1.1//EN"
  "http://www.w3.org/Graphics/SVG/1.1/DTD/svg11.dtd">
<svg xmlns:xlink="http://www.w3.org/1999/xlink" width="720pt" height="288pt" viewBox="0 0 720 288" xmlns="http://www.w3.org/2000/svg" version="1.1">
 <metadata>
  <rdf:RDF xmlns:dc="http://purl.org/dc/elements/1.1/" xmlns:cc="http://creativecommons.org/ns#" xmlns:rdf="http://www.w3.org/1999/02/22-rdf-syntax-ns#">
   <cc:Work>
    <dc:type rdf:resource="http://purl.org/dc/dcmitype/StillImage"/>
    <dc:date>2025-09-21T12:00:00.636518</dc:date>
    <dc:format>image/svg+xml</dc:format>
    <dc:creator>
     <cc:Agent>
      <dc:title>Matplotlib v3.5.3, https://matplotlib.org/</dc:title>
     </cc:Agent>
    </dc:creator>
   </cc:Work>
  </rdf:RDF>
 </metadata>
 <defs>
  <style type="text/css">*{stroke-linejoin: round; stroke-linecap: butt}</style>
 </defs>
 <g id="figure_1">
  <g id="patch_1">
   <path d="M 0 288 
L 720 288 
L 720 0 
L 0 0 
z
" style="fill: #ffffff"/>
  </g>
  <g id="axes_1">
   <g id="patch_2">
    <path d="M 90 256.32 
L 648 256.32 
L 648 34.56 
L 90 34.56 
z
" style="fill: #ffffff"/>
   </g>
   <g id="matplotlib.axis_1">
    <g id="xtick_1">
     <g id="line2d_1">
      <path d="M 116.284885 256.32 
L 116.284885 34.56 
" clip-path="url(#pdaebb7d177)" style="fill: none; stroke: #b0b0b0; stroke-width: 0.8; stroke-linecap: square"/>
     </g>
     <g id="line2d_2">
      <defs>
       <path id="md533e36a7e" d="M 0 0 
L 0 3.5 
" style="stroke: #000000; stroke-width: 0.8"/>
      </defs>
      <g>
       <use xlink:href="#md533e36a7e" x="116.284885" y="256.32" style="stroke: #000000; stroke-width: 0.8"/>
      </g>
     </g>
     <g id="text_1">
      <!-- 11:53:35 -->
      <g transform="translate(93.828635 270.918437)scale(0.1 -0.1)">
       <defs>
        <path id="DejaVuSans-31" d="M 794 531 
L 1825 531 
L 1825 4091 
L 703 3866 
L 703 4441 
L 1819 4666 
L 2450 4666 
L 2450 531 
L 3481 531 
L 3481 0 
L 794 0 
L 794 531 
z
" transform="scale(0.015625)"/>
        <path id="DejaVuSans-3a" d="M 750 794 
L 1409 794 
L 1409 0 
L 750 0 
L 750 794 
z
M 750 3309 
L 1409 3309 
L 1409 2516 
L 750 2516 
L 750 3309 
z
" transform="scale(0.015625)"/>
        <path id="DejaVuSans-35" d="M 691 4666 
L 3169 4666 
L 3169 4134 
L 1269 4134 
L 1269 2991 
Q 1406 3038 1543 3061 
Q 1681 3084 1819 3084 
Q 2600 3084 3056 2656 
Q 3513 2228 3513 1497 
Q 3513 744 3044 326 
Q 2575 -91 1722 -91 
Q 1428 -91 1123 -41 
Q 819 9 494 109 
L 494 744 
Q 775 591 1075 516 
Q 1375 441 1709 441 
Q 2250 441 2565 725 
Q 2881 1009 2881 1497 
Q 2881 1984 2565 2268 
Q 2250 2553 1709 2553 
Q 1456 2553 1204 2497 
Q 953 2441 691 2322 
L 691 4666 
z
" transform="scale(0.015625)"/>
        <path id="DejaVuSans-33" d="M 2597 2516 
Q 3050 2419 3304 2112 
Q 3559 1806 3559 1356 
Q 3559 666 3084 287 
Q 2609 -91 1734 -91 
Q 1441 -91 1130 -33 
Q 819 25 488 141 
L 488 750 
Q 750 597 1062 519 
Q 1375 441 1716 441 
Q 2309 441 2620 675 
Q 2931 909 2931 1356 
Q 2931 1769 2642 2001 
Q 2353 2234 1838 2234 
L 1294 2234 
L 1294 2753 
L 1863 2753 
Q 2328 2753 2575 2939 
Q 2822 3125 2822 3475 
Q 2822 3834 2567 4026 
Q 2313 4219 1838 4219 
Q 1578 4219 1281 4162 
Q 984 4106 628 3988 
L 628 4550 
Q 988 4650 1302 4700 
Q 1616 4750 1894 4750 
Q 2613 4750 3031 4423 
Q 3450 4097 3450 3541 
Q 3450 3153 3228 2886 
Q 3006 2619 2597 2516 
z
" transform="scale(0.015625)"/>
       </defs>
       <use xlink:href="#DejaVuSans-31"/>
       <use xlink:href="#DejaVuSans-31" x="63.623047"/>
       <use xlink:href="#DejaVuSans-3a" x="127.246094"/>
       <use xlink:href="#DejaVuSans-35" x="160.9375"/>
       <use xlink:href="#DejaVuSans-33" x="224.560547"/>
       <use xlink:href="#DejaVuSans-3a" x="288.183594"/>
       <use xlink:href="#DejaVuSans-33" x="321.875"/>
       <use xlink:href="#DejaVuSans-35" x="385.498047"/>
      </g>
     </g>
    </g>
    <g id="xtick_2">
     <g id="line2d_3">
      <path d="M 204.866722 256.32 
L 204.866722 34.56 
" clip-path="url(#pdaebb7d177)" style="fill: none; stroke: #b0b0b0; stroke-width: 0.8; stroke-linecap: square"/>
     </g>
     <g id="line2d_4">
      <g>
       <use xlink:href="#md533e36a7e" x="204.866722" y="256.32" style="stroke: #000000; stroke-width: 0.8"/>
      </g>
     </g>
     <g id="text_2">
      <!-- 11:53:40 -->
      <g transform="translate(182.410472 270.918437)scale(0.1 -0.1)">
       <defs>
        <path id="DejaVuSans-34" d="M 2419 4116 
L 825 1625 
L 2419 1625 
L 2419 4116 
z
M 2253 4666 
L 3047 4666 
L 3047 1625 
L 3713 1625 
L 3713 1100 
L 3047 1100 
L 3047 0 
L 2419 0 
L 2419 1100 
L 313 1100 
L 313 1709 
L 2253 4666 
z
" transform="scale(0.015625)"/>
        <path id="DejaVuSans-30" d="M 2034 4250 
Q 1547 4250 1301 3770 
Q 1056 3291 1056 2328 
Q 1056 1369 1301 889 
Q 1547 409 2034 409 
Q 2525 409 2770 889 
Q 3016 1369 3016 2328 
Q 3016 3291 2770 3770 
Q 2525 4250 2034 4250 
z
M 2034 4750 
Q 2819 4750 3233 4129 
Q 3647 3509 3647 2328 
Q 3647 1150 3233 529 
Q 2819 -91 2034 -91 
Q 1250 -91 836 529 
Q 422 1150 422 2328 
Q 422 3509 836 4129 
Q 1250 4750 2034 4750 
z
" transform="scale(0.015625)"/>
       </defs>
       <use xlink:href="#DejaVuSans-31"/>
       <use xlink:href="#DejaVuSans-31" x="63.623047"/>
       <use xlink:href="#DejaVuSans-3a" x="127.246094"/>
       <use xlink:href="#DejaVuSans-35" x="160.9375"/>
       <use xlink:href="#DejaVuSans-33" x="224.560547"/>
       <use xlink:href="#DejaVuSans-3a" x="288.183594"/>
       <use xlink:href="#DejaVuSans-34" x="321.875"/>
       <use xlink:href="#DejaVuSans-30" x="385.498047"/>
      </g>
     </g>
    </g>
    <g id="xtick_3">
     <g id="line2d_5">
      <path d="M 293.448555 256.32 
L 293.448555 34.56 
" clip-path="url(#pdaebb7d177)" style="fill: none; stroke: #b0b0b0; stroke-width: 0.8; stroke-linecap: square"/>
     </g>
     <g id="line2d_6">
      <g>
       <use xlink:href="#md533e36a7e" x="293.448555" y="256.32" style="stroke: #000000; stroke-width: 0.8"/>
      </g>
     </g>
     <g id="text_3">
      <!-- 11:53:45 -->
      <g transform="translate(270.992305 270.918437)scale(0.1 -0.1)">
       <use xlink:href="#DejaVuSans-31"/>
       <use xlink:href="#DejaVuSans-31" x="63.623047"/>
       <use xlink:href="#DejaVuSans-3a" x="127.246094"/>
       <use xlink:href="#DejaVuSans-35" x="160.9375"/>
       <use xlink:href="#DejaVuSans-33" x="224.560547"/>
       <use xlink:href="#DejaVuSans-3a" x="288.183594"/>
       <use xlink:href="#DejaVuSans-34" x="321.875"/>
       <use xlink:href="#DejaVuSans-35" x="385.498047"/>
      </g>
     </g>
    </g>
    <g id="xtick_4">
     <g id="line2d_7">
      <path d="M 382.030388 256.32 
L 382.030388 34.56 
" clip-path="url(#pdaebb7d177)" style="fill: none; stroke: #b0b0b0; stroke-width: 0.8; stroke-linecap: square"/>
     </g>
     <g id="line2d_8">
      <g>
       <use xlink:href="#md533e36a7e" x="382.030388" y="256.32" style="stroke: #000000; stroke-width: 0.8"/>
      </g>
     </g>
     <g id="text_4">
      <!-- 11:53:50 -->
      <g transform="translate(359.574138 270.918437)scale(0.1 -0.1)">
       <use xlink:href="#DejaVuSans-31"/>
       <use xlink:href="#DejaVuSans-31" x="63.623047"/>
       <use xlink:href="#DejaVuSans-3a" x="127.246094"/>
       <use xlink:href="#DejaVuSans-35" x="160.9375"/>
       <use xlink:href="#DejaVuSans-33" x="224.560547"/>
       <use xlink:href="#DejaVuSans-3a" x="288.183594"/>
       <use xlink:href="#DejaVuSans-35" x="321.875"/>
       <use xlink:href="#DejaVuSans-30" x="385.498047"/>
      </g>
     </g>
    </g>
    <g id="xtick_5">
     <g id="line2d_9">
      <path d="M 470.612221 256.32 
L 470.612221 34.56 
" clip-path="url(#pdaebb7d177)" style="fill: none; stroke: #b0b0b0; stroke-width: 0.8; stroke-linecap: square"/>
     </g>
     <g id="line2d_10">
      <g>
       <use xlink:href="#md533e36a7e" x="470.612221" y="256.32" style="stroke: #000000; stroke-width: 0.8"/>
      </g>
     </g>
     <g id="text_5">
      <!-- 11:53:55 -->
      <g transform="translate(448.155971 270.918437)scale(0.1 -0.1)">
       <use xlink:href="#DejaVuSans-31"/>
       <use xlink:href="#DejaVuSans-31" x="63.623047"/>
       <use xlink:href="#DejaVuSans-3a" x="127.246094"/>
       <use xlink:href="#DejaVuSans-35" x="160.9375"/>
       <use xlink:href="#DejaVuSans-33" x="224.560547"/>
       <use xlink:href="#DejaVuSans-3a" x="288.183594"/>
       <use xlink:href="#DejaVuSans-35" x="321.875"/>
       <use xlink:href="#DejaVuSans-35" x="385.498047"/>
      </g>
     </g>
    </g>
    <g id="xtick_6">
     <g id="line2d_11">
      <path d="M 559.194057 256.32 
L 559.194057 34.56 
" clip-path="url(#pdaebb7d177)" style="fill: none; stroke: #b0b0b0; stroke-width: 0.8; stroke-linecap: square"/>
     </g>
     <g id="line2d_12">
      <g>
       <use xlink:href="#md533e36a7e" x="559.194057" y="256.32" style="stroke: #000000; stroke-width: 0.8"/>
      </g>
     </g>
     <g id="text_6">
      <!-- 11:54:00 -->
      <g transform="translate(536.737807 270.918437)scale(0.1 -0.1)">
       <use xlink:href="#DejaVuSans-31"/>
       <use xlink:href="#DejaVuSans-31" x="63.623047"/>
       <use xlink:href="#DejaVuSans-3a" x="127.246094"/>
       <use xlink:href="#DejaVuSans-35" x="160.9375"/>
       <use xlink:href="#DejaVuSans-34" x="224.560547"/>
       <use xlink:href="#DejaVuSans-3a" x="288.183594"/>
       <use xlink:href="#DejaVuSans-30" x="321.875"/>
       <use xlink:href="#DejaVuSans-30" x="385.498047"/>
      </g>
     </g>
    </g>
    <g id="xtick_7">
     <g id="line2d_13">
      <path d="M 647.77589 256.32 
L 647.77589 34.56 
" clip-path="url(#pdaebb7d177)" style="fill: none; stroke: #b0b0b0; stroke-width: 0.8; stroke-linecap: square"/>
     </g>
     <g id="line2d_14">
      <g>
       <use xlink:href="#md533e36a7e" x="647.77589" y="256.32" style="stroke: #000000; stroke-width: 0.8"/>
      </g>
     </g>
     <g id="text_7">
      <!-- 11:54:05 -->
      <g transform="translate(625.31964 270.918437)scale(0.1 -0.1)">
       <use xlink:href="#DejaVuSans-31"/>
       <use xlink:href="#DejaVuSans-31" x="63.623047"/>
       <use xlink:href="#DejaVuSans-3a" x="127.246094"/>
       <use xlink:href="#DejaVuSans-35" x="160.9375"/>
       <use xlink:href="#DejaVuSans-34" x="224.560547"/>
       <use xlink:href="#DejaVuSans-3a" x="288.183594"/>
       <use xlink:href="#DejaVuSans-30" x="321.875"/>
       <use xlink:href="#DejaVuSans-35" x="385.498047"/>
      </g>
     </g>
    </g>
    <g id="text_8">
     <!-- Time -->
     <g transform="translate(356.766406 284.596563)scale(0.1 -0.1)">
      <defs>
       <path id="DejaVuSans-54" d="M -19 4666 
L 3928 4666 
L 3928 4134 
L 2272 4134 
L 2272 0 
L 1638 0 
L 1638 4134 
L -19 4134 
L -19 4666 
z
" transform="scale(0.015625)"/>
       <path id="DejaVuSans-69" d="M 603 3500 
L 1178 3500 
L 1178 0 
L 603 0 
L 603 3500 
z
M 603 4863 
L 1178 4863 
L 1178 4134 
L 603 4134 
L 603 4863 
z
" transform="scale(0.015625)"/>
       <path id="DejaVuSans-6d" d="M 3328 2828 
Q 3544 3216 3844 3400 
Q 4144 3584 4550 3584 
Q 5097 3584 5394 3201 
Q 5691 2819 5691 2113 
L 5691 0 
L 5113 0 
L 5113 2094 
Q 5113 2597 4934 2840 
Q 4756 3084 4391 3084 
Q 3944 3084 3684 2787 
Q 3425 2491 3425 1978 
L 3425 0 
L 2847 0 
L 2847 2094 
Q 2847 2600 2669 2842 
Q 2491 3084 2119 3084 
Q 1678 3084 1418 2786 
Q 1159 2488 1159 1978 
L 1159 0 
L 581 0 
L 581 3500 
L 1159 3500 
L 1159 2956 
Q 1356 3278 1631 3431 
Q 1906 3584 2284 3584 
Q 2666 3584 2933 3390 
Q 3200 3197 3328 2828 
z
" transform="scale(0.015625)"/>
       <path id="DejaVuSans-65" d="M 3597 1894 
L 3597 1613 
L 953 1613 
Q 991 1019 1311 708 
Q 1631 397 2203 397 
Q 2534 397 2845 478 
Q 3156 559 3463 722 
L 3463 178 
Q 3153 47 2828 -22 
Q 2503 -91 2169 -91 
Q 1331 -91 842 396 
Q 353 884 353 1716 
Q 353 2575 817 3079 
Q 1281 3584 2069 3584 
Q 2775 3584 3186 3129 
Q 3597 2675 3597 1894 
z
M 3022 2063 
Q 3016 2534 2758 2815 
Q 2500 3097 2075 3097 
Q 1594 3097 1305 2825 
Q 1016 2553 972 2059 
L 3022 2063 
z
" transform="scale(0.015625)"/>
      </defs>
      <use xlink:href="#DejaVuSans-54"/>
      <use xlink:href="#DejaVuSans-69" x="57.958984"/>
      <use xlink:href="#DejaVuSans-6d" x="85.742188"/>
      <use xlink:href="#DejaVuSans-65" x="183.154297"/>
     </g>
    </g>
   </g>
   <g id="matplotlib.axis_2">
    <g id="ytick_1">
     <g id="line2d_15">
      <path d="M 90 249.513805 
L 648 249.513805 
" clip-path="url(#pdaebb7d177)" style="fill: none; stroke: #b0b0b0; stroke-width: 0.8; stroke-linecap: square"/>
     </g>
     <g id="line2d_16">
      <defs>
       <path id="md556fd9827" d="M 0 0 
L -3.5 0 
" style="stroke: #000000; stroke-width: 0.8"/>
      </defs>
      <g>
       <use xlink:href="#md556fd9827" x="90" y="249.513805" style="stroke: #000000; stroke-width: 0.8"/>
      </g>
     </g>
     <g id="text_9">
      <!-- −2.0 -->
      <g transform="translate(58.717187 253.313024)scale(0.1 -0.1)">
       <defs>
        <path id="DejaVuSans-2212" d="M 678 2272 
L 4684 2272 
L 4684 1741 
L 678 1741 
L 678 2272 
z
" transform="scale(0.015625)"/>
        <path id="DejaVuSans-32" d="M 1228 531 
L 3431 531 
L 3431 0 
L 469 0 
L 469 531 
Q 828 903 1448 1529 
Q 2069 2156 2228 2338 
Q 2531 2678 2651 2914 
Q 2772 3150 2772 3378 
Q 2772 3750 2511 3984 
Q 2250 4219 1831 4219 
Q 1534 4219 1204 4116 
Q 875 4013 500 3803 
L 500 4441 
Q 881 4594 1212 4672 
Q 1544 4750 1819 4750 
Q 2544 4750 2975 4387 
Q 3406 4025 3406 3419 
Q 3406 3131 3298 2873 
Q 3191 2616 2906 2266 
Q 2828 2175 2409 1742 
Q 1991 1309 1228 531 
z
" transform="scale(0.015625)"/>
        <path id="DejaVuSans-2e" d="M 684 794 
L 1344 794 
L 1344 0 
L 684 0 
L 684 794 
z
" transform="scale(0.015625)"/>
       </defs>
       <use xlink:href="#DejaVuSans-2212"/>
       <use xlink:href="#DejaVuSans-32" x="83.789062"/>
       <use xlink:href="#DejaVuSans-2e" x="147.412109"/>
       <use xlink:href="#DejaVuSans-30" x="179.199219"/>
      </g>
     </g>
    </g>
    <g id="ytick_2">
     <g id="line2d_17">
      <path d="M 90 224.562922 
L 648 224.562922 
" clip-path="url(#pdaebb7d177)" style="fill: none; stroke: #b0b0b0; stroke-width: 0.8; stroke-linecap: square"/>
     </g>
     <g id="line2d_18">
      <g>
       <use xlink:href="#md556fd9827" x="90" y="224.562922" style="stroke: #000000; stroke-width: 0.8"/>
      </g>
     </g>
     <g id="text_10">
      <!-- −1.5 -->
      <g transform="translate(58.717187 228.362141)scale(0.1 -0.1)">
       <use xlink:href="#DejaVuSans-2212"/>
       <use xlink:href="#DejaVuSans-31" x="83.789062"/>
       <use xlink:href="#DejaVuSans-2e" x="147.412109"/>
       <use xlink:href="#DejaVuSans-35" x="179.199219"/>
      </g>
     </g>
    </g>
    <g id="ytick_3">
     <g id="line2d_19">
      <path d="M 90 199.612039 
L 648 199.612039 
" clip-path="url(#pdaebb7d177)" style="fill: none; stroke: #b0b0b0; stroke-width: 0.8; stroke-linecap: square"/>
     </g>
     <g id="line2d_20">
      <g>
       <use xlink:href="#md556fd9827" x="90" y="199.612039" style="stroke: #000000; stroke-width: 0.8"/>
      </g>
     </g>
     <g id="text_11">
      <!-- −1.0 -->
      <g transform="translate(58.717187 203.411258)scale(0.1 -0.1)">
       <use xlink:href="#DejaVuSans-2212"/>
       <use xlink:href="#DejaVuSans-31" x="83.789062"/>
       <use xlink:href="#DejaVuSans-2e" x="147.412109"/>
       <use xlink:href="#DejaVuSans-30" x="179.199219"/>
      </g>
     </g>
    </g>
    <g id="ytick_4">
     <g id="line2d_21">
      <path d="M 90 174.661156 
L 648 174.661156 
" clip-path="url(#pdaebb7d177)" style="fill: none; stroke: #b0b0b0; stroke-width: 0.8; stroke-linecap: square"/>
     </g>
     <g id="line2d_22">
      <g>
       <use xlink:href="#md556fd9827" x="90" y="174.661156" style="stroke: #000000; stroke-width: 0.8"/>
      </g>
     </g>
     <g id="text_12">
      <!-- −0.5 -->
      <g transform="translate(58.717187 178.460375)scale(0.1 -0.1)">
       <use xlink:href="#DejaVuSans-2212"/>
       <use xlink:href="#DejaVuSans-30" x="83.789062"/>
       <use xlink:href="#DejaVuSans-2e" x="147.412109"/>
       <use xlink:href="#DejaVuSans-35" x="179.199219"/>
      </g>
     </g>
    </g>
    <g id="ytick_5">
     <g id="line2d_23">
      <path d="M 90 149.710273 
L 648 149.710273 
" clip-path="url(#pdaebb7d177)" style="fill: none; stroke: #b0b0b0; stroke-width: 0.8; stroke-linecap: square"/>
     </g>
     <g id="line2d_24">
      <g>
       <use xlink:href="#md556fd9827" x="90" y="149.710273" style="stroke: #000000; stroke-width: 0.8"/>
      </g>
     </g>
     <g id="text_13">
      <!-- 0.0 -->
      <g transform="translate(67.096875 153.509491)scale(0.1 -0.1)">
       <use xlink:href="#DejaVuSans-30"/>
       <use xlink:href="#DejaVuSans-2e" x="63.623047"/>
       <use xlink:href="#DejaVuSans-30" x="95.410156"/>
      </g>
     </g>
    </g>
    <g id="ytick_6">
     <g id="line2d_25">
      <path d="M 90 124.75939 
L 648 124.75939 
" clip-path="url(#pdaebb7d177)" style="fill: none; stroke: #b0b0b0; stroke-width: 0.8; stroke-linecap: square"/>
     </g>
     <g id="line2d_26">
      <g>
       <use xlink:href="#md556fd9827" x="90" y="124.75939" style="stroke: #000000; stroke-width: 0.8"/>
      </g>
     </g>
     <g id="text_14">
      <!-- 0.5 -->
      <g transform="translate(67.096875 128.558608)scale(0.1 -0.1)">
       <use xlink:href="#DejaVuSans-30"/>
       <use xlink:href="#DejaVuSans-2e" x="63.623047"/>
       <use xlink:href="#DejaVuSans-35" x="95.410156"/>
      </g>
     </g>
    </g>
    <g id="ytick_7">
     <g id="line2d_27">
      <path d="M 90 99.808506 
L 648 99.808506 
" clip-path="url(#pdaebb7d177)" style="fill: none; stroke: #b0b0b0; stroke-width: 0.8; stroke-linecap: square"/>
     </g>
     <g id="line2d_28">
      <g>
       <use xlink:href="#md556fd9827" x="90" y="99.808506" style="stroke: #000000; stroke-width: 0.8"/>
      </g>
     </g>
     <g id="text_15">
      <!-- 1.0 -->
      <g transform="translate(67.096875 103.607725)scale(0.1 -0.1)">
       <use xlink:href="#DejaVuSans-31"/>
       <use xlink:href="#DejaVuSans-2e" x="63.623047"/>
       <use xlink:href="#DejaVuSans-30" x="95.410156"/>
      </g>
     </g>
    </g>
    <g id="ytick_8">
     <g id="line2d_29">
      <path d="M 90 74.857623 
L 648 74.857623 
" clip-path="url(#pdaebb7d177)" style="fill: none; stroke: #b0b0b0; stroke-width: 0.8; stroke-linecap: square"/>
     </g>
     <g id="line2d_30">
      <g>
       <use xlink:href="#md556fd9827" x="90" y="74.857623" style="stroke: #000000; stroke-width: 0.8"/>
      </g>
     </g>
     <g id="text_16">
      <!-- 1.5 -->
      <g transform="translate(67.096875 78.656842)scale(0.1 -0.1)">
       <use xlink:href="#DejaVuSans-31"/>
       <use xlink:href="#DejaVuSans-2e" x="63.623047"/>
       <use xlink:href="#DejaVuSans-35" x="95.410156"/>
      </g>
     </g>
    </g>
    <g id="ytick_9">
     <g id="line2d_31">
      <path d="M 90 49.90674 
L 648 49.90674 
" clip-path="url(#pdaebb7d177)" style="fill: none; stroke: #b0b0b0; stroke-width: 0.8; stroke-linecap: square"/>
     </g>
     <g id="line2d_32">
      <g>
       <use xlink:href="#md556fd9827" x="90" y="49.90674" style="stroke: #000000; stroke-width: 0.8"/>
      </g>
     </g>
     <g id="text_17">
      <!-- 2.0 -->
      <g transform="translate(67.096875 53.705959)scale(0.1 -0.1)">
       <use xlink:href="#DejaVuSans-32"/>
       <use xlink:href="#DejaVuSans-2e" x="63.623047"/>
       <use xlink:href="#DejaVuSans-30" x="95.410156"/>
      </g>
     </g>
    </g>
    <g id="text_18">
     <!-- Torque (Nm) -->
     <g transform="translate(52.6375 176.192344)rotate(-90)scale(0.1 -0.1)">
      <defs>
       <path id="DejaVuSans-6f" d="M 1959 3097 
Q 1497 3097 1228 2736 
Q 959 2375 959 1747 
Q 959 1119 1226 758 
Q 1494 397 1959 397 
Q 2419 397 2687 759 
Q 2956 1122 2956 1747 
Q 2956 2369 2687 2733 
Q 2419 3097 1959 3097 
z
M 1959 3584 
Q 2709 3584 3137 3096 
Q 3566 2609 3566 1747 
Q 3566 888 3137 398 
Q 2709 -91 1959 -91 
Q 1206 -91 779 398 
Q 353 888 353 1747 
Q 353 2609 779 3096 
Q 1206 3584 1959 3584 
z
" transform="scale(0.015625)"/>
       <path id="DejaVuSans-72" d="M 2631 2963 
Q 2534 3019 2420 3045 
Q 2306 3072 2169 3072 
Q 1681 3072 1420 2755 
Q 1159 2438 1159 1844 
L 1159 0 
L 581 0 
L 581 3500 
L 1159 3500 
L 1159 2956 
Q 1341 3275 1631 3429 
Q 1922 3584 2338 3584 
Q 2397 3584 2469 3576 
Q 2541 3569 2628 3553 
L 2631 2963 
z
" transform="scale(0.015625)"/>
       <path id="DejaVuSans-71" d="M 947 1747 
Q 947 1113 1208 752 
Q 1469 391 1925 391 
Q 2381 391 2643 752 
Q 2906 1113 2906 1747 
Q 2906 2381 2643 2742 
Q 2381 3103 1925 3103 
Q 1469 3103 1208 2742 
Q 947 2381 947 1747 
z
M 2906 525 
Q 2725 213 2448 61 
Q 2172 -91 1784 -91 
Q 1150 -91 751 415 
Q 353 922 353 1747 
Q 353 2572 751 3078 
Q 1150 3584 1784 3584 
Q 2172 3584 2448 3432 
Q 2725 3281 2906 2969 
L 2906 3500 
L 3481 3500 
L 3481 -1331 
L 2906 -1331 
L 2906 525 
z
" transform="scale(0.015625)"/>
       <path id="DejaVuSans-75" d="M 544 1381 
L 544 3500 
L 1119 3500 
L 1119 1403 
Q 1119 906 1312 657 
Q 1506 409 1894 409 
Q 2359 409 2629 706 
Q 2900 1003 2900 1516 
L 2900 3500 
L 3475 3500 
L 3475 0 
L 2900 0 
L 2900 538 
Q 2691 219 2414 64 
Q 2138 -91 1772 -91 
Q 1169 -91 856 284 
Q 544 659 544 1381 
z
M 1991 3584 
L 1991 3584 
z
" transform="scale(0.015625)"/>
       <path id="DejaVuSans-20" transform="scale(0.015625)"/>
       <path id="DejaVuSans-28" d="M 1984 4856 
Q 1566 4138 1362 3434 
Q 1159 2731 1159 2009 
Q 1159 1288 1364 580 
Q 1569 -128 1984 -844 
L 1484 -844 
Q 1016 -109 783 600 
Q 550 1309 550 2009 
Q 550 2706 781 3412 
Q 1013 4119 1484 4856 
L 1984 4856 
z
" transform="scale(0.015625)"/>
       <path id="DejaVuSans-4e" d="M 628 4666 
L 1478 4666 
L 3547 763 
L 3547 4666 
L 4159 4666 
L 4159 0 
L 3309 0 
L 1241 3903 
L 1241 0 
L 628 0 
L 628 4666 
z
" transform="scale(0.015625)"/>
       <path id="DejaVuSans-29" d="M 513 4856 
L 1013 4856 
Q 1481 4119 1714 3412 
Q 1947 2706 1947 2009 
Q 1947 1309 1714 600 
Q 1481 -109 1013 -844 
L 513 -844 
Q 928 -128 1133 580 
Q 1338 1288 1338 2009 
Q 1338 2731 1133 3434 
Q 928 4138 513 4856 
z
" transform="scale(0.015625)"/>
      </defs>
      <use xlink:href="#DejaVuSans-54"/>
      <use xlink:href="#DejaVuSans-6f" x="44.083984"/>
      <use xlink:href="#DejaVuSans-72" x="105.265625"/>
      <use xlink:href="#DejaVuSans-71" x="144.628906"/>
      <use xlink:href="#DejaVuSans-75" x="208.105469"/>
      <use xlink:href="#DejaVuSans-65" x="271.484375"/>
      <use xlink:href="#DejaVuSans-20" x="333.007812"/>
      <use xlink:href="#DejaVuSans-28" x="364.794922"/>
      <use xlink:href="#DejaVuSans-4e" x="403.808594"/>
      <use xlink:href="#DejaVuSans-6d" x="478.613281"/>
      <use xlink:href="#DejaVuSans-29" x="576.025391"/>
     </g>
    </g>
   </g>
   <g id="line2d_33">
    <path d="M 115.363632 139.069796 
L 116.42662 138.725917 
L 117.489605 138.893942 
L 118.552582 138.779595 
L 119.615562 139.398381 
L 120.678543 139.126987 
L 121.741528 139.090329 
L 122.804512 139.590706 
L 123.867493 138.814226 
L 124.930473 139.728418 
L 125.993458 139.147049 
L 127.056438 138.767054 
L 129.306416 139.450504 
L 130.3694 139.18827 
L 131.432381 139.04381 
L 132.495365 139.195942 
L 133.558346 139.150738 
L 134.62133 139.269153 
L 135.684311 139.042466 
L 136.747288 139.158573 
L 137.810272 139.040328 
L 138.87326 139.338606 
L 139.936237 137.88775 
L 140.999218 137.670513 
L 142.062199 136.376104 
L 143.125183 137.820358 
L 144.188168 134.532863 
L 145.251148 138.410349 
L 146.314129 139.421957 
L 147.359394 134.814036 
L 148.440094 135.183731 
L 149.503078 138.097179 
L 151.629036 137.043249 
L 152.69202 141.028451 
L 154.800266 141.679472 
L 155.863251 142.694214 
L 156.926231 144.589421 
L 157.989216 144.842705 
L 159.052197 146.301455 
L 160.115181 147.501009 
L 161.178162 147.828373 
L 162.258862 146.577971 
L 163.304127 147.839136 
L 164.367104 148.516739 
L 165.430092 149.543067 
L 166.493076 151.733212 
L 167.556057 150.481492 
L 168.636749 151.727013 
L 169.699734 152.459015 
L 170.762718 153.961571 
L 171.825699 154.050039 
L 172.88868 155.31635 
L 173.951664 155.687204 
L 175.014645 155.349329 
L 176.077629 157.855495 
L 177.140606 157.511302 
L 178.203587 158.039132 
L 179.266571 155.467687 
L 181.392536 156.301859 
L 182.455517 155.235971 
L 183.518501 155.955127 
L 184.581482 153.419014 
L 185.644463 155.135854 
L 186.707447 156.110467 
L 187.770432 157.877553 
L 188.833412 156.102093 
L 189.896389 155.155949 
L 190.95937 157.417668 
L 192.022354 152.458307 
L 193.085339 160.345364 
L 194.148319 161.688223 
L 195.2113 160.146144 
L 196.274284 166.017269 
L 197.337265 167.399765 
L 198.400249 170.548133 
L 199.46323 176.488428 
L 200.526215 177.950031 
L 201.589195 180.129 
L 202.63446 181.237873 
L 203.697437 181.212292 
L 204.778137 182.720767 
L 206.904102 189.133088 
L 207.967083 191.141437 
L 209.030067 190.329218 
L 210.093052 193.828381 
L 211.156033 193.379438 
L 212.219013 191.615297 
L 213.281998 202.803021 
L 214.344982 203.484101 
L 216.47094 217.665432 
L 218.596905 227.590075 
L 219.659889 233.223769 
L 221.785851 243.41187 
L 222.848835 241.73042 
L 223.911816 223.403301 
L 224.9748 216.005944 
L 226.037781 223.891228 
L 227.100765 225.423136 
L 228.163746 223.929306 
L 229.226723 218.781741 
L 230.289707 192.800576 
L 232.415672 201.64317 
L 233.478653 206.125796 
L 234.541634 201.842106 
L 235.604618 194.750732 
L 236.667603 185.241321 
L 238.793564 178.790172 
L 239.856541 182.174259 
L 240.919529 182.559209 
L 241.982513 182.506437 
L 243.04549 182.785745 
L 244.108471 181.786777 
L 245.171455 178.441539 
L 246.216721 164.998025 
L 247.297421 167.743749 
L 248.360401 167.433986 
L 249.423386 167.278322 
L 250.468647 168.934227 
L 251.549347 166.167431 
L 252.594612 165.533187 
L 253.675316 156.925677 
L 254.738297 160.565643 
L 255.801273 163.372678 
L 257.927238 149.686454 
L 258.972504 151.22453 
L 260.053204 149.932642 
L 261.116184 152.425202 
L 262.161449 152.004242 
L 263.224434 155.827857 
L 264.287418 158.490368 
L 265.368114 156.261022 
L 266.431091 156.620053 
L 267.49408 167.163074 
L 268.557064 170.233501 
L 269.620041 174.260892 
L 270.683022 160.038057 
L 271.746006 164.494191 
L 272.808987 167.618206 
L 273.871971 168.428144 
L 274.934952 165.0401 
L 277.060917 179.228415 
L 278.123898 184.282212 
L 279.186882 190.2586 
L 280.249866 206.813423 
L 281.312847 213.514995 
L 282.375824 224.839994 
L 283.438805 227.752656 
L 285.564774 246.24 
L 286.627754 235.953715 
L 287.690735 221.386391 
L 288.753716 190.754503 
L 289.8167 174.848342 
L 290.879684 166.89288 
L 291.942665 164.352003 
L 293.005642 152.007614 
L 294.06863 152.081881 
L 295.131607 151.089645 
L 296.194592 150.408022 
L 297.257572 152.496211 
L 298.320557 151.020529 
L 299.383537 153.035776 
L 300.446518 150.490001 
L 301.509502 152.762595 
L 302.572487 149.013781 
L 303.635468 151.244781 
L 304.698448 152.738157 
L 305.761425 150.65083 
L 306.824409 152.648321 
L 307.887398 152.394103 
L 308.950375 152.363554 
L 310.013355 149.82375 
L 311.076336 152.572195 
L 312.139324 150.914063 
L 313.202305 150.140896 
L 314.265285 150.602968 
L 315.328266 149.302368 
L 316.391251 152.24197 
L 319.580193 149.789638 
L 320.643181 150.019575 
L 321.706158 149.59636 
L 322.769142 149.924796 
L 323.814411 149.961786 
L 324.877388 150.137628 
L 325.958088 150.116424 
L 327.021069 149.264399 
L 328.084053 149.743056 
L 329.147038 149.802236 
L 330.210018 148.957319 
L 331.272999 148.634458 
L 332.318264 148.700019 
L 333.39896 149.673938 
L 334.461948 149.405174 
L 335.524925 147.796349 
L 336.587906 147.116093 
L 337.650887 148.082707 
L 338.713871 146.730295 
L 339.776855 147.34315 
L 340.822121 145.982971 
L 341.885101 146.449737 
L 342.948082 146.619925 
L 344.011066 146.474892 
L 345.074047 146.93931 
L 346.137032 147.545497 
L 347.217731 147.745928 
L 348.280708 147.213341 
L 349.343689 146.522343 
L 351.469658 147.144768 
L 353.595619 146.672531 
L 354.6586 145.961591 
L 355.721584 145.841445 
L 356.784569 145.985439 
L 357.847549 147.025863 
L 358.910526 146.971505 
L 359.973515 147.498685 
L 361.036499 145.54713 
L 362.099476 147.158059 
L 363.162457 146.975057 
L 366.351406 147.302344 
L 367.414387 146.00362 
L 368.477367 145.943134 
L 369.540352 146.815236 
L 370.603333 146.179012 
L 372.729294 146.035856 
L 373.792282 146.86833 
L 374.855259 146.941053 
L 375.91824 146.637776 
L 376.981224 145.932862 
L 379.107189 146.593258 
L 380.17017 147.246941 
L 381.23315 146.808743 
L 382.296135 146.128525 
L 383.359119 146.764686 
L 384.4221 146.855194 
L 385.485077 146.789376 
L 386.530346 146.987577 
L 387.611042 146.2293 
L 388.674026 146.274978 
L 389.737007 145.51701 
L 390.799988 145.115739 
L 391.845253 145.807929 
L 393.988937 146.526887 
L 395.051918 145.987908 
L 396.114902 146.095251 
L 397.177883 145.810445 
L 398.24086 145.932771 
L 399.303844 146.578015 
L 400.366833 145.333963 
L 401.42981 145.944977 
L 402.49279 144.898579 
L 403.555771 145.102128 
L 404.618755 144.848269 
L 405.68174 145.04985 
L 406.74472 143.975104 
L 407.807701 145.093639 
L 408.870686 144.702047 
L 409.93367 144.889575 
L 410.996651 145.663968 
L 412.059628 145.2824 
L 413.228909 145.885209 
L 415.354874 144.543509 
L 416.311558 145.135466 
L 417.374538 145.107539 
L 418.437523 144.404783 
L 419.500504 145.097023 
L 421.626469 144.068808 
L 422.689453 144.667968 
L 423.752434 145.52271 
L 424.815411 144.445989 
L 425.878395 145.426217 
L 426.941383 145.238598 
L 428.00436 145.719171 
L 429.067341 144.793012 
L 430.130322 144.560342 
L 431.193306 145.017665 
L 432.25629 144.783816 
L 433.319271 145.147386 
L 434.488548 145.081133 
L 435.551529 145.60334 
L 436.614513 145.100132 
L 437.677502 145.15785 
L 438.740479 144.738643 
L 439.803459 145.705433 
L 440.866444 146.036675 
L 441.929424 145.471655 
L 442.992409 144.388194 
L 444.055389 145.296506 
L 445.118374 145.334584 
L 446.181355 144.708878 
L 448.30732 145.15042 
L 449.370304 145.270715 
L 450.433281 145.61088 
L 451.496262 145.077424 
L 454.685211 144.889009 
L 455.748192 144.468544 
L 456.811172 145.004296 
L 457.874149 144.943823 
L 458.937138 145.044666 
L 461.063099 145.957239 
L 462.12608 145.70961 
L 463.189064 145.097222 
L 464.252045 146.036729 
L 465.315029 145.365751 
L 466.37801 145.428297 
L 467.440994 145.132042 
L 468.503975 144.954267 
L 470.62994 144.943467 
L 471.692924 145.923623 
L 472.755905 145.261524 
L 473.818882 145.030893 
L 474.881863 145.049684 
L 475.944847 145.258486 
L 477.007832 145.704798 
L 478.070812 145.131364 
L 480.196774 146.195234 
L 481.259758 146.425779 
L 483.385723 144.901766 
L 484.4487 142.794239 
L 485.511688 146.141494 
L 486.574673 144.935338 
L 487.63765 146.286535 
L 488.70063 147.14844 
L 489.763615 145.345029 
L 490.826595 146.819399 
L 491.88958 145.886267 
L 492.95256 147.108939 
L 494.015545 146.139509 
L 495.078526 146.437021 
L 496.141506 146.426972 
L 497.204491 145.514647 
L 498.267475 147.029507 
L 499.330456 146.103812 
L 500.393433 146.659749 
L 501.456413 146.969268 
L 502.519398 147.683958 
L 503.582382 146.385514 
L 504.645363 146.268575 
L 506.771324 146.528119 
L 507.834309 147.676244 
L 508.897293 146.91258 
L 509.960274 146.757044 
L 511.023251 149.475286 
L 512.086239 147.991254 
L 513.149216 150.174838 
L 514.2122 149.182191 
L 515.275181 150.238662 
L 516.338165 148.921845 
L 517.401146 149.248018 
L 518.464127 149.300392 
L 519.527111 148.622791 
L 520.590096 149.713904 
L 521.653076 148.900889 
L 522.716057 149.21468 
L 523.779034 149.834992 
L 524.842022 149.430665 
L 525.905006 150.125088 
L 526.967983 149.548248 
L 528.030964 149.435005 
L 529.093948 150.377994 
L 530.156929 149.77954 
L 531.219913 150.367947 
L 532.282894 149.19274 
L 533.345875 150.552734 
L 534.408859 151.277842 
L 535.471844 150.144071 
L 536.534824 150.662211 
L 537.597801 152.552165 
L 539.723766 149.293349 
L 540.786755 151.298966 
L 541.849731 154.260504 
L 542.912716 152.419681 
L 543.975697 151.253218 
L 545.038677 154.134875 
L 546.101662 155.719747 
L 547.164646 151.355502 
L 548.227627 155.660946 
L 549.290607 153.41774 
L 550.353584 152.080447 
L 551.416573 152.23481 
L 552.479557 153.213507 
L 554.605515 152.926603 
L 555.668499 152.184689 
L 556.73148 153.065427 
L 557.794464 153.153411 
L 558.857445 152.050547 
L 559.920425 153.134265 
L 560.98341 153.955243 
L 562.046391 152.889574 
L 565.23534 152.63102 
L 566.298317 152.8664 
L 567.361298 152.388612 
L 568.424282 152.123632 
L 569.487267 152.460008 
L 571.613228 151.993476 
L 572.676208 152.487711 
L 573.739193 152.354745 
L 575.865158 152.290131 
L 576.928135 152.486253 
L 577.991123 152.411648 
L 579.0541 152.203553 
L 580.117085 152.126044 
L 581.180065 152.660892 
L 582.24305 152.589969 
L 583.30603 152.967049 
L 584.369015 152.342658 
L 585.431995 152.668783 
L 586.494976 152.726072 
L 587.557961 152.394322 
L 588.620941 151.521157 
L 589.683926 151.47599 
L 590.746902 151.145061 
L 591.809891 151.493091 
L 592.872868 150.731337 
L 593.935848 150.773945 
L 594.998833 150.65013 
L 596.061817 151.446434 
L 597.124798 150.996046 
L 598.187778 151.037423 
L 599.250759 151.487011 
L 600.313744 151.133118 
L 601.376728 151.077562 
L 602.439709 150.658148 
L 603.502686 151.116539 
L 604.565674 151.092854 
L 605.628651 150.156766 
L 606.691635 150.157309 
L 607.754616 150.821895 
L 608.8176 150.277905 
L 609.880581 150.296859 
L 610.943562 149.908397 
L 612.006546 149.904286 
L 614.132511 150.274069 
L 615.195492 150.331284 
L 616.258469 149.785303 
L 617.321457 150.189069 
L 618.384441 149.936119 
L 619.447418 150.386492 
L 620.510399 150.460794 
L 621.57338 150.340779 
L 622.636364 150.717354 
L 622.636364 150.717354 
" clip-path="url(#pdaebb7d177)" style="fill: none; stroke: #800080; stroke-width: 2.5; stroke-linecap: square"/>
   </g>
   <g id="line2d_34">
    <path d="M 115.363632 139.541275 
L 116.42662 139.222851 
L 117.489605 139.068085 
L 118.552582 139.359275 
L 119.615562 139.312836 
L 120.678543 139.383482 
L 121.741528 139.033237 
L 122.804512 139.127961 
L 123.867493 139.596833 
L 124.930473 139.334317 
L 125.993458 139.5348 
L 127.056438 139.196023 
L 128.243435 139.666868 
L 129.306416 139.547057 
L 130.3694 138.971999 
L 131.432381 139.384719 
L 132.495365 139.519457 
L 133.558346 139.819176 
L 134.62133 139.846568 
L 135.684311 140.076455 
L 136.747288 139.619204 
L 137.810272 140.413937 
L 139.936237 141.66047 
L 140.999218 146.702682 
L 142.062199 149.305334 
L 143.125183 151.215717 
L 144.188168 151.959168 
L 145.251148 158.099717 
L 146.314129 160.624295 
L 147.359394 160.656439 
L 148.440094 159.551285 
L 149.503078 161.425633 
L 150.566055 161.341474 
L 151.629036 162.2445 
L 152.69202 163.476359 
L 153.755001 163.686909 
L 154.800266 163.094241 
L 155.863251 164.334495 
L 156.926231 166.333336 
L 157.989216 167.12499 
L 159.052197 169.288812 
L 160.115181 168.127106 
L 161.178162 170.141162 
L 162.258862 173.455968 
L 163.304127 170.504173 
L 164.367104 170.845426 
L 165.430092 170.105389 
L 166.493076 170.949661 
L 168.636749 172.180151 
L 169.699734 175.395599 
L 170.762718 174.178399 
L 171.825699 176.903956 
L 172.88868 177.005823 
L 173.951664 176.233753 
L 175.014645 175.71535 
L 176.077629 177.316947 
L 177.140606 178.444749 
L 178.203587 176.70787 
L 179.266571 176.070241 
L 180.329552 175.594004 
L 181.392536 173.901548 
L 182.455517 174.417893 
L 183.518501 173.519629 
L 184.581482 173.140877 
L 185.644463 172.973886 
L 186.707447 174.98943 
L 187.770432 173.181273 
L 188.833412 172.432399 
L 189.896389 171.274331 
L 190.95937 179.379935 
L 193.085339 176.13053 
L 194.148319 177.106288 
L 195.2113 179.584021 
L 196.274284 178.627839 
L 197.337265 176.46271 
L 198.400249 179.79789 
L 199.46323 178.339699 
L 200.526215 179.587325 
L 201.589195 178.512769 
L 202.63446 180.127956 
L 203.697437 179.282629 
L 204.778137 181.607133 
L 205.841122 185.766121 
L 206.904102 185.855875 
L 207.967083 192.214799 
L 210.093052 192.306684 
L 211.156033 191.291126 
L 212.219013 195.508436 
L 213.281998 204.570903 
L 214.344982 205.111338 
L 215.407963 206.580352 
L 216.47094 219.315817 
L 218.596905 229.229934 
L 219.659889 232.883522 
L 220.72287 239.578453 
L 221.785851 242.622385 
L 222.848835 237.693119 
L 223.911816 229.047462 
L 224.9748 223.415995 
L 226.037781 225.394559 
L 227.100765 232.955269 
L 228.163746 229.054907 
L 229.226723 222.154331 
L 230.289707 197.432095 
L 231.352688 200.675069 
L 232.415672 208.941283 
L 233.478653 210.502536 
L 234.541634 208.406879 
L 235.604618 198.680665 
L 236.667603 193.298822 
L 237.730583 192.212492 
L 238.793564 187.579591 
L 239.856541 188.759501 
L 240.919529 189.640364 
L 241.982513 189.820797 
L 243.04549 189.4933 
L 244.108471 189.349915 
L 245.171455 185.655408 
L 246.216721 176.798379 
L 247.297421 178.362966 
L 248.360401 180.156265 
L 249.423386 178.368776 
L 250.468647 176.31301 
L 251.549347 173.299045 
L 252.594612 169.10326 
L 253.675316 161.047996 
L 254.738297 168.198487 
L 255.801273 170.516502 
L 256.864254 164.75834 
L 257.927238 165.904993 
L 258.972504 165.399238 
L 260.053204 165.05758 
L 261.116184 164.304997 
L 262.161449 164.983325 
L 263.224434 158.713282 
L 264.287418 156.315841 
L 265.368114 157.646071 
L 266.431091 164.038437 
L 267.49408 167.415001 
L 268.557064 173.153856 
L 269.620041 176.591877 
L 270.683022 169.567768 
L 271.746006 165.20664 
L 272.808987 168.989616 
L 273.871971 167.590063 
L 274.934952 162.965622 
L 275.997936 171.762188 
L 277.060917 178.418879 
L 278.123898 182.51878 
L 279.186882 189.872865 
L 281.312847 211.257351 
L 282.375824 220.761298 
L 283.438805 222.879009 
L 284.501789 232.861385 
L 285.564774 240.114861 
L 286.627754 235.598218 
L 287.690735 222.572309 
L 288.753716 193.581446 
L 290.879684 172.334486 
L 291.942665 167.773837 
L 293.005642 158.262567 
L 294.06863 153.759036 
L 295.131607 154.502382 
L 296.194592 155.861436 
L 297.257572 155.496451 
L 298.320557 156.428813 
L 299.383537 154.890235 
L 302.572487 155.553776 
L 303.635468 156.077515 
L 304.698448 156.847163 
L 305.761425 158.243518 
L 306.824409 154.308872 
L 307.887398 154.52078 
L 308.950375 154.862447 
L 310.013355 157.807354 
L 311.076336 155.106815 
L 312.139324 158.883048 
L 313.202305 157.842108 
L 314.265285 156.537716 
L 315.328266 156.457537 
L 316.391251 155.782488 
L 317.454235 156.647663 
L 318.517216 156.549335 
L 320.643181 155.89141 
L 321.706158 156.321175 
L 322.769142 156.537523 
L 324.877388 158.866275 
L 327.021069 157.386196 
L 328.084053 158.073872 
L 329.147038 157.382712 
L 330.210018 156.942884 
L 331.272999 157.756797 
L 332.318264 157.812674 
L 333.39896 157.543651 
L 334.461948 158.151897 
L 335.524925 158.422 
L 336.587906 157.828461 
L 337.650887 158.909153 
L 338.713871 158.441109 
L 339.776855 157.21146 
L 341.885101 158.739984 
L 342.948082 158.65769 
L 344.011066 157.993639 
L 345.074047 158.749525 
L 346.137032 159.17081 
L 347.217731 159.392264 
L 348.280708 158.246035 
L 349.343689 158.028748 
L 351.469658 159.73464 
L 352.532639 159.743235 
L 353.595619 159.133016 
L 354.6586 159.548802 
L 356.784569 161.377296 
L 357.847549 160.581918 
L 358.910526 161.155978 
L 359.973515 161.194732 
L 361.036499 161.084744 
L 363.162457 160.246378 
L 364.225437 160.978942 
L 365.288422 160.915183 
L 366.351406 160.968616 
L 367.414387 160.641959 
L 368.477367 160.548539 
L 369.540352 161.403138 
L 371.666317 160.909618 
L 372.729294 161.373347 
L 374.855259 162.707281 
L 375.91824 161.823153 
L 376.981224 161.462768 
L 379.107189 161.853885 
L 380.17017 161.818799 
L 381.23315 162.021221 
L 382.296135 161.833725 
L 383.359119 162.859749 
L 384.4221 162.784086 
L 385.485077 162.432102 
L 386.530346 162.52387 
L 387.611042 162.180392 
L 388.674026 162.178458 
L 389.737007 161.328121 
L 390.799988 163.314242 
L 391.845253 162.799496 
L 392.925953 162.636378 
L 393.988937 163.043222 
L 395.051918 163.632092 
L 396.114902 162.428025 
L 397.177883 162.51217 
L 398.24086 161.368708 
L 400.366833 161.715649 
L 401.42981 161.242465 
L 402.49279 161.654302 
L 403.555771 161.154955 
L 404.618755 160.423814 
L 405.68174 160.275263 
L 406.74472 161.340104 
L 407.807701 161.038916 
L 408.870686 160.283023 
L 409.93367 161.555309 
L 410.996651 161.591718 
L 413.228909 161.243136 
L 414.185593 159.911425 
L 415.354874 159.738156 
L 416.311558 160.290684 
L 417.374538 159.785249 
L 419.500504 160.595654 
L 420.563488 163.878409 
L 421.626469 164.52977 
L 422.689453 163.579122 
L 423.752434 163.287731 
L 424.815411 164.364779 
L 425.878395 164.661024 
L 428.00436 163.219736 
L 429.067341 163.734917 
L 430.130322 163.333496 
L 431.193306 163.312838 
L 432.25629 163.889904 
L 433.319271 163.619767 
L 434.488548 163.451078 
L 436.614513 163.538807 
L 437.677502 163.646972 
L 438.740479 163.104472 
L 440.866444 163.643012 
L 441.929424 162.894933 
L 444.055389 162.771554 
L 445.118374 163.419008 
L 446.181355 163.775832 
L 447.244331 162.537644 
L 449.370304 162.538162 
L 450.433281 162.286774 
L 451.496262 162.998512 
L 452.559242 162.33327 
L 453.622227 162.047312 
L 454.685211 162.388058 
L 455.748192 163.20133 
L 456.811172 163.009443 
L 457.874149 162.520379 
L 458.937138 162.521433 
L 460.000122 161.856527 
L 461.063099 162.357207 
L 462.12608 162.411675 
L 463.189064 161.52001 
L 464.252045 162.025736 
L 465.315029 161.891552 
L 466.37801 162.700631 
L 467.440994 162.746587 
L 468.503975 162.449383 
L 469.566956 163.044203 
L 470.62994 162.369891 
L 471.692924 161.938183 
L 472.755905 162.020176 
L 473.818882 163.178547 
L 474.881863 162.339292 
L 475.944847 161.868692 
L 477.007832 161.979089 
L 478.070812 162.797169 
L 479.133793 161.945925 
L 480.196774 161.424888 
L 481.259758 161.62676 
L 482.322742 162.667698 
L 483.385723 162.480162 
L 484.4487 160.699026 
L 485.511688 160.905646 
L 486.574673 160.644242 
L 487.63765 161.242176 
L 488.70063 161.383339 
L 489.763615 160.845419 
L 490.826595 161.417693 
L 491.88958 161.500891 
L 492.95256 159.707795 
L 494.015545 159.274332 
L 495.078526 158.309259 
L 496.141506 158.548406 
L 498.267475 157.889766 
L 499.330456 158.317546 
L 500.393433 157.994292 
L 501.456413 157.510679 
L 502.519398 156.426335 
L 503.582382 157.525371 
L 504.645363 156.935396 
L 505.708344 157.310392 
L 506.771324 157.456139 
L 507.834309 156.932044 
L 508.897293 155.845378 
L 509.960274 156.156629 
L 511.023251 156.103638 
L 512.086239 157.646934 
L 514.2122 156.197001 
L 515.275181 153.553552 
L 516.338165 156.649918 
L 517.401146 155.753093 
L 518.464127 155.655059 
L 519.527111 157.509 
L 520.590096 156.239036 
L 521.653076 157.220781 
L 522.716057 157.118442 
L 523.779034 155.779665 
L 524.842022 155.740762 
L 525.905006 156.08605 
L 526.967983 156.225032 
L 528.030964 156.118845 
L 529.093948 156.878125 
L 530.156929 156.542268 
L 531.219913 156.330867 
L 532.282894 156.508873 
L 533.345875 155.201105 
L 534.408859 156.024342 
L 535.471844 156.401738 
L 536.534824 154.923728 
L 537.597801 152.874358 
L 538.660789 153.136708 
L 539.723766 156.022236 
L 540.786755 151.839876 
L 541.849731 152.142076 
L 542.912716 152.717892 
L 543.975697 152.996071 
L 545.038677 151.419589 
L 546.101662 151.887354 
L 547.164646 155.184409 
L 548.227627 151.2126 
L 549.290607 154.623903 
L 550.353584 155.574608 
L 551.416573 155.563599 
L 552.479557 154.542014 
L 553.542534 155.753581 
L 554.605515 155.433713 
L 555.668499 155.848876 
L 556.73148 154.351963 
L 557.794464 155.620246 
L 558.857445 155.393369 
L 559.920425 154.81001 
L 560.98341 153.897291 
L 562.046391 154.28344 
L 563.109375 155.665128 
L 564.172352 155.685934 
L 566.298317 156.04636 
L 567.361298 156.828601 
L 568.424282 156.3825 
L 570.550247 156.516458 
L 571.613228 155.888461 
L 572.676208 156.477181 
L 573.739193 156.2425 
L 574.802177 156.530721 
L 575.865158 156.040843 
L 576.928135 156.675204 
L 577.991123 156.452898 
L 580.117085 157.03382 
L 581.180065 157.130078 
L 582.24305 156.626069 
L 583.30603 156.450497 
L 584.369015 157.053292 
L 585.431995 156.554192 
L 586.494976 155.451949 
L 587.557961 155.975961 
L 588.620941 155.918048 
L 589.683926 156.204471 
L 590.746902 155.425778 
L 591.809891 155.711205 
L 592.872868 154.891533 
L 593.935848 154.724914 
L 594.998833 155.678835 
L 596.061817 155.315798 
L 597.124798 155.353316 
L 598.187778 155.955257 
L 599.250759 155.395449 
L 600.313744 155.292301 
L 601.376728 154.662859 
L 602.439709 155.463772 
L 603.502686 154.928174 
L 604.565674 155.739687 
L 605.628651 154.989844 
L 606.691635 154.680706 
L 607.754616 154.770377 
L 608.8176 156.177388 
L 609.880581 156.361543 
L 610.943562 156.069477 
L 612.006546 156.252257 
L 613.069527 155.892281 
L 614.132511 156.226674 
L 615.195492 156.726613 
L 616.258469 157.350709 
L 617.321457 156.728743 
L 619.447418 156.040026 
L 620.510399 157.069564 
L 621.57338 156.594804 
L 622.636364 156.583026 
L 622.636364 156.583026 
" clip-path="url(#pdaebb7d177)" style="fill: none; stroke: #dc143c; stroke-width: 2.5; stroke-linecap: square"/>
   </g>
   <g id="line2d_35">
    <path d="M 115.363632 151.594288 
L 116.42662 151.679035 
L 117.489605 151.557961 
L 121.741528 151.622097 
L 122.804512 151.623665 
L 123.867493 151.316618 
L 124.930473 151.12833 
L 127.056438 151.489242 
L 128.243435 151.270119 
L 132.495365 151.337835 
L 133.558346 151.089411 
L 134.62133 151.19488 
L 135.684311 150.973564 
L 138.87326 150.937613 
L 139.936237 151.481826 
L 140.999218 150.868297 
L 142.062199 150.672892 
L 143.125183 149.287538 
L 144.188168 149.098298 
L 145.251148 149.606829 
L 146.314129 151.154794 
L 147.359394 153.051324 
L 148.440094 154.316254 
L 149.503078 152.529691 
L 150.566055 151.006461 
L 151.629036 150.930907 
L 152.69202 150.251399 
L 153.755001 150.373479 
L 154.800266 149.82131 
L 155.863251 148.940042 
L 156.926231 147.512323 
L 157.989216 146.798418 
L 159.052197 146.373688 
L 160.115181 146.136923 
L 161.178162 146.094331 
L 162.258862 145.165271 
L 163.304127 144.712268 
L 164.367104 145.015846 
L 166.493076 143.456311 
L 168.636749 143.014677 
L 169.699734 141.056923 
L 170.762718 141.286383 
L 171.825699 140.513983 
L 172.88868 139.913371 
L 173.951664 139.792166 
L 175.014645 140.175313 
L 176.077629 139.33955 
L 177.140606 139.601553 
L 178.203587 139.734314 
L 179.266571 140.723595 
L 180.329552 139.852808 
L 181.392536 141.473389 
L 182.455517 142.022973 
L 183.518501 142.776505 
L 184.581482 142.779716 
L 185.644463 143.314068 
L 186.707447 141.709916 
L 187.770432 143.92912 
L 189.896389 145.271094 
L 190.95937 147.731952 
L 192.022354 145.931448 
L 193.085339 144.738604 
L 194.148319 145.146285 
L 195.2113 144.158626 
L 196.274284 142.368376 
L 197.337265 141.64531 
L 198.400249 141.33636 
L 199.46323 145.353198 
L 200.526215 143.044864 
L 202.63446 143.102288 
L 203.697437 142.507719 
L 204.778137 143.136955 
L 205.841122 142.764188 
L 206.904102 142.947593 
L 207.967083 142.484366 
L 209.030067 143.208451 
L 210.093052 143.092847 
L 211.156033 142.632623 
L 212.219013 146.790864 
L 213.281998 145.772117 
L 214.344982 145.246409 
L 215.407963 149.241543 
L 216.47094 146.365844 
L 217.53392 145.022439 
L 218.596905 144.933219 
L 219.659889 145.659167 
L 222.848835 144.053599 
L 223.911816 148.786214 
L 224.9748 146.539377 
L 226.037781 148.00287 
L 227.100765 146.040159 
L 228.163746 145.713523 
L 229.226723 148.110446 
L 230.289707 145.885437 
L 231.352688 146.061652 
L 232.415672 145.352086 
L 233.478653 147.013781 
L 234.541634 146.049754 
L 235.604618 147.678757 
L 236.667603 145.824159 
L 237.730583 143.708234 
L 238.793564 144.631254 
L 239.856541 144.030548 
L 240.919529 145.976454 
L 241.982513 146.089956 
L 243.04549 146.474742 
L 244.108471 146.21446 
L 245.171455 145.466337 
L 246.216721 148.181653 
L 247.297421 147.965828 
L 248.360401 148.451284 
L 249.423386 148.651137 
L 251.549347 147.680718 
L 252.594612 147.67044 
L 253.675316 150.469532 
L 254.738297 150.006526 
L 255.801273 149.85104 
L 256.864254 151.156229 
L 257.927238 149.894288 
L 258.972504 149.193886 
L 260.053204 149.315574 
L 261.116184 149.046999 
L 262.161449 149.069259 
L 263.224434 149.835953 
L 264.287418 149.485868 
L 265.368114 150.911497 
L 266.431091 148.951125 
L 267.49408 149.382577 
L 268.557064 147.601133 
L 269.620041 147.505682 
L 270.683022 148.057127 
L 271.746006 145.843338 
L 272.808987 146.790647 
L 273.871971 145.888866 
L 274.934952 148.408743 
L 275.997936 145.97216 
L 277.060917 146.228876 
L 278.123898 147.480196 
L 279.186882 146.70395 
L 280.249866 148.279419 
L 281.312847 145.651484 
L 282.375824 146.928813 
L 284.501789 146.130834 
L 285.564774 147.185626 
L 286.627754 144.232752 
L 287.690735 146.013827 
L 288.753716 147.144528 
L 289.8167 147.364911 
L 290.879684 146.021113 
L 293.005642 147.045197 
L 294.06863 148.769804 
L 295.131607 149.701283 
L 296.194592 150.244149 
L 297.257572 151.003747 
L 298.320557 150.592483 
L 299.383537 148.976566 
L 300.446518 148.877658 
L 301.509502 148.644181 
L 302.572487 148.86788 
L 304.698448 148.513404 
L 305.761425 149.19492 
L 306.824409 149.032196 
L 307.887398 149.301536 
L 310.013355 148.544916 
L 311.076336 148.692031 
L 312.139324 145.755486 
L 314.265285 145.215092 
L 315.328266 145.999222 
L 316.391251 146.332144 
L 317.454235 146.456528 
L 318.517216 146.383412 
L 320.643181 145.701967 
L 321.706158 145.617376 
L 322.769142 145.916442 
L 323.814411 145.608291 
L 324.877388 145.659553 
L 327.021069 145.366844 
L 330.210018 145.669609 
L 332.318264 145.26592 
L 333.39896 145.354911 
L 334.461948 144.891662 
L 337.650887 144.293301 
L 339.776855 144.812486 
L 340.822121 144.605557 
L 341.885101 144.185778 
L 346.137032 144.352192 
L 347.217731 144.569133 
L 348.280708 144.470022 
L 349.343689 144.780167 
L 350.406673 144.592252 
L 352.532639 144.793257 
L 354.6586 144.592543 
L 355.721584 144.469394 
L 356.784569 144.673148 
L 358.910526 145.778866 
L 359.973515 145.774625 
L 361.036499 146.289915 
L 362.099476 146.366329 
L 363.162457 146.664277 
L 364.225437 146.380017 
L 365.288422 146.394356 
L 366.351406 146.111893 
L 367.414387 146.083112 
L 368.477367 146.206124 
L 369.540352 146.110128 
L 370.603333 146.339362 
L 371.666317 146.332485 
L 372.729294 146.586118 
L 373.792282 146.359022 
L 378.044209 146.291084 
L 380.17017 146.449547 
L 387.611042 146.445636 
L 388.674026 146.660702 
L 390.799988 146.332921 
L 391.845253 147.057104 
L 393.988937 147.040351 
L 396.114902 146.963356 
L 397.177883 147.191076 
L 398.24086 147.226766 
L 399.303844 147.454021 
L 401.42981 147.122455 
L 403.555771 147.147802 
L 404.618755 147.338447 
L 407.807701 147.13854 
L 408.870686 147.303148 
L 409.93367 147.18671 
L 410.996651 147.253313 
L 412.059628 147.432473 
L 413.228909 147.447036 
L 415.354874 147.677103 
L 416.311558 147.399725 
L 418.437523 147.313115 
L 419.500504 147.052186 
L 420.563488 146.421998 
L 421.626469 146.073877 
L 422.689453 146.46375 
L 423.752434 146.631642 
L 425.878395 146.276826 
L 426.941383 146.499164 
L 428.00436 146.548997 
L 429.067341 146.369673 
L 430.130322 146.59569 
L 431.193306 146.516473 
L 432.25629 146.558595 
L 433.319271 146.482274 
L 435.551529 146.609104 
L 436.614513 146.538156 
L 437.677502 146.778784 
L 438.740479 146.651127 
L 439.803459 146.718011 
L 440.866444 146.549356 
L 441.929424 146.749368 
L 442.992409 146.790466 
L 444.055389 146.951522 
L 445.118374 146.653223 
L 448.30732 146.792182 
L 449.370304 146.489725 
L 450.433281 146.585986 
L 451.496262 146.501391 
L 454.685211 146.688821 
L 455.748192 146.474662 
L 460.000122 146.811592 
L 463.189064 146.44709 
L 465.315029 146.494436 
L 466.37801 146.30234 
L 467.440994 146.358467 
L 468.503975 146.572204 
L 469.566956 146.450875 
L 470.62994 146.581436 
L 471.692924 146.416744 
L 472.755905 146.432196 
L 473.818882 146.260431 
L 477.007832 146.567717 
L 478.070812 146.320101 
L 479.133793 146.650297 
L 480.196774 146.454278 
L 482.322742 146.315317 
L 483.385723 146.468454 
L 484.4487 146.484826 
L 485.511688 146.887925 
L 486.574673 146.30155 
L 488.70063 146.716247 
L 489.763615 146.683491 
L 494.015545 147.051476 
L 495.078526 146.756059 
L 497.204491 146.710743 
L 499.330456 146.499605 
L 502.519398 146.736658 
L 503.582382 146.536621 
L 504.645363 146.519899 
L 505.708344 146.698406 
L 506.771324 146.368855 
L 507.834309 146.383076 
L 509.960274 145.708408 
L 511.023251 145.32534 
L 515.275181 146.05133 
L 517.401146 145.539662 
L 518.464127 145.756619 
L 519.527111 145.522648 
L 522.716057 145.977622 
L 523.779034 146.227345 
L 526.967983 146.206376 
L 528.030964 146.57429 
L 529.093948 146.428324 
L 530.156929 146.59456 
L 531.219913 146.946849 
L 532.282894 147.141825 
L 533.345875 147.452731 
L 534.408859 147.25243 
L 535.471844 147.420947 
L 536.534824 147.751334 
L 538.660789 147.537769 
L 539.723766 147.205087 
L 540.786755 147.644412 
L 542.912716 147.434539 
L 546.101662 146.595222 
L 547.164646 146.12309 
L 548.227627 146.400481 
L 549.290607 146.151413 
L 550.353584 146.063314 
L 551.416573 145.659783 
L 553.542534 145.550653 
L 555.668499 145.278367 
L 556.73148 145.404045 
L 557.794464 145.137159 
L 558.857445 145.616584 
L 559.920425 145.302898 
L 560.98341 145.24916 
L 562.046391 145.321454 
L 563.109375 145.125084 
L 568.424282 145.251113 
L 570.550247 145.209578 
L 571.613228 145.240994 
L 573.739193 145.041248 
L 575.865158 145.062283 
L 576.928135 144.915049 
L 581.180065 144.901585 
L 582.24305 145.080258 
L 583.30603 145.068149 
L 589.683926 145.782213 
L 590.746902 146.110363 
L 591.809891 146.090632 
L 592.872868 146.348808 
L 593.935848 146.393299 
L 596.061817 145.830662 
L 597.124798 146.063625 
L 598.187778 145.991147 
L 599.250759 146.03915 
L 601.376728 146.391738 
L 602.439709 146.307877 
L 603.502686 146.394216 
L 604.565674 146.079969 
L 606.691635 146.216678 
L 607.754616 146.018498 
L 608.8176 145.680953 
L 609.880581 145.60664 
L 610.943562 145.795647 
L 615.195492 145.626363 
L 616.258469 145.423453 
L 618.384441 145.790434 
L 619.447418 145.805618 
L 620.510399 145.594281 
L 622.636364 145.634005 
L 622.636364 145.634005 
" clip-path="url(#pdaebb7d177)" style="fill: none; stroke: #008b8b; stroke-width: 2.5; stroke-linecap: square"/>
   </g>
   <g id="patch_3">
    <path d="M 90 256.32 
L 90 34.56 
" style="fill: none; stroke: #000000; stroke-width: 0.8; stroke-linejoin: miter; stroke-linecap: square"/>
   </g>
   <g id="patch_4">
    <path d="M 648 256.32 
L 648 34.56 
" style="fill: none; stroke: #000000; stroke-width: 0.8; stroke-linejoin: miter; stroke-linecap: square"/>
   </g>
   <g id="patch_5">
    <path d="M 90 256.32 
L 648 256.32 
" style="fill: none; stroke: #000000; stroke-width: 0.8; stroke-linejoin: miter; stroke-linecap: square"/>
   </g>
   <g id="patch_6">
    <path d="M 90 34.56 
L 648 34.56 
" style="fill: none; stroke: #000000; stroke-width: 0.8; stroke-linejoin: miter; stroke-linecap: square"/>
   </g>
   <g id="text_19">
    <!-- design_with_rachet_locking_ft_data_mapped_to_robot - Torques -->
    <g transform="translate(178.229062 28.56)scale(0.12 -0.12)">
     <defs>
      <path id="DejaVuSans-64" d="M 2906 2969 
L 2906 4863 
L 3481 4863 
L 3481 0 
L 2906 0 
L 2906 525 
Q 2725 213 2448 61 
Q 2172 -91 1784 -91 
Q 1150 -91 751 415 
Q 353 922 353 1747 
Q 353 2572 751 3078 
Q 1150 3584 1784 3584 
Q 2172 3584 2448 3432 
Q 2725 3281 2906 2969 
z
M 947 1747 
Q 947 1113 1208 752 
Q 1469 391 1925 391 
Q 2381 391 2643 752 
Q 2906 1113 2906 1747 
Q 2906 2381 2643 2742 
Q 2381 3103 1925 3103 
Q 1469 3103 1208 2742 
Q 947 2381 947 1747 
z
" transform="scale(0.015625)"/>
      <path id="DejaVuSans-73" d="M 2834 3397 
L 2834 2853 
Q 2591 2978 2328 3040 
Q 2066 3103 1784 3103 
Q 1356 3103 1142 2972 
Q 928 2841 928 2578 
Q 928 2378 1081 2264 
Q 1234 2150 1697 2047 
L 1894 2003 
Q 2506 1872 2764 1633 
Q 3022 1394 3022 966 
Q 3022 478 2636 193 
Q 2250 -91 1575 -91 
Q 1294 -91 989 -36 
Q 684 19 347 128 
L 347 722 
Q 666 556 975 473 
Q 1284 391 1588 391 
Q 1994 391 2212 530 
Q 2431 669 2431 922 
Q 2431 1156 2273 1281 
Q 2116 1406 1581 1522 
L 1381 1569 
Q 847 1681 609 1914 
Q 372 2147 372 2553 
Q 372 3047 722 3315 
Q 1072 3584 1716 3584 
Q 2034 3584 2315 3537 
Q 2597 3491 2834 3397 
z
" transform="scale(0.015625)"/>
      <path id="DejaVuSans-67" d="M 2906 1791 
Q 2906 2416 2648 2759 
Q 2391 3103 1925 3103 
Q 1463 3103 1205 2759 
Q 947 2416 947 1791 
Q 947 1169 1205 825 
Q 1463 481 1925 481 
Q 2391 481 2648 825 
Q 2906 1169 2906 1791 
z
M 3481 434 
Q 3481 -459 3084 -895 
Q 2688 -1331 1869 -1331 
Q 1566 -1331 1297 -1286 
Q 1028 -1241 775 -1147 
L 775 -588 
Q 1028 -725 1275 -790 
Q 1522 -856 1778 -856 
Q 2344 -856 2625 -561 
Q 2906 -266 2906 331 
L 2906 616 
Q 2728 306 2450 153 
Q 2172 0 1784 0 
Q 1141 0 747 490 
Q 353 981 353 1791 
Q 353 2603 747 3093 
Q 1141 3584 1784 3584 
Q 2172 3584 2450 3431 
Q 2728 3278 2906 2969 
L 2906 3500 
L 3481 3500 
L 3481 434 
z
" transform="scale(0.015625)"/>
      <path id="DejaVuSans-6e" d="M 3513 2113 
L 3513 0 
L 2938 0 
L 2938 2094 
Q 2938 2591 2744 2837 
Q 2550 3084 2163 3084 
Q 1697 3084 1428 2787 
Q 1159 2491 1159 1978 
L 1159 0 
L 581 0 
L 581 3500 
L 1159 3500 
L 1159 2956 
Q 1366 3272 1645 3428 
Q 1925 3584 2291 3584 
Q 2894 3584 3203 3211 
Q 3513 2838 3513 2113 
z
" transform="scale(0.015625)"/>
      <path id="DejaVuSans-5f" d="M 3263 -1063 
L 3263 -1509 
L -63 -1509 
L -63 -1063 
L 3263 -1063 
z
" transform="scale(0.015625)"/>
      <path id="DejaVuSans-77" d="M 269 3500 
L 844 3500 
L 1563 769 
L 2278 3500 
L 2956 3500 
L 3675 769 
L 4391 3500 
L 4966 3500 
L 4050 0 
L 3372 0 
L 2619 2869 
L 1863 0 
L 1184 0 
L 269 3500 
z
" transform="scale(0.015625)"/>
      <path id="DejaVuSans-74" d="M 1172 4494 
L 1172 3500 
L 2356 3500 
L 2356 3053 
L 1172 3053 
L 1172 1153 
Q 1172 725 1289 603 
Q 1406 481 1766 481 
L 2356 481 
L 2356 0 
L 1766 0 
Q 1100 0 847 248 
Q 594 497 594 1153 
L 594 3053 
L 172 3053 
L 172 3500 
L 594 3500 
L 594 4494 
L 1172 4494 
z
" transform="scale(0.015625)"/>
      <path id="DejaVuSans-68" d="M 3513 2113 
L 3513 0 
L 2938 0 
L 2938 2094 
Q 2938 2591 2744 2837 
Q 2550 3084 2163 3084 
Q 1697 3084 1428 2787 
Q 1159 2491 1159 1978 
L 1159 0 
L 581 0 
L 581 4863 
L 1159 4863 
L 1159 2956 
Q 1366 3272 1645 3428 
Q 1925 3584 2291 3584 
Q 2894 3584 3203 3211 
Q 3513 2838 3513 2113 
z
" transform="scale(0.015625)"/>
      <path id="DejaVuSans-61" d="M 2194 1759 
Q 1497 1759 1228 1600 
Q 959 1441 959 1056 
Q 959 750 1161 570 
Q 1363 391 1709 391 
Q 2188 391 2477 730 
Q 2766 1069 2766 1631 
L 2766 1759 
L 2194 1759 
z
M 3341 1997 
L 3341 0 
L 2766 0 
L 2766 531 
Q 2569 213 2275 61 
Q 1981 -91 1556 -91 
Q 1019 -91 701 211 
Q 384 513 384 1019 
Q 384 1609 779 1909 
Q 1175 2209 1959 2209 
L 2766 2209 
L 2766 2266 
Q 2766 2663 2505 2880 
Q 2244 3097 1772 3097 
Q 1472 3097 1187 3025 
Q 903 2953 641 2809 
L 641 3341 
Q 956 3463 1253 3523 
Q 1550 3584 1831 3584 
Q 2591 3584 2966 3190 
Q 3341 2797 3341 1997 
z
" transform="scale(0.015625)"/>
      <path id="DejaVuSans-63" d="M 3122 3366 
L 3122 2828 
Q 2878 2963 2633 3030 
Q 2388 3097 2138 3097 
Q 1578 3097 1268 2742 
Q 959 2388 959 1747 
Q 959 1106 1268 751 
Q 1578 397 2138 397 
Q 2388 397 2633 464 
Q 2878 531 3122 666 
L 3122 134 
Q 2881 22 2623 -34 
Q 2366 -91 2075 -91 
Q 1284 -91 818 406 
Q 353 903 353 1747 
Q 353 2603 823 3093 
Q 1294 3584 2113 3584 
Q 2378 3584 2631 3529 
Q 2884 3475 3122 3366 
z
" transform="scale(0.015625)"/>
      <path id="DejaVuSans-6c" d="M 603 4863 
L 1178 4863 
L 1178 0 
L 603 0 
L 603 4863 
z
" transform="scale(0.015625)"/>
      <path id="DejaVuSans-6b" d="M 581 4863 
L 1159 4863 
L 1159 1991 
L 2875 3500 
L 3609 3500 
L 1753 1863 
L 3688 0 
L 2938 0 
L 1159 1709 
L 1159 0 
L 581 0 
L 581 4863 
z
" transform="scale(0.015625)"/>
      <path id="DejaVuSans-66" d="M 2375 4863 
L 2375 4384 
L 1825 4384 
Q 1516 4384 1395 4259 
Q 1275 4134 1275 3809 
L 1275 3500 
L 2222 3500 
L 2222 3053 
L 1275 3053 
L 1275 0 
L 697 0 
L 697 3053 
L 147 3053 
L 147 3500 
L 697 3500 
L 697 3744 
Q 697 4328 969 4595 
Q 1241 4863 1831 4863 
L 2375 4863 
z
" transform="scale(0.015625)"/>
      <path id="DejaVuSans-70" d="M 1159 525 
L 1159 -1331 
L 581 -1331 
L 581 3500 
L 1159 3500 
L 1159 2969 
Q 1341 3281 1617 3432 
Q 1894 3584 2278 3584 
Q 2916 3584 3314 3078 
Q 3713 2572 3713 1747 
Q 3713 922 3314 415 
Q 2916 -91 2278 -91 
Q 1894 -91 1617 61 
Q 1341 213 1159 525 
z
M 3116 1747 
Q 3116 2381 2855 2742 
Q 2594 3103 2138 3103 
Q 1681 3103 1420 2742 
Q 1159 2381 1159 1747 
Q 1159 1113 1420 752 
Q 1681 391 2138 391 
Q 2594 391 2855 752 
Q 3116 1113 3116 1747 
z
" transform="scale(0.015625)"/>
      <path id="DejaVuSans-62" d="M 3116 1747 
Q 3116 2381 2855 2742 
Q 2594 3103 2138 3103 
Q 1681 3103 1420 2742 
Q 1159 2381 1159 1747 
Q 1159 1113 1420 752 
Q 1681 391 2138 391 
Q 2594 391 2855 752 
Q 3116 1113 3116 1747 
z
M 1159 2969 
Q 1341 3281 1617 3432 
Q 1894 3584 2278 3584 
Q 2916 3584 3314 3078 
Q 3713 2572 3713 1747 
Q 3713 922 3314 415 
Q 2916 -91 2278 -91 
Q 1894 -91 1617 61 
Q 1341 213 1159 525 
L 1159 0 
L 581 0 
L 581 4863 
L 1159 4863 
L 1159 2969 
z
" transform="scale(0.015625)"/>
      <path id="DejaVuSans-2d" d="M 313 2009 
L 1997 2009 
L 1997 1497 
L 313 1497 
L 313 2009 
z
" transform="scale(0.015625)"/>
     </defs>
     <use xlink:href="#DejaVuSans-64"/>
     <use xlink:href="#DejaVuSans-65" x="63.476562"/>
     <use xlink:href="#DejaVuSans-73" x="125"/>
     <use xlink:href="#DejaVuSans-69" x="177.099609"/>
     <use xlink:href="#DejaVuSans-67" x="204.882812"/>
     <use xlink:href="#DejaVuSans-6e" x="268.359375"/>
     <use xlink:href="#DejaVuSans-5f" x="331.738281"/>
     <use xlink:href="#DejaVuSans-77" x="381.738281"/>
     <use xlink:href="#DejaVuSans-69" x="463.525391"/>
     <use xlink:href="#DejaVuSans-74" x="491.308594"/>
     <use xlink:href="#DejaVuSans-68" x="530.517578"/>
     <use xlink:href="#DejaVuSans-5f" x="593.896484"/>
     <use xlink:href="#DejaVuSans-72" x="643.896484"/>
     <use xlink:href="#DejaVuSans-61" x="685.009766"/>
     <use xlink:href="#DejaVuSans-63" x="746.289062"/>
     <use xlink:href="#DejaVuSans-68" x="801.269531"/>
     <use xlink:href="#DejaVuSans-65" x="864.648438"/>
     <use xlink:href="#DejaVuSans-74" x="926.171875"/>
     <use xlink:href="#DejaVuSans-5f" x="965.380859"/>
     <use xlink:href="#DejaVuSans-6c" x="1015.380859"/>
     <use xlink:href="#DejaVuSans-6f" x="1043.164062"/>
     <use xlink:href="#DejaVuSans-63" x="1104.345703"/>
     <use xlink:href="#DejaVuSans-6b" x="1159.326172"/>
     <use xlink:href="#DejaVuSans-69" x="1217.236328"/>
     <use xlink:href="#DejaVuSans-6e" x="1245.019531"/>
     <use xlink:href="#DejaVuSans-67" x="1308.398438"/>
     <use xlink:href="#DejaVuSans-5f" x="1371.875"/>
     <use xlink:href="#DejaVuSans-66" x="1421.875"/>
     <use xlink:href="#DejaVuSans-74" x="1455.330078"/>
     <use xlink:href="#DejaVuSans-5f" x="1494.539062"/>
     <use xlink:href="#DejaVuSans-64" x="1544.539062"/>
     <use xlink:href="#DejaVuSans-61" x="1608.015625"/>
     <use xlink:href="#DejaVuSans-74" x="1669.294922"/>
     <use xlink:href="#DejaVuSans-61" x="1708.503906"/>
     <use xlink:href="#DejaVuSans-5f" x="1769.783203"/>
     <use xlink:href="#DejaVuSans-6d" x="1819.783203"/>
     <use xlink:href="#DejaVuSans-61" x="1917.195312"/>
     <use xlink:href="#DejaVuSans-70" x="1978.474609"/>
     <use xlink:href="#DejaVuSans-70" x="2041.951172"/>
     <use xlink:href="#DejaVuSans-65" x="2105.427734"/>
     <use xlink:href="#DejaVuSans-64" x="2166.951172"/>
     <use xlink:href="#DejaVuSans-5f" x="2230.427734"/>
     <use xlink:href="#DejaVuSans-74" x="2280.427734"/>
     <use xlink:href="#DejaVuSans-6f" x="2319.636719"/>
     <use xlink:href="#DejaVuSans-5f" x="2380.818359"/>
     <use xlink:href="#DejaVuSans-72" x="2430.818359"/>
     <use xlink:href="#DejaVuSans-6f" x="2469.681641"/>
     <use xlink:href="#DejaVuSans-62" x="2530.863281"/>
     <use xlink:href="#DejaVuSans-6f" x="2594.339844"/>
     <use xlink:href="#DejaVuSans-74" x="2655.521484"/>
     <use xlink:href="#DejaVuSans-20" x="2694.730469"/>
     <use xlink:href="#DejaVuSans-2d" x="2726.517578"/>
     <use xlink:href="#DejaVuSans-20" x="2762.601562"/>
     <use xlink:href="#DejaVuSans-54" x="2794.388672"/>
     <use xlink:href="#DejaVuSans-6f" x="2838.472656"/>
     <use xlink:href="#DejaVuSans-72" x="2899.654297"/>
     <use xlink:href="#DejaVuSans-71" x="2939.017578"/>
     <use xlink:href="#DejaVuSans-75" x="3002.494141"/>
     <use xlink:href="#DejaVuSans-65" x="3065.873047"/>
     <use xlink:href="#DejaVuSans-73" x="3127.396484"/>
    </g>
   </g>
   <g id="legend_1">
    <g id="patch_7">
     <path d="M 565.267187 251.32 
L 641 251.32 
Q 643 251.32 643 249.32 
L 643 205.45125 
Q 643 203.45125 641 203.45125 
L 565.267187 203.45125 
Q 563.267187 203.45125 563.267187 205.45125 
L 563.267187 249.32 
Q 563.267187 251.32 565.267187 251.32 
z
" style="fill: #ffffff; opacity: 0.8; stroke: #cccccc; stroke-linejoin: miter"/>
    </g>
    <g id="line2d_36">
     <path d="M 567.267187 211.549688 
L 577.267187 211.549688 
L 587.267187 211.549688 
" style="fill: none; stroke: #800080; stroke-width: 2.5; stroke-linecap: square"/>
    </g>
    <g id="text_20">
     <!-- torque_x -->
     <g transform="translate(595.267187 215.049688)scale(0.1 -0.1)">
      <defs>
       <path id="DejaVuSans-78" d="M 3513 3500 
L 2247 1797 
L 3578 0 
L 2900 0 
L 1881 1375 
L 863 0 
L 184 0 
L 1544 1831 
L 300 3500 
L 978 3500 
L 1906 2253 
L 2834 3500 
L 3513 3500 
z
" transform="scale(0.015625)"/>
      </defs>
      <use xlink:href="#DejaVuSans-74"/>
      <use xlink:href="#DejaVuSans-6f" x="39.208984"/>
      <use xlink:href="#DejaVuSans-72" x="100.390625"/>
      <use xlink:href="#DejaVuSans-71" x="139.753906"/>
      <use xlink:href="#DejaVuSans-75" x="203.230469"/>
      <use xlink:href="#DejaVuSans-65" x="266.609375"/>
      <use xlink:href="#DejaVuSans-5f" x="328.132812"/>
      <use xlink:href="#DejaVuSans-78" x="378.132812"/>
     </g>
    </g>
    <g id="line2d_37">
     <path d="M 567.267187 226.505938 
L 577.267187 226.505938 
L 587.267187 226.505938 
" style="fill: none; stroke: #dc143c; stroke-width: 2.5; stroke-linecap: square"/>
    </g>
    <g id="text_21">
     <!-- torque_y -->
     <g transform="translate(595.267187 230.005938)scale(0.1 -0.1)">
      <defs>
       <path id="DejaVuSans-79" d="M 2059 -325 
Q 1816 -950 1584 -1140 
Q 1353 -1331 966 -1331 
L 506 -1331 
L 506 -850 
L 844 -850 
Q 1081 -850 1212 -737 
Q 1344 -625 1503 -206 
L 1606 56 
L 191 3500 
L 800 3500 
L 1894 763 
L 2988 3500 
L 3597 3500 
L 2059 -325 
z
" transform="scale(0.015625)"/>
      </defs>
      <use xlink:href="#DejaVuSans-74"/>
      <use xlink:href="#DejaVuSans-6f" x="39.208984"/>
      <use xlink:href="#DejaVuSans-72" x="100.390625"/>
      <use xlink:href="#DejaVuSans-71" x="139.753906"/>
      <use xlink:href="#DejaVuSans-75" x="203.230469"/>
      <use xlink:href="#DejaVuSans-65" x="266.609375"/>
      <use xlink:href="#DejaVuSans-5f" x="328.132812"/>
      <use xlink:href="#DejaVuSans-79" x="378.132812"/>
     </g>
    </g>
    <g id="line2d_38">
     <path d="M 567.267187 241.462187 
L 577.267187 241.462187 
L 587.267187 241.462187 
" style="fill: none; stroke: #008b8b; stroke-width: 2.5; stroke-linecap: square"/>
    </g>
    <g id="text_22">
     <!-- torque_z -->
     <g transform="translate(595.267187 244.962187)scale(0.1 -0.1)">
      <defs>
       <path id="DejaVuSans-7a" d="M 353 3500 
L 3084 3500 
L 3084 2975 
L 922 459 
L 3084 459 
L 3084 0 
L 275 0 
L 275 525 
L 2438 3041 
L 353 3041 
L 353 3500 
z
" transform="scale(0.015625)"/>
      </defs>
      <use xlink:href="#DejaVuSans-74"/>
      <use xlink:href="#DejaVuSans-6f" x="39.208984"/>
      <use xlink:href="#DejaVuSans-72" x="100.390625"/>
      <use xlink:href="#DejaVuSans-71" x="139.753906"/>
      <use xlink:href="#DejaVuSans-75" x="203.230469"/>
      <use xlink:href="#DejaVuSans-65" x="266.609375"/>
      <use xlink:href="#DejaVuSans-5f" x="328.132812"/>
      <use xlink:href="#DejaVuSans-7a" x="378.132812"/>
     </g>
    </g>
   </g>
  </g>
 </g>
 <defs>
  <clipPath id="pdaebb7d177">
   <rect x="90" y="34.56" width="558" height="221.76"/>
  </clipPath>
 </defs>
</svg>
