<?xml version="1.0" encoding="utf-8" standalone="no"?>
<!DOCTYPE svg PUBLIC "-//W3C//DTD SVG 1.1//EN"
  "http://www.w3.org/Graphics/SVG/1.1/DTD/svg11.dtd">
<svg xmlns:xlink="http://www.w3.org/1999/xlink" width="720pt" height="288pt" viewBox="0 0 720 288" xmlns="http://www.w3.org/2000/svg" version="1.1">
 <metadata>
  <rdf:RDF xmlns:dc="http://purl.org/dc/elements/1.1/" xmlns:cc="http://creativecommons.org/ns#" xmlns:rdf="http://www.w3.org/1999/02/22-rdf-syntax-ns#">
   <cc:Work>
    <dc:type rdf:resource="http://purl.org/dc/dcmitype/StillImage"/>
    <dc:date>2025-09-21T11:12:01.913186</dc:date>
    <dc:format>image/svg+xml</dc:format>
    <dc:creator>
     <cc:Agent>
      <dc:title>Matplotlib v3.5.3, https://matplotlib.org/</dc:title>
     </cc:Agent>
    </dc:creator>
   </cc:Work>
  </rdf:RDF>
 </metadata>
 <defs>
  <style type="text/css">*{stroke-linejoin: round; stroke-linecap: butt}</style>
 </defs>
 <g id="figure_1">
  <g id="patch_1">
   <path d="M 0 288 
L 720 288 
L 720 0 
L 0 0 
z
" style="fill: #ffffff"/>
  </g>
  <g id="axes_1">
   <g id="patch_2">
    <path d="M 90 256.32 
L 648 256.32 
L 648 34.56 
L 90 34.56 
z
" style="fill: #ffffff"/>
   </g>
   <g id="matplotlib.axis_1">
    <g id="xtick_1">
     <g id="line2d_1">
      <path d="M 116.284885 256.32 
L 116.284885 34.56 
" clip-path="url(#p2c37b8ece2)" style="fill: none; stroke: #b0b0b0; stroke-width: 0.8; stroke-linecap: square"/>
     </g>
     <g id="line2d_2">
      <defs>
       <path id="m299e7abdf8" d="M 0 0 
L 0 3.5 
" style="stroke: #000000; stroke-width: 0.8"/>
      </defs>
      <g>
       <use xlink:href="#m299e7abdf8" x="116.284885" y="256.32" style="stroke: #000000; stroke-width: 0.8"/>
      </g>
     </g>
     <g id="text_1">
      <!-- 11:53:35 -->
      <g transform="translate(93.828635 270.918437)scale(0.1 -0.1)">
       <defs>
        <path id="DejaVuSans-31" d="M 794 531 
L 1825 531 
L 1825 4091 
L 703 3866 
L 703 4441 
L 1819 4666 
L 2450 4666 
L 2450 531 
L 3481 531 
L 3481 0 
L 794 0 
L 794 531 
z
" transform="scale(0.015625)"/>
        <path id="DejaVuSans-3a" d="M 750 794 
L 1409 794 
L 1409 0 
L 750 0 
L 750 794 
z
M 750 3309 
L 1409 3309 
L 1409 2516 
L 750 2516 
L 750 3309 
z
" transform="scale(0.015625)"/>
        <path id="DejaVuSans-35" d="M 691 4666 
L 3169 4666 
L 3169 4134 
L 1269 4134 
L 1269 2991 
Q 1406 3038 1543 3061 
Q 1681 3084 1819 3084 
Q 2600 3084 3056 2656 
Q 3513 2228 3513 1497 
Q 3513 744 3044 326 
Q 2575 -91 1722 -91 
Q 1428 -91 1123 -41 
Q 819 9 494 109 
L 494 744 
Q 775 591 1075 516 
Q 1375 441 1709 441 
Q 2250 441 2565 725 
Q 2881 1009 2881 1497 
Q 2881 1984 2565 2268 
Q 2250 2553 1709 2553 
Q 1456 2553 1204 2497 
Q 953 2441 691 2322 
L 691 4666 
z
" transform="scale(0.015625)"/>
        <path id="DejaVuSans-33" d="M 2597 2516 
Q 3050 2419 3304 2112 
Q 3559 1806 3559 1356 
Q 3559 666 3084 287 
Q 2609 -91 1734 -91 
Q 1441 -91 1130 -33 
Q 819 25 488 141 
L 488 750 
Q 750 597 1062 519 
Q 1375 441 1716 441 
Q 2309 441 2620 675 
Q 2931 909 2931 1356 
Q 2931 1769 2642 2001 
Q 2353 2234 1838 2234 
L 1294 2234 
L 1294 2753 
L 1863 2753 
Q 2328 2753 2575 2939 
Q 2822 3125 2822 3475 
Q 2822 3834 2567 4026 
Q 2313 4219 1838 4219 
Q 1578 4219 1281 4162 
Q 984 4106 628 3988 
L 628 4550 
Q 988 4650 1302 4700 
Q 1616 4750 1894 4750 
Q 2613 4750 3031 4423 
Q 3450 4097 3450 3541 
Q 3450 3153 3228 2886 
Q 3006 2619 2597 2516 
z
" transform="scale(0.015625)"/>
       </defs>
       <use xlink:href="#DejaVuSans-31"/>
       <use xlink:href="#DejaVuSans-31" x="63.623047"/>
       <use xlink:href="#DejaVuSans-3a" x="127.246094"/>
       <use xlink:href="#DejaVuSans-35" x="160.9375"/>
       <use xlink:href="#DejaVuSans-33" x="224.560547"/>
       <use xlink:href="#DejaVuSans-3a" x="288.183594"/>
       <use xlink:href="#DejaVuSans-33" x="321.875"/>
       <use xlink:href="#DejaVuSans-35" x="385.498047"/>
      </g>
     </g>
    </g>
    <g id="xtick_2">
     <g id="line2d_3">
      <path d="M 204.866722 256.32 
L 204.866722 34.56 
" clip-path="url(#p2c37b8ece2)" style="fill: none; stroke: #b0b0b0; stroke-width: 0.8; stroke-linecap: square"/>
     </g>
     <g id="line2d_4">
      <g>
       <use xlink:href="#m299e7abdf8" x="204.866722" y="256.32" style="stroke: #000000; stroke-width: 0.8"/>
      </g>
     </g>
     <g id="text_2">
      <!-- 11:53:40 -->
      <g transform="translate(182.410472 270.918437)scale(0.1 -0.1)">
       <defs>
        <path id="DejaVuSans-34" d="M 2419 4116 
L 825 1625 
L 2419 1625 
L 2419 4116 
z
M 2253 4666 
L 3047 4666 
L 3047 1625 
L 3713 1625 
L 3713 1100 
L 3047 1100 
L 3047 0 
L 2419 0 
L 2419 1100 
L 313 1100 
L 313 1709 
L 2253 4666 
z
" transform="scale(0.015625)"/>
        <path id="DejaVuSans-30" d="M 2034 4250 
Q 1547 4250 1301 3770 
Q 1056 3291 1056 2328 
Q 1056 1369 1301 889 
Q 1547 409 2034 409 
Q 2525 409 2770 889 
Q 3016 1369 3016 2328 
Q 3016 3291 2770 3770 
Q 2525 4250 2034 4250 
z
M 2034 4750 
Q 2819 4750 3233 4129 
Q 3647 3509 3647 2328 
Q 3647 1150 3233 529 
Q 2819 -91 2034 -91 
Q 1250 -91 836 529 
Q 422 1150 422 2328 
Q 422 3509 836 4129 
Q 1250 4750 2034 4750 
z
" transform="scale(0.015625)"/>
       </defs>
       <use xlink:href="#DejaVuSans-31"/>
       <use xlink:href="#DejaVuSans-31" x="63.623047"/>
       <use xlink:href="#DejaVuSans-3a" x="127.246094"/>
       <use xlink:href="#DejaVuSans-35" x="160.9375"/>
       <use xlink:href="#DejaVuSans-33" x="224.560547"/>
       <use xlink:href="#DejaVuSans-3a" x="288.183594"/>
       <use xlink:href="#DejaVuSans-34" x="321.875"/>
       <use xlink:href="#DejaVuSans-30" x="385.498047"/>
      </g>
     </g>
    </g>
    <g id="xtick_3">
     <g id="line2d_5">
      <path d="M 293.448555 256.32 
L 293.448555 34.56 
" clip-path="url(#p2c37b8ece2)" style="fill: none; stroke: #b0b0b0; stroke-width: 0.8; stroke-linecap: square"/>
     </g>
     <g id="line2d_6">
      <g>
       <use xlink:href="#m299e7abdf8" x="293.448555" y="256.32" style="stroke: #000000; stroke-width: 0.8"/>
      </g>
     </g>
     <g id="text_3">
      <!-- 11:53:45 -->
      <g transform="translate(270.992305 270.918437)scale(0.1 -0.1)">
       <use xlink:href="#DejaVuSans-31"/>
       <use xlink:href="#DejaVuSans-31" x="63.623047"/>
       <use xlink:href="#DejaVuSans-3a" x="127.246094"/>
       <use xlink:href="#DejaVuSans-35" x="160.9375"/>
       <use xlink:href="#DejaVuSans-33" x="224.560547"/>
       <use xlink:href="#DejaVuSans-3a" x="288.183594"/>
       <use xlink:href="#DejaVuSans-34" x="321.875"/>
       <use xlink:href="#DejaVuSans-35" x="385.498047"/>
      </g>
     </g>
    </g>
    <g id="xtick_4">
     <g id="line2d_7">
      <path d="M 382.030388 256.32 
L 382.030388 34.56 
" clip-path="url(#p2c37b8ece2)" style="fill: none; stroke: #b0b0b0; stroke-width: 0.8; stroke-linecap: square"/>
     </g>
     <g id="line2d_8">
      <g>
       <use xlink:href="#m299e7abdf8" x="382.030388" y="256.32" style="stroke: #000000; stroke-width: 0.8"/>
      </g>
     </g>
     <g id="text_4">
      <!-- 11:53:50 -->
      <g transform="translate(359.574138 270.918437)scale(0.1 -0.1)">
       <use xlink:href="#DejaVuSans-31"/>
       <use xlink:href="#DejaVuSans-31" x="63.623047"/>
       <use xlink:href="#DejaVuSans-3a" x="127.246094"/>
       <use xlink:href="#DejaVuSans-35" x="160.9375"/>
       <use xlink:href="#DejaVuSans-33" x="224.560547"/>
       <use xlink:href="#DejaVuSans-3a" x="288.183594"/>
       <use xlink:href="#DejaVuSans-35" x="321.875"/>
       <use xlink:href="#DejaVuSans-30" x="385.498047"/>
      </g>
     </g>
    </g>
    <g id="xtick_5">
     <g id="line2d_9">
      <path d="M 470.612221 256.32 
L 470.612221 34.56 
" clip-path="url(#p2c37b8ece2)" style="fill: none; stroke: #b0b0b0; stroke-width: 0.8; stroke-linecap: square"/>
     </g>
     <g id="line2d_10">
      <g>
       <use xlink:href="#m299e7abdf8" x="470.612221" y="256.32" style="stroke: #000000; stroke-width: 0.8"/>
      </g>
     </g>
     <g id="text_5">
      <!-- 11:53:55 -->
      <g transform="translate(448.155971 270.918437)scale(0.1 -0.1)">
       <use xlink:href="#DejaVuSans-31"/>
       <use xlink:href="#DejaVuSans-31" x="63.623047"/>
       <use xlink:href="#DejaVuSans-3a" x="127.246094"/>
       <use xlink:href="#DejaVuSans-35" x="160.9375"/>
       <use xlink:href="#DejaVuSans-33" x="224.560547"/>
       <use xlink:href="#DejaVuSans-3a" x="288.183594"/>
       <use xlink:href="#DejaVuSans-35" x="321.875"/>
       <use xlink:href="#DejaVuSans-35" x="385.498047"/>
      </g>
     </g>
    </g>
    <g id="xtick_6">
     <g id="line2d_11">
      <path d="M 559.194057 256.32 
L 559.194057 34.56 
" clip-path="url(#p2c37b8ece2)" style="fill: none; stroke: #b0b0b0; stroke-width: 0.8; stroke-linecap: square"/>
     </g>
     <g id="line2d_12">
      <g>
       <use xlink:href="#m299e7abdf8" x="559.194057" y="256.32" style="stroke: #000000; stroke-width: 0.8"/>
      </g>
     </g>
     <g id="text_6">
      <!-- 11:54:00 -->
      <g transform="translate(536.737807 270.918437)scale(0.1 -0.1)">
       <use xlink:href="#DejaVuSans-31"/>
       <use xlink:href="#DejaVuSans-31" x="63.623047"/>
       <use xlink:href="#DejaVuSans-3a" x="127.246094"/>
       <use xlink:href="#DejaVuSans-35" x="160.9375"/>
       <use xlink:href="#DejaVuSans-34" x="224.560547"/>
       <use xlink:href="#DejaVuSans-3a" x="288.183594"/>
       <use xlink:href="#DejaVuSans-30" x="321.875"/>
       <use xlink:href="#DejaVuSans-30" x="385.498047"/>
      </g>
     </g>
    </g>
    <g id="xtick_7">
     <g id="line2d_13">
      <path d="M 647.77589 256.32 
L 647.77589 34.56 
" clip-path="url(#p2c37b8ece2)" style="fill: none; stroke: #b0b0b0; stroke-width: 0.8; stroke-linecap: square"/>
     </g>
     <g id="line2d_14">
      <g>
       <use xlink:href="#m299e7abdf8" x="647.77589" y="256.32" style="stroke: #000000; stroke-width: 0.8"/>
      </g>
     </g>
     <g id="text_7">
      <!-- 11:54:05 -->
      <g transform="translate(625.31964 270.918437)scale(0.1 -0.1)">
       <use xlink:href="#DejaVuSans-31"/>
       <use xlink:href="#DejaVuSans-31" x="63.623047"/>
       <use xlink:href="#DejaVuSans-3a" x="127.246094"/>
       <use xlink:href="#DejaVuSans-35" x="160.9375"/>
       <use xlink:href="#DejaVuSans-34" x="224.560547"/>
       <use xlink:href="#DejaVuSans-3a" x="288.183594"/>
       <use xlink:href="#DejaVuSans-30" x="321.875"/>
       <use xlink:href="#DejaVuSans-35" x="385.498047"/>
      </g>
     </g>
    </g>
    <g id="text_8">
     <!-- Time -->
     <g transform="translate(356.766406 284.596563)scale(0.1 -0.1)">
      <defs>
       <path id="DejaVuSans-54" d="M -19 4666 
L 3928 4666 
L 3928 4134 
L 2272 4134 
L 2272 0 
L 1638 0 
L 1638 4134 
L -19 4134 
L -19 4666 
z
" transform="scale(0.015625)"/>
       <path id="DejaVuSans-69" d="M 603 3500 
L 1178 3500 
L 1178 0 
L 603 0 
L 603 3500 
z
M 603 4863 
L 1178 4863 
L 1178 4134 
L 603 4134 
L 603 4863 
z
" transform="scale(0.015625)"/>
       <path id="DejaVuSans-6d" d="M 3328 2828 
Q 3544 3216 3844 3400 
Q 4144 3584 4550 3584 
Q 5097 3584 5394 3201 
Q 5691 2819 5691 2113 
L 5691 0 
L 5113 0 
L 5113 2094 
Q 5113 2597 4934 2840 
Q 4756 3084 4391 3084 
Q 3944 3084 3684 2787 
Q 3425 2491 3425 1978 
L 3425 0 
L 2847 0 
L 2847 2094 
Q 2847 2600 2669 2842 
Q 2491 3084 2119 3084 
Q 1678 3084 1418 2786 
Q 1159 2488 1159 1978 
L 1159 0 
L 581 0 
L 581 3500 
L 1159 3500 
L 1159 2956 
Q 1356 3278 1631 3431 
Q 1906 3584 2284 3584 
Q 2666 3584 2933 3390 
Q 3200 3197 3328 2828 
z
" transform="scale(0.015625)"/>
       <path id="DejaVuSans-65" d="M 3597 1894 
L 3597 1613 
L 953 1613 
Q 991 1019 1311 708 
Q 1631 397 2203 397 
Q 2534 397 2845 478 
Q 3156 559 3463 722 
L 3463 178 
Q 3153 47 2828 -22 
Q 2503 -91 2169 -91 
Q 1331 -91 842 396 
Q 353 884 353 1716 
Q 353 2575 817 3079 
Q 1281 3584 2069 3584 
Q 2775 3584 3186 3129 
Q 3597 2675 3597 1894 
z
M 3022 2063 
Q 3016 2534 2758 2815 
Q 2500 3097 2075 3097 
Q 1594 3097 1305 2825 
Q 1016 2553 972 2059 
L 3022 2063 
z
" transform="scale(0.015625)"/>
      </defs>
      <use xlink:href="#DejaVuSans-54"/>
      <use xlink:href="#DejaVuSans-69" x="57.958984"/>
      <use xlink:href="#DejaVuSans-6d" x="85.742188"/>
      <use xlink:href="#DejaVuSans-65" x="183.154297"/>
     </g>
    </g>
   </g>
   <g id="matplotlib.axis_2">
    <g id="ytick_1">
     <g id="line2d_15">
      <path d="M 90 240.777303 
L 648 240.777303 
" clip-path="url(#p2c37b8ece2)" style="fill: none; stroke: #b0b0b0; stroke-width: 0.8; stroke-linecap: square"/>
     </g>
     <g id="line2d_16">
      <defs>
       <path id="m034f6696ad" d="M 0 0 
L -3.5 0 
" style="stroke: #000000; stroke-width: 0.8"/>
      </defs>
      <g>
       <use xlink:href="#m034f6696ad" x="90" y="240.777303" style="stroke: #000000; stroke-width: 0.8"/>
      </g>
     </g>
     <g id="text_9">
      <!-- −40 -->
      <g transform="translate(61.895313 244.576521)scale(0.1 -0.1)">
       <defs>
        <path id="DejaVuSans-2212" d="M 678 2272 
L 4684 2272 
L 4684 1741 
L 678 1741 
L 678 2272 
z
" transform="scale(0.015625)"/>
       </defs>
       <use xlink:href="#DejaVuSans-2212"/>
       <use xlink:href="#DejaVuSans-34" x="83.789062"/>
       <use xlink:href="#DejaVuSans-30" x="147.412109"/>
      </g>
     </g>
    </g>
    <g id="ytick_2">
     <g id="line2d_17">
      <path d="M 90 202.536053 
L 648 202.536053 
" clip-path="url(#p2c37b8ece2)" style="fill: none; stroke: #b0b0b0; stroke-width: 0.8; stroke-linecap: square"/>
     </g>
     <g id="line2d_18">
      <g>
       <use xlink:href="#m034f6696ad" x="90" y="202.536053" style="stroke: #000000; stroke-width: 0.8"/>
      </g>
     </g>
     <g id="text_10">
      <!-- −30 -->
      <g transform="translate(61.895313 206.335272)scale(0.1 -0.1)">
       <use xlink:href="#DejaVuSans-2212"/>
       <use xlink:href="#DejaVuSans-33" x="83.789062"/>
       <use xlink:href="#DejaVuSans-30" x="147.412109"/>
      </g>
     </g>
    </g>
    <g id="ytick_3">
     <g id="line2d_19">
      <path d="M 90 164.294803 
L 648 164.294803 
" clip-path="url(#p2c37b8ece2)" style="fill: none; stroke: #b0b0b0; stroke-width: 0.8; stroke-linecap: square"/>
     </g>
     <g id="line2d_20">
      <g>
       <use xlink:href="#m034f6696ad" x="90" y="164.294803" style="stroke: #000000; stroke-width: 0.8"/>
      </g>
     </g>
     <g id="text_11">
      <!-- −20 -->
      <g transform="translate(61.895313 168.094022)scale(0.1 -0.1)">
       <defs>
        <path id="DejaVuSans-32" d="M 1228 531 
L 3431 531 
L 3431 0 
L 469 0 
L 469 531 
Q 828 903 1448 1529 
Q 2069 2156 2228 2338 
Q 2531 2678 2651 2914 
Q 2772 3150 2772 3378 
Q 2772 3750 2511 3984 
Q 2250 4219 1831 4219 
Q 1534 4219 1204 4116 
Q 875 4013 500 3803 
L 500 4441 
Q 881 4594 1212 4672 
Q 1544 4750 1819 4750 
Q 2544 4750 2975 4387 
Q 3406 4025 3406 3419 
Q 3406 3131 3298 2873 
Q 3191 2616 2906 2266 
Q 2828 2175 2409 1742 
Q 1991 1309 1228 531 
z
" transform="scale(0.015625)"/>
       </defs>
       <use xlink:href="#DejaVuSans-2212"/>
       <use xlink:href="#DejaVuSans-32" x="83.789062"/>
       <use xlink:href="#DejaVuSans-30" x="147.412109"/>
      </g>
     </g>
    </g>
    <g id="ytick_4">
     <g id="line2d_21">
      <path d="M 90 126.053554 
L 648 126.053554 
" clip-path="url(#p2c37b8ece2)" style="fill: none; stroke: #b0b0b0; stroke-width: 0.8; stroke-linecap: square"/>
     </g>
     <g id="line2d_22">
      <g>
       <use xlink:href="#m034f6696ad" x="90" y="126.053554" style="stroke: #000000; stroke-width: 0.8"/>
      </g>
     </g>
     <g id="text_12">
      <!-- −10 -->
      <g transform="translate(61.895313 129.852773)scale(0.1 -0.1)">
       <use xlink:href="#DejaVuSans-2212"/>
       <use xlink:href="#DejaVuSans-31" x="83.789062"/>
       <use xlink:href="#DejaVuSans-30" x="147.412109"/>
      </g>
     </g>
    </g>
    <g id="ytick_5">
     <g id="line2d_23">
      <path d="M 90 87.812304 
L 648 87.812304 
" clip-path="url(#p2c37b8ece2)" style="fill: none; stroke: #b0b0b0; stroke-width: 0.8; stroke-linecap: square"/>
     </g>
     <g id="line2d_24">
      <g>
       <use xlink:href="#m034f6696ad" x="90" y="87.812304" style="stroke: #000000; stroke-width: 0.8"/>
      </g>
     </g>
     <g id="text_13">
      <!-- 0 -->
      <g transform="translate(76.6375 91.611523)scale(0.1 -0.1)">
       <use xlink:href="#DejaVuSans-30"/>
      </g>
     </g>
    </g>
    <g id="ytick_6">
     <g id="line2d_25">
      <path d="M 90 49.571055 
L 648 49.571055 
" clip-path="url(#p2c37b8ece2)" style="fill: none; stroke: #b0b0b0; stroke-width: 0.8; stroke-linecap: square"/>
     </g>
     <g id="line2d_26">
      <g>
       <use xlink:href="#m034f6696ad" x="90" y="49.571055" style="stroke: #000000; stroke-width: 0.8"/>
      </g>
     </g>
     <g id="text_14">
      <!-- 10 -->
      <g transform="translate(70.275 53.370274)scale(0.1 -0.1)">
       <use xlink:href="#DejaVuSans-31"/>
       <use xlink:href="#DejaVuSans-30" x="63.623047"/>
      </g>
     </g>
    </g>
    <g id="text_15">
     <!-- Force (N) -->
     <g transform="translate(55.815625 168.193906)rotate(-90)scale(0.1 -0.1)">
      <defs>
       <path id="DejaVuSans-46" d="M 628 4666 
L 3309 4666 
L 3309 4134 
L 1259 4134 
L 1259 2759 
L 3109 2759 
L 3109 2228 
L 1259 2228 
L 1259 0 
L 628 0 
L 628 4666 
z
" transform="scale(0.015625)"/>
       <path id="DejaVuSans-6f" d="M 1959 3097 
Q 1497 3097 1228 2736 
Q 959 2375 959 1747 
Q 959 1119 1226 758 
Q 1494 397 1959 397 
Q 2419 397 2687 759 
Q 2956 1122 2956 1747 
Q 2956 2369 2687 2733 
Q 2419 3097 1959 3097 
z
M 1959 3584 
Q 2709 3584 3137 3096 
Q 3566 2609 3566 1747 
Q 3566 888 3137 398 
Q 2709 -91 1959 -91 
Q 1206 -91 779 398 
Q 353 888 353 1747 
Q 353 2609 779 3096 
Q 1206 3584 1959 3584 
z
" transform="scale(0.015625)"/>
       <path id="DejaVuSans-72" d="M 2631 2963 
Q 2534 3019 2420 3045 
Q 2306 3072 2169 3072 
Q 1681 3072 1420 2755 
Q 1159 2438 1159 1844 
L 1159 0 
L 581 0 
L 581 3500 
L 1159 3500 
L 1159 2956 
Q 1341 3275 1631 3429 
Q 1922 3584 2338 3584 
Q 2397 3584 2469 3576 
Q 2541 3569 2628 3553 
L 2631 2963 
z
" transform="scale(0.015625)"/>
       <path id="DejaVuSans-63" d="M 3122 3366 
L 3122 2828 
Q 2878 2963 2633 3030 
Q 2388 3097 2138 3097 
Q 1578 3097 1268 2742 
Q 959 2388 959 1747 
Q 959 1106 1268 751 
Q 1578 397 2138 397 
Q 2388 397 2633 464 
Q 2878 531 3122 666 
L 3122 134 
Q 2881 22 2623 -34 
Q 2366 -91 2075 -91 
Q 1284 -91 818 406 
Q 353 903 353 1747 
Q 353 2603 823 3093 
Q 1294 3584 2113 3584 
Q 2378 3584 2631 3529 
Q 2884 3475 3122 3366 
z
" transform="scale(0.015625)"/>
       <path id="DejaVuSans-20" transform="scale(0.015625)"/>
       <path id="DejaVuSans-28" d="M 1984 4856 
Q 1566 4138 1362 3434 
Q 1159 2731 1159 2009 
Q 1159 1288 1364 580 
Q 1569 -128 1984 -844 
L 1484 -844 
Q 1016 -109 783 600 
Q 550 1309 550 2009 
Q 550 2706 781 3412 
Q 1013 4119 1484 4856 
L 1984 4856 
z
" transform="scale(0.015625)"/>
       <path id="DejaVuSans-4e" d="M 628 4666 
L 1478 4666 
L 3547 763 
L 3547 4666 
L 4159 4666 
L 4159 0 
L 3309 0 
L 1241 3903 
L 1241 0 
L 628 0 
L 628 4666 
z
" transform="scale(0.015625)"/>
       <path id="DejaVuSans-29" d="M 513 4856 
L 1013 4856 
Q 1481 4119 1714 3412 
Q 1947 2706 1947 2009 
Q 1947 1309 1714 600 
Q 1481 -109 1013 -844 
L 513 -844 
Q 928 -128 1133 580 
Q 1338 1288 1338 2009 
Q 1338 2731 1133 3434 
Q 928 4138 513 4856 
z
" transform="scale(0.015625)"/>
      </defs>
      <use xlink:href="#DejaVuSans-46"/>
      <use xlink:href="#DejaVuSans-6f" x="53.894531"/>
      <use xlink:href="#DejaVuSans-72" x="115.076172"/>
      <use xlink:href="#DejaVuSans-63" x="153.939453"/>
      <use xlink:href="#DejaVuSans-65" x="208.919922"/>
      <use xlink:href="#DejaVuSans-20" x="270.443359"/>
      <use xlink:href="#DejaVuSans-28" x="302.230469"/>
      <use xlink:href="#DejaVuSans-4e" x="341.244141"/>
      <use xlink:href="#DejaVuSans-29" x="416.048828"/>
     </g>
    </g>
   </g>
   <g id="line2d_27">
    <path d="M 115.363632 85.616469 
L 116.42662 85.404384 
L 117.489605 85.664204 
L 118.552582 85.691936 
L 119.615562 85.321623 
L 120.678543 85.34209 
L 121.741528 85.706154 
L 122.804512 85.135627 
L 123.867493 85.372819 
L 124.930473 85.11884 
L 127.056438 85.450228 
L 129.306416 85.472277 
L 131.432381 85.691655 
L 132.495365 85.086288 
L 134.62133 85.214274 
L 135.684311 84.424901 
L 136.747288 84.240027 
L 137.810272 84.228364 
L 138.87326 82.868701 
L 139.936237 82.610709 
L 140.999218 81.185583 
L 142.062199 79.419583 
L 143.125183 77.283655 
L 144.188168 72.827419 
L 145.251148 65.734617 
L 146.314129 59.443059 
L 147.359394 49.90602 
L 148.440094 53.519175 
L 149.503078 51.103631 
L 150.566055 50.447547 
L 151.629036 52.905882 
L 152.69202 52.259435 
L 153.755001 56.923254 
L 154.800266 58.922937 
L 155.863251 61.592668 
L 156.926231 60.146286 
L 157.989216 61.482643 
L 159.052197 60.802771 
L 160.115181 63.034727 
L 161.178162 61.642337 
L 162.258862 61.839474 
L 163.304127 65.975411 
L 165.430092 67.164726 
L 166.493076 67.080533 
L 167.556057 67.654651 
L 168.636749 68.107818 
L 169.699734 65.778277 
L 170.762718 66.579843 
L 172.88868 66.964601 
L 173.951664 68.753056 
L 175.014645 69.413281 
L 177.140606 68.539089 
L 178.203587 67.778 
L 179.266571 72.113557 
L 180.329552 72.036288 
L 181.392536 74.712674 
L 182.455517 73.061983 
L 183.518501 73.324069 
L 184.581482 73.25143 
L 185.644463 73.446023 
L 186.707447 69.945513 
L 187.770432 71.984086 
L 188.833412 71.091702 
L 189.896389 67.913211 
L 190.95937 67.507258 
L 192.022354 62.885095 
L 193.085339 66.848205 
L 194.148319 68.459881 
L 195.2113 68.88837 
L 196.274284 71.410792 
L 197.337265 75.131217 
L 198.400249 77.118943 
L 199.46323 86.240253 
L 200.526215 88.249898 
L 201.589195 88.742695 
L 202.63446 89.052783 
L 203.697437 88.880935 
L 204.778137 90.023418 
L 205.841122 90.224365 
L 207.967083 92.019799 
L 209.030067 88.981675 
L 210.093052 91.345771 
L 211.156033 92.013177 
L 212.219013 90.599919 
L 213.281998 92.135279 
L 214.344982 88.906199 
L 215.407963 92.972898 
L 216.47094 94.204278 
L 217.53392 91.718485 
L 218.596905 90.531923 
L 219.659889 89.546059 
L 220.72287 86.637964 
L 221.785851 87.982339 
L 222.848835 82.303343 
L 223.911816 73.397993 
L 224.9748 65.832461 
L 226.037781 74.505113 
L 227.100765 75.665292 
L 228.163746 72.300903 
L 229.226723 76.805158 
L 230.289707 62.11885 
L 231.352688 67.888402 
L 232.415672 72.587928 
L 233.478653 76.135853 
L 234.541634 78.722788 
L 235.604618 80.740315 
L 236.667603 73.371352 
L 237.730583 71.188607 
L 238.793564 69.546913 
L 239.856541 70.426261 
L 240.919529 73.309694 
L 241.982513 73.960863 
L 243.04549 75.069213 
L 244.108471 74.6304 
L 245.171455 70.981911 
L 246.216721 72.161083 
L 247.297421 70.43904 
L 249.423386 70.163715 
L 250.468647 71.573623 
L 251.549347 69.640103 
L 252.594612 72.660246 
L 253.675316 72.445502 
L 254.738297 71.403583 
L 255.801273 73.521842 
L 256.864254 68.304722 
L 257.927238 64.677479 
L 258.972504 67.85615 
L 260.053204 68.403918 
L 261.116184 72.683703 
L 262.161449 73.154397 
L 263.224434 79.369503 
L 264.287418 77.903946 
L 265.368114 78.507107 
L 266.431091 78.15702 
L 267.49408 82.905858 
L 268.557064 83.943669 
L 269.620041 79.424366 
L 270.683022 67.83177 
L 271.746006 65.352789 
L 272.808987 73.777779 
L 273.871971 71.138874 
L 274.934952 72.153542 
L 275.997936 76.418109 
L 277.060917 75.902549 
L 278.123898 77.197004 
L 279.186882 74.500459 
L 280.249866 75.871039 
L 281.312847 70.70839 
L 282.375824 79.251203 
L 283.438805 77.424518 
L 284.501789 81.188384 
L 285.564774 86.902249 
L 286.627754 77.966637 
L 287.690735 85.999389 
L 288.753716 84.102622 
L 289.8167 87.169086 
L 290.879684 85.427538 
L 291.942665 91.28239 
L 293.005642 85.255611 
L 294.06863 86.980748 
L 295.131607 85.257512 
L 297.257572 84.685538 
L 298.320557 85.479451 
L 299.383537 87.644517 
L 300.446518 87.829135 
L 301.509502 87.803765 
L 302.572487 85.595369 
L 304.698448 85.74283 
L 305.761425 84.750335 
L 306.824409 85.550289 
L 307.887398 88.772996 
L 308.950375 87.622709 
L 310.013355 87.693177 
L 311.076336 87.528232 
L 312.139324 85.020236 
L 313.202305 83.568375 
L 314.265285 81.035053 
L 315.328266 84.387893 
L 316.391251 83.046742 
L 317.454235 82.844324 
L 318.517216 81.365698 
L 319.580193 81.115637 
L 320.643181 81.034023 
L 321.706158 80.478795 
L 322.769142 82.018813 
L 323.814411 80.792217 
L 324.877388 81.539458 
L 325.958088 80.561977 
L 327.021069 80.300267 
L 328.084053 80.578845 
L 329.147038 80.210197 
L 330.210018 79.431159 
L 331.272999 80.924608 
L 332.318264 80.529693 
L 333.39896 80.824006 
L 334.461948 81.355777 
L 335.524925 81.639677 
L 336.587906 81.530778 
L 337.650887 80.305015 
L 338.713871 80.206876 
L 339.776855 79.809011 
L 340.822121 78.630758 
L 341.885101 78.455389 
L 342.948082 79.328191 
L 344.011066 79.210823 
L 345.074047 79.750279 
L 346.137032 79.761217 
L 347.217731 80.05957 
L 348.280708 78.557389 
L 349.343689 79.329391 
L 350.406673 78.230676 
L 351.469658 79.0566 
L 352.532639 78.647999 
L 353.595619 77.46661 
L 355.721584 76.633258 
L 356.784569 76.491638 
L 357.847549 76.486997 
L 358.910526 76.72548 
L 359.973515 75.830734 
L 361.036499 76.200991 
L 362.099476 75.148166 
L 363.162457 76.210547 
L 364.225437 75.23147 
L 365.288422 76.663486 
L 366.351406 75.465513 
L 367.414387 75.786842 
L 368.477367 75.678909 
L 369.540352 75.749204 
L 370.603333 75.582966 
L 371.666317 74.550252 
L 372.729294 75.310132 
L 373.792282 74.415881 
L 374.855259 75.204787 
L 375.91824 74.831355 
L 376.981224 75.456616 
L 378.044209 75.577821 
L 379.107189 74.948974 
L 380.17017 74.51618 
L 381.23315 75.816427 
L 382.296135 75.077066 
L 383.359119 75.71215 
L 384.4221 75.208713 
L 385.485077 75.693168 
L 386.530346 75.673017 
L 387.611042 74.779843 
L 388.674026 74.832705 
L 389.737007 74.450085 
L 390.799988 73.816928 
L 391.845253 74.480779 
L 392.925953 73.162436 
L 393.988937 73.096874 
L 395.051918 73.236352 
L 396.114902 72.521949 
L 397.177883 72.457965 
L 398.24086 72.058186 
L 399.303844 72.847418 
L 400.366833 71.922561 
L 401.42981 71.866803 
L 403.555771 71.501035 
L 404.618755 70.788814 
L 405.68174 70.974735 
L 406.74472 71.358541 
L 407.807701 70.632276 
L 408.870686 70.644622 
L 409.93367 71.212151 
L 410.996651 70.999609 
L 413.228909 71.252196 
L 414.185593 71.272117 
L 415.354874 70.77343 
L 416.311558 70.227983 
L 417.374538 70.524121 
L 418.437523 70.090714 
L 419.500504 70.816455 
L 420.563488 71.876264 
L 421.626469 69.658377 
L 422.689453 69.799507 
L 423.752434 71.184278 
L 424.815411 71.509669 
L 425.878395 71.5065 
L 426.941383 71.701044 
L 428.00436 72.254517 
L 430.130322 71.531423 
L 431.193306 71.896858 
L 432.25629 71.694278 
L 433.319271 71.35346 
L 434.488548 71.451853 
L 435.551529 72.266896 
L 436.614513 71.476863 
L 437.677502 71.661605 
L 438.740479 71.229063 
L 439.803459 72.119481 
L 440.866444 72.110955 
L 441.929424 71.682204 
L 442.992409 71.478999 
L 444.055389 71.786354 
L 445.118374 70.955738 
L 446.181355 71.080217 
L 447.244331 72.949143 
L 448.30732 72.963561 
L 449.370304 71.660388 
L 451.496262 72.448255 
L 452.559242 72.694831 
L 453.622227 72.400466 
L 454.685211 73.007961 
L 455.748192 72.287785 
L 456.811172 72.433929 
L 457.874149 72.042586 
L 458.937138 72.34933 
L 460.000122 73.064841 
L 461.063099 73.467533 
L 462.12608 71.99672 
L 463.189064 71.607445 
L 466.37801 72.00756 
L 467.440994 71.921514 
L 468.503975 72.531705 
L 469.566956 71.831255 
L 470.62994 72.221384 
L 471.692924 71.42084 
L 472.755905 71.524222 
L 473.818882 71.052839 
L 475.944847 71.041025 
L 477.007832 71.836677 
L 478.070812 71.412785 
L 480.196774 71.617807 
L 481.259758 71.538811 
L 482.322742 70.688461 
L 483.385723 70.456641 
L 484.4487 71.858563 
L 485.511688 70.992903 
L 486.574673 69.199554 
L 487.63765 69.152579 
L 488.70063 69.47694 
L 489.763615 68.686112 
L 490.826595 69.265817 
L 491.88958 67.246541 
L 492.95256 67.560523 
L 494.015545 67.178785 
L 495.078526 65.498847 
L 496.141506 66.561017 
L 497.204491 65.125434 
L 498.267475 65.841511 
L 499.330456 65.079444 
L 500.393433 65.637517 
L 501.456413 65.243018 
L 502.519398 65.97086 
L 503.582382 65.76908 
L 504.645363 64.507236 
L 505.708344 66.012267 
L 506.771324 65.575723 
L 507.834309 65.535709 
L 509.960274 64.691462 
L 511.023251 64.474085 
L 512.086239 65.001894 
L 513.149216 64.716401 
L 514.2122 63.979584 
L 515.275181 64.629493 
L 517.401146 63.8718 
L 518.464127 64.51553 
L 519.527111 63.911661 
L 520.590096 64.851469 
L 521.653076 65.159378 
L 522.716057 64.129241 
L 523.779034 65.558525 
L 524.842022 64.094902 
L 525.905006 64.685572 
L 526.967983 64.053613 
L 528.030964 65.321806 
L 529.093948 65.146883 
L 530.156929 65.77869 
L 531.219913 65.662967 
L 532.282894 65.200851 
L 533.345875 66.727092 
L 534.408859 67.422672 
L 535.471844 65.911303 
L 536.534824 66.46482 
L 537.597801 66.824474 
L 538.660789 65.727308 
L 539.723766 65.751112 
L 540.786755 63.618467 
L 541.849731 68.819081 
L 542.912716 65.790364 
L 543.975697 64.915942 
L 545.038677 66.688297 
L 546.101662 63.840493 
L 547.164646 60.668041 
L 548.227627 64.892249 
L 549.290607 65.277449 
L 550.353584 61.374916 
L 551.416573 61.840031 
L 552.479557 61.722207 
L 553.542534 65.601525 
L 554.605515 64.61068 
L 555.668499 62.86416 
L 556.73148 63.724999 
L 557.794464 63.333224 
L 558.857445 63.293355 
L 559.920425 62.703328 
L 560.98341 62.298129 
L 562.046391 62.754129 
L 563.109375 62.622647 
L 564.172352 62.721037 
L 565.23534 62.554247 
L 566.298317 63.082727 
L 567.361298 62.838866 
L 568.424282 63.210483 
L 569.487267 63.198991 
L 570.550247 63.009604 
L 571.613228 63.258429 
L 572.676208 62.454567 
L 573.739193 62.443619 
L 574.802177 62.238513 
L 575.865158 62.818224 
L 576.928135 62.514779 
L 577.991123 62.003446 
L 580.117085 61.823877 
L 581.180065 62.22108 
L 582.24305 62.358211 
L 583.30603 62.618499 
L 584.369015 62.359909 
L 585.431995 61.762427 
L 586.494976 63.484256 
L 587.557961 63.431649 
L 588.620941 63.230372 
L 589.683926 63.334365 
L 590.746902 63.921771 
L 592.872868 64.029772 
L 593.935848 64.666925 
L 594.998833 63.737384 
L 596.061817 63.752989 
L 597.124798 63.087941 
L 598.187778 62.872086 
L 600.313744 63.958192 
L 601.376728 63.255057 
L 602.439709 63.891545 
L 603.502686 64.090029 
L 604.565674 63.498999 
L 605.628651 63.832205 
L 606.691635 63.890794 
L 607.754616 64.578873 
L 608.8176 63.936471 
L 609.880581 63.629013 
L 610.943562 63.670407 
L 612.006546 63.55328 
L 613.069527 63.742876 
L 614.132511 63.784683 
L 615.195492 62.923217 
L 616.258469 63.021548 
L 617.321457 62.954395 
L 618.384441 64.336572 
L 619.447418 63.842713 
L 620.510399 62.755335 
L 621.57338 62.871829 
L 622.636364 63.437838 
L 622.636364 63.437838 
" clip-path="url(#p2c37b8ece2)" style="fill: none; stroke: #1f77b4; stroke-width: 2.5; stroke-linecap: square"/>
   </g>
   <g id="line2d_28">
    <path d="M 115.363632 89.041735 
L 116.42662 89.135798 
L 117.489605 88.540615 
L 118.552582 88.849051 
L 119.615562 89.041075 
L 120.678543 88.968901 
L 121.741528 88.62231 
L 122.804512 89.027203 
L 123.867493 88.365164 
L 124.930473 88.629262 
L 128.243435 88.358617 
L 129.306416 88.770333 
L 130.3694 88.962324 
L 132.495365 88.351614 
L 134.62133 88.510486 
L 136.747288 87.652367 
L 137.810272 87.869582 
L 138.87326 88.276928 
L 139.936237 89.156011 
L 140.999218 87.55352 
L 142.062199 87.98646 
L 143.125183 86.059075 
L 144.188168 83.544731 
L 145.251148 83.943107 
L 146.314129 86.22968 
L 147.359394 86.751178 
L 148.440094 88.491179 
L 149.503078 87.208444 
L 150.566055 83.973758 
L 151.629036 82.862679 
L 152.69202 82.442319 
L 153.755001 83.669477 
L 154.800266 82.930283 
L 155.863251 85.087405 
L 156.926231 82.403134 
L 157.989216 82.603627 
L 159.052197 83.006733 
L 160.115181 82.45744 
L 161.178162 84.499195 
L 162.258862 81.996486 
L 163.304127 81.454873 
L 164.367104 83.466927 
L 165.430092 81.676371 
L 166.493076 81.238967 
L 167.556057 79.644939 
L 168.636749 80.451657 
L 169.699734 78.344763 
L 170.762718 77.759771 
L 171.825699 77.651165 
L 172.88868 76.949674 
L 173.951664 75.910656 
L 175.014645 77.22634 
L 176.077629 75.519188 
L 177.140606 76.265948 
L 178.203587 77.168022 
L 179.266571 76.706129 
L 180.329552 75.21709 
L 181.392536 77.28762 
L 183.518501 80.117864 
L 184.581482 78.301974 
L 185.644463 81.134517 
L 186.707447 78.668653 
L 187.770432 85.273829 
L 188.833412 84.415056 
L 189.896389 84.393199 
L 190.95937 88.005448 
L 192.022354 82.425975 
L 193.085339 86.788778 
L 194.148319 85.805905 
L 195.2113 84.251898 
L 196.274284 80.762821 
L 197.337265 79.314221 
L 198.400249 79.495345 
L 199.46323 81.945198 
L 200.526215 79.070134 
L 201.589195 77.412069 
L 202.63446 80.452365 
L 203.697437 76.952662 
L 204.778137 79.600141 
L 205.841122 75.722369 
L 206.904102 77.392735 
L 207.967083 77.770087 
L 209.030067 77.278785 
L 210.093052 78.416264 
L 211.156033 78.416464 
L 212.219013 82.274542 
L 213.281998 80.190441 
L 214.344982 79.441156 
L 215.407963 82.002421 
L 216.47094 75.581541 
L 217.53392 76.534367 
L 218.596905 77.670948 
L 219.659889 78.547687 
L 220.72287 78.610721 
L 222.848835 78.38835 
L 223.911816 97.809202 
L 224.9748 88.756672 
L 226.037781 95.016228 
L 227.100765 91.689693 
L 228.163746 86.857364 
L 229.226723 95.64601 
L 230.289707 92.408971 
L 231.352688 91.831034 
L 232.415672 82.308576 
L 233.478653 93.658998 
L 234.541634 86.427767 
L 235.604618 89.055682 
L 236.667603 85.922831 
L 237.730583 82.138798 
L 238.793564 86.927726 
L 239.856541 89.009156 
L 240.919529 92.966736 
L 241.982513 91.265363 
L 243.04549 92.162942 
L 244.108471 92.193993 
L 245.171455 91.658071 
L 246.216721 92.337792 
L 247.297421 91.904014 
L 248.360401 92.01023 
L 249.423386 93.809831 
L 250.468647 95.865691 
L 251.549347 96.421641 
L 252.594612 95.81917 
L 253.675316 96.100076 
L 254.738297 92.430498 
L 255.801273 90.090803 
L 256.864254 95.673945 
L 257.927238 90.182504 
L 258.972504 88.641884 
L 260.053204 86.055793 
L 261.116184 86.134143 
L 262.161449 86.005151 
L 263.224434 86.790392 
L 264.287418 91.074813 
L 265.368114 97.210181 
L 266.431091 86.047372 
L 267.49408 89.050287 
L 268.557064 86.697116 
L 269.620041 89.991516 
L 270.683022 96.10983 
L 271.746006 90.889711 
L 272.808987 92.089175 
L 273.871971 89.077255 
L 274.934952 93.616677 
L 275.997936 86.313028 
L 277.060917 85.951178 
L 278.123898 88.894441 
L 279.186882 83.365102 
L 280.249866 86.981597 
L 281.312847 76.671404 
L 282.375824 80.902132 
L 283.438805 79.223387 
L 284.501789 73.096611 
L 285.564774 78.055252 
L 286.627754 69.535547 
L 287.690735 76.231306 
L 288.753716 84.6427 
L 289.8167 83.540328 
L 290.879684 83.42699 
L 291.942665 85.841963 
L 293.005642 84.783855 
L 294.06863 88.091112 
L 295.131607 88.244779 
L 296.194592 88.956375 
L 297.257572 90.797059 
L 298.320557 87.438432 
L 299.383537 86.888163 
L 300.446518 85.463219 
L 301.509502 86.987862 
L 302.572487 86.808553 
L 303.635468 87.35075 
L 304.698448 86.265482 
L 306.824409 84.674313 
L 307.887398 87.29841 
L 308.950375 86.12681 
L 310.013355 84.300571 
L 311.076336 88.406517 
L 312.139324 84.095657 
L 313.202305 83.244493 
L 314.265285 84.549856 
L 315.328266 83.85344 
L 316.391251 84.865664 
L 317.454235 84.277083 
L 318.517216 85.160117 
L 319.580193 84.162707 
L 320.643181 85.105511 
L 321.706158 84.149806 
L 322.769142 83.507277 
L 323.814411 84.233134 
L 324.877388 84.139503 
L 325.958088 83.525551 
L 327.021069 83.610875 
L 328.084053 85.108786 
L 329.147038 84.721004 
L 330.210018 85.312007 
L 331.272999 85.129213 
L 332.318264 83.978765 
L 333.39896 84.683388 
L 334.461948 84.602336 
L 335.524925 83.071663 
L 336.587906 83.551667 
L 337.650887 82.793804 
L 338.713871 82.62815 
L 339.776855 83.134957 
L 340.822121 83.055511 
L 341.885101 81.718514 
L 344.011066 82.547493 
L 345.074047 82.327253 
L 346.137032 81.988582 
L 347.217731 82.895047 
L 348.280708 81.987663 
L 349.343689 83.605675 
L 350.406673 81.928457 
L 351.469658 82.820393 
L 352.532639 81.901022 
L 353.595619 82.830885 
L 354.6586 81.544669 
L 355.721584 81.974467 
L 356.784569 82.180817 
L 357.847549 81.561699 
L 358.910526 83.071617 
L 359.973515 82.55384 
L 361.036499 83.840331 
L 362.099476 83.939589 
L 363.162457 84.924228 
L 364.225437 83.566263 
L 365.288422 84.05416 
L 366.351406 83.830147 
L 367.414387 83.386464 
L 368.477367 84.156807 
L 369.540352 83.225629 
L 370.603333 84.128671 
L 371.666317 83.788683 
L 372.729294 84.453023 
L 373.792282 83.924541 
L 376.981224 83.986967 
L 378.044209 84.618769 
L 380.17017 84.300135 
L 382.296135 84.44341 
L 383.359119 84.207424 
L 384.4221 83.742265 
L 385.485077 84.868622 
L 386.530346 84.082258 
L 387.611042 85.023592 
L 388.674026 84.966512 
L 390.799988 85.070678 
L 391.845253 85.712063 
L 392.925953 85.867803 
L 393.988937 85.292968 
L 395.051918 86.377479 
L 396.114902 85.751299 
L 397.177883 85.852279 
L 398.24086 86.167822 
L 399.303844 87.187144 
L 400.366833 85.906685 
L 401.42981 86.888288 
L 402.49279 86.267873 
L 403.555771 86.491812 
L 404.618755 86.541078 
L 406.74472 86.853238 
L 408.870686 86.304575 
L 409.93367 86.618365 
L 410.996651 85.830052 
L 412.059628 86.209302 
L 413.228909 85.860727 
L 415.354874 86.995044 
L 416.311558 86.214321 
L 417.374538 86.622808 
L 419.500504 86.554609 
L 420.563488 86.148107 
L 421.626469 84.772022 
L 422.689453 85.99785 
L 423.752434 85.850946 
L 424.815411 85.478894 
L 425.878395 85.311669 
L 426.941383 85.81094 
L 428.00436 86.583664 
L 429.067341 85.821126 
L 430.130322 86.019342 
L 432.25629 85.707277 
L 433.319271 85.91984 
L 434.488548 85.882386 
L 435.551529 86.181559 
L 436.614513 85.790473 
L 437.677502 86.955162 
L 438.740479 85.380325 
L 439.803459 86.576109 
L 442.992409 86.218093 
L 444.055389 86.932648 
L 445.118374 86.16441 
L 446.181355 86.310013 
L 447.244331 86.290543 
L 448.30732 86.120085 
L 449.370304 84.774907 
L 450.433281 85.674968 
L 451.496262 85.753092 
L 452.559242 86.250978 
L 453.622227 85.533973 
L 454.685211 86.610629 
L 455.748192 85.874612 
L 456.811172 86.150373 
L 457.874149 85.722438 
L 458.937138 85.757753 
L 460.000122 85.652273 
L 461.063099 86.319179 
L 462.12608 86.198375 
L 463.189064 84.924255 
L 464.252045 86.528701 
L 465.315029 85.309639 
L 466.37801 85.961486 
L 467.440994 85.645189 
L 468.503975 85.993972 
L 469.566956 86.162565 
L 470.62994 86.086438 
L 471.692924 85.815956 
L 472.755905 86.000573 
L 473.818882 85.495237 
L 474.881863 85.43514 
L 477.007832 86.008534 
L 478.070812 85.700809 
L 479.133793 86.047118 
L 480.196774 85.640935 
L 481.259758 85.973 
L 482.322742 85.612659 
L 483.385723 85.598598 
L 484.4487 85.01168 
L 485.511688 87.176876 
L 486.574673 85.845571 
L 487.63765 85.583044 
L 488.70063 86.325772 
L 489.763615 85.71623 
L 490.826595 86.632986 
L 491.88958 84.965043 
L 492.95256 85.358277 
L 494.015545 84.879825 
L 495.078526 84.089421 
L 496.141506 84.869401 
L 497.204491 84.326159 
L 498.267475 84.974948 
L 499.330456 83.281622 
L 500.393433 84.230476 
L 501.456413 83.923275 
L 502.519398 84.230668 
L 503.582382 84.330283 
L 504.645363 83.469528 
L 505.708344 84.629223 
L 506.771324 83.627643 
L 507.834309 84.226101 
L 508.897293 82.427703 
L 509.960274 81.903969 
L 511.023251 83.048754 
L 513.149216 83.448517 
L 514.2122 82.54228 
L 515.275181 82.900977 
L 516.338165 83.625139 
L 517.401146 82.203406 
L 518.464127 83.235137 
L 519.527111 83.242603 
L 520.590096 82.910203 
L 521.653076 82.97486 
L 522.716057 83.708308 
L 523.779034 83.927853 
L 524.842022 83.806257 
L 525.905006 84.179304 
L 526.967983 83.455981 
L 528.030964 85.031517 
L 529.093948 84.925153 
L 530.156929 84.508643 
L 531.219913 85.843954 
L 532.282894 85.863874 
L 533.345875 86.350755 
L 534.408859 87.151355 
L 535.471844 86.550461 
L 536.534824 86.928613 
L 537.597801 86.129176 
L 538.660789 85.968551 
L 539.723766 86.077322 
L 540.786755 85.356276 
L 541.849731 89.496404 
L 542.912716 85.649285 
L 543.975697 85.110801 
L 545.038677 85.939285 
L 546.101662 85.403872 
L 547.164646 81.729968 
L 548.227627 85.479343 
L 549.290607 84.695618 
L 550.353584 83.083498 
L 551.416573 83.110723 
L 552.479557 83.011924 
L 553.542534 84.509676 
L 554.605515 83.61992 
L 555.668499 82.493566 
L 556.73148 83.620388 
L 557.794464 83.162238 
L 558.857445 83.971018 
L 559.920425 82.663354 
L 560.98341 83.008128 
L 562.046391 83.02157 
L 563.109375 82.85527 
L 564.172352 83.013333 
L 565.23534 83.308122 
L 566.298317 83.843335 
L 567.361298 83.793172 
L 568.424282 83.319233 
L 569.487267 83.623473 
L 570.550247 83.218172 
L 571.613228 83.47876 
L 572.676208 83.278526 
L 573.739193 82.958741 
L 574.802177 83.217463 
L 575.865158 82.935026 
L 576.928135 83.156662 
L 577.991123 82.666556 
L 579.0541 82.974414 
L 580.117085 82.658619 
L 581.180065 83.193259 
L 582.24305 83.394563 
L 586.494976 83.596738 
L 587.557961 84.110394 
L 588.620941 83.705701 
L 589.683926 84.172742 
L 590.746902 84.173263 
L 591.809891 84.831157 
L 592.872868 84.458261 
L 593.935848 84.902955 
L 596.061817 83.593593 
L 597.124798 84.582004 
L 598.187778 84.189039 
L 599.250759 84.279701 
L 600.313744 84.697601 
L 601.376728 84.216523 
L 602.439709 84.61931 
L 603.502686 84.549145 
L 604.565674 84.331589 
L 607.754616 84.371144 
L 608.8176 83.70195 
L 609.880581 83.819729 
L 610.943562 84.207865 
L 612.006546 83.822938 
L 613.069527 84.076252 
L 614.132511 84.054882 
L 616.258469 83.556967 
L 617.321457 83.623898 
L 618.384441 84.307826 
L 619.447418 84.046662 
L 621.57338 83.685945 
L 622.636364 84.288324 
L 622.636364 84.288324 
" clip-path="url(#p2c37b8ece2)" style="fill: none; stroke: #ff7f0e; stroke-width: 2.5; stroke-linecap: square"/>
   </g>
   <g id="line2d_29">
    <path d="M 115.363632 83.028129 
L 116.42662 82.882185 
L 117.489605 83.184463 
L 119.615562 83.231557 
L 120.678543 83.110891 
L 121.741528 83.378817 
L 122.804512 83.173882 
L 123.867493 83.211924 
L 125.993458 83.061147 
L 132.495365 83.120451 
L 133.558346 83.26347 
L 134.62133 83.609916 
L 136.747288 83.830824 
L 137.810272 84.121473 
L 138.87326 84.635963 
L 139.936237 85.354761 
L 140.999218 90.149021 
L 142.062199 93.75802 
L 143.125183 97.802846 
L 144.188168 97.625548 
L 145.251148 100.7272 
L 146.314129 103.177 
L 147.359394 100.217074 
L 148.440094 97.719599 
L 149.503078 99.110548 
L 151.629036 98.999832 
L 152.69202 102.350794 
L 153.755001 104.347886 
L 154.800266 103.231895 
L 155.863251 104.255151 
L 156.926231 105.89193 
L 157.989216 106.583221 
L 159.052197 109.137564 
L 160.115181 109.45253 
L 161.178162 110.136582 
L 162.258862 110.309693 
L 163.304127 110.011136 
L 165.430092 110.8039 
L 166.493076 109.995002 
L 167.556057 110.165374 
L 168.636749 111.67185 
L 169.699734 114.45735 
L 170.762718 114.223398 
L 171.825699 114.785475 
L 172.88868 116.295546 
L 173.951664 116.218819 
L 175.014645 116.445616 
L 176.077629 118.74424 
L 177.140606 120.227308 
L 178.203587 121.227344 
L 179.266571 115.558281 
L 180.329552 115.044441 
L 182.455517 112.709243 
L 183.518501 112.910694 
L 184.581482 111.381079 
L 185.644463 112.212053 
L 186.707447 114.002195 
L 187.770432 113.42816 
L 189.896389 107.75725 
L 190.95937 115.849515 
L 192.022354 112.079808 
L 193.085339 115.22554 
L 194.148319 119.314956 
L 195.2113 118.936341 
L 196.274284 121.598024 
L 197.337265 119.20738 
L 198.400249 122.060422 
L 200.526215 128.465472 
L 202.63446 130.822131 
L 203.697437 130.166175 
L 204.778137 132.407047 
L 205.841122 137.692313 
L 206.904102 139.398335 
L 207.967083 145.262462 
L 209.030067 146.501349 
L 210.093052 148.891171 
L 211.156033 149.491738 
L 212.219013 149.435103 
L 213.281998 163.422329 
L 214.344982 167.580415 
L 215.407963 173.940677 
L 216.47094 192.667378 
L 218.596905 206.365639 
L 220.72287 227.580301 
L 221.785851 232.704697 
L 222.848835 229.984157 
L 223.911816 207.528984 
L 224.9748 205.381496 
L 226.037781 207.340248 
L 227.100765 212.937906 
L 228.163746 209.716199 
L 229.226723 195.757367 
L 230.289707 163.54259 
L 231.352688 167.450655 
L 232.415672 177.220376 
L 233.478653 179.872652 
L 234.541634 175.9918 
L 235.604618 159.216599 
L 237.730583 146.027448 
L 238.793564 142.453096 
L 239.856541 145.756107 
L 240.919529 145.108247 
L 241.982513 145.421787 
L 244.108471 142.787248 
L 245.171455 138.820804 
L 246.216721 122.554816 
L 247.297421 123.938002 
L 248.360401 124.684406 
L 249.423386 124.115201 
L 250.468647 123.971368 
L 251.549347 120.383298 
L 253.675316 101.383856 
L 254.738297 107.161688 
L 255.801273 110.776324 
L 257.927238 101.901004 
L 258.972504 100.422207 
L 260.053204 99.392003 
L 261.116184 99.144235 
L 262.161449 99.661776 
L 263.224434 95.708572 
L 264.287418 96.160824 
L 265.368114 102.53462 
L 266.431091 108.036361 
L 267.49408 121.210537 
L 268.557064 132.421013 
L 269.620041 138.265327 
L 270.683022 119.16741 
L 271.746006 123.38202 
L 272.808987 123.659652 
L 273.871971 122.796027 
L 274.934952 109.432595 
L 275.997936 124.569465 
L 277.060917 134.510981 
L 278.123898 147.793471 
L 279.186882 158.239608 
L 281.312847 200.123948 
L 282.375824 212.841779 
L 283.438805 219.805056 
L 284.501789 236.59467 
L 285.564774 246.24 
L 286.627754 236.154914 
L 287.690735 211.64575 
L 288.753716 156.229644 
L 289.8167 134.298513 
L 290.879684 116.881673 
L 291.942665 106.754144 
L 293.005642 90.282636 
L 294.06863 83.525487 
L 295.131607 84.854524 
L 296.194592 84.41159 
L 297.257572 85.801037 
L 298.320557 85.164002 
L 299.383537 84.24544 
L 300.446518 84.025507 
L 303.635468 84.493006 
L 305.761425 83.677313 
L 306.824409 83.946829 
L 307.887398 83.566065 
L 308.950375 83.865712 
L 310.013355 83.576948 
L 311.076336 83.410236 
L 312.139324 84.29728 
L 313.202305 84.84312 
L 314.265285 84.274507 
L 315.328266 83.195503 
L 316.391251 84.517492 
L 317.454235 84.718496 
L 318.517216 84.774033 
L 319.580193 84.705593 
L 321.706158 85.178947 
L 322.769142 85.787186 
L 323.814411 85.685185 
L 324.877388 85.762088 
L 325.958088 86.042813 
L 327.021069 85.193035 
L 328.084053 85.341243 
L 329.147038 85.078304 
L 330.210018 84.649111 
L 331.272999 84.99903 
L 332.318264 84.880665 
L 333.39896 84.946914 
L 335.524925 84.634216 
L 336.587906 84.277738 
L 337.650887 84.618873 
L 338.713871 84.585236 
L 339.776855 84.874581 
L 340.822121 84.39917 
L 344.011066 84.388034 
L 345.074047 84.860726 
L 346.137032 84.821999 
L 347.217731 85.061936 
L 348.280708 84.503893 
L 349.343689 84.956192 
L 350.406673 84.710102 
L 351.469658 84.951614 
L 352.532639 84.856313 
L 353.595619 84.997282 
L 354.6586 85.294436 
L 355.721584 84.791915 
L 356.784569 84.552532 
L 357.847549 83.98761 
L 358.910526 84.109852 
L 359.973515 84.96319 
L 361.036499 84.689077 
L 362.099476 84.901832 
L 363.162457 85.401236 
L 365.288422 85.769105 
L 366.351406 85.894181 
L 367.414387 85.63866 
L 368.477367 85.929263 
L 369.540352 85.736975 
L 370.603333 86.127215 
L 371.666317 85.893343 
L 372.729294 86.042106 
L 374.855259 86.058909 
L 375.91824 85.567803 
L 376.981224 85.642347 
L 378.044209 85.926563 
L 380.17017 85.617853 
L 381.23315 86.008912 
L 382.296135 86.734945 
L 383.359119 86.472736 
L 384.4221 86.822066 
L 385.485077 86.376644 
L 389.737007 85.853668 
L 390.799988 85.565513 
L 391.845253 85.762233 
L 392.925953 85.84098 
L 393.988937 85.548392 
L 395.051918 85.862605 
L 396.114902 85.25325 
L 397.177883 85.405752 
L 398.24086 85.203154 
L 400.366833 84.362753 
L 401.42981 84.971947 
L 402.49279 84.896046 
L 403.555771 84.705146 
L 404.618755 84.896218 
L 405.68174 84.673382 
L 406.74472 84.26518 
L 407.807701 84.709402 
L 408.870686 84.896815 
L 409.93367 84.480367 
L 410.996651 84.854206 
L 414.185593 84.581385 
L 415.354874 84.869308 
L 416.311558 84.645527 
L 417.374538 85.006353 
L 419.500504 84.607684 
L 420.563488 84.9394 
L 422.689453 85.077332 
L 423.752434 85.469217 
L 424.815411 85.075302 
L 425.878395 85.035458 
L 426.941383 84.821709 
L 429.067341 84.951756 
L 430.130322 84.749066 
L 431.193306 85.038858 
L 432.25629 84.788622 
L 433.319271 85.015584 
L 434.488548 84.891736 
L 435.551529 85.011091 
L 436.614513 84.78497 
L 437.677502 85.303881 
L 438.740479 84.82289 
L 440.866444 84.877147 
L 441.929424 84.817498 
L 442.992409 84.467813 
L 444.055389 84.677451 
L 445.118374 85.102878 
L 446.181355 84.919006 
L 447.244331 85.107596 
L 448.30732 84.914719 
L 449.370304 85.039642 
L 450.433281 85.429182 
L 451.496262 84.913469 
L 452.559242 85.330191 
L 453.622227 85.138973 
L 455.748192 85.575012 
L 456.811172 85.657161 
L 457.874149 85.346558 
L 458.937138 84.675161 
L 460.000122 84.690954 
L 461.063099 85.30844 
L 462.12608 85.208982 
L 463.189064 84.780917 
L 466.37801 84.624166 
L 467.440994 85.064858 
L 468.503975 85.701537 
L 469.566956 85.196767 
L 470.62994 85.737766 
L 471.692924 85.276703 
L 472.755905 85.395786 
L 473.818882 85.673318 
L 474.881863 85.371258 
L 475.944847 84.777731 
L 477.007832 85.328577 
L 478.070812 85.033278 
L 479.133793 84.572234 
L 480.196774 84.415648 
L 481.259758 85.541103 
L 482.322742 85.341266 
L 483.385723 85.578618 
L 484.4487 85.199662 
L 485.511688 85.322306 
L 486.574673 86.528901 
L 487.63765 86.152447 
L 488.70063 85.347388 
L 489.763615 85.21762 
L 490.826595 86.151219 
L 491.88958 85.025848 
L 492.95256 85.174653 
L 494.015545 85.077776 
L 495.078526 84.796699 
L 496.141506 84.67399 
L 497.204491 83.525961 
L 498.267475 84.157221 
L 499.330456 83.811849 
L 500.393433 83.758449 
L 501.456413 83.494837 
L 502.519398 83.530722 
L 503.582382 83.700758 
L 504.645363 83.651297 
L 505.708344 83.77991 
L 506.771324 83.252831 
L 507.834309 83.73791 
L 508.897293 83.293344 
L 509.960274 83.118952 
L 511.023251 84.718534 
L 512.086239 84.260285 
L 513.149216 84.550024 
L 514.2122 83.272984 
L 515.275181 82.853837 
L 516.338165 83.284284 
L 517.401146 83.415509 
L 518.464127 83.921368 
L 519.527111 83.607958 
L 520.590096 84.182208 
L 521.653076 83.735852 
L 522.716057 83.49354 
L 523.779034 83.568088 
L 524.842022 82.941371 
L 525.905006 83.40157 
L 528.030964 83.182846 
L 529.093948 83.95756 
L 530.156929 83.360442 
L 531.219913 83.046336 
L 532.282894 83.162256 
L 533.345875 82.454048 
L 534.408859 83.694104 
L 535.471844 83.22927 
L 536.534824 82.345324 
L 537.597801 82.779775 
L 538.660789 82.265434 
L 539.723766 82.714199 
L 540.786755 81.770053 
L 541.849731 83.320506 
L 542.912716 82.958629 
L 543.975697 81.924135 
L 545.038677 82.769741 
L 546.101662 81.968212 
L 547.164646 80.121274 
L 548.227627 82.701954 
L 549.290607 82.573295 
L 550.353584 81.73878 
L 551.416573 82.686401 
L 552.479557 83.032684 
L 553.542534 84.043285 
L 555.668499 82.878422 
L 556.73148 83.262326 
L 557.794464 83.831983 
L 559.920425 82.932664 
L 560.98341 82.658761 
L 562.046391 82.763641 
L 563.109375 83.661538 
L 564.172352 83.863157 
L 566.298317 84.782684 
L 568.424282 84.447503 
L 569.487267 84.765509 
L 570.550247 84.67695 
L 571.613228 84.773066 
L 572.676208 84.740714 
L 573.739193 84.425097 
L 574.802177 84.395755 
L 575.865158 84.479905 
L 576.928135 84.871086 
L 577.991123 84.651149 
L 579.0541 84.900539 
L 580.117085 84.856504 
L 581.180065 85.440548 
L 582.24305 84.661501 
L 583.30603 85.02986 
L 584.369015 84.886646 
L 585.431995 84.16542 
L 586.494976 84.813231 
L 587.557961 84.815464 
L 588.620941 84.627711 
L 589.683926 85.087122 
L 590.746902 84.964299 
L 591.809891 85.265472 
L 592.872868 84.838699 
L 594.998833 85.277361 
L 596.061817 85.560859 
L 597.124798 85.31068 
L 598.187778 85.352601 
L 599.250759 85.540032 
L 600.313744 85.357239 
L 601.376728 84.928241 
L 602.439709 85.519711 
L 603.502686 85.720883 
L 605.628651 85.441668 
L 606.691635 85.676102 
L 607.754616 86.112213 
L 608.8176 86.281817 
L 609.880581 86.091613 
L 610.943562 86.655025 
L 612.006546 86.246031 
L 613.069527 86.1246 
L 614.132511 86.654551 
L 615.195492 86.694062 
L 616.258469 86.871864 
L 617.321457 86.512645 
L 618.384441 86.458075 
L 619.447418 86.24371 
L 620.510399 86.700666 
L 621.57338 86.273626 
L 622.636364 86.710765 
L 622.636364 86.710765 
" clip-path="url(#p2c37b8ece2)" style="fill: none; stroke: #2ca02c; stroke-width: 2.5; stroke-linecap: square"/>
   </g>
   <g id="patch_3">
    <path d="M 90 256.32 
L 90 34.56 
" style="fill: none; stroke: #000000; stroke-width: 0.8; stroke-linejoin: miter; stroke-linecap: square"/>
   </g>
   <g id="patch_4">
    <path d="M 648 256.32 
L 648 34.56 
" style="fill: none; stroke: #000000; stroke-width: 0.8; stroke-linejoin: miter; stroke-linecap: square"/>
   </g>
   <g id="patch_5">
    <path d="M 90 256.32 
L 648 256.32 
" style="fill: none; stroke: #000000; stroke-width: 0.8; stroke-linejoin: miter; stroke-linecap: square"/>
   </g>
   <g id="patch_6">
    <path d="M 90 34.56 
L 648 34.56 
" style="fill: none; stroke: #000000; stroke-width: 0.8; stroke-linejoin: miter; stroke-linecap: square"/>
   </g>
   <g id="text_16">
    <!-- design_with_rachet_locking_ft_data_mapped_to_robot - Forces -->
    <g transform="translate(181.982812 28.56)scale(0.12 -0.12)">
     <defs>
      <path id="DejaVuSans-64" d="M 2906 2969 
L 2906 4863 
L 3481 4863 
L 3481 0 
L 2906 0 
L 2906 525 
Q 2725 213 2448 61 
Q 2172 -91 1784 -91 
Q 1150 -91 751 415 
Q 353 922 353 1747 
Q 353 2572 751 3078 
Q 1150 3584 1784 3584 
Q 2172 3584 2448 3432 
Q 2725 3281 2906 2969 
z
M 947 1747 
Q 947 1113 1208 752 
Q 1469 391 1925 391 
Q 2381 391 2643 752 
Q 2906 1113 2906 1747 
Q 2906 2381 2643 2742 
Q 2381 3103 1925 3103 
Q 1469 3103 1208 2742 
Q 947 2381 947 1747 
z
" transform="scale(0.015625)"/>
      <path id="DejaVuSans-73" d="M 2834 3397 
L 2834 2853 
Q 2591 2978 2328 3040 
Q 2066 3103 1784 3103 
Q 1356 3103 1142 2972 
Q 928 2841 928 2578 
Q 928 2378 1081 2264 
Q 1234 2150 1697 2047 
L 1894 2003 
Q 2506 1872 2764 1633 
Q 3022 1394 3022 966 
Q 3022 478 2636 193 
Q 2250 -91 1575 -91 
Q 1294 -91 989 -36 
Q 684 19 347 128 
L 347 722 
Q 666 556 975 473 
Q 1284 391 1588 391 
Q 1994 391 2212 530 
Q 2431 669 2431 922 
Q 2431 1156 2273 1281 
Q 2116 1406 1581 1522 
L 1381 1569 
Q 847 1681 609 1914 
Q 372 2147 372 2553 
Q 372 3047 722 3315 
Q 1072 3584 1716 3584 
Q 2034 3584 2315 3537 
Q 2597 3491 2834 3397 
z
" transform="scale(0.015625)"/>
      <path id="DejaVuSans-67" d="M 2906 1791 
Q 2906 2416 2648 2759 
Q 2391 3103 1925 3103 
Q 1463 3103 1205 2759 
Q 947 2416 947 1791 
Q 947 1169 1205 825 
Q 1463 481 1925 481 
Q 2391 481 2648 825 
Q 2906 1169 2906 1791 
z
M 3481 434 
Q 3481 -459 3084 -895 
Q 2688 -1331 1869 -1331 
Q 1566 -1331 1297 -1286 
Q 1028 -1241 775 -1147 
L 775 -588 
Q 1028 -725 1275 -790 
Q 1522 -856 1778 -856 
Q 2344 -856 2625 -561 
Q 2906 -266 2906 331 
L 2906 616 
Q 2728 306 2450 153 
Q 2172 0 1784 0 
Q 1141 0 747 490 
Q 353 981 353 1791 
Q 353 2603 747 3093 
Q 1141 3584 1784 3584 
Q 2172 3584 2450 3431 
Q 2728 3278 2906 2969 
L 2906 3500 
L 3481 3500 
L 3481 434 
z
" transform="scale(0.015625)"/>
      <path id="DejaVuSans-6e" d="M 3513 2113 
L 3513 0 
L 2938 0 
L 2938 2094 
Q 2938 2591 2744 2837 
Q 2550 3084 2163 3084 
Q 1697 3084 1428 2787 
Q 1159 2491 1159 1978 
L 1159 0 
L 581 0 
L 581 3500 
L 1159 3500 
L 1159 2956 
Q 1366 3272 1645 3428 
Q 1925 3584 2291 3584 
Q 2894 3584 3203 3211 
Q 3513 2838 3513 2113 
z
" transform="scale(0.015625)"/>
      <path id="DejaVuSans-5f" d="M 3263 -1063 
L 3263 -1509 
L -63 -1509 
L -63 -1063 
L 3263 -1063 
z
" transform="scale(0.015625)"/>
      <path id="DejaVuSans-77" d="M 269 3500 
L 844 3500 
L 1563 769 
L 2278 3500 
L 2956 3500 
L 3675 769 
L 4391 3500 
L 4966 3500 
L 4050 0 
L 3372 0 
L 2619 2869 
L 1863 0 
L 1184 0 
L 269 3500 
z
" transform="scale(0.015625)"/>
      <path id="DejaVuSans-74" d="M 1172 4494 
L 1172 3500 
L 2356 3500 
L 2356 3053 
L 1172 3053 
L 1172 1153 
Q 1172 725 1289 603 
Q 1406 481 1766 481 
L 2356 481 
L 2356 0 
L 1766 0 
Q 1100 0 847 248 
Q 594 497 594 1153 
L 594 3053 
L 172 3053 
L 172 3500 
L 594 3500 
L 594 4494 
L 1172 4494 
z
" transform="scale(0.015625)"/>
      <path id="DejaVuSans-68" d="M 3513 2113 
L 3513 0 
L 2938 0 
L 2938 2094 
Q 2938 2591 2744 2837 
Q 2550 3084 2163 3084 
Q 1697 3084 1428 2787 
Q 1159 2491 1159 1978 
L 1159 0 
L 581 0 
L 581 4863 
L 1159 4863 
L 1159 2956 
Q 1366 3272 1645 3428 
Q 1925 3584 2291 3584 
Q 2894 3584 3203 3211 
Q 3513 2838 3513 2113 
z
" transform="scale(0.015625)"/>
      <path id="DejaVuSans-61" d="M 2194 1759 
Q 1497 1759 1228 1600 
Q 959 1441 959 1056 
Q 959 750 1161 570 
Q 1363 391 1709 391 
Q 2188 391 2477 730 
Q 2766 1069 2766 1631 
L 2766 1759 
L 2194 1759 
z
M 3341 1997 
L 3341 0 
L 2766 0 
L 2766 531 
Q 2569 213 2275 61 
Q 1981 -91 1556 -91 
Q 1019 -91 701 211 
Q 384 513 384 1019 
Q 384 1609 779 1909 
Q 1175 2209 1959 2209 
L 2766 2209 
L 2766 2266 
Q 2766 2663 2505 2880 
Q 2244 3097 1772 3097 
Q 1472 3097 1187 3025 
Q 903 2953 641 2809 
L 641 3341 
Q 956 3463 1253 3523 
Q 1550 3584 1831 3584 
Q 2591 3584 2966 3190 
Q 3341 2797 3341 1997 
z
" transform="scale(0.015625)"/>
      <path id="DejaVuSans-6c" d="M 603 4863 
L 1178 4863 
L 1178 0 
L 603 0 
L 603 4863 
z
" transform="scale(0.015625)"/>
      <path id="DejaVuSans-6b" d="M 581 4863 
L 1159 4863 
L 1159 1991 
L 2875 3500 
L 3609 3500 
L 1753 1863 
L 3688 0 
L 2938 0 
L 1159 1709 
L 1159 0 
L 581 0 
L 581 4863 
z
" transform="scale(0.015625)"/>
      <path id="DejaVuSans-66" d="M 2375 4863 
L 2375 4384 
L 1825 4384 
Q 1516 4384 1395 4259 
Q 1275 4134 1275 3809 
L 1275 3500 
L 2222 3500 
L 2222 3053 
L 1275 3053 
L 1275 0 
L 697 0 
L 697 3053 
L 147 3053 
L 147 3500 
L 697 3500 
L 697 3744 
Q 697 4328 969 4595 
Q 1241 4863 1831 4863 
L 2375 4863 
z
" transform="scale(0.015625)"/>
      <path id="DejaVuSans-70" d="M 1159 525 
L 1159 -1331 
L 581 -1331 
L 581 3500 
L 1159 3500 
L 1159 2969 
Q 1341 3281 1617 3432 
Q 1894 3584 2278 3584 
Q 2916 3584 3314 3078 
Q 3713 2572 3713 1747 
Q 3713 922 3314 415 
Q 2916 -91 2278 -91 
Q 1894 -91 1617 61 
Q 1341 213 1159 525 
z
M 3116 1747 
Q 3116 2381 2855 2742 
Q 2594 3103 2138 3103 
Q 1681 3103 1420 2742 
Q 1159 2381 1159 1747 
Q 1159 1113 1420 752 
Q 1681 391 2138 391 
Q 2594 391 2855 752 
Q 3116 1113 3116 1747 
z
" transform="scale(0.015625)"/>
      <path id="DejaVuSans-62" d="M 3116 1747 
Q 3116 2381 2855 2742 
Q 2594 3103 2138 3103 
Q 1681 3103 1420 2742 
Q 1159 2381 1159 1747 
Q 1159 1113 1420 752 
Q 1681 391 2138 391 
Q 2594 391 2855 752 
Q 3116 1113 3116 1747 
z
M 1159 2969 
Q 1341 3281 1617 3432 
Q 1894 3584 2278 3584 
Q 2916 3584 3314 3078 
Q 3713 2572 3713 1747 
Q 3713 922 3314 415 
Q 2916 -91 2278 -91 
Q 1894 -91 1617 61 
Q 1341 213 1159 525 
L 1159 0 
L 581 0 
L 581 4863 
L 1159 4863 
L 1159 2969 
z
" transform="scale(0.015625)"/>
      <path id="DejaVuSans-2d" d="M 313 2009 
L 1997 2009 
L 1997 1497 
L 313 1497 
L 313 2009 
z
" transform="scale(0.015625)"/>
     </defs>
     <use xlink:href="#DejaVuSans-64"/>
     <use xlink:href="#DejaVuSans-65" x="63.476562"/>
     <use xlink:href="#DejaVuSans-73" x="125"/>
     <use xlink:href="#DejaVuSans-69" x="177.099609"/>
     <use xlink:href="#DejaVuSans-67" x="204.882812"/>
     <use xlink:href="#DejaVuSans-6e" x="268.359375"/>
     <use xlink:href="#DejaVuSans-5f" x="331.738281"/>
     <use xlink:href="#DejaVuSans-77" x="381.738281"/>
     <use xlink:href="#DejaVuSans-69" x="463.525391"/>
     <use xlink:href="#DejaVuSans-74" x="491.308594"/>
     <use xlink:href="#DejaVuSans-68" x="530.517578"/>
     <use xlink:href="#DejaVuSans-5f" x="593.896484"/>
     <use xlink:href="#DejaVuSans-72" x="643.896484"/>
     <use xlink:href="#DejaVuSans-61" x="685.009766"/>
     <use xlink:href="#DejaVuSans-63" x="746.289062"/>
     <use xlink:href="#DejaVuSans-68" x="801.269531"/>
     <use xlink:href="#DejaVuSans-65" x="864.648438"/>
     <use xlink:href="#DejaVuSans-74" x="926.171875"/>
     <use xlink:href="#DejaVuSans-5f" x="965.380859"/>
     <use xlink:href="#DejaVuSans-6c" x="1015.380859"/>
     <use xlink:href="#DejaVuSans-6f" x="1043.164062"/>
     <use xlink:href="#DejaVuSans-63" x="1104.345703"/>
     <use xlink:href="#DejaVuSans-6b" x="1159.326172"/>
     <use xlink:href="#DejaVuSans-69" x="1217.236328"/>
     <use xlink:href="#DejaVuSans-6e" x="1245.019531"/>
     <use xlink:href="#DejaVuSans-67" x="1308.398438"/>
     <use xlink:href="#DejaVuSans-5f" x="1371.875"/>
     <use xlink:href="#DejaVuSans-66" x="1421.875"/>
     <use xlink:href="#DejaVuSans-74" x="1455.330078"/>
     <use xlink:href="#DejaVuSans-5f" x="1494.539062"/>
     <use xlink:href="#DejaVuSans-64" x="1544.539062"/>
     <use xlink:href="#DejaVuSans-61" x="1608.015625"/>
     <use xlink:href="#DejaVuSans-74" x="1669.294922"/>
     <use xlink:href="#DejaVuSans-61" x="1708.503906"/>
     <use xlink:href="#DejaVuSans-5f" x="1769.783203"/>
     <use xlink:href="#DejaVuSans-6d" x="1819.783203"/>
     <use xlink:href="#DejaVuSans-61" x="1917.195312"/>
     <use xlink:href="#DejaVuSans-70" x="1978.474609"/>
     <use xlink:href="#DejaVuSans-70" x="2041.951172"/>
     <use xlink:href="#DejaVuSans-65" x="2105.427734"/>
     <use xlink:href="#DejaVuSans-64" x="2166.951172"/>
     <use xlink:href="#DejaVuSans-5f" x="2230.427734"/>
     <use xlink:href="#DejaVuSans-74" x="2280.427734"/>
     <use xlink:href="#DejaVuSans-6f" x="2319.636719"/>
     <use xlink:href="#DejaVuSans-5f" x="2380.818359"/>
     <use xlink:href="#DejaVuSans-72" x="2430.818359"/>
     <use xlink:href="#DejaVuSans-6f" x="2469.681641"/>
     <use xlink:href="#DejaVuSans-62" x="2530.863281"/>
     <use xlink:href="#DejaVuSans-6f" x="2594.339844"/>
     <use xlink:href="#DejaVuSans-74" x="2655.521484"/>
     <use xlink:href="#DejaVuSans-20" x="2694.730469"/>
     <use xlink:href="#DejaVuSans-2d" x="2726.517578"/>
     <use xlink:href="#DejaVuSans-20" x="2762.601562"/>
     <use xlink:href="#DejaVuSans-46" x="2794.388672"/>
     <use xlink:href="#DejaVuSans-6f" x="2848.283203"/>
     <use xlink:href="#DejaVuSans-72" x="2909.464844"/>
     <use xlink:href="#DejaVuSans-63" x="2948.328125"/>
     <use xlink:href="#DejaVuSans-65" x="3003.308594"/>
     <use xlink:href="#DejaVuSans-73" x="3064.832031"/>
    </g>
   </g>
   <g id="legend_1">
    <g id="patch_7">
     <path d="M 572.904688 251.32 
L 641 251.32 
Q 643 251.32 643 249.32 
L 643 205.45125 
Q 643 203.45125 641 203.45125 
L 572.904688 203.45125 
Q 570.904688 203.45125 570.904688 205.45125 
L 570.904688 249.32 
Q 570.904688 251.32 572.904688 251.32 
z
" style="fill: #ffffff; opacity: 0.8; stroke: #cccccc; stroke-linejoin: miter"/>
    </g>
    <g id="line2d_30">
     <path d="M 574.904688 211.549688 
L 584.904688 211.549688 
L 594.904688 211.549688 
" style="fill: none; stroke: #1f77b4; stroke-width: 2.5; stroke-linecap: square"/>
    </g>
    <g id="text_17">
     <!-- force_x -->
     <g transform="translate(602.904688 215.049688)scale(0.1 -0.1)">
      <defs>
       <path id="DejaVuSans-78" d="M 3513 3500 
L 2247 1797 
L 3578 0 
L 2900 0 
L 1881 1375 
L 863 0 
L 184 0 
L 1544 1831 
L 300 3500 
L 978 3500 
L 1906 2253 
L 2834 3500 
L 3513 3500 
z
" transform="scale(0.015625)"/>
      </defs>
      <use xlink:href="#DejaVuSans-66"/>
      <use xlink:href="#DejaVuSans-6f" x="35.205078"/>
      <use xlink:href="#DejaVuSans-72" x="96.386719"/>
      <use xlink:href="#DejaVuSans-63" x="135.25"/>
      <use xlink:href="#DejaVuSans-65" x="190.230469"/>
      <use xlink:href="#DejaVuSans-5f" x="251.753906"/>
      <use xlink:href="#DejaVuSans-78" x="301.753906"/>
     </g>
    </g>
    <g id="line2d_31">
     <path d="M 574.904688 226.505938 
L 584.904688 226.505938 
L 594.904688 226.505938 
" style="fill: none; stroke: #ff7f0e; stroke-width: 2.5; stroke-linecap: square"/>
    </g>
    <g id="text_18">
     <!-- force_y -->
     <g transform="translate(602.904688 230.005938)scale(0.1 -0.1)">
      <defs>
       <path id="DejaVuSans-79" d="M 2059 -325 
Q 1816 -950 1584 -1140 
Q 1353 -1331 966 -1331 
L 506 -1331 
L 506 -850 
L 844 -850 
Q 1081 -850 1212 -737 
Q 1344 -625 1503 -206 
L 1606 56 
L 191 3500 
L 800 3500 
L 1894 763 
L 2988 3500 
L 3597 3500 
L 2059 -325 
z
" transform="scale(0.015625)"/>
      </defs>
      <use xlink:href="#DejaVuSans-66"/>
      <use xlink:href="#DejaVuSans-6f" x="35.205078"/>
      <use xlink:href="#DejaVuSans-72" x="96.386719"/>
      <use xlink:href="#DejaVuSans-63" x="135.25"/>
      <use xlink:href="#DejaVuSans-65" x="190.230469"/>
      <use xlink:href="#DejaVuSans-5f" x="251.753906"/>
      <use xlink:href="#DejaVuSans-79" x="301.753906"/>
     </g>
    </g>
    <g id="line2d_32">
     <path d="M 574.904688 241.462187 
L 584.904688 241.462187 
L 594.904688 241.462187 
" style="fill: none; stroke: #2ca02c; stroke-width: 2.5; stroke-linecap: square"/>
    </g>
    <g id="text_19">
     <!-- force_z -->
     <g transform="translate(602.904688 244.962187)scale(0.1 -0.1)">
      <defs>
       <path id="DejaVuSans-7a" d="M 353 3500 
L 3084 3500 
L 3084 2975 
L 922 459 
L 3084 459 
L 3084 0 
L 275 0 
L 275 525 
L 2438 3041 
L 353 3041 
L 353 3500 
z
" transform="scale(0.015625)"/>
      </defs>
      <use xlink:href="#DejaVuSans-66"/>
      <use xlink:href="#DejaVuSans-6f" x="35.205078"/>
      <use xlink:href="#DejaVuSans-72" x="96.386719"/>
      <use xlink:href="#DejaVuSans-63" x="135.25"/>
      <use xlink:href="#DejaVuSans-65" x="190.230469"/>
      <use xlink:href="#DejaVuSans-5f" x="251.753906"/>
      <use xlink:href="#DejaVuSans-7a" x="301.753906"/>
     </g>
    </g>
   </g>
  </g>
 </g>
 <defs>
  <clipPath id="p2c37b8ece2">
   <rect x="90" y="34.56" width="558" height="221.76"/>
  </clipPath>
 </defs>
</svg>
