<?xml version="1.0" encoding="utf-8" standalone="no"?>
<!DOCTYPE svg PUBLIC "-//W3C//DTD SVG 1.1//EN"
  "http://www.w3.org/Graphics/SVG/1.1/DTD/svg11.dtd">
<svg xmlns:xlink="http://www.w3.org/1999/xlink" width="720pt" height="288pt" viewBox="0 0 720 288" xmlns="http://www.w3.org/2000/svg" version="1.1">
 <metadata>
  <rdf:RDF xmlns:dc="http://purl.org/dc/elements/1.1/" xmlns:cc="http://creativecommons.org/ns#" xmlns:rdf="http://www.w3.org/1999/02/22-rdf-syntax-ns#">
   <cc:Work>
    <dc:type rdf:resource="http://purl.org/dc/dcmitype/StillImage"/>
    <dc:date>2025-09-21T11:13:02.710795</dc:date>
    <dc:format>image/svg+xml</dc:format>
    <dc:creator>
     <cc:Agent>
      <dc:title>Matplotlib v3.5.3, https://matplotlib.org/</dc:title>
     </cc:Agent>
    </dc:creator>
   </cc:Work>
  </rdf:RDF>
 </metadata>
 <defs>
  <style type="text/css">*{stroke-linejoin: round; stroke-linecap: butt}</style>
 </defs>
 <g id="figure_1">
  <g id="patch_1">
   <path d="M 0 288 
L 720 288 
L 720 0 
L 0 0 
z
" style="fill: #ffffff"/>
  </g>
  <g id="axes_1">
   <g id="patch_2">
    <path d="M 90 256.32 
L 648 256.32 
L 648 34.56 
L 90 34.56 
z
" style="fill: #ffffff"/>
   </g>
   <g id="matplotlib.axis_1">
    <g id="xtick_1">
     <g id="line2d_1">
      <path d="M 137.438614 256.32 
L 137.438614 34.56 
" clip-path="url(#p7d0ecf7411)" style="fill: none; stroke: #b0b0b0; stroke-width: 0.8; stroke-linecap: square"/>
     </g>
     <g id="line2d_2">
      <defs>
       <path id="m98f2e47b23" d="M 0 0 
L 0 3.5 
" style="stroke: #000000; stroke-width: 0.8"/>
      </defs>
      <g>
       <use xlink:href="#m98f2e47b23" x="137.438614" y="256.32" style="stroke: #000000; stroke-width: 0.8"/>
      </g>
     </g>
     <g id="text_1">
      <!-- 15:14:55 -->
      <g transform="translate(114.982364 270.918437)scale(0.1 -0.1)">
       <defs>
        <path id="DejaVuSans-31" d="M 794 531 
L 1825 531 
L 1825 4091 
L 703 3866 
L 703 4441 
L 1819 4666 
L 2450 4666 
L 2450 531 
L 3481 531 
L 3481 0 
L 794 0 
L 794 531 
z
" transform="scale(0.015625)"/>
        <path id="DejaVuSans-35" d="M 691 4666 
L 3169 4666 
L 3169 4134 
L 1269 4134 
L 1269 2991 
Q 1406 3038 1543 3061 
Q 1681 3084 1819 3084 
Q 2600 3084 3056 2656 
Q 3513 2228 3513 1497 
Q 3513 744 3044 326 
Q 2575 -91 1722 -91 
Q 1428 -91 1123 -41 
Q 819 9 494 109 
L 494 744 
Q 775 591 1075 516 
Q 1375 441 1709 441 
Q 2250 441 2565 725 
Q 2881 1009 2881 1497 
Q 2881 1984 2565 2268 
Q 2250 2553 1709 2553 
Q 1456 2553 1204 2497 
Q 953 2441 691 2322 
L 691 4666 
z
" transform="scale(0.015625)"/>
        <path id="DejaVuSans-3a" d="M 750 794 
L 1409 794 
L 1409 0 
L 750 0 
L 750 794 
z
M 750 3309 
L 1409 3309 
L 1409 2516 
L 750 2516 
L 750 3309 
z
" transform="scale(0.015625)"/>
        <path id="DejaVuSans-34" d="M 2419 4116 
L 825 1625 
L 2419 1625 
L 2419 4116 
z
M 2253 4666 
L 3047 4666 
L 3047 1625 
L 3713 1625 
L 3713 1100 
L 3047 1100 
L 3047 0 
L 2419 0 
L 2419 1100 
L 313 1100 
L 313 1709 
L 2253 4666 
z
" transform="scale(0.015625)"/>
       </defs>
       <use xlink:href="#DejaVuSans-31"/>
       <use xlink:href="#DejaVuSans-35" x="63.623047"/>
       <use xlink:href="#DejaVuSans-3a" x="127.246094"/>
       <use xlink:href="#DejaVuSans-31" x="160.9375"/>
       <use xlink:href="#DejaVuSans-34" x="224.560547"/>
       <use xlink:href="#DejaVuSans-3a" x="288.183594"/>
       <use xlink:href="#DejaVuSans-35" x="321.875"/>
       <use xlink:href="#DejaVuSans-35" x="385.498047"/>
      </g>
     </g>
    </g>
    <g id="xtick_2">
     <g id="line2d_3">
      <path d="M 198.486671 256.32 
L 198.486671 34.56 
" clip-path="url(#p7d0ecf7411)" style="fill: none; stroke: #b0b0b0; stroke-width: 0.8; stroke-linecap: square"/>
     </g>
     <g id="line2d_4">
      <g>
       <use xlink:href="#m98f2e47b23" x="198.486671" y="256.32" style="stroke: #000000; stroke-width: 0.8"/>
      </g>
     </g>
     <g id="text_2">
      <!-- 15:15:00 -->
      <g transform="translate(176.030421 270.918437)scale(0.1 -0.1)">
       <defs>
        <path id="DejaVuSans-30" d="M 2034 4250 
Q 1547 4250 1301 3770 
Q 1056 3291 1056 2328 
Q 1056 1369 1301 889 
Q 1547 409 2034 409 
Q 2525 409 2770 889 
Q 3016 1369 3016 2328 
Q 3016 3291 2770 3770 
Q 2525 4250 2034 4250 
z
M 2034 4750 
Q 2819 4750 3233 4129 
Q 3647 3509 3647 2328 
Q 3647 1150 3233 529 
Q 2819 -91 2034 -91 
Q 1250 -91 836 529 
Q 422 1150 422 2328 
Q 422 3509 836 4129 
Q 1250 4750 2034 4750 
z
" transform="scale(0.015625)"/>
       </defs>
       <use xlink:href="#DejaVuSans-31"/>
       <use xlink:href="#DejaVuSans-35" x="63.623047"/>
       <use xlink:href="#DejaVuSans-3a" x="127.246094"/>
       <use xlink:href="#DejaVuSans-31" x="160.9375"/>
       <use xlink:href="#DejaVuSans-35" x="224.560547"/>
       <use xlink:href="#DejaVuSans-3a" x="288.183594"/>
       <use xlink:href="#DejaVuSans-30" x="321.875"/>
       <use xlink:href="#DejaVuSans-30" x="385.498047"/>
      </g>
     </g>
    </g>
    <g id="xtick_3">
     <g id="line2d_5">
      <path d="M 259.534729 256.32 
L 259.534729 34.56 
" clip-path="url(#p7d0ecf7411)" style="fill: none; stroke: #b0b0b0; stroke-width: 0.8; stroke-linecap: square"/>
     </g>
     <g id="line2d_6">
      <g>
       <use xlink:href="#m98f2e47b23" x="259.534729" y="256.32" style="stroke: #000000; stroke-width: 0.8"/>
      </g>
     </g>
     <g id="text_3">
      <!-- 15:15:05 -->
      <g transform="translate(237.078479 270.918437)scale(0.1 -0.1)">
       <use xlink:href="#DejaVuSans-31"/>
       <use xlink:href="#DejaVuSans-35" x="63.623047"/>
       <use xlink:href="#DejaVuSans-3a" x="127.246094"/>
       <use xlink:href="#DejaVuSans-31" x="160.9375"/>
       <use xlink:href="#DejaVuSans-35" x="224.560547"/>
       <use xlink:href="#DejaVuSans-3a" x="288.183594"/>
       <use xlink:href="#DejaVuSans-30" x="321.875"/>
       <use xlink:href="#DejaVuSans-35" x="385.498047"/>
      </g>
     </g>
    </g>
    <g id="xtick_4">
     <g id="line2d_7">
      <path d="M 320.582783 256.32 
L 320.582783 34.56 
" clip-path="url(#p7d0ecf7411)" style="fill: none; stroke: #b0b0b0; stroke-width: 0.8; stroke-linecap: square"/>
     </g>
     <g id="line2d_8">
      <g>
       <use xlink:href="#m98f2e47b23" x="320.582783" y="256.32" style="stroke: #000000; stroke-width: 0.8"/>
      </g>
     </g>
     <g id="text_4">
      <!-- 15:15:10 -->
      <g transform="translate(298.126533 270.918437)scale(0.1 -0.1)">
       <use xlink:href="#DejaVuSans-31"/>
       <use xlink:href="#DejaVuSans-35" x="63.623047"/>
       <use xlink:href="#DejaVuSans-3a" x="127.246094"/>
       <use xlink:href="#DejaVuSans-31" x="160.9375"/>
       <use xlink:href="#DejaVuSans-35" x="224.560547"/>
       <use xlink:href="#DejaVuSans-3a" x="288.183594"/>
       <use xlink:href="#DejaVuSans-31" x="321.875"/>
       <use xlink:href="#DejaVuSans-30" x="385.498047"/>
      </g>
     </g>
    </g>
    <g id="xtick_5">
     <g id="line2d_9">
      <path d="M 381.630844 256.32 
L 381.630844 34.56 
" clip-path="url(#p7d0ecf7411)" style="fill: none; stroke: #b0b0b0; stroke-width: 0.8; stroke-linecap: square"/>
     </g>
     <g id="line2d_10">
      <g>
       <use xlink:href="#m98f2e47b23" x="381.630844" y="256.32" style="stroke: #000000; stroke-width: 0.8"/>
      </g>
     </g>
     <g id="text_5">
      <!-- 15:15:15 -->
      <g transform="translate(359.174594 270.918437)scale(0.1 -0.1)">
       <use xlink:href="#DejaVuSans-31"/>
       <use xlink:href="#DejaVuSans-35" x="63.623047"/>
       <use xlink:href="#DejaVuSans-3a" x="127.246094"/>
       <use xlink:href="#DejaVuSans-31" x="160.9375"/>
       <use xlink:href="#DejaVuSans-35" x="224.560547"/>
       <use xlink:href="#DejaVuSans-3a" x="288.183594"/>
       <use xlink:href="#DejaVuSans-31" x="321.875"/>
       <use xlink:href="#DejaVuSans-35" x="385.498047"/>
      </g>
     </g>
    </g>
    <g id="xtick_6">
     <g id="line2d_11">
      <path d="M 442.678898 256.32 
L 442.678898 34.56 
" clip-path="url(#p7d0ecf7411)" style="fill: none; stroke: #b0b0b0; stroke-width: 0.8; stroke-linecap: square"/>
     </g>
     <g id="line2d_12">
      <g>
       <use xlink:href="#m98f2e47b23" x="442.678898" y="256.32" style="stroke: #000000; stroke-width: 0.8"/>
      </g>
     </g>
     <g id="text_6">
      <!-- 15:15:20 -->
      <g transform="translate(420.222648 270.918437)scale(0.1 -0.1)">
       <defs>
        <path id="DejaVuSans-32" d="M 1228 531 
L 3431 531 
L 3431 0 
L 469 0 
L 469 531 
Q 828 903 1448 1529 
Q 2069 2156 2228 2338 
Q 2531 2678 2651 2914 
Q 2772 3150 2772 3378 
Q 2772 3750 2511 3984 
Q 2250 4219 1831 4219 
Q 1534 4219 1204 4116 
Q 875 4013 500 3803 
L 500 4441 
Q 881 4594 1212 4672 
Q 1544 4750 1819 4750 
Q 2544 4750 2975 4387 
Q 3406 4025 3406 3419 
Q 3406 3131 3298 2873 
Q 3191 2616 2906 2266 
Q 2828 2175 2409 1742 
Q 1991 1309 1228 531 
z
" transform="scale(0.015625)"/>
       </defs>
       <use xlink:href="#DejaVuSans-31"/>
       <use xlink:href="#DejaVuSans-35" x="63.623047"/>
       <use xlink:href="#DejaVuSans-3a" x="127.246094"/>
       <use xlink:href="#DejaVuSans-31" x="160.9375"/>
       <use xlink:href="#DejaVuSans-35" x="224.560547"/>
       <use xlink:href="#DejaVuSans-3a" x="288.183594"/>
       <use xlink:href="#DejaVuSans-32" x="321.875"/>
       <use xlink:href="#DejaVuSans-30" x="385.498047"/>
      </g>
     </g>
    </g>
    <g id="xtick_7">
     <g id="line2d_13">
      <path d="M 503.726955 256.32 
L 503.726955 34.56 
" clip-path="url(#p7d0ecf7411)" style="fill: none; stroke: #b0b0b0; stroke-width: 0.8; stroke-linecap: square"/>
     </g>
     <g id="line2d_14">
      <g>
       <use xlink:href="#m98f2e47b23" x="503.726955" y="256.32" style="stroke: #000000; stroke-width: 0.8"/>
      </g>
     </g>
     <g id="text_7">
      <!-- 15:15:25 -->
      <g transform="translate(481.270705 270.918437)scale(0.1 -0.1)">
       <use xlink:href="#DejaVuSans-31"/>
       <use xlink:href="#DejaVuSans-35" x="63.623047"/>
       <use xlink:href="#DejaVuSans-3a" x="127.246094"/>
       <use xlink:href="#DejaVuSans-31" x="160.9375"/>
       <use xlink:href="#DejaVuSans-35" x="224.560547"/>
       <use xlink:href="#DejaVuSans-3a" x="288.183594"/>
       <use xlink:href="#DejaVuSans-32" x="321.875"/>
       <use xlink:href="#DejaVuSans-35" x="385.498047"/>
      </g>
     </g>
    </g>
    <g id="xtick_8">
     <g id="line2d_15">
      <path d="M 564.775013 256.32 
L 564.775013 34.56 
" clip-path="url(#p7d0ecf7411)" style="fill: none; stroke: #b0b0b0; stroke-width: 0.8; stroke-linecap: square"/>
     </g>
     <g id="line2d_16">
      <g>
       <use xlink:href="#m98f2e47b23" x="564.775013" y="256.32" style="stroke: #000000; stroke-width: 0.8"/>
      </g>
     </g>
     <g id="text_8">
      <!-- 15:15:30 -->
      <g transform="translate(542.318763 270.918437)scale(0.1 -0.1)">
       <defs>
        <path id="DejaVuSans-33" d="M 2597 2516 
Q 3050 2419 3304 2112 
Q 3559 1806 3559 1356 
Q 3559 666 3084 287 
Q 2609 -91 1734 -91 
Q 1441 -91 1130 -33 
Q 819 25 488 141 
L 488 750 
Q 750 597 1062 519 
Q 1375 441 1716 441 
Q 2309 441 2620 675 
Q 2931 909 2931 1356 
Q 2931 1769 2642 2001 
Q 2353 2234 1838 2234 
L 1294 2234 
L 1294 2753 
L 1863 2753 
Q 2328 2753 2575 2939 
Q 2822 3125 2822 3475 
Q 2822 3834 2567 4026 
Q 2313 4219 1838 4219 
Q 1578 4219 1281 4162 
Q 984 4106 628 3988 
L 628 4550 
Q 988 4650 1302 4700 
Q 1616 4750 1894 4750 
Q 2613 4750 3031 4423 
Q 3450 4097 3450 3541 
Q 3450 3153 3228 2886 
Q 3006 2619 2597 2516 
z
" transform="scale(0.015625)"/>
       </defs>
       <use xlink:href="#DejaVuSans-31"/>
       <use xlink:href="#DejaVuSans-35" x="63.623047"/>
       <use xlink:href="#DejaVuSans-3a" x="127.246094"/>
       <use xlink:href="#DejaVuSans-31" x="160.9375"/>
       <use xlink:href="#DejaVuSans-35" x="224.560547"/>
       <use xlink:href="#DejaVuSans-3a" x="288.183594"/>
       <use xlink:href="#DejaVuSans-33" x="321.875"/>
       <use xlink:href="#DejaVuSans-30" x="385.498047"/>
      </g>
     </g>
    </g>
    <g id="xtick_9">
     <g id="line2d_17">
      <path d="M 625.823071 256.32 
L 625.823071 34.56 
" clip-path="url(#p7d0ecf7411)" style="fill: none; stroke: #b0b0b0; stroke-width: 0.8; stroke-linecap: square"/>
     </g>
     <g id="line2d_18">
      <g>
       <use xlink:href="#m98f2e47b23" x="625.823071" y="256.32" style="stroke: #000000; stroke-width: 0.8"/>
      </g>
     </g>
     <g id="text_9">
      <!-- 15:15:35 -->
      <g transform="translate(603.366821 270.918437)scale(0.1 -0.1)">
       <use xlink:href="#DejaVuSans-31"/>
       <use xlink:href="#DejaVuSans-35" x="63.623047"/>
       <use xlink:href="#DejaVuSans-3a" x="127.246094"/>
       <use xlink:href="#DejaVuSans-31" x="160.9375"/>
       <use xlink:href="#DejaVuSans-35" x="224.560547"/>
       <use xlink:href="#DejaVuSans-3a" x="288.183594"/>
       <use xlink:href="#DejaVuSans-33" x="321.875"/>
       <use xlink:href="#DejaVuSans-35" x="385.498047"/>
      </g>
     </g>
    </g>
    <g id="text_10">
     <!-- Time -->
     <g transform="translate(356.766406 284.596563)scale(0.1 -0.1)">
      <defs>
       <path id="DejaVuSans-54" d="M -19 4666 
L 3928 4666 
L 3928 4134 
L 2272 4134 
L 2272 0 
L 1638 0 
L 1638 4134 
L -19 4134 
L -19 4666 
z
" transform="scale(0.015625)"/>
       <path id="DejaVuSans-69" d="M 603 3500 
L 1178 3500 
L 1178 0 
L 603 0 
L 603 3500 
z
M 603 4863 
L 1178 4863 
L 1178 4134 
L 603 4134 
L 603 4863 
z
" transform="scale(0.015625)"/>
       <path id="DejaVuSans-6d" d="M 3328 2828 
Q 3544 3216 3844 3400 
Q 4144 3584 4550 3584 
Q 5097 3584 5394 3201 
Q 5691 2819 5691 2113 
L 5691 0 
L 5113 0 
L 5113 2094 
Q 5113 2597 4934 2840 
Q 4756 3084 4391 3084 
Q 3944 3084 3684 2787 
Q 3425 2491 3425 1978 
L 3425 0 
L 2847 0 
L 2847 2094 
Q 2847 2600 2669 2842 
Q 2491 3084 2119 3084 
Q 1678 3084 1418 2786 
Q 1159 2488 1159 1978 
L 1159 0 
L 581 0 
L 581 3500 
L 1159 3500 
L 1159 2956 
Q 1356 3278 1631 3431 
Q 1906 3584 2284 3584 
Q 2666 3584 2933 3390 
Q 3200 3197 3328 2828 
z
" transform="scale(0.015625)"/>
       <path id="DejaVuSans-65" d="M 3597 1894 
L 3597 1613 
L 953 1613 
Q 991 1019 1311 708 
Q 1631 397 2203 397 
Q 2534 397 2845 478 
Q 3156 559 3463 722 
L 3463 178 
Q 3153 47 2828 -22 
Q 2503 -91 2169 -91 
Q 1331 -91 842 396 
Q 353 884 353 1716 
Q 353 2575 817 3079 
Q 1281 3584 2069 3584 
Q 2775 3584 3186 3129 
Q 3597 2675 3597 1894 
z
M 3022 2063 
Q 3016 2534 2758 2815 
Q 2500 3097 2075 3097 
Q 1594 3097 1305 2825 
Q 1016 2553 972 2059 
L 3022 2063 
z
" transform="scale(0.015625)"/>
      </defs>
      <use xlink:href="#DejaVuSans-54"/>
      <use xlink:href="#DejaVuSans-69" x="57.958984"/>
      <use xlink:href="#DejaVuSans-6d" x="85.742188"/>
      <use xlink:href="#DejaVuSans-65" x="183.154297"/>
     </g>
    </g>
   </g>
   <g id="matplotlib.axis_2">
    <g id="ytick_1">
     <g id="line2d_19">
      <path d="M 90 240.777303 
L 648 240.777303 
" clip-path="url(#p7d0ecf7411)" style="fill: none; stroke: #b0b0b0; stroke-width: 0.8; stroke-linecap: square"/>
     </g>
     <g id="line2d_20">
      <defs>
       <path id="m2a20c0f970" d="M 0 0 
L -3.5 0 
" style="stroke: #000000; stroke-width: 0.8"/>
      </defs>
      <g>
       <use xlink:href="#m2a20c0f970" x="90" y="240.777303" style="stroke: #000000; stroke-width: 0.8"/>
      </g>
     </g>
     <g id="text_11">
      <!-- −40 -->
      <g transform="translate(61.895313 244.576521)scale(0.1 -0.1)">
       <defs>
        <path id="DejaVuSans-2212" d="M 678 2272 
L 4684 2272 
L 4684 1741 
L 678 1741 
L 678 2272 
z
" transform="scale(0.015625)"/>
       </defs>
       <use xlink:href="#DejaVuSans-2212"/>
       <use xlink:href="#DejaVuSans-34" x="83.789062"/>
       <use xlink:href="#DejaVuSans-30" x="147.412109"/>
      </g>
     </g>
    </g>
    <g id="ytick_2">
     <g id="line2d_21">
      <path d="M 90 202.536053 
L 648 202.536053 
" clip-path="url(#p7d0ecf7411)" style="fill: none; stroke: #b0b0b0; stroke-width: 0.8; stroke-linecap: square"/>
     </g>
     <g id="line2d_22">
      <g>
       <use xlink:href="#m2a20c0f970" x="90" y="202.536053" style="stroke: #000000; stroke-width: 0.8"/>
      </g>
     </g>
     <g id="text_12">
      <!-- −30 -->
      <g transform="translate(61.895313 206.335272)scale(0.1 -0.1)">
       <use xlink:href="#DejaVuSans-2212"/>
       <use xlink:href="#DejaVuSans-33" x="83.789062"/>
       <use xlink:href="#DejaVuSans-30" x="147.412109"/>
      </g>
     </g>
    </g>
    <g id="ytick_3">
     <g id="line2d_23">
      <path d="M 90 164.294803 
L 648 164.294803 
" clip-path="url(#p7d0ecf7411)" style="fill: none; stroke: #b0b0b0; stroke-width: 0.8; stroke-linecap: square"/>
     </g>
     <g id="line2d_24">
      <g>
       <use xlink:href="#m2a20c0f970" x="90" y="164.294803" style="stroke: #000000; stroke-width: 0.8"/>
      </g>
     </g>
     <g id="text_13">
      <!-- −20 -->
      <g transform="translate(61.895313 168.094022)scale(0.1 -0.1)">
       <use xlink:href="#DejaVuSans-2212"/>
       <use xlink:href="#DejaVuSans-32" x="83.789062"/>
       <use xlink:href="#DejaVuSans-30" x="147.412109"/>
      </g>
     </g>
    </g>
    <g id="ytick_4">
     <g id="line2d_25">
      <path d="M 90 126.053554 
L 648 126.053554 
" clip-path="url(#p7d0ecf7411)" style="fill: none; stroke: #b0b0b0; stroke-width: 0.8; stroke-linecap: square"/>
     </g>
     <g id="line2d_26">
      <g>
       <use xlink:href="#m2a20c0f970" x="90" y="126.053554" style="stroke: #000000; stroke-width: 0.8"/>
      </g>
     </g>
     <g id="text_14">
      <!-- −10 -->
      <g transform="translate(61.895313 129.852773)scale(0.1 -0.1)">
       <use xlink:href="#DejaVuSans-2212"/>
       <use xlink:href="#DejaVuSans-31" x="83.789062"/>
       <use xlink:href="#DejaVuSans-30" x="147.412109"/>
      </g>
     </g>
    </g>
    <g id="ytick_5">
     <g id="line2d_27">
      <path d="M 90 87.812304 
L 648 87.812304 
" clip-path="url(#p7d0ecf7411)" style="fill: none; stroke: #b0b0b0; stroke-width: 0.8; stroke-linecap: square"/>
     </g>
     <g id="line2d_28">
      <g>
       <use xlink:href="#m2a20c0f970" x="90" y="87.812304" style="stroke: #000000; stroke-width: 0.8"/>
      </g>
     </g>
     <g id="text_15">
      <!-- 0 -->
      <g transform="translate(76.6375 91.611523)scale(0.1 -0.1)">
       <use xlink:href="#DejaVuSans-30"/>
      </g>
     </g>
    </g>
    <g id="ytick_6">
     <g id="line2d_29">
      <path d="M 90 49.571055 
L 648 49.571055 
" clip-path="url(#p7d0ecf7411)" style="fill: none; stroke: #b0b0b0; stroke-width: 0.8; stroke-linecap: square"/>
     </g>
     <g id="line2d_30">
      <g>
       <use xlink:href="#m2a20c0f970" x="90" y="49.571055" style="stroke: #000000; stroke-width: 0.8"/>
      </g>
     </g>
     <g id="text_16">
      <!-- 10 -->
      <g transform="translate(70.275 53.370274)scale(0.1 -0.1)">
       <use xlink:href="#DejaVuSans-31"/>
       <use xlink:href="#DejaVuSans-30" x="63.623047"/>
      </g>
     </g>
    </g>
    <g id="text_17">
     <!-- Force (N) -->
     <g transform="translate(55.815625 168.193906)rotate(-90)scale(0.1 -0.1)">
      <defs>
       <path id="DejaVuSans-46" d="M 628 4666 
L 3309 4666 
L 3309 4134 
L 1259 4134 
L 1259 2759 
L 3109 2759 
L 3109 2228 
L 1259 2228 
L 1259 0 
L 628 0 
L 628 4666 
z
" transform="scale(0.015625)"/>
       <path id="DejaVuSans-6f" d="M 1959 3097 
Q 1497 3097 1228 2736 
Q 959 2375 959 1747 
Q 959 1119 1226 758 
Q 1494 397 1959 397 
Q 2419 397 2687 759 
Q 2956 1122 2956 1747 
Q 2956 2369 2687 2733 
Q 2419 3097 1959 3097 
z
M 1959 3584 
Q 2709 3584 3137 3096 
Q 3566 2609 3566 1747 
Q 3566 888 3137 398 
Q 2709 -91 1959 -91 
Q 1206 -91 779 398 
Q 353 888 353 1747 
Q 353 2609 779 3096 
Q 1206 3584 1959 3584 
z
" transform="scale(0.015625)"/>
       <path id="DejaVuSans-72" d="M 2631 2963 
Q 2534 3019 2420 3045 
Q 2306 3072 2169 3072 
Q 1681 3072 1420 2755 
Q 1159 2438 1159 1844 
L 1159 0 
L 581 0 
L 581 3500 
L 1159 3500 
L 1159 2956 
Q 1341 3275 1631 3429 
Q 1922 3584 2338 3584 
Q 2397 3584 2469 3576 
Q 2541 3569 2628 3553 
L 2631 2963 
z
" transform="scale(0.015625)"/>
       <path id="DejaVuSans-63" d="M 3122 3366 
L 3122 2828 
Q 2878 2963 2633 3030 
Q 2388 3097 2138 3097 
Q 1578 3097 1268 2742 
Q 959 2388 959 1747 
Q 959 1106 1268 751 
Q 1578 397 2138 397 
Q 2388 397 2633 464 
Q 2878 531 3122 666 
L 3122 134 
Q 2881 22 2623 -34 
Q 2366 -91 2075 -91 
Q 1284 -91 818 406 
Q 353 903 353 1747 
Q 353 2603 823 3093 
Q 1294 3584 2113 3584 
Q 2378 3584 2631 3529 
Q 2884 3475 3122 3366 
z
" transform="scale(0.015625)"/>
       <path id="DejaVuSans-20" transform="scale(0.015625)"/>
       <path id="DejaVuSans-28" d="M 1984 4856 
Q 1566 4138 1362 3434 
Q 1159 2731 1159 2009 
Q 1159 1288 1364 580 
Q 1569 -128 1984 -844 
L 1484 -844 
Q 1016 -109 783 600 
Q 550 1309 550 2009 
Q 550 2706 781 3412 
Q 1013 4119 1484 4856 
L 1984 4856 
z
" transform="scale(0.015625)"/>
       <path id="DejaVuSans-4e" d="M 628 4666 
L 1478 4666 
L 3547 763 
L 3547 4666 
L 4159 4666 
L 4159 0 
L 3309 0 
L 1241 3903 
L 1241 0 
L 628 0 
L 628 4666 
z
" transform="scale(0.015625)"/>
       <path id="DejaVuSans-29" d="M 513 4856 
L 1013 4856 
Q 1481 4119 1714 3412 
Q 1947 2706 1947 2009 
Q 1947 1309 1714 600 
Q 1481 -109 1013 -844 
L 513 -844 
Q 928 -128 1133 580 
Q 1338 1288 1338 2009 
Q 1338 2731 1133 3434 
Q 928 4138 513 4856 
z
" transform="scale(0.015625)"/>
      </defs>
      <use xlink:href="#DejaVuSans-46"/>
      <use xlink:href="#DejaVuSans-6f" x="53.894531"/>
      <use xlink:href="#DejaVuSans-72" x="115.076172"/>
      <use xlink:href="#DejaVuSans-63" x="153.939453"/>
      <use xlink:href="#DejaVuSans-65" x="208.919922"/>
      <use xlink:href="#DejaVuSans-20" x="270.443359"/>
      <use xlink:href="#DejaVuSans-28" x="302.230469"/>
      <use xlink:href="#DejaVuSans-4e" x="341.244141"/>
      <use xlink:href="#DejaVuSans-29" x="416.048828"/>
     </g>
    </g>
   </g>
   <g id="line2d_31">
    <path d="M 115.363636 88.993175 
L 116.096214 89.386898 
L 118.293941 89.113262 
L 119.771309 89.234983 
L 120.491676 89.521549 
L 121.236462 89.117302 
L 122.726036 89.359159 
L 123.421978 89.758222 
L 124.154556 89.397776 
L 124.887131 89.629993 
L 125.619713 89.349143 
L 126.352287 89.840356 
L 127.084862 89.856894 
L 127.81744 89.667179 
L 128.550018 90.230358 
L 129.282593 90.053239 
L 130.015167 89.413441 
L 130.747746 90.040078 
L 131.480328 89.752977 
L 132.212902 90.211329 
L 132.945477 89.457963 
L 133.678051 89.471435 
L 134.410629 90.444033 
L 135.143208 90.276684 
L 135.875786 89.96278 
L 136.60836 89.386587 
L 137.353146 89.406167 
L 138.073513 89.728913 
L 138.806091 90.251679 
L 139.55088 90.124274 
L 140.271248 89.490504 
L 141.003822 89.426655 
L 141.736397 89.555301 
L 142.468975 90.164216 
L 143.20155 89.79774 
L 143.934128 90.081702 
L 144.666702 89.934752 
L 145.399281 89.970043 
L 146.131859 90.217724 
L 146.876644 90.006769 
L 147.597012 90.324399 
L 149.147633 89.965803 
L 149.880207 89.999566 
L 150.612785 90.233016 
L 151.34536 89.97375 
L 152.077934 90.008262 
L 152.810516 91.111877 
L 153.543095 89.947493 
L 154.275669 90.243199 
L 155.008244 90.359036 
L 155.740822 90.270007 
L 157.132717 89.747782 
L 157.938553 90.470771 
L 158.671131 89.728045 
L 159.403706 90.313353 
L 160.13628 90.150507 
L 160.868858 90.477888 
L 161.601437 90.4374 
L 162.334011 89.866363 
L 163.799164 89.798107 
L 164.531742 90.148243 
L 165.26432 89.687833 
L 165.996895 89.965886 
L 166.729469 90.100635 
L 168.194626 90.116 
L 168.927204 90.38818 
L 169.659779 89.839958 
L 170.392353 89.693344 
L 171.124931 90.568266 
L 171.857506 90.133017 
L 172.590084 90.07622 
L 173.322662 89.626123 
L 174.055241 90.810674 
L 174.787815 89.849001 
L 176.252968 89.996142 
L 176.985546 89.621264 
L 177.718124 89.541108 
L 178.450699 88.833922 
L 179.915852 89.531095 
L 180.64843 89.757454 
L 181.381004 89.653892 
L 182.113579 89.812182 
L 182.846161 88.973881 
L 183.578735 89.430922 
L 184.311314 88.681342 
L 185.043888 88.915566 
L 185.776466 89.54823 
L 186.509041 87.998382 
L 187.241619 89.002872 
L 188.706772 89.121575 
L 189.43935 89.432304 
L 190.171925 88.21527 
L 190.904503 87.633888 
L 191.637077 88.773297 
L 193.102234 87.269753 
L 193.834808 87.280004 
L 194.567387 88.333989 
L 195.299965 87.908366 
L 196.032539 86.763027 
L 196.765114 87.395992 
L 197.497688 87.489504 
L 198.23027 85.73183 
L 198.962849 85.835247 
L 199.695423 86.997554 
L 200.427998 85.984587 
L 201.160576 84.6051 
L 201.89315 87.333909 
L 202.625732 87.359374 
L 203.358307 83.867077 
L 204.090885 84.795969 
L 204.82346 87.979424 
L 205.556034 83.89922 
L 206.288612 85.303281 
L 207.021187 85.844035 
L 208.486343 84.539826 
L 209.218918 86.742677 
L 209.951496 83.427715 
L 210.684074 85.337407 
L 211.416649 84.655206 
L 212.149223 82.270164 
L 212.881802 84.529383 
L 213.61438 84.574301 
L 214.346958 82.058039 
L 215.079533 84.057627 
L 215.812107 84.571989 
L 216.544685 83.798088 
L 217.27726 85.399441 
L 218.009842 84.011531 
L 218.742416 85.640021 
L 219.474995 85.89949 
L 220.231987 83.751351 
L 220.952354 86.807058 
L 221.672722 85.870545 
L 222.4053 84.35853 
L 223.137878 86.447314 
L 223.870453 87.811839 
L 224.603031 83.886957 
L 226.068184 87.642927 
L 226.800758 85.452305 
L 227.533333 85.061273 
L 228.265915 87.165849 
L 228.998493 84.686452 
L 229.743275 84.623323 
L 230.463642 87.159654 
L 231.196217 82.969841 
L 231.928795 82.64021 
L 232.661377 83.161489 
L 233.393951 77.641931 
L 234.126526 75.742825 
L 235.591679 70.955044 
L 236.324257 64.162233 
L 237.056831 63.386177 
L 237.789413 58.561452 
L 238.521988 56.428786 
L 239.266773 55.139843 
L 239.987141 52.748965 
L 240.719719 50.722234 
L 241.452293 49.25284 
L 242.917446 48.871539 
L 243.650024 47.258703 
L 244.382603 47.501317 
L 245.115177 46.734669 
L 245.847752 48.125907 
L 246.580326 47.719905 
L 247.312904 48.585368 
L 248.045486 48.700813 
L 248.778061 47.321275 
L 249.510635 49.561963 
L 250.243214 49.770195 
L 250.975788 48.657588 
L 251.708366 49.811499 
L 252.440941 49.154371 
L 253.173523 47.918165 
L 253.906097 48.805695 
L 254.638676 49.38406 
L 255.37125 50.152147 
L 256.116035 48.405326 
L 256.836403 48.76763 
L 257.568977 48.910689 
L 258.301559 49.209023 
L 259.034138 50.426374 
L 259.766712 49.683619 
L 260.499287 49.896872 
L 261.256287 50.256624 
L 262.697021 50.534001 
L 263.429596 49.695611 
L 264.16217 49.822794 
L 265.627323 52.424643 
L 266.359901 53.288042 
L 267.092476 55.150534 
L 267.825054 55.651073 
L 268.557632 54.90642 
L 269.290207 55.868342 
L 270.022785 55.535058 
L 270.75536 55.727149 
L 271.487938 56.995393 
L 273.771133 58.613289 
L 275.23629 61.087392 
L 275.968864 59.370836 
L 276.701443 60.731226 
L 277.372971 59.730958 
L 278.166595 61.030504 
L 278.89917 60.729082 
L 279.631744 61.297458 
L 280.364326 61.520132 
L 281.035854 61.453577 
L 281.829479 61.759804 
L 282.562054 60.845898 
L 283.294632 61.547535 
L 284.027206 62.092163 
L 284.759785 60.850589 
L 285.492363 60.705021 
L 286.224941 61.769125 
L 287.69009 60.376031 
L 288.422668 59.7028 
L 289.155247 60.626939 
L 289.887821 60.010782 
L 290.620399 60.598584 
L 291.352974 60.646914 
L 292.085552 60.901023 
L 292.81813 63.047242 
L 293.550705 61.568984 
L 294.283279 61.680588 
L 295.015858 64.500265 
L 295.748436 63.105969 
L 296.481014 62.431834 
L 297.213589 63.662497 
L 297.946163 64.197337 
L 298.678741 62.471754 
L 299.411316 61.261978 
L 300.143898 54.117447 
L 300.876472 72.450064 
L 301.609051 60.56318 
L 302.341625 65.208906 
L 303.0742 68.274626 
L 303.806778 70.507989 
L 304.527145 74.759173 
L 306.004509 86.143102 
L 307.469666 84.861659 
L 308.20224 86.952658 
L 308.934814 85.758997 
L 309.667389 84.927405 
L 310.387756 82.746529 
L 311.132549 82.214696 
L 311.865124 82.545303 
L 313.330273 82.540814 
L 314.062851 82.944839 
L 314.795429 83.200371 
L 315.528008 82.892491 
L 316.260582 83.316908 
L 316.99316 83.926104 
L 317.725735 83.462092 
L 318.458313 83.250142 
L 319.190887 83.34854 
L 320.668251 84.378618 
L 321.388618 85.842031 
L 322.121197 84.702308 
L 322.853775 84.091322 
L 323.586349 85.034278 
L 324.318924 84.031449 
L 325.051502 84.353581 
L 325.784081 84.128235 
L 326.516659 84.844134 
L 327.249233 84.736079 
L 327.981808 83.957482 
L 328.714382 84.438016 
L 329.44696 84.774894 
L 330.179543 84.509273 
L 331.644691 84.844177 
L 332.37727 84.793424 
L 333.109844 84.490339 
L 333.842422 84.742004 
L 334.574997 83.580162 
L 335.295364 84.654281 
L 336.040154 84.361334 
L 336.772728 84.96818 
L 337.505306 83.769447 
L 338.237885 84.594665 
L 338.970459 84.522929 
L 339.690826 83.643021 
L 340.447823 84.52573 
L 341.168194 84.220355 
L 341.900768 84.736588 
L 342.633343 84.358157 
L 343.365917 84.834556 
L 344.098495 84.995432 
L 344.831074 84.923771 
L 345.563652 85.939983 
L 346.296227 85.68258 
L 347.028801 86.652877 
L 347.761379 86.50718 
L 348.493958 86.709225 
L 349.226532 84.742923 
L 349.959106 85.031769 
L 350.703896 86.644803 
L 351.424263 84.096376 
L 352.14463 86.226841 
L 352.889416 85.044199 
L 353.621994 86.07189 
L 355.087147 86.124987 
L 355.819725 85.196711 
L 356.540092 87.932879 
L 357.284878 86.234686 
L 358.017452 86.037259 
L 358.750027 87.942424 
L 359.482605 83.900137 
L 360.215187 85.328791 
L 360.947762 89.879175 
L 361.680336 83.916129 
L 362.412914 84.786708 
L 363.145489 88.550931 
L 363.878067 83.080602 
L 364.610641 83.532241 
L 365.34322 86.915364 
L 366.075798 85.475592 
L 366.808372 83.757662 
L 367.540951 86.425214 
L 369.006104 84.685995 
L 369.738678 84.308997 
L 370.471256 84.399661 
L 371.936413 82.333285 
L 372.668987 81.493906 
L 373.401562 80.883095 
L 374.134136 81.082726 
L 375.599297 80.468189 
L 376.331871 79.857417 
L 377.064445 80.173641 
L 377.797024 79.818776 
L 378.529602 78.801623 
L 379.262177 78.153147 
L 379.994755 79.026455 
L 381.459908 76.836211 
L 382.192486 77.23757 
L 382.92506 76.597383 
L 383.657635 76.261976 
L 384.390213 76.337144 
L 385.122791 76.069365 
L 386.587944 76.443183 
L 387.320522 75.785915 
L 388.785671 76.768117 
L 389.51825 76.724758 
L 390.250832 76.419942 
L 390.983406 76.690359 
L 391.715981 76.062221 
L 392.448555 76.549096 
L 393.181133 76.627382 
L 393.913712 76.036024 
L 394.646286 76.760892 
L 395.378864 78.025264 
L 396.111443 76.840357 
L 396.844017 77.227795 
L 397.576595 77.233714 
L 399.115005 75.43834 
L 399.847584 73.449562 
L 400.580158 67.357786 
L 401.312737 64.115558 
L 402.045311 61.62903 
L 402.777889 59.538228 
L 403.510468 58.034436 
L 404.243042 54.853355 
L 404.987831 54.193325 
L 405.708195 52.177202 
L 406.440773 49.392905 
L 407.173347 50.461156 
L 407.905922 47.008623 
L 408.638504 47.696842 
L 409.371082 46.416965 
L 410.103657 44.64 
L 410.836231 47.163679 
L 411.568806 48.134517 
L 412.301384 47.362052 
L 413.033962 48.029553 
L 413.766541 47.21063 
L 414.499115 46.139804 
L 415.231693 47.323446 
L 415.964268 47.364762 
L 417.42942 45.933995 
L 418.186417 47.436425 
L 418.894577 46.454125 
L 419.639362 46.535593 
L 420.371941 47.518385 
L 421.092308 47.976567 
L 421.824883 47.561282 
L 422.557457 48.46663 
L 423.290031 48.589833 
L 424.022614 48.221177 
L 424.755192 48.980064 
L 425.487766 48.318631 
L 426.232552 48.517215 
L 426.952919 49.047926 
L 427.685497 49.378351 
L 428.418076 49.119889 
L 429.15065 51.428608 
L 429.883224 51.976493 
L 430.615803 53.148945 
L 431.348381 52.758257 
L 432.080956 53.8152 
L 432.81353 55.657755 
L 433.546112 55.297379 
L 434.278687 57.586286 
L 435.011265 58.602306 
L 435.743839 59.121986 
L 436.476418 59.905989 
L 437.208992 60.13885 
L 437.953781 60.115411 
L 438.674149 61.882474 
L 439.406727 61.427099 
L 440.139301 62.300625 
L 440.871876 61.346588 
L 441.60445 62.393623 
L 442.337029 60.710048 
L 443.069607 60.931165 
L 443.802185 61.842108 
L 444.53476 61.900843 
L 445.267334 61.64212 
L 445.999912 62.348065 
L 446.732491 58.89041 
L 447.465065 59.465083 
L 448.197639 60.660158 
L 448.954639 60.547574 
L 449.662796 62.209809 
L 451.14016 60.224655 
L 451.860527 61.908738 
L 452.593102 61.694566 
L 453.325676 63.480057 
L 454.058258 57.968051 
L 454.790836 60.677291 
L 455.523411 60.335743 
L 456.255985 53.013582 
L 457.000771 64.591533 
L 457.721138 59.406922 
L 459.186295 63.726057 
L 459.918869 62.891301 
L 461.384026 67.522152 
L 462.1166 72.542484 
L 462.861389 76.089741 
L 463.593964 81.724041 
L 465.791691 81.218605 
L 466.512058 81.196261 
L 467.244637 83.070884 
L 467.977211 79.927906 
L 468.722 80.345841 
L 469.442368 79.223579 
L 470.174946 80.820299 
L 470.90752 81.572197 
L 472.372673 77.957768 
L 473.117462 79.049945 
L 473.83783 77.365783 
L 474.570404 78.459813 
L 475.302979 77.16426 
L 476.035557 78.330558 
L 476.768135 76.305498 
L 477.50071 75.805446 
L 478.233284 76.551762 
L 478.965862 78.59606 
L 479.698441 77.735069 
L 480.431019 78.301622 
L 481.163593 79.092377 
L 481.896168 75.391916 
L 482.628746 76.828215 
L 484.093903 77.570113 
L 484.826477 76.00718 
L 486.29163 77.556147 
L 487.024204 79.358595 
L 487.756783 80.10804 
L 488.489365 79.773193 
L 489.221939 80.518817 
L 489.954514 81.065393 
L 490.687088 81.12396 
L 491.419666 82.366616 
L 492.152245 82.386185 
L 492.884819 82.771498 
L 493.617397 82.670028 
L 494.349976 83.998548 
L 495.082554 83.339324 
L 495.815128 83.476166 
L 496.547703 84.88847 
L 497.280277 83.62111 
L 498.745438 85.119045 
L 499.478012 84.632833 
L 500.210587 84.92117 
L 500.943165 84.698844 
L 501.675739 85.035844 
L 502.408318 86.746697 
L 503.140892 85.797411 
L 504.606049 86.25379 
L 505.338623 85.586892 
L 506.15667 86.729502 
L 506.815987 84.179291 
L 507.621822 83.887736 
L 508.354397 84.194788 
L 509.086971 82.722855 
L 509.746296 83.132447 
L 510.552128 82.979722 
L 511.284706 82.618318 
L 511.944023 83.993305 
L 512.749859 84.040497 
L 513.482437 82.413326 
L 514.215012 83.029082 
L 514.862122 82.300964 
L 515.680164 80.903452 
L 516.339481 82.785792 
L 517.145321 82.140564 
L 517.877895 79.359442 
L 518.610474 82.926744 
L 519.343048 82.059953 
L 520.075623 80.825531 
L 520.808205 81.643638 
L 521.479733 80.754312 
L 522.273357 80.269608 
L 523.005932 78.27999 
L 523.738506 80.217241 
L 524.471085 75.268284 
L 525.203663 74.35561 
L 525.936241 80.119162 
L 526.668816 73.782311 
L 528.133968 79.010739 
L 528.866547 75.328481 
L 530.331696 81.282956 
L 531.064278 79.211475 
L 531.796852 78.581309 
L 532.52943 81.87244 
L 533.262005 77.436505 
L 533.994583 78.911727 
L 534.727158 81.301317 
L 535.459732 81.088456 
L 536.192314 79.286159 
L 536.924892 80.138869 
L 537.657467 78.324664 
L 539.122616 70.347548 
L 539.855194 64.064576 
L 540.587772 64.012679 
L 541.320351 52.618721 
L 542.052925 56.245664 
L 542.7855 52.79531 
L 543.518078 51.355039 
L 544.250656 50.369983 
L 544.983231 46.429902 
L 545.715805 50.119482 
L 546.448387 48.509216 
L 547.180962 47.453212 
L 547.91354 47.604334 
L 548.646114 49.658725 
L 549.378693 51.042879 
L 550.111267 50.932475 
L 550.843849 50.482997 
L 552.309002 52.023619 
L 553.041576 51.458194 
L 553.774151 53.000411 
L 554.506729 52.660999 
L 555.239307 52.601323 
L 555.971886 54.730234 
L 556.70446 57.380331 
L 557.437035 54.721259 
L 558.169613 56.789641 
L 558.902191 58.257664 
L 559.634766 58.718488 
L 560.36734 59.595095 
L 561.832497 62.765711 
L 562.565075 62.137264 
L 563.297649 62.032252 
L 564.030224 62.119658 
L 564.762802 63.522232 
L 565.495377 63.841847 
L 566.227959 62.248507 
L 566.960533 64.517231 
L 567.693111 63.563099 
L 568.425686 64.169596 
L 569.15826 64.461957 
L 569.890839 64.016073 
L 570.623417 64.387025 
L 571.355995 64.349649 
L 572.08857 66.265089 
L 573.553722 65.198555 
L 574.286301 65.958386 
L 575.018875 65.956842 
L 575.75145 65.311047 
L 576.484032 65.742083 
L 577.216606 64.559352 
L 577.949184 66.317283 
L 578.681759 66.789602 
L 579.414333 66.514499 
L 580.146912 65.765027 
L 580.87949 66.389298 
L 581.612068 66.804669 
L 582.344643 66.171705 
L 583.089428 53.467435 
L 583.809795 68.350023 
L 584.542374 67.132662 
L 585.274948 70.4656 
L 586.740105 73.976768 
L 587.48489 76.809809 
L 588.205257 82.235982 
L 588.937836 76.287264 
L 589.67041 81.818586 
L 590.402985 80.84423 
L 591.135563 81.036354 
L 591.868141 80.222766 
L 592.600719 81.390694 
L 593.333294 81.844104 
L 594.078079 83.321937 
L 594.798447 82.960931 
L 595.531021 84.170557 
L 596.263603 83.666138 
L 596.996178 83.979001 
L 597.728752 83.053526 
L 598.46133 84.348062 
L 599.193905 84.404491 
L 599.926483 84.703055 
L 601.39164 83.849668 
L 602.124214 84.047741 
L 602.856789 84.837952 
L 603.601578 84.988953 
L 604.321945 84.648557 
L 605.05452 84.869955 
L 605.799305 84.869163 
L 606.519672 84.346013 
L 607.252251 85.113242 
L 607.984829 85.707923 
L 608.717403 85.180676 
L 609.449978 86.554549 
L 610.182556 85.59353 
L 610.915134 86.824218 
L 611.647713 87.071531 
L 612.392498 87.478526 
L 613.84544 86.08713 
L 614.578014 85.768564 
L 615.310593 87.342262 
L 616.043171 87.414691 
L 616.775749 88.284334 
L 617.508324 87.448759 
L 618.240902 87.482557 
L 618.973476 86.778286 
L 619.706055 86.741111 
L 620.438629 87.864166 
L 621.171207 86.963093 
L 621.903786 87.293065 
L 622.636364 87.139274 
L 622.636364 87.139274 
" clip-path="url(#p7d0ecf7411)" style="fill: none; stroke: #1f77b4; stroke-width: 2.5; stroke-linecap: square"/>
   </g>
   <g id="line2d_32">
    <path d="M 115.363636 85.720727 
L 116.096214 85.274253 
L 116.828793 85.627915 
L 117.585785 85.520274 
L 118.293941 85.657246 
L 119.02652 85.655586 
L 119.771309 84.943048 
L 120.491676 85.340481 
L 121.236462 85.43064 
L 121.956829 86.096292 
L 122.726036 84.966422 
L 123.421978 85.085166 
L 124.154556 85.080374 
L 124.887131 85.345532 
L 125.619713 84.785602 
L 126.352287 84.508957 
L 127.084862 84.039996 
L 127.81744 84.679694 
L 128.550018 84.470884 
L 129.282593 84.649717 
L 130.015167 84.966401 
L 130.747746 84.275109 
L 131.480328 85.387805 
L 132.212902 84.797927 
L 132.945477 84.805452 
L 133.678051 84.075073 
L 134.410629 84.233542 
L 135.143208 85.011859 
L 135.875786 85.460041 
L 136.60836 85.575159 
L 137.353146 84.790171 
L 138.073513 84.378315 
L 138.806091 84.963248 
L 139.55088 85.173446 
L 140.271248 84.960119 
L 141.003822 85.217784 
L 141.736397 85.244249 
L 142.468975 84.263601 
L 143.20155 84.745465 
L 143.934128 83.843711 
L 144.666702 83.915607 
L 145.399281 84.615378 
L 146.131859 84.630688 
L 146.876644 84.763685 
L 147.597012 84.580571 
L 148.329586 84.580255 
L 149.147633 85.143006 
L 149.880207 84.606157 
L 150.612785 84.344039 
L 151.34536 84.638398 
L 152.077934 84.497843 
L 152.810516 83.969561 
L 153.543095 84.201123 
L 154.275669 84.686108 
L 155.008244 84.227088 
L 155.740822 84.772903 
L 156.473396 84.971584 
L 157.132717 84.696541 
L 157.938553 84.818967 
L 158.671131 85.133033 
L 159.403706 84.577675 
L 160.13628 84.347319 
L 160.868858 84.541979 
L 161.601437 84.405713 
L 162.334011 84.80808 
L 163.066589 84.694796 
L 163.799164 84.977112 
L 164.531742 84.667385 
L 165.26432 84.860666 
L 168.194626 84.995886 
L 168.927204 84.323347 
L 169.659779 84.725301 
L 170.392353 84.789609 
L 171.124931 84.677277 
L 171.857506 84.705061 
L 172.590084 84.262492 
L 173.322662 84.237826 
L 174.055241 84.594403 
L 174.787815 83.854019 
L 175.52039 84.675892 
L 176.252968 84.578776 
L 176.985546 84.878113 
L 177.718124 84.70366 
L 178.450699 85.039313 
L 179.183273 84.806372 
L 179.915852 85.713604 
L 180.64843 85.486757 
L 181.381004 84.778571 
L 182.113579 85.355029 
L 182.846161 84.569733 
L 183.578735 85.453654 
L 185.043888 85.213728 
L 185.776466 85.407512 
L 186.509041 84.752763 
L 187.241619 85.505478 
L 187.974197 84.971287 
L 188.706772 86.135844 
L 189.43935 86.078096 
L 190.171925 86.145103 
L 190.904503 85.275159 
L 192.369656 86.913425 
L 193.102234 86.122353 
L 193.834808 86.103157 
L 194.567387 86.814456 
L 196.032539 86.095269 
L 196.765114 86.501877 
L 197.497688 87.86876 
L 198.23027 86.454139 
L 198.962849 86.570163 
L 199.695423 86.439386 
L 200.427998 86.181399 
L 201.160576 85.530479 
L 201.89315 86.915445 
L 202.625732 86.943921 
L 203.358307 85.357 
L 204.090885 85.782049 
L 204.82346 88.025999 
L 205.556034 85.23724 
L 206.288612 86.433569 
L 207.021187 86.650711 
L 207.753769 86.032376 
L 208.486343 85.646654 
L 209.218918 87.283825 
L 209.951496 85.498504 
L 210.684074 87.513616 
L 211.416649 86.917005 
L 212.149223 85.945545 
L 212.881802 87.159459 
L 213.61438 87.702092 
L 214.346958 86.369324 
L 215.079533 87.396638 
L 215.812107 86.995485 
L 217.27726 86.833417 
L 218.009842 85.980176 
L 218.742416 86.801325 
L 219.474995 87.032655 
L 220.231987 85.613646 
L 220.952354 86.930482 
L 222.4053 86.002195 
L 223.137878 87.17567 
L 223.870453 86.930628 
L 224.603031 84.837063 
L 225.347816 86.493319 
L 226.068184 87.264964 
L 226.800758 86.242352 
L 227.533333 85.965983 
L 228.265915 87.724617 
L 228.998493 85.78606 
L 229.743275 86.67779 
L 230.463642 88.572955 
L 231.196217 87.763656 
L 231.928795 88.850576 
L 232.661377 89.640909 
L 233.393951 91.219499 
L 234.126526 90.766138 
L 234.859104 92.872315 
L 235.591679 94.452116 
L 236.324257 95.468764 
L 237.056831 97.842218 
L 237.789413 96.733917 
L 238.521988 99.326344 
L 239.266773 100.061323 
L 239.987141 100.977646 
L 240.719719 100.046131 
L 241.452293 101.156837 
L 242.184868 103.139695 
L 242.917446 101.97374 
L 243.650024 104.552625 
L 244.382603 104.568547 
L 245.115177 103.158753 
L 245.847752 105.741803 
L 246.580326 104.967464 
L 247.312904 105.045904 
L 248.045486 104.656126 
L 248.778061 103.764174 
L 249.510635 106.060301 
L 250.243214 105.407213 
L 250.975788 104.323464 
L 251.708366 105.11695 
L 252.440941 105.555455 
L 253.173523 105.449099 
L 253.906097 105.034563 
L 254.638676 105.726979 
L 255.37125 104.191722 
L 256.116035 104.758846 
L 256.836403 105.905777 
L 257.568977 104.338634 
L 258.301559 105.088119 
L 259.034138 103.792048 
L 259.766712 103.380102 
L 260.499287 104.517719 
L 261.256287 104.071994 
L 261.976654 103.813829 
L 262.697021 103.35665 
L 264.16217 102.973825 
L 264.894745 102.299109 
L 265.627323 100.170762 
L 266.359901 100.013691 
L 267.092476 100.443439 
L 267.825054 98.859166 
L 268.557632 97.780306 
L 269.290207 97.993268 
L 270.022785 96.682891 
L 270.75536 96.077089 
L 271.487938 96.445096 
L 272.305981 96.305042 
L 273.038559 95.81851 
L 273.771133 95.598253 
L 274.491501 94.739407 
L 275.23629 95.039055 
L 275.968864 94.965699 
L 277.372971 94.349692 
L 278.166595 94.871241 
L 278.89917 93.402674 
L 279.631744 93.032723 
L 280.364326 94.547378 
L 281.035854 93.543242 
L 281.829479 94.057574 
L 282.562054 92.370722 
L 283.294632 94.485401 
L 284.027206 93.584674 
L 284.759785 93.616433 
L 285.492363 94.274405 
L 286.224941 94.09982 
L 286.957516 94.515943 
L 287.69009 94.125766 
L 288.422668 95.474596 
L 289.155247 94.803434 
L 289.887821 94.924249 
L 290.620399 95.27472 
L 291.352974 94.139486 
L 292.085552 94.448239 
L 292.81813 93.612934 
L 293.550705 92.172263 
L 294.283279 92.893466 
L 295.015858 93.455942 
L 295.748436 92.182468 
L 296.481014 93.036179 
L 297.213589 92.608526 
L 297.946163 93.072903 
L 298.678741 93.36247 
L 299.411316 92.140174 
L 300.143898 90.203844 
L 300.876472 100.04406 
L 301.609051 93.162129 
L 302.341625 87.849018 
L 303.0742 88.160902 
L 303.806778 88.893011 
L 304.527145 86.288991 
L 305.271935 86.483565 
L 306.004509 82.848118 
L 306.737087 85.250563 
L 307.469666 83.522211 
L 308.20224 83.364781 
L 308.934814 84.093245 
L 309.667389 83.977819 
L 310.387756 85.146656 
L 311.132549 83.826659 
L 311.865124 84.903956 
L 312.597698 83.69681 
L 313.330273 84.526198 
L 314.062851 84.502921 
L 314.795429 84.708406 
L 315.528008 86.495647 
L 316.260582 84.428533 
L 316.99316 85.586216 
L 317.725735 86.253471 
L 318.458313 85.133306 
L 319.190887 85.51694 
L 319.923466 84.492289 
L 320.668251 84.244145 
L 321.388618 87.537025 
L 322.121197 85.433417 
L 322.853775 82.949915 
L 323.586349 85.499891 
L 325.051502 87.507089 
L 325.784081 85.745088 
L 326.516659 85.670458 
L 327.249233 87.107301 
L 327.981808 86.680302 
L 328.714382 87.455838 
L 329.44696 87.294979 
L 330.179543 87.873817 
L 330.912117 86.801855 
L 331.644691 87.415164 
L 332.37727 87.541225 
L 333.109844 87.799574 
L 333.842422 87.296945 
L 335.295364 87.536036 
L 336.040154 87.092764 
L 336.772728 86.176259 
L 337.505306 86.983557 
L 338.237885 86.537784 
L 338.970459 86.488676 
L 339.690826 87.066448 
L 340.447823 86.462625 
L 341.168194 86.385764 
L 341.900768 86.465302 
L 342.633343 86.724489 
L 343.365917 86.420771 
L 344.831074 86.585798 
L 345.563652 85.912256 
L 346.296227 87.181979 
L 347.028801 86.892831 
L 347.761379 87.296853 
L 349.226532 87.499187 
L 349.959106 87.42743 
L 350.703896 89.463271 
L 351.424263 87.788241 
L 352.14463 87.792478 
L 352.889416 87.06287 
L 353.621994 87.144003 
L 354.354568 87.355104 
L 355.087147 86.963939 
L 355.819725 85.788869 
L 356.540092 87.454968 
L 357.284878 85.910355 
L 358.017452 85.708272 
L 358.750027 86.553254 
L 359.482605 84.711486 
L 360.215187 85.022529 
L 360.947762 87.360847 
L 361.680336 85.174449 
L 362.412914 85.729977 
L 363.145489 87.117884 
L 363.878067 85.071454 
L 364.610641 85.066348 
L 365.34322 86.64354 
L 366.075798 86.126282 
L 366.808372 85.14627 
L 367.540951 87.273566 
L 368.273525 86.387625 
L 369.738678 86.868659 
L 370.471256 87.309446 
L 371.203835 87.99945 
L 371.936413 87.888846 
L 372.668987 88.632307 
L 373.401562 88.026364 
L 375.599297 88.420167 
L 376.331871 88.246469 
L 377.064445 88.300166 
L 377.797024 88.555663 
L 378.529602 88.401188 
L 379.262177 89.143164 
L 379.994755 89.555391 
L 380.727333 89.8262 
L 381.459908 89.501071 
L 382.192486 89.782013 
L 382.92506 90.598857 
L 383.657635 89.823288 
L 384.390213 90.511645 
L 385.122791 89.927751 
L 385.85537 90.621939 
L 386.587944 90.598654 
L 387.320522 89.859484 
L 388.053097 90.100149 
L 388.785671 89.813456 
L 389.51825 89.749545 
L 390.250832 89.843173 
L 390.983406 89.769558 
L 391.715981 89.494203 
L 392.448555 90.004441 
L 393.181133 89.607655 
L 393.913712 89.813326 
L 395.378864 89.376181 
L 396.111443 88.906769 
L 396.844017 89.261023 
L 397.576595 89.414498 
L 398.30917 89.932837 
L 399.847584 92.416872 
L 400.580158 94.045493 
L 401.312737 93.700248 
L 402.045311 97.169098 
L 402.777889 97.326159 
L 403.510468 101.700602 
L 404.243042 104.260246 
L 405.708195 107.289907 
L 406.440773 109.680303 
L 407.173347 110.91281 
L 407.905922 111.398141 
L 408.638504 111.498935 
L 409.371082 112.435531 
L 410.103657 110.335598 
L 410.836231 109.200093 
L 412.301384 109.840072 
L 413.033962 109.979399 
L 413.766541 110.480135 
L 414.499115 109.343173 
L 415.964268 112.242401 
L 416.696846 110.39681 
L 417.42942 110.959282 
L 418.186417 111.109971 
L 418.894577 110.46701 
L 419.639362 108.830375 
L 420.371941 110.267574 
L 421.092308 110.088711 
L 421.824883 108.059765 
L 422.557457 108.975778 
L 423.290031 109.188598 
L 424.022614 108.541905 
L 425.487766 107.824998 
L 426.232552 107.219907 
L 426.952919 107.834303 
L 427.685497 106.650734 
L 428.418076 106.789222 
L 429.15065 106.078659 
L 429.883224 104.645789 
L 430.615803 104.490583 
L 431.348381 103.299059 
L 432.080956 103.038538 
L 432.81353 101.217735 
L 433.546112 101.17533 
L 434.278687 100.022903 
L 435.011265 98.139111 
L 435.743839 97.80865 
L 436.476418 97.98253 
L 437.953781 95.933706 
L 438.674149 97.399882 
L 439.406727 96.428842 
L 440.139301 97.075438 
L 440.871876 95.909878 
L 441.60445 96.940029 
L 442.337029 96.069956 
L 443.069607 96.335186 
L 443.802185 96.944501 
L 444.53476 95.415799 
L 445.267334 96.080353 
L 445.999912 95.543234 
L 446.732491 95.287321 
L 447.465065 94.044224 
L 448.954639 93.702485 
L 449.662796 94.953626 
L 450.395374 93.204428 
L 451.14016 94.170201 
L 451.860527 93.944004 
L 452.593102 93.352149 
L 453.325676 94.488221 
L 454.058258 93.434039 
L 454.790836 93.561465 
L 455.523411 93.138184 
L 456.255985 92.458428 
L 457.000771 90.174965 
L 457.721138 95.100721 
L 458.45372 88.707937 
L 459.186295 89.37278 
L 459.918869 88.37432 
L 460.651447 88.436292 
L 462.861389 85.423983 
L 463.593964 86.257984 
L 464.314331 83.807858 
L 465.046909 84.609921 
L 466.512058 85.708772 
L 467.244637 86.742474 
L 467.977211 85.833719 
L 468.722 85.827867 
L 469.442368 84.922454 
L 470.174946 86.144727 
L 470.90752 86.217607 
L 471.640095 87.218903 
L 472.372673 87.600225 
L 473.117462 87.552676 
L 473.83783 89.687233 
L 474.570404 88.918454 
L 475.302979 88.403705 
L 476.035557 88.620395 
L 476.768135 88.158409 
L 477.50071 88.472437 
L 478.233284 87.959032 
L 478.965862 86.782199 
L 479.698441 87.08493 
L 480.431019 88.364377 
L 481.163593 85.984979 
L 481.896168 84.699842 
L 482.628746 87.493257 
L 483.36132 84.828918 
L 484.093903 83.890929 
L 484.826477 86.280738 
L 485.559055 86.067996 
L 486.29163 85.976355 
L 487.024204 84.400919 
L 487.756783 84.197451 
L 488.489365 85.357233 
L 489.221939 85.24635 
L 489.954514 85.587595 
L 491.419666 84.397709 
L 492.884819 84.435006 
L 493.617397 84.333877 
L 494.349976 84.87645 
L 495.082554 84.000263 
L 495.815128 85.094901 
L 496.547703 84.225319 
L 497.280277 85.299717 
L 498.745438 84.528094 
L 499.478012 84.482173 
L 500.210587 84.860518 
L 501.675739 84.434655 
L 502.408318 85.577119 
L 503.140892 85.933528 
L 503.873474 84.924609 
L 504.606049 85.660588 
L 505.338623 85.994762 
L 506.15667 86.161919 
L 506.815987 86.629584 
L 507.621822 87.013013 
L 508.354397 86.788072 
L 509.086971 87.996067 
L 509.746296 88.12175 
L 510.552128 88.658625 
L 511.284706 88.542167 
L 511.944023 87.702563 
L 512.749859 87.835473 
L 513.482437 88.209737 
L 514.862122 87.491443 
L 515.680164 89.110418 
L 516.339481 87.063325 
L 517.145321 88.327864 
L 517.877895 88.249049 
L 518.610474 87.249305 
L 519.343048 88.066389 
L 520.075623 87.887824 
L 520.808205 88.46304 
L 521.479733 89.446398 
L 522.273357 88.879318 
L 523.005932 91.386753 
L 523.738506 91.18893 
L 524.471085 92.211234 
L 525.203663 93.538932 
L 525.936241 93.847498 
L 526.668816 92.310838 
L 527.40139 92.918755 
L 528.133968 91.74565 
L 528.866547 90.304003 
L 529.599121 90.92382 
L 530.331696 90.248294 
L 531.064278 91.442841 
L 532.52943 89.448337 
L 533.262005 90.024581 
L 533.994583 89.773771 
L 534.727158 89.395367 
L 535.459732 89.481899 
L 536.192314 90.364674 
L 536.924892 90.71849 
L 537.657467 91.634762 
L 538.390041 95.88357 
L 539.122616 97.976643 
L 539.855194 101.676736 
L 540.587772 101.209528 
L 541.320351 104.945677 
L 542.052925 104.418928 
L 542.7855 104.41285 
L 543.518078 109.747829 
L 544.250656 108.672425 
L 544.983231 109.816298 
L 545.715805 109.570972 
L 546.448387 111.31624 
L 547.180962 110.974887 
L 547.91354 110.148155 
L 548.646114 110.484627 
L 549.378693 108.235172 
L 550.111267 107.961853 
L 551.576424 108.083325 
L 552.309002 107.091842 
L 553.041576 106.612806 
L 553.774151 105.310629 
L 554.506729 104.500905 
L 555.239307 103.164661 
L 555.971886 102.815821 
L 556.70446 101.978437 
L 557.437035 99.900831 
L 558.169613 99.677848 
L 558.902191 98.367175 
L 559.634766 97.55976 
L 560.36734 96.242359 
L 561.099918 95.411978 
L 561.832497 95.816639 
L 562.565075 93.862049 
L 563.297649 94.445654 
L 564.030224 92.529905 
L 564.762802 93.637498 
L 565.495377 93.676518 
L 566.227959 92.97812 
L 566.960533 93.239881 
L 567.693111 92.726761 
L 568.425686 93.632587 
L 569.15826 92.482989 
L 569.890839 93.400132 
L 570.623417 92.358724 
L 572.08857 93.385733 
L 572.821144 92.570382 
L 573.553722 93.155761 
L 575.018875 92.544001 
L 575.75145 92.889218 
L 576.484032 93.432722 
L 577.216606 93.329578 
L 577.949184 93.856971 
L 578.681759 93.937833 
L 581.612068 92.499071 
L 582.344643 93.497722 
L 583.089428 98.067467 
L 583.809795 93.644207 
L 584.542374 95.486862 
L 585.274948 98.019008 
L 586.00753 91.982675 
L 586.740105 88.884558 
L 587.48489 89.149321 
L 588.205257 85.534855 
L 588.937836 87.084865 
L 589.67041 85.72233 
L 590.402985 85.70789 
L 591.135563 85.999437 
L 591.868141 86.040252 
L 592.600719 85.949666 
L 593.333294 85.074093 
L 594.078079 85.382754 
L 594.798447 85.957684 
L 595.531021 85.097845 
L 596.263603 85.708469 
L 596.996178 84.772206 
L 597.728752 86.839212 
L 598.46133 85.513282 
L 599.193905 83.85443 
L 599.926483 84.487789 
L 600.659058 86.390275 
L 601.39164 86.626596 
L 602.124214 86.180285 
L 602.856789 85.532551 
L 603.601578 84.637705 
L 604.321945 85.006121 
L 605.799305 85.359161 
L 606.519672 85.908648 
L 607.252251 85.53778 
L 607.984829 84.703855 
L 608.717403 85.253632 
L 609.449978 85.100136 
L 610.182556 85.537751 
L 610.915134 85.565557 
L 611.647713 84.315219 
L 613.112865 85.348872 
L 613.84544 86.487705 
L 614.578014 86.078623 
L 616.043171 86.07898 
L 616.775749 86.602709 
L 617.508324 84.349166 
L 618.973476 86.069421 
L 619.706055 86.433378 
L 620.438629 86.198273 
L 621.171207 85.436481 
L 621.903786 85.867763 
L 622.636364 85.763748 
L 622.636364 85.763748 
" clip-path="url(#p7d0ecf7411)" style="fill: none; stroke: #ff7f0e; stroke-width: 2.5; stroke-linecap: square"/>
   </g>
   <g id="line2d_33">
    <path d="M 115.363636 94.522416 
L 116.096214 94.050034 
L 116.828793 94.082772 
L 117.585785 94.295194 
L 118.293941 95.007097 
L 119.02652 94.244131 
L 119.771309 95.529377 
L 120.491676 94.286238 
L 121.236462 94.115399 
L 121.956829 94.223614 
L 122.726036 93.976561 
L 123.421978 93.453424 
L 124.154556 93.496457 
L 124.887131 92.926337 
L 125.619713 92.922471 
L 127.81744 92.54786 
L 128.550018 92.292179 
L 130.015167 92.075206 
L 130.747746 91.667493 
L 131.480328 91.624112 
L 132.212902 92.462716 
L 132.945477 92.829874 
L 133.678051 93.013527 
L 134.410629 92.099883 
L 135.143208 92.622216 
L 135.875786 92.466402 
L 136.60836 92.062739 
L 137.353146 92.065921 
L 138.073513 91.117197 
L 138.806091 90.973131 
L 140.271248 90.271228 
L 141.003822 89.780318 
L 141.736397 89.661429 
L 142.468975 91.219439 
L 143.20155 91.175171 
L 143.934128 91.518092 
L 144.666702 91.014661 
L 145.399281 90.935188 
L 146.131859 91.521794 
L 147.597012 92.035247 
L 148.329586 91.847544 
L 149.147633 91.80076 
L 149.880207 92.72871 
L 150.612785 92.760875 
L 151.34536 92.609153 
L 152.077934 92.675394 
L 153.543095 93.138798 
L 154.275669 92.803782 
L 155.008244 93.001367 
L 155.740822 93.493325 
L 156.473396 93.517042 
L 157.132717 93.191059 
L 157.938553 93.667858 
L 158.671131 93.427432 
L 160.13628 93.862105 
L 160.868858 94.272739 
L 161.601437 94.154409 
L 162.334011 94.506252 
L 163.066589 94.221045 
L 165.26432 94.13821 
L 165.996895 94.566864 
L 166.729469 94.623228 
L 167.462048 94.899636 
L 168.194626 94.316954 
L 169.659779 94.296326 
L 170.392353 93.941528 
L 171.124931 95.08293 
L 171.857506 95.037904 
L 172.590084 94.468813 
L 173.322662 94.604662 
L 174.055241 95.117882 
L 174.787815 94.824392 
L 175.52039 94.749619 
L 176.985546 92.846688 
L 179.183273 91.970276 
L 179.915852 92.278244 
L 180.64843 91.558563 
L 181.381004 91.639229 
L 182.113579 92.609876 
L 182.846161 91.725562 
L 183.578735 92.408838 
L 185.776466 92.519439 
L 186.509041 92.08425 
L 187.241619 92.143891 
L 187.974197 91.548597 
L 188.706772 90.634612 
L 189.43935 90.317095 
L 190.171925 89.038028 
L 190.904503 89.434774 
L 191.637077 89.579226 
L 192.369656 89.212894 
L 193.102234 89.462181 
L 195.299965 88.770818 
L 196.032539 88.5942 
L 196.765114 88.135925 
L 197.497688 89.142714 
L 198.23027 88.430822 
L 199.695423 89.220661 
L 200.427998 88.542678 
L 201.89315 88.846141 
L 202.625732 88.369686 
L 203.358307 88.079871 
L 204.090885 88.559749 
L 204.82346 88.262545 
L 205.556034 88.256121 
L 206.288612 88.752523 
L 207.753769 88.626025 
L 208.486343 89.309396 
L 209.218918 88.692683 
L 209.951496 88.660304 
L 210.684074 88.508953 
L 211.416649 87.540004 
L 212.149223 87.718988 
L 213.61438 86.368395 
L 214.346958 86.183101 
L 215.079533 86.512993 
L 216.544685 86.672807 
L 217.27726 86.793565 
L 218.009842 86.792755 
L 218.742416 87.619374 
L 220.231987 87.431536 
L 220.952354 88.087886 
L 221.672722 87.808148 
L 222.4053 87.807494 
L 223.137878 88.757173 
L 223.870453 88.202851 
L 224.603031 88.285689 
L 225.347816 89.117016 
L 226.800758 88.268213 
L 227.533333 88.727574 
L 228.265915 88.935966 
L 228.998493 88.712848 
L 229.743275 89.472602 
L 230.463642 89.130503 
L 231.196217 88.640495 
L 231.928795 89.631108 
L 232.661377 89.694187 
L 233.393951 91.474382 
L 234.126526 91.597366 
L 234.859104 92.163336 
L 235.591679 95.076517 
L 236.324257 91.803658 
L 237.056831 91.787804 
L 237.789413 92.534766 
L 238.521988 91.250591 
L 239.266773 91.165079 
L 239.987141 89.307403 
L 240.719719 90.178359 
L 241.452293 90.602447 
L 242.184868 90.274372 
L 242.917446 88.876394 
L 243.650024 88.20391 
L 244.382603 87.836966 
L 245.115177 86.804598 
L 245.847752 87.283309 
L 248.045486 83.387773 
L 248.778061 83.344813 
L 249.510635 83.752831 
L 250.243214 83.658058 
L 250.975788 84.130567 
L 252.440941 83.410473 
L 253.173523 83.511323 
L 254.638676 84.699941 
L 255.37125 86.372059 
L 256.116035 84.786259 
L 256.836403 84.911576 
L 257.568977 85.298424 
L 258.301559 84.576789 
L 259.034138 85.832758 
L 260.499287 84.354018 
L 261.256287 84.68204 
L 261.976654 84.635034 
L 262.697021 83.936783 
L 263.429596 84.493125 
L 264.16217 84.594548 
L 264.894745 86.319882 
L 265.627323 86.023723 
L 266.359901 85.954464 
L 267.092476 87.596696 
L 267.825054 91.81494 
L 268.557632 90.850924 
L 269.290207 92.960254 
L 270.022785 93.630099 
L 270.75536 91.649982 
L 271.487938 94.527976 
L 272.305981 97.121578 
L 273.038559 96.206286 
L 273.771133 97.124886 
L 274.491501 99.32736 
L 275.23629 99.639696 
L 275.968864 97.830166 
L 276.701443 98.865857 
L 277.372971 96.552659 
L 278.166595 98.70859 
L 278.89917 99.284255 
L 279.631744 99.274664 
L 280.364326 98.047418 
L 281.035854 98.984654 
L 281.829479 98.454798 
L 282.562054 95.852026 
L 283.294632 96.320569 
L 284.027206 96.611819 
L 284.759785 96.391866 
L 285.492363 95.470769 
L 286.224941 95.827529 
L 286.957516 94.434675 
L 287.69009 93.767672 
L 288.422668 94.036951 
L 289.155247 93.375045 
L 289.887821 93.447558 
L 290.620399 93.781075 
L 291.352974 92.852031 
L 292.085552 94.690066 
L 292.81813 95.36094 
L 293.550705 95.189959 
L 294.283279 93.673499 
L 295.015858 95.91979 
L 295.748436 94.746625 
L 296.481014 94.296082 
L 297.213589 96.546418 
L 297.946163 96.541608 
L 298.678741 98.489709 
L 299.411316 96.124117 
L 300.143898 77.88065 
L 300.876472 98.274154 
L 301.609051 90.293947 
L 302.341625 85.349388 
L 303.0742 87.867991 
L 303.806778 89.41329 
L 304.527145 88.804397 
L 305.271935 89.142893 
L 306.004509 86.648226 
L 306.737087 87.476156 
L 307.469666 84.177374 
L 308.20224 81.621474 
L 308.934814 82.80272 
L 309.667389 82.759328 
L 310.387756 82.067402 
L 311.132549 82.222046 
L 311.865124 81.169 
L 312.597698 85.312382 
L 313.330273 84.696197 
L 314.062851 85.594098 
L 314.795429 86.903887 
L 315.528008 86.622298 
L 316.260582 87.674632 
L 316.99316 87.646257 
L 317.725735 87.729898 
L 318.458313 88.23056 
L 319.190887 88.284676 
L 319.923466 88.163719 
L 320.668251 88.495018 
L 321.388618 91.834389 
L 322.121197 93.820441 
L 322.853775 93.319002 
L 323.586349 93.38906 
L 324.318924 94.562566 
L 325.784081 97.289366 
L 326.516659 95.876749 
L 327.981808 95.806695 
L 328.714382 96.607949 
L 329.44696 96.121681 
L 330.179543 97.679128 
L 330.912117 97.779546 
L 331.644691 97.048423 
L 332.37727 97.544511 
L 333.109844 98.235099 
L 333.842422 98.087896 
L 334.574997 97.735312 
L 336.040154 99.253126 
L 337.505306 98.213485 
L 338.237885 98.504623 
L 338.970459 98.987591 
L 339.690826 98.618475 
L 340.447823 98.50039 
L 341.168194 99.667493 
L 341.900768 98.960699 
L 342.633343 99.300676 
L 343.365917 99.145076 
L 344.098495 99.280289 
L 344.831074 98.12823 
L 345.563652 99.083419 
L 346.296227 98.020248 
L 347.028801 95.979752 
L 347.761379 95.902864 
L 348.493958 94.961445 
L 349.226532 95.618586 
L 349.959106 93.880552 
L 350.703896 92.862585 
L 351.424263 92.801434 
L 352.14463 92.102472 
L 352.889416 92.28686 
L 353.621994 91.25342 
L 354.354568 91.956597 
L 355.087147 89.740394 
L 355.819725 90.854576 
L 356.540092 89.94817 
L 357.284878 90.449865 
L 358.017452 90.380074 
L 358.750027 88.919171 
L 359.482605 90.654142 
L 360.215187 91.053308 
L 360.947762 88.402214 
L 362.412914 90.432205 
L 363.145489 89.182997 
L 363.878067 89.028827 
L 364.610641 90.496205 
L 365.34322 89.500709 
L 366.075798 89.668936 
L 366.808372 90.647052 
L 367.540951 89.686191 
L 369.738678 90.667932 
L 370.471256 90.69836 
L 371.203835 91.165745 
L 371.936413 91.488661 
L 372.668987 89.376918 
L 373.401562 89.299208 
L 374.134136 89.000319 
L 374.866718 88.18996 
L 375.599297 88.298014 
L 376.331871 88.048895 
L 377.064445 88.292974 
L 377.797024 88.37912 
L 378.529602 88.707842 
L 379.262177 88.442149 
L 379.994755 88.499576 
L 380.727333 87.845391 
L 381.459908 87.831999 
L 382.192486 88.45114 
L 382.92506 87.937376 
L 383.657635 88.324508 
L 384.390213 87.746346 
L 385.122791 88.326745 
L 385.85537 88.442249 
L 386.587944 87.842821 
L 387.320522 87.989415 
L 388.053097 87.911732 
L 388.785671 89.519314 
L 389.51825 88.879882 
L 390.250832 88.730852 
L 390.983406 88.424482 
L 391.715981 88.379082 
L 392.448555 87.763677 
L 393.181133 87.467361 
L 393.913712 87.013934 
L 395.378864 87.556455 
L 396.111443 88.309678 
L 396.844017 88.250454 
L 397.576595 88.793992 
L 398.30917 88.530815 
L 399.115005 89.084319 
L 399.847584 91.329555 
L 400.580158 90.689259 
L 401.312737 92.441553 
L 402.045311 90.543701 
L 402.777889 92.819445 
L 403.510468 89.985757 
L 404.987831 90.341607 
L 405.708195 89.694791 
L 406.440773 88.874398 
L 407.173347 87.414462 
L 407.905922 86.401267 
L 408.638504 85.705472 
L 409.371082 84.383674 
L 410.836231 83.657186 
L 411.568806 84.582104 
L 412.301384 84.483086 
L 413.033962 82.969972 
L 413.766541 82.656275 
L 414.499115 82.8783 
L 415.231693 83.385241 
L 415.964268 82.32454 
L 416.696846 82.570557 
L 417.42942 82.495383 
L 418.186417 81.949171 
L 418.894577 81.28821 
L 419.639362 81.924403 
L 421.092308 81.161708 
L 422.557457 82.82524 
L 423.290031 81.46924 
L 424.022614 81.046257 
L 424.755192 81.417748 
L 425.487766 80.874283 
L 426.232552 80.991446 
L 428.418076 80.097691 
L 429.15065 83.075736 
L 429.883224 84.991343 
L 431.348381 87.815501 
L 432.080956 87.850423 
L 432.81353 89.785977 
L 433.546112 90.948492 
L 435.011265 93.880384 
L 435.743839 94.189373 
L 436.476418 95.223677 
L 437.208992 94.054412 
L 437.953781 95.432546 
L 438.674149 95.541978 
L 439.406727 96.310822 
L 440.139301 96.463217 
L 440.871876 95.196265 
L 441.60445 96.243984 
L 442.337029 95.016845 
L 443.069607 95.920975 
L 443.802185 95.667956 
L 444.53476 96.617283 
L 445.999912 96.754631 
L 446.732491 94.103671 
L 447.465065 95.174487 
L 448.197639 97.219243 
L 448.954639 96.614786 
L 449.662796 96.972285 
L 450.395374 95.548284 
L 451.14016 95.123894 
L 451.860527 97.227552 
L 452.593102 97.468744 
L 453.325676 96.271139 
L 454.058258 92.847067 
L 454.790836 95.255685 
L 455.523411 91.03361 
L 456.255985 74.694172 
L 457.000771 90.360881 
L 458.45372 81.483301 
L 459.186295 85.579516 
L 459.918869 86.766651 
L 460.651447 85.94425 
L 462.1166 87.903059 
L 462.861389 89.53523 
L 463.593964 90.157591 
L 464.314331 90.37599 
L 465.046909 88.148969 
L 465.791691 83.465689 
L 466.512058 81.947244 
L 467.244637 82.066105 
L 467.977211 82.036725 
L 468.722 82.229159 
L 469.442368 83.373723 
L 470.174946 81.934701 
L 470.90752 83.243473 
L 471.640095 83.581396 
L 472.372673 85.777055 
L 473.117462 85.990327 
L 473.83783 85.989008 
L 474.570404 86.773936 
L 475.302979 87.163328 
L 476.035557 86.845065 
L 476.768135 87.450986 
L 477.50071 87.826656 
L 478.233284 87.816603 
L 479.698441 88.489263 
L 480.431019 93.418082 
L 481.163593 95.278312 
L 481.896168 90.425168 
L 482.628746 92.471435 
L 483.36132 95.649 
L 484.093903 97.292964 
L 484.826477 94.575812 
L 485.559055 94.345619 
L 486.29163 95.382362 
L 487.024204 97.205002 
L 487.756783 97.897574 
L 488.489365 95.989435 
L 489.221939 97.1365 
L 489.954514 97.954251 
L 490.687088 99.032478 
L 491.419666 100.858643 
L 492.152245 100.293724 
L 492.884819 100.226018 
L 493.617397 99.581462 
L 494.349976 100.722107 
L 495.082554 99.736653 
L 495.815128 99.768198 
L 496.547703 100.592499 
L 497.280277 100.081707 
L 498.012856 101.210887 
L 498.745438 100.902946 
L 499.478012 101.619151 
L 500.210587 100.339346 
L 500.943165 101.121429 
L 501.675739 98.007689 
L 502.408318 97.258383 
L 503.140892 92.293391 
L 503.873474 93.087819 
L 506.15667 89.651238 
L 506.815987 88.299326 
L 508.354397 87.003628 
L 509.086971 87.716395 
L 509.746296 87.243844 
L 510.552128 86.996687 
L 511.284706 86.895757 
L 511.944023 88.156258 
L 512.749859 87.567931 
L 513.482437 86.501349 
L 514.215012 87.735562 
L 514.862122 87.567583 
L 515.680164 85.81226 
L 516.339481 87.396672 
L 517.145321 85.92282 
L 517.877895 86.016193 
L 518.610474 87.743057 
L 519.343048 86.257048 
L 520.075623 86.851302 
L 521.479733 86.438644 
L 522.273357 87.99348 
L 523.005932 87.487212 
L 523.738506 88.753949 
L 524.471085 87.290893 
L 525.203663 88.842589 
L 525.936241 89.704057 
L 526.668816 87.035456 
L 527.40139 88.141237 
L 528.133968 88.526498 
L 528.866547 87.7697 
L 529.599121 89.230925 
L 530.331696 89.273782 
L 531.064278 87.812079 
L 531.796852 88.124713 
L 532.52943 89.141788 
L 533.262005 87.732078 
L 533.994583 89.001451 
L 534.727158 89.453596 
L 535.459732 89.140924 
L 536.192314 89.267579 
L 536.924892 88.858157 
L 537.657467 89.434032 
L 538.390041 88.955771 
L 539.122616 89.946442 
L 539.855194 87.699829 
L 540.587772 90.674318 
L 541.320351 90.510206 
L 542.052925 90.024308 
L 542.7855 91.547855 
L 543.518078 88.681956 
L 545.715805 85.781151 
L 546.448387 83.479808 
L 547.91354 82.902319 
L 548.646114 82.962186 
L 549.378693 83.750621 
L 550.111267 83.40853 
L 550.843849 83.196119 
L 551.576424 82.533995 
L 552.309002 82.60406 
L 553.041576 84.46504 
L 553.774151 84.181275 
L 554.506729 84.47852 
L 555.239307 85.242775 
L 555.971886 88.381545 
L 556.70446 92.3185 
L 557.437035 90.153786 
L 558.169613 94.114994 
L 558.902191 96.676443 
L 559.634766 98.722556 
L 560.36734 101.387757 
L 561.099918 102.779211 
L 561.832497 103.503355 
L 562.565075 105.123954 
L 563.297649 105.457884 
L 564.762802 107.296894 
L 565.495377 106.877502 
L 566.227959 106.863013 
L 566.960533 106.670514 
L 567.693111 109.041693 
L 568.425686 106.630475 
L 569.15826 108.624672 
L 569.890839 107.245192 
L 570.623417 108.408112 
L 571.355995 107.600182 
L 572.08857 109.95141 
L 572.821144 107.259785 
L 573.553722 106.73014 
L 574.286301 107.73203 
L 575.018875 108.096182 
L 575.75145 108.934438 
L 576.484032 108.005757 
L 577.216606 107.729984 
L 577.949184 110.016122 
L 578.681759 109.309615 
L 579.414333 108.815351 
L 580.146912 109.996531 
L 580.87949 110.1789 
L 581.612068 109.454427 
L 582.344643 106.684633 
L 583.089428 81.672037 
L 583.809795 112.658248 
L 584.542374 95.095599 
L 585.274948 102.978023 
L 586.00753 97.082603 
L 586.740105 97.09544 
L 587.48489 94.940802 
L 588.205257 88.834975 
L 588.937836 89.564075 
L 589.67041 92.320642 
L 590.402985 91.059866 
L 591.135563 90.22641 
L 591.868141 90.061081 
L 592.600719 90.421849 
L 593.333294 89.478002 
L 594.078079 89.410142 
L 595.531021 90.677572 
L 596.996178 89.290841 
L 597.728752 88.61622 
L 598.46133 90.389153 
L 599.193905 91.046619 
L 599.926483 91.325979 
L 600.659058 90.644998 
L 601.39164 90.187958 
L 602.124214 90.596799 
L 602.856789 90.375983 
L 603.601578 91.260357 
L 604.321945 91.775796 
L 605.799305 93.311519 
L 606.519672 93.393726 
L 607.252251 94.27706 
L 607.984829 95.464566 
L 608.717403 96.279651 
L 609.449978 96.088426 
L 610.182556 96.093283 
L 610.915134 95.525282 
L 611.647713 96.574212 
L 612.392498 96.718818 
L 613.112865 96.742573 
L 613.84544 95.565855 
L 614.578014 95.004244 
L 615.310593 94.972091 
L 616.043171 95.500612 
L 616.775749 99.050394 
L 617.508324 99.410749 
L 618.240902 98.053789 
L 618.973476 97.254597 
L 619.706055 97.791944 
L 620.438629 98.53473 
L 622.636364 99.874558 
L 622.636364 99.874558 
" clip-path="url(#p7d0ecf7411)" style="fill: none; stroke: #2ca02c; stroke-width: 2.5; stroke-linecap: square"/>
   </g>
   <g id="patch_3">
    <path d="M 90 256.32 
L 90 34.56 
" style="fill: none; stroke: #000000; stroke-width: 0.8; stroke-linejoin: miter; stroke-linecap: square"/>
   </g>
   <g id="patch_4">
    <path d="M 648 256.32 
L 648 34.56 
" style="fill: none; stroke: #000000; stroke-width: 0.8; stroke-linejoin: miter; stroke-linecap: square"/>
   </g>
   <g id="patch_5">
    <path d="M 90 256.32 
L 648 256.32 
" style="fill: none; stroke: #000000; stroke-width: 0.8; stroke-linejoin: miter; stroke-linecap: square"/>
   </g>
   <g id="patch_6">
    <path d="M 90 34.56 
L 648 34.56 
" style="fill: none; stroke: #000000; stroke-width: 0.8; stroke-linejoin: miter; stroke-linecap: square"/>
   </g>
   <g id="text_18">
    <!-- design_with_tension_spring_data_mapped_to_robot - Forces -->
    <g transform="translate(189.22875 28.56)scale(0.12 -0.12)">
     <defs>
      <path id="DejaVuSans-64" d="M 2906 2969 
L 2906 4863 
L 3481 4863 
L 3481 0 
L 2906 0 
L 2906 525 
Q 2725 213 2448 61 
Q 2172 -91 1784 -91 
Q 1150 -91 751 415 
Q 353 922 353 1747 
Q 353 2572 751 3078 
Q 1150 3584 1784 3584 
Q 2172 3584 2448 3432 
Q 2725 3281 2906 2969 
z
M 947 1747 
Q 947 1113 1208 752 
Q 1469 391 1925 391 
Q 2381 391 2643 752 
Q 2906 1113 2906 1747 
Q 2906 2381 2643 2742 
Q 2381 3103 1925 3103 
Q 1469 3103 1208 2742 
Q 947 2381 947 1747 
z
" transform="scale(0.015625)"/>
      <path id="DejaVuSans-73" d="M 2834 3397 
L 2834 2853 
Q 2591 2978 2328 3040 
Q 2066 3103 1784 3103 
Q 1356 3103 1142 2972 
Q 928 2841 928 2578 
Q 928 2378 1081 2264 
Q 1234 2150 1697 2047 
L 1894 2003 
Q 2506 1872 2764 1633 
Q 3022 1394 3022 966 
Q 3022 478 2636 193 
Q 2250 -91 1575 -91 
Q 1294 -91 989 -36 
Q 684 19 347 128 
L 347 722 
Q 666 556 975 473 
Q 1284 391 1588 391 
Q 1994 391 2212 530 
Q 2431 669 2431 922 
Q 2431 1156 2273 1281 
Q 2116 1406 1581 1522 
L 1381 1569 
Q 847 1681 609 1914 
Q 372 2147 372 2553 
Q 372 3047 722 3315 
Q 1072 3584 1716 3584 
Q 2034 3584 2315 3537 
Q 2597 3491 2834 3397 
z
" transform="scale(0.015625)"/>
      <path id="DejaVuSans-67" d="M 2906 1791 
Q 2906 2416 2648 2759 
Q 2391 3103 1925 3103 
Q 1463 3103 1205 2759 
Q 947 2416 947 1791 
Q 947 1169 1205 825 
Q 1463 481 1925 481 
Q 2391 481 2648 825 
Q 2906 1169 2906 1791 
z
M 3481 434 
Q 3481 -459 3084 -895 
Q 2688 -1331 1869 -1331 
Q 1566 -1331 1297 -1286 
Q 1028 -1241 775 -1147 
L 775 -588 
Q 1028 -725 1275 -790 
Q 1522 -856 1778 -856 
Q 2344 -856 2625 -561 
Q 2906 -266 2906 331 
L 2906 616 
Q 2728 306 2450 153 
Q 2172 0 1784 0 
Q 1141 0 747 490 
Q 353 981 353 1791 
Q 353 2603 747 3093 
Q 1141 3584 1784 3584 
Q 2172 3584 2450 3431 
Q 2728 3278 2906 2969 
L 2906 3500 
L 3481 3500 
L 3481 434 
z
" transform="scale(0.015625)"/>
      <path id="DejaVuSans-6e" d="M 3513 2113 
L 3513 0 
L 2938 0 
L 2938 2094 
Q 2938 2591 2744 2837 
Q 2550 3084 2163 3084 
Q 1697 3084 1428 2787 
Q 1159 2491 1159 1978 
L 1159 0 
L 581 0 
L 581 3500 
L 1159 3500 
L 1159 2956 
Q 1366 3272 1645 3428 
Q 1925 3584 2291 3584 
Q 2894 3584 3203 3211 
Q 3513 2838 3513 2113 
z
" transform="scale(0.015625)"/>
      <path id="DejaVuSans-5f" d="M 3263 -1063 
L 3263 -1509 
L -63 -1509 
L -63 -1063 
L 3263 -1063 
z
" transform="scale(0.015625)"/>
      <path id="DejaVuSans-77" d="M 269 3500 
L 844 3500 
L 1563 769 
L 2278 3500 
L 2956 3500 
L 3675 769 
L 4391 3500 
L 4966 3500 
L 4050 0 
L 3372 0 
L 2619 2869 
L 1863 0 
L 1184 0 
L 269 3500 
z
" transform="scale(0.015625)"/>
      <path id="DejaVuSans-74" d="M 1172 4494 
L 1172 3500 
L 2356 3500 
L 2356 3053 
L 1172 3053 
L 1172 1153 
Q 1172 725 1289 603 
Q 1406 481 1766 481 
L 2356 481 
L 2356 0 
L 1766 0 
Q 1100 0 847 248 
Q 594 497 594 1153 
L 594 3053 
L 172 3053 
L 172 3500 
L 594 3500 
L 594 4494 
L 1172 4494 
z
" transform="scale(0.015625)"/>
      <path id="DejaVuSans-68" d="M 3513 2113 
L 3513 0 
L 2938 0 
L 2938 2094 
Q 2938 2591 2744 2837 
Q 2550 3084 2163 3084 
Q 1697 3084 1428 2787 
Q 1159 2491 1159 1978 
L 1159 0 
L 581 0 
L 581 4863 
L 1159 4863 
L 1159 2956 
Q 1366 3272 1645 3428 
Q 1925 3584 2291 3584 
Q 2894 3584 3203 3211 
Q 3513 2838 3513 2113 
z
" transform="scale(0.015625)"/>
      <path id="DejaVuSans-70" d="M 1159 525 
L 1159 -1331 
L 581 -1331 
L 581 3500 
L 1159 3500 
L 1159 2969 
Q 1341 3281 1617 3432 
Q 1894 3584 2278 3584 
Q 2916 3584 3314 3078 
Q 3713 2572 3713 1747 
Q 3713 922 3314 415 
Q 2916 -91 2278 -91 
Q 1894 -91 1617 61 
Q 1341 213 1159 525 
z
M 3116 1747 
Q 3116 2381 2855 2742 
Q 2594 3103 2138 3103 
Q 1681 3103 1420 2742 
Q 1159 2381 1159 1747 
Q 1159 1113 1420 752 
Q 1681 391 2138 391 
Q 2594 391 2855 752 
Q 3116 1113 3116 1747 
z
" transform="scale(0.015625)"/>
      <path id="DejaVuSans-61" d="M 2194 1759 
Q 1497 1759 1228 1600 
Q 959 1441 959 1056 
Q 959 750 1161 570 
Q 1363 391 1709 391 
Q 2188 391 2477 730 
Q 2766 1069 2766 1631 
L 2766 1759 
L 2194 1759 
z
M 3341 1997 
L 3341 0 
L 2766 0 
L 2766 531 
Q 2569 213 2275 61 
Q 1981 -91 1556 -91 
Q 1019 -91 701 211 
Q 384 513 384 1019 
Q 384 1609 779 1909 
Q 1175 2209 1959 2209 
L 2766 2209 
L 2766 2266 
Q 2766 2663 2505 2880 
Q 2244 3097 1772 3097 
Q 1472 3097 1187 3025 
Q 903 2953 641 2809 
L 641 3341 
Q 956 3463 1253 3523 
Q 1550 3584 1831 3584 
Q 2591 3584 2966 3190 
Q 3341 2797 3341 1997 
z
" transform="scale(0.015625)"/>
      <path id="DejaVuSans-62" d="M 3116 1747 
Q 3116 2381 2855 2742 
Q 2594 3103 2138 3103 
Q 1681 3103 1420 2742 
Q 1159 2381 1159 1747 
Q 1159 1113 1420 752 
Q 1681 391 2138 391 
Q 2594 391 2855 752 
Q 3116 1113 3116 1747 
z
M 1159 2969 
Q 1341 3281 1617 3432 
Q 1894 3584 2278 3584 
Q 2916 3584 3314 3078 
Q 3713 2572 3713 1747 
Q 3713 922 3314 415 
Q 2916 -91 2278 -91 
Q 1894 -91 1617 61 
Q 1341 213 1159 525 
L 1159 0 
L 581 0 
L 581 4863 
L 1159 4863 
L 1159 2969 
z
" transform="scale(0.015625)"/>
      <path id="DejaVuSans-2d" d="M 313 2009 
L 1997 2009 
L 1997 1497 
L 313 1497 
L 313 2009 
z
" transform="scale(0.015625)"/>
     </defs>
     <use xlink:href="#DejaVuSans-64"/>
     <use xlink:href="#DejaVuSans-65" x="63.476562"/>
     <use xlink:href="#DejaVuSans-73" x="125"/>
     <use xlink:href="#DejaVuSans-69" x="177.099609"/>
     <use xlink:href="#DejaVuSans-67" x="204.882812"/>
     <use xlink:href="#DejaVuSans-6e" x="268.359375"/>
     <use xlink:href="#DejaVuSans-5f" x="331.738281"/>
     <use xlink:href="#DejaVuSans-77" x="381.738281"/>
     <use xlink:href="#DejaVuSans-69" x="463.525391"/>
     <use xlink:href="#DejaVuSans-74" x="491.308594"/>
     <use xlink:href="#DejaVuSans-68" x="530.517578"/>
     <use xlink:href="#DejaVuSans-5f" x="593.896484"/>
     <use xlink:href="#DejaVuSans-74" x="643.896484"/>
     <use xlink:href="#DejaVuSans-65" x="683.105469"/>
     <use xlink:href="#DejaVuSans-6e" x="744.628906"/>
     <use xlink:href="#DejaVuSans-73" x="808.007812"/>
     <use xlink:href="#DejaVuSans-69" x="860.107422"/>
     <use xlink:href="#DejaVuSans-6f" x="887.890625"/>
     <use xlink:href="#DejaVuSans-6e" x="949.072266"/>
     <use xlink:href="#DejaVuSans-5f" x="1012.451172"/>
     <use xlink:href="#DejaVuSans-73" x="1062.451172"/>
     <use xlink:href="#DejaVuSans-70" x="1114.550781"/>
     <use xlink:href="#DejaVuSans-72" x="1178.027344"/>
     <use xlink:href="#DejaVuSans-69" x="1219.140625"/>
     <use xlink:href="#DejaVuSans-6e" x="1246.923828"/>
     <use xlink:href="#DejaVuSans-67" x="1310.302734"/>
     <use xlink:href="#DejaVuSans-5f" x="1373.779297"/>
     <use xlink:href="#DejaVuSans-64" x="1423.779297"/>
     <use xlink:href="#DejaVuSans-61" x="1487.255859"/>
     <use xlink:href="#DejaVuSans-74" x="1548.535156"/>
     <use xlink:href="#DejaVuSans-61" x="1587.744141"/>
     <use xlink:href="#DejaVuSans-5f" x="1649.023438"/>
     <use xlink:href="#DejaVuSans-6d" x="1699.023438"/>
     <use xlink:href="#DejaVuSans-61" x="1796.435547"/>
     <use xlink:href="#DejaVuSans-70" x="1857.714844"/>
     <use xlink:href="#DejaVuSans-70" x="1921.191406"/>
     <use xlink:href="#DejaVuSans-65" x="1984.667969"/>
     <use xlink:href="#DejaVuSans-64" x="2046.191406"/>
     <use xlink:href="#DejaVuSans-5f" x="2109.667969"/>
     <use xlink:href="#DejaVuSans-74" x="2159.667969"/>
     <use xlink:href="#DejaVuSans-6f" x="2198.876953"/>
     <use xlink:href="#DejaVuSans-5f" x="2260.058594"/>
     <use xlink:href="#DejaVuSans-72" x="2310.058594"/>
     <use xlink:href="#DejaVuSans-6f" x="2348.921875"/>
     <use xlink:href="#DejaVuSans-62" x="2410.103516"/>
     <use xlink:href="#DejaVuSans-6f" x="2473.580078"/>
     <use xlink:href="#DejaVuSans-74" x="2534.761719"/>
     <use xlink:href="#DejaVuSans-20" x="2573.970703"/>
     <use xlink:href="#DejaVuSans-2d" x="2605.757812"/>
     <use xlink:href="#DejaVuSans-20" x="2641.841797"/>
     <use xlink:href="#DejaVuSans-46" x="2673.628906"/>
     <use xlink:href="#DejaVuSans-6f" x="2727.523438"/>
     <use xlink:href="#DejaVuSans-72" x="2788.705078"/>
     <use xlink:href="#DejaVuSans-63" x="2827.568359"/>
     <use xlink:href="#DejaVuSans-65" x="2882.548828"/>
     <use xlink:href="#DejaVuSans-73" x="2944.072266"/>
    </g>
   </g>
   <g id="legend_1">
    <g id="patch_7">
     <path d="M 572.904688 251.32 
L 641 251.32 
Q 643 251.32 643 249.32 
L 643 205.45125 
Q 643 203.45125 641 203.45125 
L 572.904688 203.45125 
Q 570.904688 203.45125 570.904688 205.45125 
L 570.904688 249.32 
Q 570.904688 251.32 572.904688 251.32 
z
" style="fill: #ffffff; opacity: 0.8; stroke: #cccccc; stroke-linejoin: miter"/>
    </g>
    <g id="line2d_34">
     <path d="M 574.904688 211.549688 
L 584.904688 211.549688 
L 594.904688 211.549688 
" style="fill: none; stroke: #1f77b4; stroke-width: 2.5; stroke-linecap: square"/>
    </g>
    <g id="text_19">
     <!-- force_x -->
     <g transform="translate(602.904688 215.049688)scale(0.1 -0.1)">
      <defs>
       <path id="DejaVuSans-66" d="M 2375 4863 
L 2375 4384 
L 1825 4384 
Q 1516 4384 1395 4259 
Q 1275 4134 1275 3809 
L 1275 3500 
L 2222 3500 
L 2222 3053 
L 1275 3053 
L 1275 0 
L 697 0 
L 697 3053 
L 147 3053 
L 147 3500 
L 697 3500 
L 697 3744 
Q 697 4328 969 4595 
Q 1241 4863 1831 4863 
L 2375 4863 
z
" transform="scale(0.015625)"/>
       <path id="DejaVuSans-78" d="M 3513 3500 
L 2247 1797 
L 3578 0 
L 2900 0 
L 1881 1375 
L 863 0 
L 184 0 
L 1544 1831 
L 300 3500 
L 978 3500 
L 1906 2253 
L 2834 3500 
L 3513 3500 
z
" transform="scale(0.015625)"/>
      </defs>
      <use xlink:href="#DejaVuSans-66"/>
      <use xlink:href="#DejaVuSans-6f" x="35.205078"/>
      <use xlink:href="#DejaVuSans-72" x="96.386719"/>
      <use xlink:href="#DejaVuSans-63" x="135.25"/>
      <use xlink:href="#DejaVuSans-65" x="190.230469"/>
      <use xlink:href="#DejaVuSans-5f" x="251.753906"/>
      <use xlink:href="#DejaVuSans-78" x="301.753906"/>
     </g>
    </g>
    <g id="line2d_35">
     <path d="M 574.904688 226.505938 
L 584.904688 226.505938 
L 594.904688 226.505938 
" style="fill: none; stroke: #ff7f0e; stroke-width: 2.5; stroke-linecap: square"/>
    </g>
    <g id="text_20">
     <!-- force_y -->
     <g transform="translate(602.904688 230.005938)scale(0.1 -0.1)">
      <defs>
       <path id="DejaVuSans-79" d="M 2059 -325 
Q 1816 -950 1584 -1140 
Q 1353 -1331 966 -1331 
L 506 -1331 
L 506 -850 
L 844 -850 
Q 1081 -850 1212 -737 
Q 1344 -625 1503 -206 
L 1606 56 
L 191 3500 
L 800 3500 
L 1894 763 
L 2988 3500 
L 3597 3500 
L 2059 -325 
z
" transform="scale(0.015625)"/>
      </defs>
      <use xlink:href="#DejaVuSans-66"/>
      <use xlink:href="#DejaVuSans-6f" x="35.205078"/>
      <use xlink:href="#DejaVuSans-72" x="96.386719"/>
      <use xlink:href="#DejaVuSans-63" x="135.25"/>
      <use xlink:href="#DejaVuSans-65" x="190.230469"/>
      <use xlink:href="#DejaVuSans-5f" x="251.753906"/>
      <use xlink:href="#DejaVuSans-79" x="301.753906"/>
     </g>
    </g>
    <g id="line2d_36">
     <path d="M 574.904688 241.462187 
L 584.904688 241.462187 
L 594.904688 241.462187 
" style="fill: none; stroke: #2ca02c; stroke-width: 2.5; stroke-linecap: square"/>
    </g>
    <g id="text_21">
     <!-- force_z -->
     <g transform="translate(602.904688 244.962187)scale(0.1 -0.1)">
      <defs>
       <path id="DejaVuSans-7a" d="M 353 3500 
L 3084 3500 
L 3084 2975 
L 922 459 
L 3084 459 
L 3084 0 
L 275 0 
L 275 525 
L 2438 3041 
L 353 3041 
L 353 3500 
z
" transform="scale(0.015625)"/>
      </defs>
      <use xlink:href="#DejaVuSans-66"/>
      <use xlink:href="#DejaVuSans-6f" x="35.205078"/>
      <use xlink:href="#DejaVuSans-72" x="96.386719"/>
      <use xlink:href="#DejaVuSans-63" x="135.25"/>
      <use xlink:href="#DejaVuSans-65" x="190.230469"/>
      <use xlink:href="#DejaVuSans-5f" x="251.753906"/>
      <use xlink:href="#DejaVuSans-7a" x="301.753906"/>
     </g>
    </g>
   </g>
  </g>
 </g>
 <defs>
  <clipPath id="p7d0ecf7411">
   <rect x="90" y="34.56" width="558" height="221.76"/>
  </clipPath>
 </defs>
</svg>
