<?xml version="1.0" encoding="utf-8" standalone="no"?>
<!DOCTYPE svg PUBLIC "-//W3C//DTD SVG 1.1//EN"
  "http://www.w3.org/Graphics/SVG/1.1/DTD/svg11.dtd">
<svg xmlns:xlink="http://www.w3.org/1999/xlink" width="720pt" height="288pt" viewBox="0 0 720 288" xmlns="http://www.w3.org/2000/svg" version="1.1">
 <metadata>
  <rdf:RDF xmlns:dc="http://purl.org/dc/elements/1.1/" xmlns:cc="http://creativecommons.org/ns#" xmlns:rdf="http://www.w3.org/1999/02/22-rdf-syntax-ns#">
   <cc:Work>
    <dc:type rdf:resource="http://purl.org/dc/dcmitype/StillImage"/>
    <dc:date>2025-09-21T11:13:24.100459</dc:date>
    <dc:format>image/svg+xml</dc:format>
    <dc:creator>
     <cc:Agent>
      <dc:title>Matplotlib v3.5.3, https://matplotlib.org/</dc:title>
     </cc:Agent>
    </dc:creator>
   </cc:Work>
  </rdf:RDF>
 </metadata>
 <defs>
  <style type="text/css">*{stroke-linejoin: round; stroke-linecap: butt}</style>
 </defs>
 <g id="figure_1">
  <g id="patch_1">
   <path d="M 0 288 
L 720 288 
L 720 0 
L 0 0 
z
" style="fill: #ffffff"/>
  </g>
  <g id="axes_1">
   <g id="patch_2">
    <path d="M 90 256.32 
L 648 256.32 
L 648 34.56 
L 90 34.56 
z
" style="fill: #ffffff"/>
   </g>
   <g id="matplotlib.axis_1">
    <g id="xtick_1">
     <g id="line2d_1">
      <path d="M 137.438614 256.32 
L 137.438614 34.56 
" clip-path="url(#pe516a2e318)" style="fill: none; stroke: #b0b0b0; stroke-width: 0.8; stroke-linecap: square"/>
     </g>
     <g id="line2d_2">
      <defs>
       <path id="mc996c215dc" d="M 0 0 
L 0 3.5 
" style="stroke: #000000; stroke-width: 0.8"/>
      </defs>
      <g>
       <use xlink:href="#mc996c215dc" x="137.438614" y="256.32" style="stroke: #000000; stroke-width: 0.8"/>
      </g>
     </g>
     <g id="text_1">
      <!-- 15:14:55 -->
      <g transform="translate(114.982364 270.918437)scale(0.1 -0.1)">
       <defs>
        <path id="DejaVuSans-31" d="M 794 531 
L 1825 531 
L 1825 4091 
L 703 3866 
L 703 4441 
L 1819 4666 
L 2450 4666 
L 2450 531 
L 3481 531 
L 3481 0 
L 794 0 
L 794 531 
z
" transform="scale(0.015625)"/>
        <path id="DejaVuSans-35" d="M 691 4666 
L 3169 4666 
L 3169 4134 
L 1269 4134 
L 1269 2991 
Q 1406 3038 1543 3061 
Q 1681 3084 1819 3084 
Q 2600 3084 3056 2656 
Q 3513 2228 3513 1497 
Q 3513 744 3044 326 
Q 2575 -91 1722 -91 
Q 1428 -91 1123 -41 
Q 819 9 494 109 
L 494 744 
Q 775 591 1075 516 
Q 1375 441 1709 441 
Q 2250 441 2565 725 
Q 2881 1009 2881 1497 
Q 2881 1984 2565 2268 
Q 2250 2553 1709 2553 
Q 1456 2553 1204 2497 
Q 953 2441 691 2322 
L 691 4666 
z
" transform="scale(0.015625)"/>
        <path id="DejaVuSans-3a" d="M 750 794 
L 1409 794 
L 1409 0 
L 750 0 
L 750 794 
z
M 750 3309 
L 1409 3309 
L 1409 2516 
L 750 2516 
L 750 3309 
z
" transform="scale(0.015625)"/>
        <path id="DejaVuSans-34" d="M 2419 4116 
L 825 1625 
L 2419 1625 
L 2419 4116 
z
M 2253 4666 
L 3047 4666 
L 3047 1625 
L 3713 1625 
L 3713 1100 
L 3047 1100 
L 3047 0 
L 2419 0 
L 2419 1100 
L 313 1100 
L 313 1709 
L 2253 4666 
z
" transform="scale(0.015625)"/>
       </defs>
       <use xlink:href="#DejaVuSans-31"/>
       <use xlink:href="#DejaVuSans-35" x="63.623047"/>
       <use xlink:href="#DejaVuSans-3a" x="127.246094"/>
       <use xlink:href="#DejaVuSans-31" x="160.9375"/>
       <use xlink:href="#DejaVuSans-34" x="224.560547"/>
       <use xlink:href="#DejaVuSans-3a" x="288.183594"/>
       <use xlink:href="#DejaVuSans-35" x="321.875"/>
       <use xlink:href="#DejaVuSans-35" x="385.498047"/>
      </g>
     </g>
    </g>
    <g id="xtick_2">
     <g id="line2d_3">
      <path d="M 198.486671 256.32 
L 198.486671 34.56 
" clip-path="url(#pe516a2e318)" style="fill: none; stroke: #b0b0b0; stroke-width: 0.8; stroke-linecap: square"/>
     </g>
     <g id="line2d_4">
      <g>
       <use xlink:href="#mc996c215dc" x="198.486671" y="256.32" style="stroke: #000000; stroke-width: 0.8"/>
      </g>
     </g>
     <g id="text_2">
      <!-- 15:15:00 -->
      <g transform="translate(176.030421 270.918437)scale(0.1 -0.1)">
       <defs>
        <path id="DejaVuSans-30" d="M 2034 4250 
Q 1547 4250 1301 3770 
Q 1056 3291 1056 2328 
Q 1056 1369 1301 889 
Q 1547 409 2034 409 
Q 2525 409 2770 889 
Q 3016 1369 3016 2328 
Q 3016 3291 2770 3770 
Q 2525 4250 2034 4250 
z
M 2034 4750 
Q 2819 4750 3233 4129 
Q 3647 3509 3647 2328 
Q 3647 1150 3233 529 
Q 2819 -91 2034 -91 
Q 1250 -91 836 529 
Q 422 1150 422 2328 
Q 422 3509 836 4129 
Q 1250 4750 2034 4750 
z
" transform="scale(0.015625)"/>
       </defs>
       <use xlink:href="#DejaVuSans-31"/>
       <use xlink:href="#DejaVuSans-35" x="63.623047"/>
       <use xlink:href="#DejaVuSans-3a" x="127.246094"/>
       <use xlink:href="#DejaVuSans-31" x="160.9375"/>
       <use xlink:href="#DejaVuSans-35" x="224.560547"/>
       <use xlink:href="#DejaVuSans-3a" x="288.183594"/>
       <use xlink:href="#DejaVuSans-30" x="321.875"/>
       <use xlink:href="#DejaVuSans-30" x="385.498047"/>
      </g>
     </g>
    </g>
    <g id="xtick_3">
     <g id="line2d_5">
      <path d="M 259.534729 256.32 
L 259.534729 34.56 
" clip-path="url(#pe516a2e318)" style="fill: none; stroke: #b0b0b0; stroke-width: 0.8; stroke-linecap: square"/>
     </g>
     <g id="line2d_6">
      <g>
       <use xlink:href="#mc996c215dc" x="259.534729" y="256.32" style="stroke: #000000; stroke-width: 0.8"/>
      </g>
     </g>
     <g id="text_3">
      <!-- 15:15:05 -->
      <g transform="translate(237.078479 270.918437)scale(0.1 -0.1)">
       <use xlink:href="#DejaVuSans-31"/>
       <use xlink:href="#DejaVuSans-35" x="63.623047"/>
       <use xlink:href="#DejaVuSans-3a" x="127.246094"/>
       <use xlink:href="#DejaVuSans-31" x="160.9375"/>
       <use xlink:href="#DejaVuSans-35" x="224.560547"/>
       <use xlink:href="#DejaVuSans-3a" x="288.183594"/>
       <use xlink:href="#DejaVuSans-30" x="321.875"/>
       <use xlink:href="#DejaVuSans-35" x="385.498047"/>
      </g>
     </g>
    </g>
    <g id="xtick_4">
     <g id="line2d_7">
      <path d="M 320.582783 256.32 
L 320.582783 34.56 
" clip-path="url(#pe516a2e318)" style="fill: none; stroke: #b0b0b0; stroke-width: 0.8; stroke-linecap: square"/>
     </g>
     <g id="line2d_8">
      <g>
       <use xlink:href="#mc996c215dc" x="320.582783" y="256.32" style="stroke: #000000; stroke-width: 0.8"/>
      </g>
     </g>
     <g id="text_4">
      <!-- 15:15:10 -->
      <g transform="translate(298.126533 270.918437)scale(0.1 -0.1)">
       <use xlink:href="#DejaVuSans-31"/>
       <use xlink:href="#DejaVuSans-35" x="63.623047"/>
       <use xlink:href="#DejaVuSans-3a" x="127.246094"/>
       <use xlink:href="#DejaVuSans-31" x="160.9375"/>
       <use xlink:href="#DejaVuSans-35" x="224.560547"/>
       <use xlink:href="#DejaVuSans-3a" x="288.183594"/>
       <use xlink:href="#DejaVuSans-31" x="321.875"/>
       <use xlink:href="#DejaVuSans-30" x="385.498047"/>
      </g>
     </g>
    </g>
    <g id="xtick_5">
     <g id="line2d_9">
      <path d="M 381.630844 256.32 
L 381.630844 34.56 
" clip-path="url(#pe516a2e318)" style="fill: none; stroke: #b0b0b0; stroke-width: 0.8; stroke-linecap: square"/>
     </g>
     <g id="line2d_10">
      <g>
       <use xlink:href="#mc996c215dc" x="381.630844" y="256.32" style="stroke: #000000; stroke-width: 0.8"/>
      </g>
     </g>
     <g id="text_5">
      <!-- 15:15:15 -->
      <g transform="translate(359.174594 270.918437)scale(0.1 -0.1)">
       <use xlink:href="#DejaVuSans-31"/>
       <use xlink:href="#DejaVuSans-35" x="63.623047"/>
       <use xlink:href="#DejaVuSans-3a" x="127.246094"/>
       <use xlink:href="#DejaVuSans-31" x="160.9375"/>
       <use xlink:href="#DejaVuSans-35" x="224.560547"/>
       <use xlink:href="#DejaVuSans-3a" x="288.183594"/>
       <use xlink:href="#DejaVuSans-31" x="321.875"/>
       <use xlink:href="#DejaVuSans-35" x="385.498047"/>
      </g>
     </g>
    </g>
    <g id="xtick_6">
     <g id="line2d_11">
      <path d="M 442.678898 256.32 
L 442.678898 34.56 
" clip-path="url(#pe516a2e318)" style="fill: none; stroke: #b0b0b0; stroke-width: 0.8; stroke-linecap: square"/>
     </g>
     <g id="line2d_12">
      <g>
       <use xlink:href="#mc996c215dc" x="442.678898" y="256.32" style="stroke: #000000; stroke-width: 0.8"/>
      </g>
     </g>
     <g id="text_6">
      <!-- 15:15:20 -->
      <g transform="translate(420.222648 270.918437)scale(0.1 -0.1)">
       <defs>
        <path id="DejaVuSans-32" d="M 1228 531 
L 3431 531 
L 3431 0 
L 469 0 
L 469 531 
Q 828 903 1448 1529 
Q 2069 2156 2228 2338 
Q 2531 2678 2651 2914 
Q 2772 3150 2772 3378 
Q 2772 3750 2511 3984 
Q 2250 4219 1831 4219 
Q 1534 4219 1204 4116 
Q 875 4013 500 3803 
L 500 4441 
Q 881 4594 1212 4672 
Q 1544 4750 1819 4750 
Q 2544 4750 2975 4387 
Q 3406 4025 3406 3419 
Q 3406 3131 3298 2873 
Q 3191 2616 2906 2266 
Q 2828 2175 2409 1742 
Q 1991 1309 1228 531 
z
" transform="scale(0.015625)"/>
       </defs>
       <use xlink:href="#DejaVuSans-31"/>
       <use xlink:href="#DejaVuSans-35" x="63.623047"/>
       <use xlink:href="#DejaVuSans-3a" x="127.246094"/>
       <use xlink:href="#DejaVuSans-31" x="160.9375"/>
       <use xlink:href="#DejaVuSans-35" x="224.560547"/>
       <use xlink:href="#DejaVuSans-3a" x="288.183594"/>
       <use xlink:href="#DejaVuSans-32" x="321.875"/>
       <use xlink:href="#DejaVuSans-30" x="385.498047"/>
      </g>
     </g>
    </g>
    <g id="xtick_7">
     <g id="line2d_13">
      <path d="M 503.726955 256.32 
L 503.726955 34.56 
" clip-path="url(#pe516a2e318)" style="fill: none; stroke: #b0b0b0; stroke-width: 0.8; stroke-linecap: square"/>
     </g>
     <g id="line2d_14">
      <g>
       <use xlink:href="#mc996c215dc" x="503.726955" y="256.32" style="stroke: #000000; stroke-width: 0.8"/>
      </g>
     </g>
     <g id="text_7">
      <!-- 15:15:25 -->
      <g transform="translate(481.270705 270.918437)scale(0.1 -0.1)">
       <use xlink:href="#DejaVuSans-31"/>
       <use xlink:href="#DejaVuSans-35" x="63.623047"/>
       <use xlink:href="#DejaVuSans-3a" x="127.246094"/>
       <use xlink:href="#DejaVuSans-31" x="160.9375"/>
       <use xlink:href="#DejaVuSans-35" x="224.560547"/>
       <use xlink:href="#DejaVuSans-3a" x="288.183594"/>
       <use xlink:href="#DejaVuSans-32" x="321.875"/>
       <use xlink:href="#DejaVuSans-35" x="385.498047"/>
      </g>
     </g>
    </g>
    <g id="xtick_8">
     <g id="line2d_15">
      <path d="M 564.775013 256.32 
L 564.775013 34.56 
" clip-path="url(#pe516a2e318)" style="fill: none; stroke: #b0b0b0; stroke-width: 0.8; stroke-linecap: square"/>
     </g>
     <g id="line2d_16">
      <g>
       <use xlink:href="#mc996c215dc" x="564.775013" y="256.32" style="stroke: #000000; stroke-width: 0.8"/>
      </g>
     </g>
     <g id="text_8">
      <!-- 15:15:30 -->
      <g transform="translate(542.318763 270.918437)scale(0.1 -0.1)">
       <defs>
        <path id="DejaVuSans-33" d="M 2597 2516 
Q 3050 2419 3304 2112 
Q 3559 1806 3559 1356 
Q 3559 666 3084 287 
Q 2609 -91 1734 -91 
Q 1441 -91 1130 -33 
Q 819 25 488 141 
L 488 750 
Q 750 597 1062 519 
Q 1375 441 1716 441 
Q 2309 441 2620 675 
Q 2931 909 2931 1356 
Q 2931 1769 2642 2001 
Q 2353 2234 1838 2234 
L 1294 2234 
L 1294 2753 
L 1863 2753 
Q 2328 2753 2575 2939 
Q 2822 3125 2822 3475 
Q 2822 3834 2567 4026 
Q 2313 4219 1838 4219 
Q 1578 4219 1281 4162 
Q 984 4106 628 3988 
L 628 4550 
Q 988 4650 1302 4700 
Q 1616 4750 1894 4750 
Q 2613 4750 3031 4423 
Q 3450 4097 3450 3541 
Q 3450 3153 3228 2886 
Q 3006 2619 2597 2516 
z
" transform="scale(0.015625)"/>
       </defs>
       <use xlink:href="#DejaVuSans-31"/>
       <use xlink:href="#DejaVuSans-35" x="63.623047"/>
       <use xlink:href="#DejaVuSans-3a" x="127.246094"/>
       <use xlink:href="#DejaVuSans-31" x="160.9375"/>
       <use xlink:href="#DejaVuSans-35" x="224.560547"/>
       <use xlink:href="#DejaVuSans-3a" x="288.183594"/>
       <use xlink:href="#DejaVuSans-33" x="321.875"/>
       <use xlink:href="#DejaVuSans-30" x="385.498047"/>
      </g>
     </g>
    </g>
    <g id="xtick_9">
     <g id="line2d_17">
      <path d="M 625.823071 256.32 
L 625.823071 34.56 
" clip-path="url(#pe516a2e318)" style="fill: none; stroke: #b0b0b0; stroke-width: 0.8; stroke-linecap: square"/>
     </g>
     <g id="line2d_18">
      <g>
       <use xlink:href="#mc996c215dc" x="625.823071" y="256.32" style="stroke: #000000; stroke-width: 0.8"/>
      </g>
     </g>
     <g id="text_9">
      <!-- 15:15:35 -->
      <g transform="translate(603.366821 270.918437)scale(0.1 -0.1)">
       <use xlink:href="#DejaVuSans-31"/>
       <use xlink:href="#DejaVuSans-35" x="63.623047"/>
       <use xlink:href="#DejaVuSans-3a" x="127.246094"/>
       <use xlink:href="#DejaVuSans-31" x="160.9375"/>
       <use xlink:href="#DejaVuSans-35" x="224.560547"/>
       <use xlink:href="#DejaVuSans-3a" x="288.183594"/>
       <use xlink:href="#DejaVuSans-33" x="321.875"/>
       <use xlink:href="#DejaVuSans-35" x="385.498047"/>
      </g>
     </g>
    </g>
    <g id="text_10">
     <!-- Time -->
     <g transform="translate(356.766406 284.596563)scale(0.1 -0.1)">
      <defs>
       <path id="DejaVuSans-54" d="M -19 4666 
L 3928 4666 
L 3928 4134 
L 2272 4134 
L 2272 0 
L 1638 0 
L 1638 4134 
L -19 4134 
L -19 4666 
z
" transform="scale(0.015625)"/>
       <path id="DejaVuSans-69" d="M 603 3500 
L 1178 3500 
L 1178 0 
L 603 0 
L 603 3500 
z
M 603 4863 
L 1178 4863 
L 1178 4134 
L 603 4134 
L 603 4863 
z
" transform="scale(0.015625)"/>
       <path id="DejaVuSans-6d" d="M 3328 2828 
Q 3544 3216 3844 3400 
Q 4144 3584 4550 3584 
Q 5097 3584 5394 3201 
Q 5691 2819 5691 2113 
L 5691 0 
L 5113 0 
L 5113 2094 
Q 5113 2597 4934 2840 
Q 4756 3084 4391 3084 
Q 3944 3084 3684 2787 
Q 3425 2491 3425 1978 
L 3425 0 
L 2847 0 
L 2847 2094 
Q 2847 2600 2669 2842 
Q 2491 3084 2119 3084 
Q 1678 3084 1418 2786 
Q 1159 2488 1159 1978 
L 1159 0 
L 581 0 
L 581 3500 
L 1159 3500 
L 1159 2956 
Q 1356 3278 1631 3431 
Q 1906 3584 2284 3584 
Q 2666 3584 2933 3390 
Q 3200 3197 3328 2828 
z
" transform="scale(0.015625)"/>
       <path id="DejaVuSans-65" d="M 3597 1894 
L 3597 1613 
L 953 1613 
Q 991 1019 1311 708 
Q 1631 397 2203 397 
Q 2534 397 2845 478 
Q 3156 559 3463 722 
L 3463 178 
Q 3153 47 2828 -22 
Q 2503 -91 2169 -91 
Q 1331 -91 842 396 
Q 353 884 353 1716 
Q 353 2575 817 3079 
Q 1281 3584 2069 3584 
Q 2775 3584 3186 3129 
Q 3597 2675 3597 1894 
z
M 3022 2063 
Q 3016 2534 2758 2815 
Q 2500 3097 2075 3097 
Q 1594 3097 1305 2825 
Q 1016 2553 972 2059 
L 3022 2063 
z
" transform="scale(0.015625)"/>
      </defs>
      <use xlink:href="#DejaVuSans-54"/>
      <use xlink:href="#DejaVuSans-69" x="57.958984"/>
      <use xlink:href="#DejaVuSans-6d" x="85.742188"/>
      <use xlink:href="#DejaVuSans-65" x="183.154297"/>
     </g>
    </g>
   </g>
   <g id="matplotlib.axis_2">
    <g id="ytick_1">
     <g id="line2d_19">
      <path d="M 90 249.513805 
L 648 249.513805 
" clip-path="url(#pe516a2e318)" style="fill: none; stroke: #b0b0b0; stroke-width: 0.8; stroke-linecap: square"/>
     </g>
     <g id="line2d_20">
      <defs>
       <path id="m3955ece147" d="M 0 0 
L -3.5 0 
" style="stroke: #000000; stroke-width: 0.8"/>
      </defs>
      <g>
       <use xlink:href="#m3955ece147" x="90" y="249.513805" style="stroke: #000000; stroke-width: 0.8"/>
      </g>
     </g>
     <g id="text_11">
      <!-- −2.0 -->
      <g transform="translate(58.717187 253.313024)scale(0.1 -0.1)">
       <defs>
        <path id="DejaVuSans-2212" d="M 678 2272 
L 4684 2272 
L 4684 1741 
L 678 1741 
L 678 2272 
z
" transform="scale(0.015625)"/>
        <path id="DejaVuSans-2e" d="M 684 794 
L 1344 794 
L 1344 0 
L 684 0 
L 684 794 
z
" transform="scale(0.015625)"/>
       </defs>
       <use xlink:href="#DejaVuSans-2212"/>
       <use xlink:href="#DejaVuSans-32" x="83.789062"/>
       <use xlink:href="#DejaVuSans-2e" x="147.412109"/>
       <use xlink:href="#DejaVuSans-30" x="179.199219"/>
      </g>
     </g>
    </g>
    <g id="ytick_2">
     <g id="line2d_21">
      <path d="M 90 224.562922 
L 648 224.562922 
" clip-path="url(#pe516a2e318)" style="fill: none; stroke: #b0b0b0; stroke-width: 0.8; stroke-linecap: square"/>
     </g>
     <g id="line2d_22">
      <g>
       <use xlink:href="#m3955ece147" x="90" y="224.562922" style="stroke: #000000; stroke-width: 0.8"/>
      </g>
     </g>
     <g id="text_12">
      <!-- −1.5 -->
      <g transform="translate(58.717187 228.362141)scale(0.1 -0.1)">
       <use xlink:href="#DejaVuSans-2212"/>
       <use xlink:href="#DejaVuSans-31" x="83.789062"/>
       <use xlink:href="#DejaVuSans-2e" x="147.412109"/>
       <use xlink:href="#DejaVuSans-35" x="179.199219"/>
      </g>
     </g>
    </g>
    <g id="ytick_3">
     <g id="line2d_23">
      <path d="M 90 199.612039 
L 648 199.612039 
" clip-path="url(#pe516a2e318)" style="fill: none; stroke: #b0b0b0; stroke-width: 0.8; stroke-linecap: square"/>
     </g>
     <g id="line2d_24">
      <g>
       <use xlink:href="#m3955ece147" x="90" y="199.612039" style="stroke: #000000; stroke-width: 0.8"/>
      </g>
     </g>
     <g id="text_13">
      <!-- −1.0 -->
      <g transform="translate(58.717187 203.411258)scale(0.1 -0.1)">
       <use xlink:href="#DejaVuSans-2212"/>
       <use xlink:href="#DejaVuSans-31" x="83.789062"/>
       <use xlink:href="#DejaVuSans-2e" x="147.412109"/>
       <use xlink:href="#DejaVuSans-30" x="179.199219"/>
      </g>
     </g>
    </g>
    <g id="ytick_4">
     <g id="line2d_25">
      <path d="M 90 174.661156 
L 648 174.661156 
" clip-path="url(#pe516a2e318)" style="fill: none; stroke: #b0b0b0; stroke-width: 0.8; stroke-linecap: square"/>
     </g>
     <g id="line2d_26">
      <g>
       <use xlink:href="#m3955ece147" x="90" y="174.661156" style="stroke: #000000; stroke-width: 0.8"/>
      </g>
     </g>
     <g id="text_14">
      <!-- −0.5 -->
      <g transform="translate(58.717187 178.460375)scale(0.1 -0.1)">
       <use xlink:href="#DejaVuSans-2212"/>
       <use xlink:href="#DejaVuSans-30" x="83.789062"/>
       <use xlink:href="#DejaVuSans-2e" x="147.412109"/>
       <use xlink:href="#DejaVuSans-35" x="179.199219"/>
      </g>
     </g>
    </g>
    <g id="ytick_5">
     <g id="line2d_27">
      <path d="M 90 149.710273 
L 648 149.710273 
" clip-path="url(#pe516a2e318)" style="fill: none; stroke: #b0b0b0; stroke-width: 0.8; stroke-linecap: square"/>
     </g>
     <g id="line2d_28">
      <g>
       <use xlink:href="#m3955ece147" x="90" y="149.710273" style="stroke: #000000; stroke-width: 0.8"/>
      </g>
     </g>
     <g id="text_15">
      <!-- 0.0 -->
      <g transform="translate(67.096875 153.509491)scale(0.1 -0.1)">
       <use xlink:href="#DejaVuSans-30"/>
       <use xlink:href="#DejaVuSans-2e" x="63.623047"/>
       <use xlink:href="#DejaVuSans-30" x="95.410156"/>
      </g>
     </g>
    </g>
    <g id="ytick_6">
     <g id="line2d_29">
      <path d="M 90 124.75939 
L 648 124.75939 
" clip-path="url(#pe516a2e318)" style="fill: none; stroke: #b0b0b0; stroke-width: 0.8; stroke-linecap: square"/>
     </g>
     <g id="line2d_30">
      <g>
       <use xlink:href="#m3955ece147" x="90" y="124.75939" style="stroke: #000000; stroke-width: 0.8"/>
      </g>
     </g>
     <g id="text_16">
      <!-- 0.5 -->
      <g transform="translate(67.096875 128.558608)scale(0.1 -0.1)">
       <use xlink:href="#DejaVuSans-30"/>
       <use xlink:href="#DejaVuSans-2e" x="63.623047"/>
       <use xlink:href="#DejaVuSans-35" x="95.410156"/>
      </g>
     </g>
    </g>
    <g id="ytick_7">
     <g id="line2d_31">
      <path d="M 90 99.808506 
L 648 99.808506 
" clip-path="url(#pe516a2e318)" style="fill: none; stroke: #b0b0b0; stroke-width: 0.8; stroke-linecap: square"/>
     </g>
     <g id="line2d_32">
      <g>
       <use xlink:href="#m3955ece147" x="90" y="99.808506" style="stroke: #000000; stroke-width: 0.8"/>
      </g>
     </g>
     <g id="text_17">
      <!-- 1.0 -->
      <g transform="translate(67.096875 103.607725)scale(0.1 -0.1)">
       <use xlink:href="#DejaVuSans-31"/>
       <use xlink:href="#DejaVuSans-2e" x="63.623047"/>
       <use xlink:href="#DejaVuSans-30" x="95.410156"/>
      </g>
     </g>
    </g>
    <g id="ytick_8">
     <g id="line2d_33">
      <path d="M 90 74.857623 
L 648 74.857623 
" clip-path="url(#pe516a2e318)" style="fill: none; stroke: #b0b0b0; stroke-width: 0.8; stroke-linecap: square"/>
     </g>
     <g id="line2d_34">
      <g>
       <use xlink:href="#m3955ece147" x="90" y="74.857623" style="stroke: #000000; stroke-width: 0.8"/>
      </g>
     </g>
     <g id="text_18">
      <!-- 1.5 -->
      <g transform="translate(67.096875 78.656842)scale(0.1 -0.1)">
       <use xlink:href="#DejaVuSans-31"/>
       <use xlink:href="#DejaVuSans-2e" x="63.623047"/>
       <use xlink:href="#DejaVuSans-35" x="95.410156"/>
      </g>
     </g>
    </g>
    <g id="ytick_9">
     <g id="line2d_35">
      <path d="M 90 49.90674 
L 648 49.90674 
" clip-path="url(#pe516a2e318)" style="fill: none; stroke: #b0b0b0; stroke-width: 0.8; stroke-linecap: square"/>
     </g>
     <g id="line2d_36">
      <g>
       <use xlink:href="#m3955ece147" x="90" y="49.90674" style="stroke: #000000; stroke-width: 0.8"/>
      </g>
     </g>
     <g id="text_19">
      <!-- 2.0 -->
      <g transform="translate(67.096875 53.705959)scale(0.1 -0.1)">
       <use xlink:href="#DejaVuSans-32"/>
       <use xlink:href="#DejaVuSans-2e" x="63.623047"/>
       <use xlink:href="#DejaVuSans-30" x="95.410156"/>
      </g>
     </g>
    </g>
    <g id="text_20">
     <!-- Torque (Nm) -->
     <g transform="translate(52.6375 176.192344)rotate(-90)scale(0.1 -0.1)">
      <defs>
       <path id="DejaVuSans-6f" d="M 1959 3097 
Q 1497 3097 1228 2736 
Q 959 2375 959 1747 
Q 959 1119 1226 758 
Q 1494 397 1959 397 
Q 2419 397 2687 759 
Q 2956 1122 2956 1747 
Q 2956 2369 2687 2733 
Q 2419 3097 1959 3097 
z
M 1959 3584 
Q 2709 3584 3137 3096 
Q 3566 2609 3566 1747 
Q 3566 888 3137 398 
Q 2709 -91 1959 -91 
Q 1206 -91 779 398 
Q 353 888 353 1747 
Q 353 2609 779 3096 
Q 1206 3584 1959 3584 
z
" transform="scale(0.015625)"/>
       <path id="DejaVuSans-72" d="M 2631 2963 
Q 2534 3019 2420 3045 
Q 2306 3072 2169 3072 
Q 1681 3072 1420 2755 
Q 1159 2438 1159 1844 
L 1159 0 
L 581 0 
L 581 3500 
L 1159 3500 
L 1159 2956 
Q 1341 3275 1631 3429 
Q 1922 3584 2338 3584 
Q 2397 3584 2469 3576 
Q 2541 3569 2628 3553 
L 2631 2963 
z
" transform="scale(0.015625)"/>
       <path id="DejaVuSans-71" d="M 947 1747 
Q 947 1113 1208 752 
Q 1469 391 1925 391 
Q 2381 391 2643 752 
Q 2906 1113 2906 1747 
Q 2906 2381 2643 2742 
Q 2381 3103 1925 3103 
Q 1469 3103 1208 2742 
Q 947 2381 947 1747 
z
M 2906 525 
Q 2725 213 2448 61 
Q 2172 -91 1784 -91 
Q 1150 -91 751 415 
Q 353 922 353 1747 
Q 353 2572 751 3078 
Q 1150 3584 1784 3584 
Q 2172 3584 2448 3432 
Q 2725 3281 2906 2969 
L 2906 3500 
L 3481 3500 
L 3481 -1331 
L 2906 -1331 
L 2906 525 
z
" transform="scale(0.015625)"/>
       <path id="DejaVuSans-75" d="M 544 1381 
L 544 3500 
L 1119 3500 
L 1119 1403 
Q 1119 906 1312 657 
Q 1506 409 1894 409 
Q 2359 409 2629 706 
Q 2900 1003 2900 1516 
L 2900 3500 
L 3475 3500 
L 3475 0 
L 2900 0 
L 2900 538 
Q 2691 219 2414 64 
Q 2138 -91 1772 -91 
Q 1169 -91 856 284 
Q 544 659 544 1381 
z
M 1991 3584 
L 1991 3584 
z
" transform="scale(0.015625)"/>
       <path id="DejaVuSans-20" transform="scale(0.015625)"/>
       <path id="DejaVuSans-28" d="M 1984 4856 
Q 1566 4138 1362 3434 
Q 1159 2731 1159 2009 
Q 1159 1288 1364 580 
Q 1569 -128 1984 -844 
L 1484 -844 
Q 1016 -109 783 600 
Q 550 1309 550 2009 
Q 550 2706 781 3412 
Q 1013 4119 1484 4856 
L 1984 4856 
z
" transform="scale(0.015625)"/>
       <path id="DejaVuSans-4e" d="M 628 4666 
L 1478 4666 
L 3547 763 
L 3547 4666 
L 4159 4666 
L 4159 0 
L 3309 0 
L 1241 3903 
L 1241 0 
L 628 0 
L 628 4666 
z
" transform="scale(0.015625)"/>
       <path id="DejaVuSans-29" d="M 513 4856 
L 1013 4856 
Q 1481 4119 1714 3412 
Q 1947 2706 1947 2009 
Q 1947 1309 1714 600 
Q 1481 -109 1013 -844 
L 513 -844 
Q 928 -128 1133 580 
Q 1338 1288 1338 2009 
Q 1338 2731 1133 3434 
Q 928 4138 513 4856 
z
" transform="scale(0.015625)"/>
      </defs>
      <use xlink:href="#DejaVuSans-54"/>
      <use xlink:href="#DejaVuSans-6f" x="44.083984"/>
      <use xlink:href="#DejaVuSans-72" x="105.265625"/>
      <use xlink:href="#DejaVuSans-71" x="144.628906"/>
      <use xlink:href="#DejaVuSans-75" x="208.105469"/>
      <use xlink:href="#DejaVuSans-65" x="271.484375"/>
      <use xlink:href="#DejaVuSans-20" x="333.007812"/>
      <use xlink:href="#DejaVuSans-28" x="364.794922"/>
      <use xlink:href="#DejaVuSans-4e" x="403.808594"/>
      <use xlink:href="#DejaVuSans-6d" x="478.613281"/>
      <use xlink:href="#DejaVuSans-29" x="576.025391"/>
     </g>
    </g>
   </g>
   <g id="line2d_37">
    <path d="M 115.363636 144.552303 
L 116.828793 144.970843 
L 118.293941 144.668336 
L 119.02652 145.469161 
L 119.771309 144.299626 
L 120.491676 145.735161 
L 121.236462 144.813707 
L 121.956829 144.248059 
L 122.726036 145.833937 
L 123.421978 145.924721 
L 124.154556 145.536379 
L 126.352287 147.158354 
L 127.084862 147.439566 
L 127.81744 146.990734 
L 128.550018 147.12466 
L 129.282593 146.861401 
L 130.015167 147.611247 
L 130.747746 147.614156 
L 131.480328 146.451806 
L 132.212902 146.511563 
L 134.410629 147.755315 
L 135.143208 146.827495 
L 135.875786 145.316482 
L 136.60836 145.831015 
L 137.353146 146.902067 
L 138.073513 147.467554 
L 138.806091 147.312896 
L 139.55088 146.990792 
L 140.271248 146.552274 
L 141.003822 146.847492 
L 141.736397 146.865599 
L 143.20155 147.540096 
L 143.934128 148.309099 
L 144.666702 148.566132 
L 145.399281 147.461155 
L 146.131859 147.156169 
L 146.876644 147.452496 
L 147.597012 147.284802 
L 148.329586 146.905085 
L 149.147633 146.722862 
L 150.612785 147.736155 
L 152.077934 147.658123 
L 152.810516 148.156265 
L 154.275669 146.312208 
L 155.008244 146.99416 
L 155.740822 146.447922 
L 156.473396 146.623711 
L 157.132717 146.345814 
L 157.938553 146.529422 
L 158.671131 146.11035 
L 159.403706 146.748038 
L 160.13628 146.405305 
L 161.601437 146.661461 
L 162.334011 146.5718 
L 163.066589 145.739344 
L 163.799164 145.730259 
L 164.531742 146.03371 
L 165.26432 146.114744 
L 165.996895 145.910161 
L 166.729469 145.558486 
L 167.462048 145.562389 
L 168.194626 145.42078 
L 168.927204 146.629192 
L 169.659779 146.402161 
L 170.392353 146.441655 
L 171.124931 146.134806 
L 171.857506 147.045242 
L 172.590084 146.15852 
L 173.322662 146.796797 
L 174.055241 146.893201 
L 174.787815 146.506773 
L 175.52039 147.482654 
L 176.252968 147.070613 
L 176.985546 146.399332 
L 177.718124 146.940698 
L 178.450699 145.962335 
L 179.183273 146.069962 
L 179.915852 145.559384 
L 181.381004 147.200484 
L 182.113579 146.034117 
L 182.846161 145.40926 
L 183.578735 145.65933 
L 184.311314 146.11593 
L 185.043888 145.375749 
L 185.776466 146.182036 
L 186.509041 145.460993 
L 187.241619 145.945509 
L 187.974197 146.156246 
L 188.706772 145.163975 
L 189.43935 145.862283 
L 190.171925 145.818264 
L 190.904503 146.450871 
L 191.637077 145.249085 
L 192.369656 145.711788 
L 193.102234 145.713257 
L 193.834808 144.944804 
L 195.299965 145.335881 
L 196.032539 146.635878 
L 196.765114 146.128248 
L 197.497688 145.008918 
L 198.23027 145.569539 
L 198.962849 145.483918 
L 199.695423 146.732864 
L 200.427998 146.428712 
L 201.160576 146.814104 
L 201.89315 145.61467 
L 202.625732 146.691934 
L 203.358307 146.468418 
L 204.090885 145.97644 
L 204.82346 146.363101 
L 205.556034 146.573915 
L 206.288612 146.510058 
L 207.753769 147.153138 
L 208.486343 146.212839 
L 209.218918 145.684001 
L 209.951496 146.097396 
L 210.684074 144.094092 
L 211.416649 146.591179 
L 212.149223 146.148527 
L 212.881802 145.134273 
L 213.61438 144.857024 
L 214.346958 145.281654 
L 215.079533 144.966952 
L 215.812107 145.557148 
L 216.544685 144.079578 
L 217.27726 145.774437 
L 218.009842 145.144097 
L 218.742416 143.93706 
L 219.474995 144.903492 
L 220.952354 144.452234 
L 221.672722 145.315522 
L 222.4053 145.076676 
L 223.137878 143.393812 
L 223.870453 145.030107 
L 224.603031 144.807136 
L 225.347816 143.76173 
L 226.068184 144.643931 
L 226.800758 143.897837 
L 227.533333 143.739063 
L 228.265915 143.886723 
L 228.998493 145.097734 
L 229.743275 142.473671 
L 230.463642 143.178057 
L 231.196217 141.408189 
L 231.928795 138.895821 
L 232.661377 134.711352 
L 233.393951 126.309811 
L 234.859104 116.502418 
L 235.591679 110.177953 
L 236.324257 96.710247 
L 237.056831 95.406519 
L 237.789413 87.414519 
L 238.521988 84.547882 
L 239.266773 78.627315 
L 239.987141 75.58624 
L 240.719719 75.109497 
L 241.452293 72.033147 
L 242.184868 67.131981 
L 242.917446 69.410542 
L 244.382603 64.064756 
L 245.115177 64.172668 
L 245.847752 60.989843 
L 246.580326 62.697541 
L 247.312904 63.320916 
L 248.045486 65.467893 
L 248.778061 64.553052 
L 249.510635 61.379374 
L 250.243214 65.576793 
L 250.975788 64.182944 
L 251.708366 63.576346 
L 252.440941 62.732085 
L 253.173523 62.547752 
L 253.906097 63.289573 
L 254.638676 62.743637 
L 255.37125 65.741516 
L 256.116035 61.922553 
L 256.836403 63.499088 
L 257.568977 64.048332 
L 258.301559 64.820903 
L 259.034138 66.599925 
L 259.766712 66.576848 
L 260.499287 65.733918 
L 261.256287 66.369078 
L 261.976654 66.496178 
L 263.429596 67.771979 
L 264.16217 68.135743 
L 264.894745 69.837223 
L 265.627323 74.419373 
L 266.359901 75.138662 
L 267.825054 76.036511 
L 268.557632 78.585421 
L 269.290207 78.302707 
L 270.75536 82.006051 
L 272.305981 80.524484 
L 273.038559 81.639864 
L 273.771133 82.453276 
L 274.491501 82.630617 
L 275.23629 84.202278 
L 275.968864 83.19165 
L 276.701443 85.302524 
L 277.372971 84.225861 
L 278.166595 84.410597 
L 278.89917 87.6116 
L 279.631744 86.375954 
L 280.364326 87.748758 
L 281.035854 86.672722 
L 281.829479 87.277353 
L 282.562054 88.011964 
L 283.294632 87.253589 
L 284.027206 88.181692 
L 284.759785 87.341267 
L 285.492363 86.816737 
L 286.224941 87.014645 
L 287.69009 86.5569 
L 288.422668 84.449073 
L 289.155247 85.952952 
L 289.887821 85.10151 
L 290.620399 86.115056 
L 291.352974 88.518103 
L 292.085552 87.235267 
L 292.81813 87.525162 
L 293.550705 91.716878 
L 294.283279 90.116715 
L 295.015858 89.603408 
L 295.748436 91.383921 
L 296.481014 90.162291 
L 297.946163 90.760872 
L 298.678741 89.30362 
L 299.411316 89.069662 
L 300.143898 91.936841 
L 300.876472 79.646765 
L 301.609051 87.036729 
L 302.341625 101.758704 
L 303.0742 111.314398 
L 303.806778 111.287601 
L 304.527145 126.813659 
L 305.271935 136.813255 
L 306.004509 148.375975 
L 306.737087 148.096161 
L 307.469666 149.756727 
L 308.20224 152.690027 
L 308.934814 151.932525 
L 309.667389 151.927075 
L 310.387756 150.159785 
L 311.132549 149.680867 
L 311.865124 150.55335 
L 312.597698 149.732517 
L 313.330273 150.450214 
L 314.062851 148.127864 
L 315.528008 144.825136 
L 316.260582 144.940275 
L 316.99316 143.857358 
L 317.725735 144.083051 
L 318.458313 143.822006 
L 319.190887 146.224506 
L 319.923466 146.119034 
L 320.668251 145.394635 
L 321.388618 143.06092 
L 322.121197 143.169206 
L 322.853775 146.996698 
L 323.586349 144.846163 
L 325.051502 139.500185 
L 325.784081 141.002953 
L 326.516659 142.052292 
L 327.249233 140.969251 
L 327.981808 139.274067 
L 328.714382 139.128187 
L 329.44696 138.175185 
L 330.179543 137.553093 
L 330.912117 138.086325 
L 331.644691 137.527 
L 332.37727 138.04646 
L 333.109844 137.646894 
L 333.842422 138.312989 
L 334.574997 136.459663 
L 335.295364 137.24449 
L 336.040154 138.368444 
L 336.772728 139.809389 
L 337.505306 138.768618 
L 338.237885 139.367674 
L 338.970459 139.338701 
L 339.690826 138.756323 
L 341.900768 139.554277 
L 342.633343 138.846123 
L 343.365917 139.550779 
L 344.098495 138.76992 
L 345.563652 139.37797 
L 346.296227 138.771753 
L 347.028801 139.955135 
L 347.761379 139.580663 
L 348.493958 138.966678 
L 349.226532 136.488088 
L 349.959106 138.116143 
L 350.703896 136.939304 
L 351.424263 137.779349 
L 352.14463 139.74276 
L 352.889416 138.49409 
L 353.621994 140.186675 
L 354.354568 140.126757 
L 355.087147 141.271416 
L 355.819725 141.547315 
L 357.284878 142.712735 
L 358.017452 142.469042 
L 358.750027 143.831234 
L 359.482605 143.9767 
L 360.215187 143.04984 
L 360.947762 143.788187 
L 361.680336 144.810651 
L 362.412914 141.762295 
L 363.145489 143.817279 
L 363.878067 143.480397 
L 364.610641 142.989991 
L 365.34322 142.846329 
L 366.075798 143.660862 
L 366.808372 141.75282 
L 367.540951 142.426804 
L 368.273525 142.195399 
L 369.738678 140.440955 
L 370.471256 141.077444 
L 371.203835 138.813452 
L 372.668987 138.104303 
L 373.401562 138.614765 
L 374.134136 139.96968 
L 374.866718 139.78607 
L 375.599297 138.729952 
L 376.331871 138.652087 
L 377.064445 139.863284 
L 377.797024 138.99405 
L 379.262177 136.687695 
L 379.994755 136.225224 
L 380.727333 135.389922 
L 381.459908 135.311456 
L 382.192486 133.801035 
L 382.92506 134.27064 
L 383.657635 133.777366 
L 384.390213 132.875537 
L 385.122791 133.148722 
L 385.85537 132.26462 
L 386.587944 132.521323 
L 387.320522 133.278131 
L 388.053097 132.931629 
L 389.51825 133.027305 
L 390.250832 133.194278 
L 391.715981 133.218201 
L 392.448555 133.905323 
L 393.181133 134.049659 
L 393.913712 133.330639 
L 394.646286 133.47127 
L 395.378864 134.403048 
L 396.844017 135.51303 
L 397.576595 134.439113 
L 398.30917 133.123928 
L 399.115005 130.257987 
L 399.847584 123.650856 
L 400.580158 111.601121 
L 401.312737 107.254954 
L 402.777889 88.740176 
L 403.510468 82.141119 
L 404.243042 71.786529 
L 404.987831 67.594153 
L 405.708195 59.485956 
L 406.440773 53.199968 
L 407.173347 51.882435 
L 407.905922 48.930802 
L 408.638504 44.64 
L 409.371082 46.349409 
L 410.103657 45.881893 
L 410.836231 51.906439 
L 411.568806 48.560456 
L 412.301384 50.40414 
L 413.033962 49.637611 
L 413.766541 49.563063 
L 414.499115 48.988999 
L 415.231693 48.181955 
L 415.964268 45.764388 
L 416.696846 50.523902 
L 417.42942 46.587062 
L 418.186417 49.978149 
L 418.894577 47.896835 
L 419.639362 52.677246 
L 420.371941 48.110749 
L 421.092308 51.956649 
L 421.824883 53.525593 
L 422.557457 52.616586 
L 423.290031 52.204342 
L 424.022614 54.023625 
L 425.487766 55.153657 
L 426.232552 54.271213 
L 426.952919 56.617812 
L 427.685497 56.628261 
L 428.418076 57.504287 
L 429.15065 59.91597 
L 429.883224 60.849116 
L 430.615803 62.759813 
L 431.348381 63.437557 
L 432.81353 68.018175 
L 433.546112 68.318772 
L 434.278687 70.698694 
L 435.011265 74.976911 
L 435.743839 73.613664 
L 436.476418 76.418111 
L 437.208992 77.817893 
L 437.953781 78.441816 
L 438.674149 77.224996 
L 439.406727 78.636836 
L 440.871876 78.845559 
L 441.60445 79.475511 
L 442.337029 78.935464 
L 443.069607 79.551048 
L 443.802185 79.487626 
L 444.53476 79.026875 
L 445.267334 79.467422 
L 445.999912 81.266816 
L 446.732491 80.613288 
L 447.465065 86.778126 
L 448.197639 82.757752 
L 448.954639 83.658085 
L 449.662796 82.937805 
L 450.395374 85.329029 
L 451.14016 87.211575 
L 451.860527 85.154385 
L 452.593102 85.719373 
L 453.325676 84.207799 
L 454.058258 86.123981 
L 454.790836 86.671065 
L 455.523411 85.771848 
L 456.255985 86.444425 
L 457.000771 80.132867 
L 457.721138 86.049583 
L 458.45372 97.101251 
L 459.186295 100.052054 
L 459.918869 101.624979 
L 460.651447 105.786326 
L 462.861389 129.645252 
L 463.593964 140.479317 
L 464.314331 140.388544 
L 465.046909 142.761951 
L 465.791691 142.897387 
L 466.512058 141.198064 
L 467.244637 141.727976 
L 467.977211 141.010595 
L 468.722 142.638643 
L 469.442368 142.64587 
L 470.174946 144.090996 
L 470.90752 140.004288 
L 471.640095 139.669621 
L 472.372673 135.746181 
L 473.117462 135.981052 
L 473.83783 132.391313 
L 474.570404 133.211451 
L 475.302979 133.084501 
L 476.035557 132.334585 
L 476.768135 132.714752 
L 477.50071 134.532662 
L 478.233284 134.893582 
L 478.965862 136.682524 
L 479.698441 135.820631 
L 480.431019 133.454441 
L 481.163593 136.547518 
L 481.896168 138.59144 
L 482.628746 138.12975 
L 483.36132 139.491414 
L 484.093903 140.399491 
L 484.826477 136.417629 
L 485.559055 135.368379 
L 486.29163 135.95156 
L 487.024204 140.225812 
L 487.756783 139.837281 
L 489.221939 136.282299 
L 489.954514 135.882466 
L 490.687088 136.849487 
L 491.419666 137.496402 
L 492.152245 138.785018 
L 492.884819 139.09681 
L 493.617397 138.648754 
L 494.349976 137.497042 
L 495.082554 137.569676 
L 495.815128 137.338153 
L 496.547703 137.238355 
L 497.280277 135.886658 
L 498.012856 136.230523 
L 498.745438 136.941558 
L 499.478012 137.321268 
L 500.210587 136.375984 
L 500.943165 136.267179 
L 501.675739 137.286821 
L 502.408318 136.291486 
L 503.140892 138.027885 
L 503.873474 135.371399 
L 504.606049 134.763952 
L 505.338623 134.934289 
L 506.15667 137.972698 
L 506.815987 135.448361 
L 507.621822 137.066631 
L 508.354397 135.257054 
L 509.086971 134.233472 
L 509.746296 133.700003 
L 510.552128 131.86247 
L 511.284706 132.068537 
L 511.944023 132.551854 
L 513.482437 132.849862 
L 514.215012 131.765958 
L 514.862122 132.953342 
L 515.680164 131.972476 
L 516.339481 133.754385 
L 517.145321 132.572623 
L 517.877895 133.45929 
L 518.610474 133.275717 
L 519.343048 132.460924 
L 520.075623 132.936376 
L 521.479733 130.085821 
L 522.273357 129.317407 
L 523.005932 127.614306 
L 523.738506 124.828974 
L 524.471085 122.544072 
L 525.936241 119.324409 
L 526.668816 122.099698 
L 527.40139 121.682009 
L 528.133968 123.305241 
L 528.866547 125.756652 
L 529.599121 125.357682 
L 530.331696 125.626374 
L 531.064278 125.664434 
L 531.796852 126.834114 
L 532.52943 127.296961 
L 533.262005 127.488644 
L 533.994583 127.112695 
L 534.727158 127.592987 
L 535.459732 128.278057 
L 536.192314 126.666585 
L 536.924892 126.603801 
L 537.657467 123.58388 
L 538.390041 116.522767 
L 540.587772 74.223129 
L 541.320351 59.555627 
L 542.052925 61.41258 
L 542.7855 58.848815 
L 544.250656 55.129492 
L 544.983231 48.653117 
L 545.715805 52.816125 
L 546.448387 49.436347 
L 547.180962 47.805121 
L 547.91354 51.062387 
L 548.646114 49.609374 
L 549.378693 55.638666 
L 550.111267 56.513264 
L 550.843849 53.997395 
L 551.576424 56.362588 
L 552.309002 57.835198 
L 553.041576 58.644263 
L 553.774151 62.793881 
L 554.506729 63.212583 
L 555.239307 66.484469 
L 555.971886 67.689782 
L 556.70446 67.478922 
L 557.437035 72.229375 
L 558.169613 74.239857 
L 558.902191 74.663568 
L 561.099918 82.457591 
L 561.832497 82.576864 
L 562.565075 85.668464 
L 563.297649 85.627865 
L 564.030224 86.993931 
L 564.762802 87.482198 
L 565.495377 86.832454 
L 566.227959 86.775731 
L 566.960533 88.5614 
L 567.693111 87.770008 
L 568.425686 87.667855 
L 569.15826 89.000998 
L 569.890839 88.349031 
L 570.623417 89.56255 
L 571.355995 87.910344 
L 572.08857 87.728092 
L 572.821144 89.555729 
L 573.553722 88.631861 
L 574.286301 90.539427 
L 575.018875 90.296665 
L 575.75145 89.19204 
L 576.484032 89.875699 
L 577.216606 88.162498 
L 578.681759 88.85872 
L 579.414333 87.790007 
L 580.146912 89.647677 
L 580.87949 90.288275 
L 581.612068 90.54807 
L 582.344643 89.301608 
L 583.089428 83.897645 
L 583.809795 93.662534 
L 584.542374 106.179996 
L 585.274948 104.209733 
L 586.00753 111.907782 
L 586.740105 123.016704 
L 587.48489 124.247943 
L 588.205257 132.938764 
L 588.937836 133.671081 
L 589.67041 137.704306 
L 590.402985 135.733035 
L 591.135563 136.190602 
L 591.868141 135.764056 
L 592.600719 136.681751 
L 593.333294 138.138468 
L 594.078079 138.793134 
L 594.798447 136.619686 
L 595.531021 139.135401 
L 596.263603 139.523474 
L 596.996178 140.20355 
L 597.728752 136.779848 
L 598.46133 138.536444 
L 599.193905 141.417502 
L 599.926483 142.468923 
L 600.659058 137.363918 
L 601.39164 136.873788 
L 602.124214 137.301645 
L 602.856789 139.453823 
L 603.601578 140.184902 
L 604.321945 140.502421 
L 605.05452 140.336469 
L 605.799305 139.348198 
L 606.519672 137.249285 
L 607.984829 139.184935 
L 608.717403 138.543455 
L 609.449978 138.690672 
L 610.182556 136.232497 
L 610.915134 137.63551 
L 611.647713 139.744455 
L 612.392498 140.526993 
L 613.84544 138.068465 
L 614.578014 138.380595 
L 615.310593 137.778797 
L 616.043171 137.584087 
L 616.775749 137.880735 
L 617.508324 142.741535 
L 618.240902 143.491295 
L 618.973476 139.028478 
L 619.706055 137.838538 
L 620.438629 139.030389 
L 621.171207 140.950145 
L 621.903786 140.854327 
L 622.636364 140.932995 
L 622.636364 140.932995 
" clip-path="url(#pe516a2e318)" style="fill: none; stroke: #800080; stroke-width: 2.5; stroke-linecap: square"/>
   </g>
   <g id="line2d_38">
    <path d="M 115.363636 146.999406 
L 116.828793 147.689965 
L 117.585785 147.402363 
L 118.293941 146.853483 
L 119.02652 147.39084 
L 119.771309 147.111721 
L 120.491676 147.527247 
L 121.236462 147.791962 
L 121.956829 147.679819 
L 123.421978 148.345961 
L 124.154556 148.364705 
L 124.887131 148.536315 
L 125.619713 148.346982 
L 127.084862 148.703266 
L 127.81744 149.784044 
L 128.550018 150.272202 
L 129.282593 149.897646 
L 130.015167 149.304326 
L 130.747746 149.465791 
L 131.480328 149.800318 
L 132.212902 149.353865 
L 132.945477 148.559167 
L 134.410629 148.675771 
L 135.143208 149.468798 
L 135.875786 149.767341 
L 136.60836 148.665976 
L 138.073513 147.730784 
L 139.55088 149.564257 
L 140.271248 149.364803 
L 141.003822 148.632206 
L 141.736397 148.811599 
L 142.468975 148.537136 
L 143.20155 149.419993 
L 144.666702 149.241553 
L 145.399281 149.66892 
L 146.131859 149.543025 
L 146.876644 148.871169 
L 147.597012 149.811171 
L 148.329586 148.945855 
L 149.147633 149.209955 
L 149.880207 149.268985 
L 150.612785 148.784017 
L 151.34536 149.04598 
L 152.077934 148.647505 
L 152.810516 150.236438 
L 153.543095 148.501042 
L 154.275669 148.108089 
L 155.740822 149.054237 
L 156.473396 148.11403 
L 157.132717 147.867073 
L 157.938553 148.342671 
L 158.671131 148.587752 
L 159.403706 148.29146 
L 160.13628 148.341689 
L 160.868858 148.249961 
L 161.601437 148.777715 
L 162.334011 147.851604 
L 163.066589 147.46124 
L 164.531742 148.057449 
L 165.26432 148.904681 
L 165.996895 147.908575 
L 166.729469 147.470218 
L 168.194626 148.173151 
L 168.927204 148.395055 
L 169.659779 147.566956 
L 170.392353 147.850119 
L 171.124931 148.39115 
L 171.857506 148.439613 
L 172.590084 148.337464 
L 173.322662 147.957239 
L 174.055241 148.429205 
L 174.787815 148.246011 
L 175.52039 146.719594 
L 176.252968 148.647918 
L 176.985546 147.69772 
L 177.718124 148.072535 
L 178.450699 146.84275 
L 179.915852 147.807316 
L 180.64843 147.962663 
L 181.381004 146.848941 
L 182.113579 148.391727 
L 182.846161 147.963191 
L 183.578735 146.557305 
L 184.311314 147.662462 
L 185.043888 147.471723 
L 185.776466 147.652203 
L 186.509041 147.015299 
L 187.241619 147.416257 
L 187.974197 147.541803 
L 189.43935 146.793869 
L 190.171925 146.549137 
L 190.904503 146.548404 
L 191.637077 147.43871 
L 192.369656 146.006487 
L 193.102234 145.359217 
L 193.834808 146.414817 
L 195.299965 146.09745 
L 196.032539 146.33629 
L 196.765114 145.187265 
L 197.497688 146.237405 
L 198.23027 145.354808 
L 198.962849 145.182364 
L 199.695423 146.475463 
L 200.427998 144.684822 
L 201.160576 143.675846 
L 201.89315 144.649387 
L 202.625732 144.746434 
L 203.358307 143.12786 
L 204.090885 144.522588 
L 204.82346 144.573542 
L 205.556034 143.57933 
L 206.288612 144.502139 
L 207.021187 143.328089 
L 207.753769 143.243863 
L 208.486343 143.367349 
L 209.218918 144.860146 
L 209.951496 142.010273 
L 210.684074 143.444007 
L 211.416649 142.409415 
L 212.149223 141.887801 
L 212.881802 143.893996 
L 213.61438 142.307116 
L 214.346958 142.057783 
L 215.079533 143.319661 
L 215.812107 142.506441 
L 216.544685 143.844933 
L 217.27726 144.295318 
L 218.009842 143.960036 
L 218.742416 144.677504 
L 219.474995 144.498884 
L 220.231987 144.121099 
L 220.952354 145.941503 
L 221.672722 144.404107 
L 222.4053 144.366207 
L 223.137878 145.363917 
L 223.870453 145.488058 
L 224.603031 144.264222 
L 225.347816 146.135968 
L 226.068184 145.457107 
L 226.800758 144.479475 
L 227.533333 145.372031 
L 228.265915 145.132799 
L 228.998493 143.899361 
L 229.743275 145.001268 
L 230.463642 144.407545 
L 231.196217 141.306158 
L 231.928795 139.956204 
L 232.661377 139.712737 
L 233.393951 133.245891 
L 234.126526 131.069105 
L 235.591679 122.834434 
L 236.324257 112.200613 
L 237.056831 112.365717 
L 237.789413 104.223903 
L 238.521988 103.906708 
L 239.266773 98.39664 
L 239.987141 97.539722 
L 240.719719 94.797692 
L 241.452293 93.748795 
L 242.184868 91.030559 
L 242.917446 91.615987 
L 243.650024 90.909849 
L 245.115177 88.235728 
L 245.847752 90.831966 
L 246.580326 91.719358 
L 247.312904 92.176181 
L 248.045486 91.176771 
L 248.778061 90.619964 
L 249.510635 91.380921 
L 250.243214 93.950814 
L 250.975788 92.034738 
L 252.440941 92.86087 
L 253.173523 91.296182 
L 253.906097 91.442104 
L 254.638676 91.263961 
L 255.37125 93.365394 
L 256.116035 92.472222 
L 256.836403 90.815134 
L 257.568977 92.075434 
L 258.301559 92.915646 
L 259.034138 93.294483 
L 260.499287 93.552646 
L 261.256287 93.590999 
L 261.976654 93.204249 
L 262.697021 94.421432 
L 263.429596 93.379327 
L 264.16217 93.436816 
L 264.894745 93.881174 
L 265.627323 97.630875 
L 266.359901 97.958324 
L 267.092476 101.496259 
L 267.825054 100.639869 
L 268.557632 98.37852 
L 269.290207 100.321083 
L 270.022785 100.733027 
L 270.75536 100.331796 
L 271.487938 102.517465 
L 272.305981 103.388099 
L 273.038559 101.674271 
L 273.771133 104.618884 
L 274.491501 104.724682 
L 275.23629 106.385432 
L 275.968864 105.659859 
L 276.701443 105.596368 
L 277.372971 105.679059 
L 278.166595 106.70598 
L 278.89917 107.009361 
L 279.631744 107.613063 
L 280.364326 107.65279 
L 281.035854 108.513181 
L 281.829479 108.111488 
L 282.562054 108.553401 
L 283.294632 107.999641 
L 284.027206 108.955592 
L 284.759785 107.270061 
L 285.492363 107.495856 
L 286.224941 108.650046 
L 286.957516 106.702313 
L 287.69009 106.552937 
L 288.422668 105.512727 
L 289.155247 106.45132 
L 289.887821 106.562581 
L 290.620399 106.977759 
L 291.352974 107.540595 
L 292.085552 106.088386 
L 292.81813 110.315996 
L 293.550705 110.547001 
L 294.283279 109.264937 
L 295.015858 111.414451 
L 295.748436 110.812391 
L 296.481014 109.362308 
L 297.213589 111.60415 
L 297.946163 110.768423 
L 299.411316 107.089891 
L 300.143898 101.326051 
L 300.876472 112.238494 
L 301.609051 112.586324 
L 302.341625 108.055359 
L 303.806778 126.583167 
L 304.527145 130.174525 
L 305.271935 140.285336 
L 306.004509 146.348345 
L 306.737087 150.01849 
L 307.469666 148.555422 
L 308.20224 147.972709 
L 308.934814 150.995197 
L 309.667389 149.172221 
L 310.387756 148.763751 
L 311.132549 143.63259 
L 311.865124 141.265956 
L 312.597698 146.785772 
L 313.330273 142.740735 
L 314.062851 144.076811 
L 314.795429 144.664686 
L 315.528008 144.869187 
L 316.260582 143.668079 
L 316.99316 140.504483 
L 317.725735 144.038761 
L 318.458313 146.40523 
L 319.923466 142.23292 
L 320.668251 142.005551 
L 321.388618 144.757903 
L 322.121197 145.050617 
L 322.853775 143.455002 
L 323.586349 142.311558 
L 324.318924 142.622356 
L 325.051502 140.851979 
L 325.784081 143.41556 
L 326.516659 141.414245 
L 327.249233 143.895557 
L 328.714382 140.253699 
L 329.44696 141.39361 
L 330.179543 141.748748 
L 330.912117 141.851079 
L 332.37727 141.206989 
L 333.842422 141.743677 
L 334.574997 139.63894 
L 335.295364 141.107127 
L 336.040154 141.988453 
L 336.772728 141.55759 
L 337.505306 140.694826 
L 338.237885 141.671733 
L 338.970459 141.442689 
L 339.690826 140.241578 
L 340.447823 141.405705 
L 341.168194 141.750091 
L 341.900768 141.867365 
L 342.633343 140.987281 
L 343.365917 141.978556 
L 344.098495 142.019546 
L 344.831074 141.480804 
L 345.563652 143.123035 
L 346.296227 144.0275 
L 347.028801 144.226913 
L 347.761379 144.095161 
L 348.493958 145.353127 
L 349.226532 145.631936 
L 349.959106 143.756022 
L 350.703896 145.83729 
L 351.424263 143.048926 
L 352.14463 144.744334 
L 352.889416 144.700841 
L 353.621994 145.62745 
L 354.354568 147.387394 
L 355.087147 146.069256 
L 355.819725 146.015499 
L 356.540092 146.989934 
L 357.284878 145.730815 
L 358.017452 147.703797 
L 358.750027 146.78723 
L 359.482605 145.183209 
L 360.215187 148.099266 
L 360.947762 146.963803 
L 361.680336 144.834782 
L 362.412914 147.581093 
L 363.145489 146.061321 
L 363.878067 145.149462 
L 364.610641 146.322045 
L 365.34322 146.603467 
L 366.075798 145.969096 
L 366.808372 145.830641 
L 367.540951 146.045821 
L 369.738678 144.960854 
L 371.203835 143.861884 
L 371.936413 142.406922 
L 372.668987 141.583418 
L 373.401562 141.153317 
L 374.134136 141.683939 
L 374.866718 141.685929 
L 375.599297 141.249707 
L 376.331871 140.416574 
L 377.064445 141.555886 
L 377.797024 140.466116 
L 378.529602 139.638193 
L 379.262177 139.126708 
L 379.994755 138.330668 
L 380.727333 138.329278 
L 381.459908 137.024654 
L 382.192486 136.819443 
L 382.92506 136.382503 
L 383.657635 136.786099 
L 384.390213 135.642933 
L 385.122791 135.677692 
L 385.85537 135.239285 
L 386.587944 135.965932 
L 387.320522 134.982787 
L 389.51825 136.691352 
L 390.250832 135.565241 
L 390.983406 136.351907 
L 391.715981 136.192171 
L 392.448555 136.172076 
L 393.913712 137.042236 
L 394.646286 136.961713 
L 395.378864 137.236719 
L 396.844017 137.066968 
L 397.576595 137.171385 
L 398.30917 135.82275 
L 399.115005 134.103514 
L 399.847584 130.87984 
L 400.580158 125.784366 
L 401.312737 116.553226 
L 402.777889 106.710714 
L 403.510468 107.61243 
L 404.243042 104.902385 
L 404.987831 96.316917 
L 405.708195 94.388443 
L 406.440773 95.201447 
L 407.173347 92.253552 
L 407.905922 88.723094 
L 408.638504 88.436145 
L 409.371082 87.103601 
L 410.103657 86.109723 
L 410.836231 87.143542 
L 411.568806 88.899834 
L 412.301384 89.45736 
L 413.033962 89.547917 
L 413.766541 88.749182 
L 414.499115 86.854657 
L 415.231693 89.040438 
L 415.964268 89.871795 
L 416.696846 86.18334 
L 418.186417 88.492708 
L 418.894577 89.091104 
L 419.639362 87.896822 
L 421.092308 89.952908 
L 421.824883 89.881835 
L 422.557457 88.406984 
L 423.290031 90.988925 
L 424.022614 90.292815 
L 424.755192 90.627503 
L 425.487766 90.579583 
L 426.232552 90.652568 
L 426.952919 91.251237 
L 427.685497 92.8732 
L 428.418076 91.644115 
L 429.15065 94.49043 
L 429.883224 95.764559 
L 430.615803 95.642136 
L 431.348381 95.237897 
L 432.080956 98.00938 
L 432.81353 99.660084 
L 433.546112 99.458653 
L 434.278687 102.453898 
L 435.011265 104.278912 
L 435.743839 103.973456 
L 436.476418 104.872538 
L 437.208992 106.985649 
L 437.953781 106.704288 
L 438.674149 108.11318 
L 439.406727 107.124625 
L 440.139301 108.832716 
L 440.871876 106.952943 
L 441.60445 108.012038 
L 442.337029 107.743767 
L 443.069607 106.166483 
L 443.802185 107.621493 
L 444.53476 108.029689 
L 445.267334 107.088856 
L 445.999912 109.788511 
L 446.732491 105.371883 
L 447.465065 102.786228 
L 448.197639 106.199234 
L 448.954639 106.881708 
L 449.662796 108.692068 
L 450.395374 107.799706 
L 451.14016 105.097124 
L 451.860527 107.459704 
L 452.593102 107.438263 
L 453.325676 111.818401 
L 454.058258 102.764036 
L 454.790836 103.297618 
L 455.523411 106.95486 
L 456.255985 96.656911 
L 457.000771 111.712238 
L 457.721138 109.022871 
L 458.45372 104.697595 
L 459.186295 109.769315 
L 459.918869 112.280265 
L 460.651447 113.957538 
L 461.384026 120.903792 
L 462.1166 124.500295 
L 462.861389 132.306243 
L 463.593964 142.45555 
L 464.314331 142.193326 
L 465.046909 141.269412 
L 465.791691 141.714828 
L 466.512058 141.680105 
L 467.244637 146.148286 
L 467.977211 143.547473 
L 468.722 144.142187 
L 469.442368 144.139559 
L 470.174946 141.96894 
L 470.90752 143.568496 
L 471.640095 141.740959 
L 472.372673 138.441371 
L 473.83783 137.15238 
L 476.035557 134.518889 
L 476.768135 135.142535 
L 477.50071 132.216277 
L 478.233284 130.951542 
L 479.698441 134.826447 
L 480.431019 133.161876 
L 481.163593 138.013988 
L 481.896168 132.942483 
L 482.628746 128.668485 
L 483.36132 131.403912 
L 484.093903 132.012945 
L 484.826477 131.171808 
L 485.559055 132.380977 
L 486.29163 134.050657 
L 487.024204 134.47941 
L 487.756783 135.823157 
L 488.489365 135.755148 
L 489.954514 138.21778 
L 490.687088 137.952845 
L 492.152245 139.842293 
L 493.617397 140.160834 
L 494.349976 141.142181 
L 495.082554 140.891913 
L 495.815128 139.454656 
L 496.547703 142.238422 
L 497.280277 140.226055 
L 498.012856 140.820047 
L 498.745438 141.585256 
L 499.478012 140.898118 
L 500.210587 141.260385 
L 500.943165 141.26316 
L 501.675739 142.033827 
L 502.408318 143.030555 
L 503.140892 141.168155 
L 503.873474 142.324817 
L 504.606049 141.618617 
L 505.338623 142.201812 
L 506.15667 142.261444 
L 506.815987 143.026577 
L 507.621822 142.026006 
L 508.354397 141.579837 
L 509.086971 141.382111 
L 509.746296 140.63383 
L 510.552128 141.920198 
L 511.284706 141.26724 
L 511.944023 140.070499 
L 512.749859 141.537749 
L 513.482437 140.552022 
L 514.215012 141.551976 
L 514.862122 139.755192 
L 515.680164 140.213055 
L 516.339481 139.981262 
L 517.145321 139.939772 
L 517.877895 138.963199 
L 518.610474 140.014483 
L 519.343048 139.468263 
L 520.075623 137.338898 
L 520.808205 138.759707 
L 521.479733 137.775792 
L 522.273357 138.324165 
L 523.005932 135.290705 
L 523.738506 136.198759 
L 524.471085 132.800268 
L 525.203663 132.389186 
L 525.936241 134.227594 
L 526.668816 131.296786 
L 527.40139 133.249901 
L 528.133968 133.891179 
L 528.866547 133.190587 
L 529.599121 135.985896 
L 530.331696 137.215373 
L 531.064278 137.062504 
L 531.796852 136.562667 
L 532.52943 137.511661 
L 533.262005 135.826171 
L 533.994583 136.749357 
L 534.727158 137.978221 
L 535.459732 138.394739 
L 536.192314 136.985668 
L 536.924892 136.807541 
L 537.657467 135.079818 
L 538.390041 130.139132 
L 539.122616 122.824459 
L 539.855194 111.733671 
L 540.587772 111.485423 
L 541.320351 94.83109 
L 542.052925 95.515145 
L 542.7855 97.562424 
L 543.518078 95.312386 
L 544.250656 90.746627 
L 544.983231 87.249978 
L 545.715805 92.19232 
L 546.448387 90.724018 
L 547.180962 88.667954 
L 547.91354 89.385507 
L 548.646114 92.601249 
L 549.378693 93.892873 
L 550.111267 94.935687 
L 550.843849 92.934111 
L 552.309002 95.27712 
L 553.041576 94.375526 
L 553.774151 97.710836 
L 554.506729 97.265638 
L 555.239307 94.689874 
L 555.971886 97.310497 
L 556.70446 103.654399 
L 557.437035 99.194648 
L 558.169613 99.369799 
L 558.902191 102.871826 
L 559.634766 104.297158 
L 560.36734 103.965215 
L 561.099918 105.117761 
L 561.832497 109.62724 
L 563.297649 107.222044 
L 564.762802 107.859496 
L 565.495377 109.501125 
L 566.227959 108.365728 
L 566.960533 110.664798 
L 567.693111 108.543516 
L 568.425686 110.844753 
L 569.15826 109.494531 
L 569.890839 109.830649 
L 570.623417 110.836212 
L 571.355995 110.108258 
L 572.08857 113.027992 
L 572.821144 112.749219 
L 573.553722 110.509012 
L 574.286301 112.453847 
L 575.018875 112.653938 
L 575.75145 110.903973 
L 576.484032 112.821464 
L 577.216606 110.39477 
L 577.949184 112.119642 
L 578.681759 112.849684 
L 579.414333 112.058494 
L 580.146912 112.135861 
L 580.87949 111.967172 
L 581.612068 112.726153 
L 582.344643 111.826102 
L 583.089428 98.735718 
L 583.809795 124.83676 
L 584.542374 116.847617 
L 585.274948 118.807146 
L 586.00753 128.121106 
L 586.740105 126.211286 
L 587.48489 130.71567 
L 588.205257 138.193045 
L 588.937836 133.172177 
L 590.402985 139.785416 
L 591.135563 138.718357 
L 591.868141 137.853466 
L 592.600719 137.926002 
L 594.078079 142.418595 
L 595.531021 143.3338 
L 596.263603 142.568358 
L 596.996178 143.571998 
L 597.728752 143.285473 
L 598.46133 144.721804 
L 599.193905 145.317098 
L 599.926483 146.233779 
L 600.659058 145.309656 
L 602.124214 145.028245 
L 602.856789 146.317068 
L 603.601578 146.806704 
L 605.05452 146.216126 
L 605.799305 144.732092 
L 607.252251 145.436903 
L 607.984829 146.211709 
L 608.717403 145.413977 
L 609.449978 146.937821 
L 610.182556 146.023551 
L 610.915134 146.594422 
L 612.392498 148.296977 
L 613.112865 147.735199 
L 613.84544 146.346194 
L 614.578014 145.810021 
L 615.310593 147.278927 
L 616.043171 149.516731 
L 616.775749 150.141724 
L 617.508324 148.647814 
L 618.240902 147.907202 
L 618.973476 147.330281 
L 619.706055 148.434363 
L 620.438629 148.840348 
L 621.171207 147.214694 
L 621.903786 147.09961 
L 622.636364 147.772161 
L 622.636364 147.772161 
" clip-path="url(#pe516a2e318)" style="fill: none; stroke: #dc143c; stroke-width: 2.5; stroke-linecap: square"/>
   </g>
   <g id="line2d_39">
    <path d="M 115.363636 150.043509 
L 119.02652 150.233951 
L 119.771309 150.00678 
L 120.491676 150.172771 
L 121.236462 150.000136 
L 121.956829 149.960073 
L 122.726036 150.076599 
L 124.887131 150.064629 
L 126.352287 150.215431 
L 129.282593 149.999688 
L 130.015167 150.185571 
L 131.480328 150.06962 
L 132.212902 149.960004 
L 132.945477 150.285446 
L 134.410629 150.263582 
L 135.875786 149.867297 
L 137.353146 150.241844 
L 138.806091 150.072524 
L 139.55088 149.929119 
L 143.20155 150.019108 
L 144.666702 150.141026 
L 146.131859 149.96444 
L 146.876644 150.056614 
L 149.147633 149.878898 
L 150.612785 150.027263 
L 152.810516 149.991447 
L 153.543095 149.798946 
L 155.740822 149.940209 
L 157.938553 149.873358 
L 158.671131 149.81708 
L 160.868858 149.910087 
L 161.601437 149.927519 
L 162.334011 150.071981 
L 163.799164 149.911596 
L 166.729469 149.884909 
L 167.462048 149.933092 
L 168.194626 149.828581 
L 168.927204 150.045185 
L 169.659779 149.926176 
L 171.857506 150.09853 
L 172.590084 150.03431 
L 173.322662 150.333424 
L 174.787815 149.968862 
L 175.52039 150.370133 
L 176.985546 150.040614 
L 179.183273 150.200082 
L 179.915852 149.995641 
L 180.64843 149.930945 
L 181.381004 150.288189 
L 182.113579 149.977005 
L 182.846161 149.957776 
L 184.311314 150.174422 
L 186.509041 150.123164 
L 187.974197 150.053215 
L 190.171925 149.913439 
L 190.904503 150.121405 
L 191.637077 149.871245 
L 192.369656 150.077112 
L 195.299965 149.967066 
L 196.032539 150.238869 
L 196.765114 150.086098 
L 197.497688 150.12425 
L 198.23027 150.366174 
L 199.695423 150.561272 
L 200.427998 150.495319 
L 201.160576 150.925203 
L 201.89315 150.486723 
L 202.625732 150.195633 
L 203.358307 150.674915 
L 204.090885 150.809091 
L 204.82346 150.102685 
L 205.556034 150.656242 
L 206.288612 150.777386 
L 207.021187 150.646249 
L 208.486343 150.927088 
L 209.218918 150.288954 
L 209.951496 150.726145 
L 210.684074 150.536249 
L 212.149223 151.049154 
L 212.881802 150.572891 
L 213.61438 150.48245 
L 214.346958 150.738256 
L 215.812107 150.45847 
L 217.27726 150.362065 
L 218.009842 150.502708 
L 218.742416 150.229436 
L 219.474995 150.223854 
L 220.231987 150.617943 
L 220.952354 150.20734 
L 221.672722 150.294731 
L 222.4053 150.585465 
L 223.137878 150.181762 
L 223.870453 150.089191 
L 224.603031 150.663799 
L 226.068184 150.133178 
L 226.800758 150.244809 
L 227.533333 150.508892 
L 228.265915 150.171427 
L 228.998493 150.619746 
L 229.743275 150.508662 
L 230.463642 150.099751 
L 231.196217 150.521123 
L 231.928795 150.445669 
L 232.661377 150.067729 
L 233.393951 150.279648 
L 234.126526 150.320672 
L 234.859104 150.668211 
L 236.324257 150.696576 
L 237.056831 151.465405 
L 237.789413 151.48807 
L 238.521988 152.219121 
L 239.266773 151.950968 
L 240.719719 152.489111 
L 241.452293 152.675216 
L 242.184868 152.383243 
L 242.917446 152.691605 
L 243.650024 152.728783 
L 244.382603 152.417204 
L 245.115177 152.553048 
L 245.847752 152.27023 
L 248.778061 152.522474 
L 249.510635 151.815599 
L 250.243214 152.371202 
L 250.975788 152.536764 
L 251.708366 152.24097 
L 252.440941 152.310401 
L 253.173523 152.668383 
L 254.638676 152.427617 
L 255.37125 152.73688 
L 256.116035 152.440947 
L 256.836403 152.696547 
L 257.568977 152.593713 
L 259.034138 152.635137 
L 259.766712 152.506082 
L 260.499287 152.509584 
L 261.256287 152.673317 
L 261.976654 152.470374 
L 262.697021 152.486742 
L 263.429596 152.75029 
L 266.359901 152.798158 
L 267.092476 152.590617 
L 267.825054 152.544017 
L 268.557632 152.893178 
L 269.290207 152.79887 
L 270.75536 153.106116 
L 271.487938 152.832989 
L 273.038559 152.606089 
L 273.771133 152.669636 
L 274.491501 152.568722 
L 275.23629 152.603422 
L 275.968864 152.45515 
L 277.372971 152.459726 
L 278.166595 152.282632 
L 278.89917 152.522113 
L 279.631744 152.219635 
L 280.364326 152.378203 
L 281.035854 152.159956 
L 281.829479 152.256207 
L 282.562054 152.000481 
L 283.294632 152.202662 
L 284.027206 152.113058 
L 285.492363 152.205675 
L 286.957516 151.945594 
L 287.69009 152.026499 
L 289.155247 151.900183 
L 290.620399 151.868795 
L 291.352974 152.129118 
L 292.085552 151.80519 
L 292.81813 151.656446 
L 293.550705 152.094412 
L 294.283279 152.019371 
L 295.015858 151.76071 
L 296.481014 151.963386 
L 297.946163 152.085858 
L 298.678741 152.398219 
L 300.143898 151.980881 
L 300.876472 140.616301 
L 301.609051 151.538376 
L 303.0742 151.614805 
L 303.806778 151.107909 
L 304.527145 151.371303 
L 305.271935 151.197933 
L 306.004509 150.454953 
L 306.737087 150.577794 
L 307.469666 150.499598 
L 309.667389 151.390444 
L 310.387756 151.81645 
L 311.132549 151.792275 
L 311.865124 152.250775 
L 313.330273 152.399062 
L 314.062851 151.799523 
L 316.260582 151.044205 
L 316.99316 150.633589 
L 318.458313 151.145148 
L 319.190887 151.374366 
L 320.668251 150.900949 
L 321.388618 150.71978 
L 322.121197 150.897823 
L 322.853775 151.245947 
L 323.586349 151.19579 
L 325.051502 150.664534 
L 325.784081 150.923538 
L 327.981808 150.535759 
L 328.714382 150.66937 
L 329.44696 150.277909 
L 330.179543 150.593746 
L 330.912117 150.321283 
L 332.37727 150.395283 
L 333.842422 150.467944 
L 334.574997 150.132858 
L 335.295364 150.196472 
L 336.040154 150.636894 
L 336.772728 150.799511 
L 337.505306 150.534744 
L 338.237885 150.714759 
L 339.690826 150.716652 
L 340.447823 150.531934 
L 341.168194 150.782795 
L 342.633343 150.52445 
L 343.365917 150.57857 
L 344.098495 150.328119 
L 345.563652 150.377442 
L 347.028801 149.832146 
L 349.226532 149.248814 
L 349.959106 149.774692 
L 350.703896 149.101009 
L 351.424263 149.480812 
L 352.14463 149.577166 
L 352.889416 149.434809 
L 353.621994 149.61028 
L 354.354568 149.434548 
L 355.087147 149.707945 
L 355.819725 149.816195 
L 356.540092 149.60313 
L 357.284878 149.855646 
L 358.017452 149.70695 
L 358.750027 149.786123 
L 359.482605 150.413846 
L 360.215187 149.808508 
L 360.947762 149.512218 
L 361.680336 150.443125 
L 362.412914 149.859409 
L 363.145489 149.754517 
L 363.878067 150.384367 
L 364.610641 150.335221 
L 365.34322 149.848662 
L 366.075798 150.177759 
L 367.540951 149.907235 
L 368.273525 150.068729 
L 371.203835 150.226121 
L 371.936413 150.473802 
L 374.866718 150.765847 
L 375.599297 150.734682 
L 377.064445 151.044983 
L 377.797024 150.986207 
L 378.529602 151.141638 
L 380.727333 150.905722 
L 381.459908 151.159479 
L 382.192486 151.046942 
L 383.657635 151.337608 
L 384.390213 151.204703 
L 385.122791 151.354926 
L 385.85537 151.215122 
L 386.587944 151.207868 
L 387.320522 151.360245 
L 388.785671 151.247774 
L 390.250832 151.235356 
L 390.983406 151.191931 
L 392.448555 151.300367 
L 393.181133 151.164707 
L 393.913712 151.274362 
L 395.378864 151.168321 
L 396.844017 151.479873 
L 397.576595 151.366885 
L 399.115005 151.43297 
L 399.847584 151.269161 
L 400.580158 151.512562 
L 401.312737 152.208942 
L 402.045311 151.911326 
L 402.777889 151.846794 
L 403.510468 151.596707 
L 404.243042 151.642369 
L 404.987831 152.187341 
L 405.708195 151.497095 
L 406.440773 151.793601 
L 407.905922 152.144162 
L 408.638504 151.988182 
L 409.371082 152.308697 
L 410.103657 152.422318 
L 410.836231 153.031904 
L 411.568806 152.130216 
L 412.301384 152.454795 
L 413.033962 152.271339 
L 414.499115 152.64575 
L 415.231693 152.165626 
L 415.964268 152.094745 
L 416.696846 152.898616 
L 417.42942 152.37958 
L 418.894577 152.29763 
L 419.639362 153.01609 
L 420.371941 152.083323 
L 421.092308 152.333919 
L 421.824883 152.785274 
L 422.557457 152.524448 
L 423.290031 152.123639 
L 424.022614 152.53286 
L 424.755192 152.432519 
L 425.487766 152.487605 
L 426.232552 152.332078 
L 426.952919 152.540053 
L 428.418076 152.345941 
L 429.15065 152.441178 
L 429.883224 152.32546 
L 431.348381 152.493882 
L 433.546112 152.39584 
L 434.278687 152.109983 
L 435.011265 152.450039 
L 435.743839 152.008647 
L 436.476418 152.149177 
L 437.208992 152.130576 
L 437.953781 151.984217 
L 438.674149 151.720847 
L 439.406727 151.979895 
L 440.871876 151.869453 
L 442.337029 151.808569 
L 443.069607 152.090147 
L 445.267334 151.9237 
L 445.999912 152.053444 
L 447.465065 153.048265 
L 448.197639 152.350079 
L 448.954639 152.432455 
L 449.662796 152.23438 
L 450.395374 152.424367 
L 451.14016 152.819218 
L 451.860527 152.356499 
L 453.325676 152.042894 
L 454.058258 152.652878 
L 454.790836 152.693171 
L 455.523411 152.213702 
L 456.255985 152.665269 
L 457.000771 146.726281 
L 457.721138 152.331621 
L 458.45372 152.255008 
L 459.186295 152.440453 
L 459.918869 152.226185 
L 460.651447 152.166051 
L 461.384026 152.232742 
L 462.1166 151.79245 
L 462.861389 151.610231 
L 463.593964 151.658886 
L 464.314331 151.225831 
L 465.046909 151.592905 
L 466.512058 150.823653 
L 467.977211 151.079755 
L 469.442368 152.137155 
L 470.174946 152.019492 
L 470.90752 151.758395 
L 471.640095 151.946263 
L 473.117462 151.465509 
L 473.83783 151.510266 
L 474.570404 151.380133 
L 476.035557 151.762774 
L 476.768135 152.24839 
L 477.50071 152.406107 
L 478.233284 151.924423 
L 478.965862 151.798492 
L 479.698441 151.902174 
L 480.431019 151.542591 
L 481.896168 152.448501 
L 483.36132 152.480738 
L 484.826477 152.113026 
L 485.559055 151.508207 
L 486.29163 151.50462 
L 487.024204 151.821258 
L 489.954514 150.926601 
L 491.419666 150.904935 
L 493.617397 150.658222 
L 494.349976 150.328187 
L 495.082554 149.378766 
L 495.815128 149.992987 
L 496.547703 149.627807 
L 497.280277 149.882613 
L 498.012856 149.603653 
L 498.745438 149.163344 
L 499.478012 149.330588 
L 500.210587 148.838781 
L 501.675739 148.686847 
L 502.408318 146.893919 
L 503.140892 147.868829 
L 503.873474 146.741355 
L 506.15667 147.839996 
L 506.815987 147.455342 
L 507.621822 149.22961 
L 508.354397 147.909655 
L 509.086971 149.035594 
L 509.746296 148.266122 
L 510.552128 148.095424 
L 511.284706 148.9323 
L 511.944023 146.78854 
L 512.749859 147.725804 
L 513.482437 148.378995 
L 514.215012 147.579364 
L 514.862122 148.287941 
L 515.680164 149.788938 
L 516.339481 147.924704 
L 517.145321 148.09342 
L 517.877895 150.332005 
L 518.610474 147.258555 
L 519.343048 148.341678 
L 520.075623 148.898386 
L 520.808205 148.227212 
L 521.479733 148.33016 
L 522.273357 149.054032 
L 523.005932 150.284625 
L 523.738506 148.191241 
L 524.471085 150.44823 
L 525.203663 150.544119 
L 525.936241 147.139668 
L 526.668816 150.687526 
L 527.40139 149.974049 
L 528.133968 148.379591 
L 528.866547 150.814789 
L 529.599121 150.300398 
L 530.331696 147.608906 
L 531.064278 150.313293 
L 531.796852 150.107907 
L 532.52943 147.017803 
L 533.262005 150.597479 
L 534.727158 148.646044 
L 535.459732 148.868352 
L 536.192314 150.070459 
L 536.924892 149.118729 
L 537.657467 149.34996 
L 538.390041 150.204718 
L 539.122616 150.359445 
L 539.855194 150.808351 
L 540.587772 150.670446 
L 541.320351 150.688676 
L 542.052925 148.374087 
L 542.7855 150.10543 
L 543.518078 152.216609 
L 544.983231 152.059541 
L 545.715805 151.666422 
L 546.448387 152.087198 
L 547.180962 152.030129 
L 547.91354 152.112744 
L 548.646114 151.600488 
L 549.378693 152.119038 
L 550.111267 152.041299 
L 550.843849 151.793434 
L 553.041576 152.015869 
L 553.774151 151.93309 
L 554.506729 152.153872 
L 555.239307 152.517132 
L 556.70446 151.841153 
L 557.437035 152.688504 
L 558.169613 152.612268 
L 558.902191 152.326507 
L 559.634766 152.522163 
L 561.099918 152.420807 
L 561.832497 152.225221 
L 563.297649 152.497594 
L 564.030224 152.375003 
L 564.762802 152.388105 
L 565.495377 152.042903 
L 566.960533 152.087183 
L 571.355995 151.793606 
L 572.08857 151.60909 
L 573.553722 151.580017 
L 574.286301 151.729128 
L 575.75145 151.701499 
L 577.216606 152.006988 
L 579.414333 151.718198 
L 580.146912 151.936498 
L 582.344643 151.841005 
L 583.089428 151.665518 
L 583.809795 147.430029 
L 584.542374 153.211197 
L 585.274948 151.700268 
L 586.00753 150.812498 
L 586.740105 151.347046 
L 587.48489 151.281037 
L 588.205257 150.564835 
L 588.937836 150.934607 
L 589.67041 150.910423 
L 591.135563 150.578296 
L 591.868141 150.598431 
L 592.600719 150.392929 
L 593.333294 150.445353 
L 594.798447 149.889899 
L 595.531021 150.024743 
L 598.46133 149.795483 
L 599.193905 150.169446 
L 599.926483 150.188347 
L 600.659058 149.761589 
L 602.124214 149.800742 
L 602.856789 149.940146 
L 603.601578 149.964714 
L 605.05452 150.255202 
L 605.799305 150.241879 
L 606.519672 150.094961 
L 608.717403 150.251726 
L 610.182556 149.831529 
L 610.915134 149.788053 
L 611.647713 149.887238 
L 613.112865 149.834394 
L 614.578014 149.905794 
L 615.310593 149.58713 
L 616.043171 149.478789 
L 617.508324 149.691459 
L 618.240902 150.059778 
L 618.973476 149.767001 
L 620.438629 149.659531 
L 621.171207 149.929627 
L 622.636364 149.936522 
L 622.636364 149.936522 
" clip-path="url(#pe516a2e318)" style="fill: none; stroke: #008b8b; stroke-width: 2.5; stroke-linecap: square"/>
   </g>
   <g id="patch_3">
    <path d="M 90 256.32 
L 90 34.56 
" style="fill: none; stroke: #000000; stroke-width: 0.8; stroke-linejoin: miter; stroke-linecap: square"/>
   </g>
   <g id="patch_4">
    <path d="M 648 256.32 
L 648 34.56 
" style="fill: none; stroke: #000000; stroke-width: 0.8; stroke-linejoin: miter; stroke-linecap: square"/>
   </g>
   <g id="patch_5">
    <path d="M 90 256.32 
L 648 256.32 
" style="fill: none; stroke: #000000; stroke-width: 0.8; stroke-linejoin: miter; stroke-linecap: square"/>
   </g>
   <g id="patch_6">
    <path d="M 90 34.56 
L 648 34.56 
" style="fill: none; stroke: #000000; stroke-width: 0.8; stroke-linejoin: miter; stroke-linecap: square"/>
   </g>
   <g id="text_21">
    <!-- design_with_tension_spring_data_mapped_to_robot - Torques -->
    <g transform="translate(185.475 28.56)scale(0.12 -0.12)">
     <defs>
      <path id="DejaVuSans-64" d="M 2906 2969 
L 2906 4863 
L 3481 4863 
L 3481 0 
L 2906 0 
L 2906 525 
Q 2725 213 2448 61 
Q 2172 -91 1784 -91 
Q 1150 -91 751 415 
Q 353 922 353 1747 
Q 353 2572 751 3078 
Q 1150 3584 1784 3584 
Q 2172 3584 2448 3432 
Q 2725 3281 2906 2969 
z
M 947 1747 
Q 947 1113 1208 752 
Q 1469 391 1925 391 
Q 2381 391 2643 752 
Q 2906 1113 2906 1747 
Q 2906 2381 2643 2742 
Q 2381 3103 1925 3103 
Q 1469 3103 1208 2742 
Q 947 2381 947 1747 
z
" transform="scale(0.015625)"/>
      <path id="DejaVuSans-73" d="M 2834 3397 
L 2834 2853 
Q 2591 2978 2328 3040 
Q 2066 3103 1784 3103 
Q 1356 3103 1142 2972 
Q 928 2841 928 2578 
Q 928 2378 1081 2264 
Q 1234 2150 1697 2047 
L 1894 2003 
Q 2506 1872 2764 1633 
Q 3022 1394 3022 966 
Q 3022 478 2636 193 
Q 2250 -91 1575 -91 
Q 1294 -91 989 -36 
Q 684 19 347 128 
L 347 722 
Q 666 556 975 473 
Q 1284 391 1588 391 
Q 1994 391 2212 530 
Q 2431 669 2431 922 
Q 2431 1156 2273 1281 
Q 2116 1406 1581 1522 
L 1381 1569 
Q 847 1681 609 1914 
Q 372 2147 372 2553 
Q 372 3047 722 3315 
Q 1072 3584 1716 3584 
Q 2034 3584 2315 3537 
Q 2597 3491 2834 3397 
z
" transform="scale(0.015625)"/>
      <path id="DejaVuSans-67" d="M 2906 1791 
Q 2906 2416 2648 2759 
Q 2391 3103 1925 3103 
Q 1463 3103 1205 2759 
Q 947 2416 947 1791 
Q 947 1169 1205 825 
Q 1463 481 1925 481 
Q 2391 481 2648 825 
Q 2906 1169 2906 1791 
z
M 3481 434 
Q 3481 -459 3084 -895 
Q 2688 -1331 1869 -1331 
Q 1566 -1331 1297 -1286 
Q 1028 -1241 775 -1147 
L 775 -588 
Q 1028 -725 1275 -790 
Q 1522 -856 1778 -856 
Q 2344 -856 2625 -561 
Q 2906 -266 2906 331 
L 2906 616 
Q 2728 306 2450 153 
Q 2172 0 1784 0 
Q 1141 0 747 490 
Q 353 981 353 1791 
Q 353 2603 747 3093 
Q 1141 3584 1784 3584 
Q 2172 3584 2450 3431 
Q 2728 3278 2906 2969 
L 2906 3500 
L 3481 3500 
L 3481 434 
z
" transform="scale(0.015625)"/>
      <path id="DejaVuSans-6e" d="M 3513 2113 
L 3513 0 
L 2938 0 
L 2938 2094 
Q 2938 2591 2744 2837 
Q 2550 3084 2163 3084 
Q 1697 3084 1428 2787 
Q 1159 2491 1159 1978 
L 1159 0 
L 581 0 
L 581 3500 
L 1159 3500 
L 1159 2956 
Q 1366 3272 1645 3428 
Q 1925 3584 2291 3584 
Q 2894 3584 3203 3211 
Q 3513 2838 3513 2113 
z
" transform="scale(0.015625)"/>
      <path id="DejaVuSans-5f" d="M 3263 -1063 
L 3263 -1509 
L -63 -1509 
L -63 -1063 
L 3263 -1063 
z
" transform="scale(0.015625)"/>
      <path id="DejaVuSans-77" d="M 269 3500 
L 844 3500 
L 1563 769 
L 2278 3500 
L 2956 3500 
L 3675 769 
L 4391 3500 
L 4966 3500 
L 4050 0 
L 3372 0 
L 2619 2869 
L 1863 0 
L 1184 0 
L 269 3500 
z
" transform="scale(0.015625)"/>
      <path id="DejaVuSans-74" d="M 1172 4494 
L 1172 3500 
L 2356 3500 
L 2356 3053 
L 1172 3053 
L 1172 1153 
Q 1172 725 1289 603 
Q 1406 481 1766 481 
L 2356 481 
L 2356 0 
L 1766 0 
Q 1100 0 847 248 
Q 594 497 594 1153 
L 594 3053 
L 172 3053 
L 172 3500 
L 594 3500 
L 594 4494 
L 1172 4494 
z
" transform="scale(0.015625)"/>
      <path id="DejaVuSans-68" d="M 3513 2113 
L 3513 0 
L 2938 0 
L 2938 2094 
Q 2938 2591 2744 2837 
Q 2550 3084 2163 3084 
Q 1697 3084 1428 2787 
Q 1159 2491 1159 1978 
L 1159 0 
L 581 0 
L 581 4863 
L 1159 4863 
L 1159 2956 
Q 1366 3272 1645 3428 
Q 1925 3584 2291 3584 
Q 2894 3584 3203 3211 
Q 3513 2838 3513 2113 
z
" transform="scale(0.015625)"/>
      <path id="DejaVuSans-70" d="M 1159 525 
L 1159 -1331 
L 581 -1331 
L 581 3500 
L 1159 3500 
L 1159 2969 
Q 1341 3281 1617 3432 
Q 1894 3584 2278 3584 
Q 2916 3584 3314 3078 
Q 3713 2572 3713 1747 
Q 3713 922 3314 415 
Q 2916 -91 2278 -91 
Q 1894 -91 1617 61 
Q 1341 213 1159 525 
z
M 3116 1747 
Q 3116 2381 2855 2742 
Q 2594 3103 2138 3103 
Q 1681 3103 1420 2742 
Q 1159 2381 1159 1747 
Q 1159 1113 1420 752 
Q 1681 391 2138 391 
Q 2594 391 2855 752 
Q 3116 1113 3116 1747 
z
" transform="scale(0.015625)"/>
      <path id="DejaVuSans-61" d="M 2194 1759 
Q 1497 1759 1228 1600 
Q 959 1441 959 1056 
Q 959 750 1161 570 
Q 1363 391 1709 391 
Q 2188 391 2477 730 
Q 2766 1069 2766 1631 
L 2766 1759 
L 2194 1759 
z
M 3341 1997 
L 3341 0 
L 2766 0 
L 2766 531 
Q 2569 213 2275 61 
Q 1981 -91 1556 -91 
Q 1019 -91 701 211 
Q 384 513 384 1019 
Q 384 1609 779 1909 
Q 1175 2209 1959 2209 
L 2766 2209 
L 2766 2266 
Q 2766 2663 2505 2880 
Q 2244 3097 1772 3097 
Q 1472 3097 1187 3025 
Q 903 2953 641 2809 
L 641 3341 
Q 956 3463 1253 3523 
Q 1550 3584 1831 3584 
Q 2591 3584 2966 3190 
Q 3341 2797 3341 1997 
z
" transform="scale(0.015625)"/>
      <path id="DejaVuSans-62" d="M 3116 1747 
Q 3116 2381 2855 2742 
Q 2594 3103 2138 3103 
Q 1681 3103 1420 2742 
Q 1159 2381 1159 1747 
Q 1159 1113 1420 752 
Q 1681 391 2138 391 
Q 2594 391 2855 752 
Q 3116 1113 3116 1747 
z
M 1159 2969 
Q 1341 3281 1617 3432 
Q 1894 3584 2278 3584 
Q 2916 3584 3314 3078 
Q 3713 2572 3713 1747 
Q 3713 922 3314 415 
Q 2916 -91 2278 -91 
Q 1894 -91 1617 61 
Q 1341 213 1159 525 
L 1159 0 
L 581 0 
L 581 4863 
L 1159 4863 
L 1159 2969 
z
" transform="scale(0.015625)"/>
      <path id="DejaVuSans-2d" d="M 313 2009 
L 1997 2009 
L 1997 1497 
L 313 1497 
L 313 2009 
z
" transform="scale(0.015625)"/>
     </defs>
     <use xlink:href="#DejaVuSans-64"/>
     <use xlink:href="#DejaVuSans-65" x="63.476562"/>
     <use xlink:href="#DejaVuSans-73" x="125"/>
     <use xlink:href="#DejaVuSans-69" x="177.099609"/>
     <use xlink:href="#DejaVuSans-67" x="204.882812"/>
     <use xlink:href="#DejaVuSans-6e" x="268.359375"/>
     <use xlink:href="#DejaVuSans-5f" x="331.738281"/>
     <use xlink:href="#DejaVuSans-77" x="381.738281"/>
     <use xlink:href="#DejaVuSans-69" x="463.525391"/>
     <use xlink:href="#DejaVuSans-74" x="491.308594"/>
     <use xlink:href="#DejaVuSans-68" x="530.517578"/>
     <use xlink:href="#DejaVuSans-5f" x="593.896484"/>
     <use xlink:href="#DejaVuSans-74" x="643.896484"/>
     <use xlink:href="#DejaVuSans-65" x="683.105469"/>
     <use xlink:href="#DejaVuSans-6e" x="744.628906"/>
     <use xlink:href="#DejaVuSans-73" x="808.007812"/>
     <use xlink:href="#DejaVuSans-69" x="860.107422"/>
     <use xlink:href="#DejaVuSans-6f" x="887.890625"/>
     <use xlink:href="#DejaVuSans-6e" x="949.072266"/>
     <use xlink:href="#DejaVuSans-5f" x="1012.451172"/>
     <use xlink:href="#DejaVuSans-73" x="1062.451172"/>
     <use xlink:href="#DejaVuSans-70" x="1114.550781"/>
     <use xlink:href="#DejaVuSans-72" x="1178.027344"/>
     <use xlink:href="#DejaVuSans-69" x="1219.140625"/>
     <use xlink:href="#DejaVuSans-6e" x="1246.923828"/>
     <use xlink:href="#DejaVuSans-67" x="1310.302734"/>
     <use xlink:href="#DejaVuSans-5f" x="1373.779297"/>
     <use xlink:href="#DejaVuSans-64" x="1423.779297"/>
     <use xlink:href="#DejaVuSans-61" x="1487.255859"/>
     <use xlink:href="#DejaVuSans-74" x="1548.535156"/>
     <use xlink:href="#DejaVuSans-61" x="1587.744141"/>
     <use xlink:href="#DejaVuSans-5f" x="1649.023438"/>
     <use xlink:href="#DejaVuSans-6d" x="1699.023438"/>
     <use xlink:href="#DejaVuSans-61" x="1796.435547"/>
     <use xlink:href="#DejaVuSans-70" x="1857.714844"/>
     <use xlink:href="#DejaVuSans-70" x="1921.191406"/>
     <use xlink:href="#DejaVuSans-65" x="1984.667969"/>
     <use xlink:href="#DejaVuSans-64" x="2046.191406"/>
     <use xlink:href="#DejaVuSans-5f" x="2109.667969"/>
     <use xlink:href="#DejaVuSans-74" x="2159.667969"/>
     <use xlink:href="#DejaVuSans-6f" x="2198.876953"/>
     <use xlink:href="#DejaVuSans-5f" x="2260.058594"/>
     <use xlink:href="#DejaVuSans-72" x="2310.058594"/>
     <use xlink:href="#DejaVuSans-6f" x="2348.921875"/>
     <use xlink:href="#DejaVuSans-62" x="2410.103516"/>
     <use xlink:href="#DejaVuSans-6f" x="2473.580078"/>
     <use xlink:href="#DejaVuSans-74" x="2534.761719"/>
     <use xlink:href="#DejaVuSans-20" x="2573.970703"/>
     <use xlink:href="#DejaVuSans-2d" x="2605.757812"/>
     <use xlink:href="#DejaVuSans-20" x="2641.841797"/>
     <use xlink:href="#DejaVuSans-54" x="2673.628906"/>
     <use xlink:href="#DejaVuSans-6f" x="2717.712891"/>
     <use xlink:href="#DejaVuSans-72" x="2778.894531"/>
     <use xlink:href="#DejaVuSans-71" x="2818.257812"/>
     <use xlink:href="#DejaVuSans-75" x="2881.734375"/>
     <use xlink:href="#DejaVuSans-65" x="2945.113281"/>
     <use xlink:href="#DejaVuSans-73" x="3006.636719"/>
    </g>
   </g>
   <g id="legend_1">
    <g id="patch_7">
     <path d="M 565.267187 251.32 
L 641 251.32 
Q 643 251.32 643 249.32 
L 643 205.45125 
Q 643 203.45125 641 203.45125 
L 565.267187 203.45125 
Q 563.267187 203.45125 563.267187 205.45125 
L 563.267187 249.32 
Q 563.267187 251.32 565.267187 251.32 
z
" style="fill: #ffffff; opacity: 0.8; stroke: #cccccc; stroke-linejoin: miter"/>
    </g>
    <g id="line2d_40">
     <path d="M 567.267187 211.549688 
L 577.267187 211.549688 
L 587.267187 211.549688 
" style="fill: none; stroke: #800080; stroke-width: 2.5; stroke-linecap: square"/>
    </g>
    <g id="text_22">
     <!-- torque_x -->
     <g transform="translate(595.267187 215.049688)scale(0.1 -0.1)">
      <defs>
       <path id="DejaVuSans-78" d="M 3513 3500 
L 2247 1797 
L 3578 0 
L 2900 0 
L 1881 1375 
L 863 0 
L 184 0 
L 1544 1831 
L 300 3500 
L 978 3500 
L 1906 2253 
L 2834 3500 
L 3513 3500 
z
" transform="scale(0.015625)"/>
      </defs>
      <use xlink:href="#DejaVuSans-74"/>
      <use xlink:href="#DejaVuSans-6f" x="39.208984"/>
      <use xlink:href="#DejaVuSans-72" x="100.390625"/>
      <use xlink:href="#DejaVuSans-71" x="139.753906"/>
      <use xlink:href="#DejaVuSans-75" x="203.230469"/>
      <use xlink:href="#DejaVuSans-65" x="266.609375"/>
      <use xlink:href="#DejaVuSans-5f" x="328.132812"/>
      <use xlink:href="#DejaVuSans-78" x="378.132812"/>
     </g>
    </g>
    <g id="line2d_41">
     <path d="M 567.267187 226.505938 
L 577.267187 226.505938 
L 587.267187 226.505938 
" style="fill: none; stroke: #dc143c; stroke-width: 2.5; stroke-linecap: square"/>
    </g>
    <g id="text_23">
     <!-- torque_y -->
     <g transform="translate(595.267187 230.005938)scale(0.1 -0.1)">
      <defs>
       <path id="DejaVuSans-79" d="M 2059 -325 
Q 1816 -950 1584 -1140 
Q 1353 -1331 966 -1331 
L 506 -1331 
L 506 -850 
L 844 -850 
Q 1081 -850 1212 -737 
Q 1344 -625 1503 -206 
L 1606 56 
L 191 3500 
L 800 3500 
L 1894 763 
L 2988 3500 
L 3597 3500 
L 2059 -325 
z
" transform="scale(0.015625)"/>
      </defs>
      <use xlink:href="#DejaVuSans-74"/>
      <use xlink:href="#DejaVuSans-6f" x="39.208984"/>
      <use xlink:href="#DejaVuSans-72" x="100.390625"/>
      <use xlink:href="#DejaVuSans-71" x="139.753906"/>
      <use xlink:href="#DejaVuSans-75" x="203.230469"/>
      <use xlink:href="#DejaVuSans-65" x="266.609375"/>
      <use xlink:href="#DejaVuSans-5f" x="328.132812"/>
      <use xlink:href="#DejaVuSans-79" x="378.132812"/>
     </g>
    </g>
    <g id="line2d_42">
     <path d="M 567.267187 241.462187 
L 577.267187 241.462187 
L 587.267187 241.462187 
" style="fill: none; stroke: #008b8b; stroke-width: 2.5; stroke-linecap: square"/>
    </g>
    <g id="text_24">
     <!-- torque_z -->
     <g transform="translate(595.267187 244.962187)scale(0.1 -0.1)">
      <defs>
       <path id="DejaVuSans-7a" d="M 353 3500 
L 3084 3500 
L 3084 2975 
L 922 459 
L 3084 459 
L 3084 0 
L 275 0 
L 275 525 
L 2438 3041 
L 353 3041 
L 353 3500 
z
" transform="scale(0.015625)"/>
      </defs>
      <use xlink:href="#DejaVuSans-74"/>
      <use xlink:href="#DejaVuSans-6f" x="39.208984"/>
      <use xlink:href="#DejaVuSans-72" x="100.390625"/>
      <use xlink:href="#DejaVuSans-71" x="139.753906"/>
      <use xlink:href="#DejaVuSans-75" x="203.230469"/>
      <use xlink:href="#DejaVuSans-65" x="266.609375"/>
      <use xlink:href="#DejaVuSans-5f" x="328.132812"/>
      <use xlink:href="#DejaVuSans-7a" x="378.132812"/>
     </g>
    </g>
   </g>
  </g>
 </g>
 <defs>
  <clipPath id="pe516a2e318">
   <rect x="90" y="34.56" width="558" height="221.76"/>
  </clipPath>
 </defs>
</svg>
