<?xml version="1.0" encoding="utf-8" standalone="no"?>
<!DOCTYPE svg PUBLIC "-//W3C//DTD SVG 1.1//EN"
  "http://www.w3.org/Graphics/SVG/1.1/DTD/svg11.dtd">
<svg xmlns:xlink="http://www.w3.org/1999/xlink" width="720pt" height="288pt" viewBox="0 0 720 288" xmlns="http://www.w3.org/2000/svg" version="1.1">
 <metadata>
  <rdf:RDF xmlns:dc="http://purl.org/dc/elements/1.1/" xmlns:cc="http://creativecommons.org/ns#" xmlns:rdf="http://www.w3.org/1999/02/22-rdf-syntax-ns#">
   <cc:Work>
    <dc:type rdf:resource="http://purl.org/dc/dcmitype/StillImage"/>
    <dc:date>2025-09-21T11:11:35.773041</dc:date>
    <dc:format>image/svg+xml</dc:format>
    <dc:creator>
     <cc:Agent>
      <dc:title>Matplotlib v3.5.3, https://matplotlib.org/</dc:title>
     </cc:Agent>
    </dc:creator>
   </cc:Work>
  </rdf:RDF>
 </metadata>
 <defs>
  <style type="text/css">*{stroke-linejoin: round; stroke-linecap: butt}</style>
 </defs>
 <g id="figure_1">
  <g id="patch_1">
   <path d="M 0 288 
L 720 288 
L 720 0 
L 0 0 
z
" style="fill: #ffffff"/>
  </g>
  <g id="axes_1">
   <g id="patch_2">
    <path d="M 90 256.32 
L 648 256.32 
L 648 34.56 
L 90 34.56 
z
" style="fill: #ffffff"/>
   </g>
   <g id="matplotlib.axis_1">
    <g id="xtick_1">
     <g id="line2d_1">
      <path d="M 106.311699 256.32 
L 106.311699 34.56 
" clip-path="url(#p69595d84e5)" style="fill: none; stroke: #b0b0b0; stroke-width: 0.8; stroke-linecap: square"/>
     </g>
     <g id="line2d_2">
      <defs>
       <path id="m4fed139ca7" d="M 0 0 
L 0 3.5 
" style="stroke: #000000; stroke-width: 0.8"/>
      </defs>
      <g>
       <use xlink:href="#m4fed139ca7" x="106.311699" y="256.32" style="stroke: #000000; stroke-width: 0.8"/>
      </g>
     </g>
     <g id="text_1">
      <!-- 20:16:10 -->
      <g transform="translate(83.855449 270.918437)scale(0.1 -0.1)">
       <defs>
        <path id="DejaVuSans-32" d="M 1228 531 
L 3431 531 
L 3431 0 
L 469 0 
L 469 531 
Q 828 903 1448 1529 
Q 2069 2156 2228 2338 
Q 2531 2678 2651 2914 
Q 2772 3150 2772 3378 
Q 2772 3750 2511 3984 
Q 2250 4219 1831 4219 
Q 1534 4219 1204 4116 
Q 875 4013 500 3803 
L 500 4441 
Q 881 4594 1212 4672 
Q 1544 4750 1819 4750 
Q 2544 4750 2975 4387 
Q 3406 4025 3406 3419 
Q 3406 3131 3298 2873 
Q 3191 2616 2906 2266 
Q 2828 2175 2409 1742 
Q 1991 1309 1228 531 
z
" transform="scale(0.015625)"/>
        <path id="DejaVuSans-30" d="M 2034 4250 
Q 1547 4250 1301 3770 
Q 1056 3291 1056 2328 
Q 1056 1369 1301 889 
Q 1547 409 2034 409 
Q 2525 409 2770 889 
Q 3016 1369 3016 2328 
Q 3016 3291 2770 3770 
Q 2525 4250 2034 4250 
z
M 2034 4750 
Q 2819 4750 3233 4129 
Q 3647 3509 3647 2328 
Q 3647 1150 3233 529 
Q 2819 -91 2034 -91 
Q 1250 -91 836 529 
Q 422 1150 422 2328 
Q 422 3509 836 4129 
Q 1250 4750 2034 4750 
z
" transform="scale(0.015625)"/>
        <path id="DejaVuSans-3a" d="M 750 794 
L 1409 794 
L 1409 0 
L 750 0 
L 750 794 
z
M 750 3309 
L 1409 3309 
L 1409 2516 
L 750 2516 
L 750 3309 
z
" transform="scale(0.015625)"/>
        <path id="DejaVuSans-31" d="M 794 531 
L 1825 531 
L 1825 4091 
L 703 3866 
L 703 4441 
L 1819 4666 
L 2450 4666 
L 2450 531 
L 3481 531 
L 3481 0 
L 794 0 
L 794 531 
z
" transform="scale(0.015625)"/>
        <path id="DejaVuSans-36" d="M 2113 2584 
Q 1688 2584 1439 2293 
Q 1191 2003 1191 1497 
Q 1191 994 1439 701 
Q 1688 409 2113 409 
Q 2538 409 2786 701 
Q 3034 994 3034 1497 
Q 3034 2003 2786 2293 
Q 2538 2584 2113 2584 
z
M 3366 4563 
L 3366 3988 
Q 3128 4100 2886 4159 
Q 2644 4219 2406 4219 
Q 1781 4219 1451 3797 
Q 1122 3375 1075 2522 
Q 1259 2794 1537 2939 
Q 1816 3084 2150 3084 
Q 2853 3084 3261 2657 
Q 3669 2231 3669 1497 
Q 3669 778 3244 343 
Q 2819 -91 2113 -91 
Q 1303 -91 875 529 
Q 447 1150 447 2328 
Q 447 3434 972 4092 
Q 1497 4750 2381 4750 
Q 2619 4750 2861 4703 
Q 3103 4656 3366 4563 
z
" transform="scale(0.015625)"/>
       </defs>
       <use xlink:href="#DejaVuSans-32"/>
       <use xlink:href="#DejaVuSans-30" x="63.623047"/>
       <use xlink:href="#DejaVuSans-3a" x="127.246094"/>
       <use xlink:href="#DejaVuSans-31" x="160.9375"/>
       <use xlink:href="#DejaVuSans-36" x="224.560547"/>
       <use xlink:href="#DejaVuSans-3a" x="288.183594"/>
       <use xlink:href="#DejaVuSans-31" x="321.875"/>
       <use xlink:href="#DejaVuSans-30" x="385.498047"/>
      </g>
     </g>
    </g>
    <g id="xtick_2">
     <g id="line2d_3">
      <path d="M 213.435223 256.32 
L 213.435223 34.56 
" clip-path="url(#p69595d84e5)" style="fill: none; stroke: #b0b0b0; stroke-width: 0.8; stroke-linecap: square"/>
     </g>
     <g id="line2d_4">
      <g>
       <use xlink:href="#m4fed139ca7" x="213.435223" y="256.32" style="stroke: #000000; stroke-width: 0.8"/>
      </g>
     </g>
     <g id="text_2">
      <!-- 20:16:20 -->
      <g transform="translate(190.978973 270.918437)scale(0.1 -0.1)">
       <use xlink:href="#DejaVuSans-32"/>
       <use xlink:href="#DejaVuSans-30" x="63.623047"/>
       <use xlink:href="#DejaVuSans-3a" x="127.246094"/>
       <use xlink:href="#DejaVuSans-31" x="160.9375"/>
       <use xlink:href="#DejaVuSans-36" x="224.560547"/>
       <use xlink:href="#DejaVuSans-3a" x="288.183594"/>
       <use xlink:href="#DejaVuSans-32" x="321.875"/>
       <use xlink:href="#DejaVuSans-30" x="385.498047"/>
      </g>
     </g>
    </g>
    <g id="xtick_3">
     <g id="line2d_5">
      <path d="M 320.558743 256.32 
L 320.558743 34.56 
" clip-path="url(#p69595d84e5)" style="fill: none; stroke: #b0b0b0; stroke-width: 0.8; stroke-linecap: square"/>
     </g>
     <g id="line2d_6">
      <g>
       <use xlink:href="#m4fed139ca7" x="320.558743" y="256.32" style="stroke: #000000; stroke-width: 0.8"/>
      </g>
     </g>
     <g id="text_3">
      <!-- 20:16:30 -->
      <g transform="translate(298.102493 270.918437)scale(0.1 -0.1)">
       <defs>
        <path id="DejaVuSans-33" d="M 2597 2516 
Q 3050 2419 3304 2112 
Q 3559 1806 3559 1356 
Q 3559 666 3084 287 
Q 2609 -91 1734 -91 
Q 1441 -91 1130 -33 
Q 819 25 488 141 
L 488 750 
Q 750 597 1062 519 
Q 1375 441 1716 441 
Q 2309 441 2620 675 
Q 2931 909 2931 1356 
Q 2931 1769 2642 2001 
Q 2353 2234 1838 2234 
L 1294 2234 
L 1294 2753 
L 1863 2753 
Q 2328 2753 2575 2939 
Q 2822 3125 2822 3475 
Q 2822 3834 2567 4026 
Q 2313 4219 1838 4219 
Q 1578 4219 1281 4162 
Q 984 4106 628 3988 
L 628 4550 
Q 988 4650 1302 4700 
Q 1616 4750 1894 4750 
Q 2613 4750 3031 4423 
Q 3450 4097 3450 3541 
Q 3450 3153 3228 2886 
Q 3006 2619 2597 2516 
z
" transform="scale(0.015625)"/>
       </defs>
       <use xlink:href="#DejaVuSans-32"/>
       <use xlink:href="#DejaVuSans-30" x="63.623047"/>
       <use xlink:href="#DejaVuSans-3a" x="127.246094"/>
       <use xlink:href="#DejaVuSans-31" x="160.9375"/>
       <use xlink:href="#DejaVuSans-36" x="224.560547"/>
       <use xlink:href="#DejaVuSans-3a" x="288.183594"/>
       <use xlink:href="#DejaVuSans-33" x="321.875"/>
       <use xlink:href="#DejaVuSans-30" x="385.498047"/>
      </g>
     </g>
    </g>
    <g id="xtick_4">
     <g id="line2d_7">
      <path d="M 427.682266 256.32 
L 427.682266 34.56 
" clip-path="url(#p69595d84e5)" style="fill: none; stroke: #b0b0b0; stroke-width: 0.8; stroke-linecap: square"/>
     </g>
     <g id="line2d_8">
      <g>
       <use xlink:href="#m4fed139ca7" x="427.682266" y="256.32" style="stroke: #000000; stroke-width: 0.8"/>
      </g>
     </g>
     <g id="text_4">
      <!-- 20:16:40 -->
      <g transform="translate(405.226016 270.918437)scale(0.1 -0.1)">
       <defs>
        <path id="DejaVuSans-34" d="M 2419 4116 
L 825 1625 
L 2419 1625 
L 2419 4116 
z
M 2253 4666 
L 3047 4666 
L 3047 1625 
L 3713 1625 
L 3713 1100 
L 3047 1100 
L 3047 0 
L 2419 0 
L 2419 1100 
L 313 1100 
L 313 1709 
L 2253 4666 
z
" transform="scale(0.015625)"/>
       </defs>
       <use xlink:href="#DejaVuSans-32"/>
       <use xlink:href="#DejaVuSans-30" x="63.623047"/>
       <use xlink:href="#DejaVuSans-3a" x="127.246094"/>
       <use xlink:href="#DejaVuSans-31" x="160.9375"/>
       <use xlink:href="#DejaVuSans-36" x="224.560547"/>
       <use xlink:href="#DejaVuSans-3a" x="288.183594"/>
       <use xlink:href="#DejaVuSans-34" x="321.875"/>
       <use xlink:href="#DejaVuSans-30" x="385.498047"/>
      </g>
     </g>
    </g>
    <g id="xtick_5">
     <g id="line2d_9">
      <path d="M 534.80579 256.32 
L 534.80579 34.56 
" clip-path="url(#p69595d84e5)" style="fill: none; stroke: #b0b0b0; stroke-width: 0.8; stroke-linecap: square"/>
     </g>
     <g id="line2d_10">
      <g>
       <use xlink:href="#m4fed139ca7" x="534.80579" y="256.32" style="stroke: #000000; stroke-width: 0.8"/>
      </g>
     </g>
     <g id="text_5">
      <!-- 20:16:50 -->
      <g transform="translate(512.34954 270.918437)scale(0.1 -0.1)">
       <defs>
        <path id="DejaVuSans-35" d="M 691 4666 
L 3169 4666 
L 3169 4134 
L 1269 4134 
L 1269 2991 
Q 1406 3038 1543 3061 
Q 1681 3084 1819 3084 
Q 2600 3084 3056 2656 
Q 3513 2228 3513 1497 
Q 3513 744 3044 326 
Q 2575 -91 1722 -91 
Q 1428 -91 1123 -41 
Q 819 9 494 109 
L 494 744 
Q 775 591 1075 516 
Q 1375 441 1709 441 
Q 2250 441 2565 725 
Q 2881 1009 2881 1497 
Q 2881 1984 2565 2268 
Q 2250 2553 1709 2553 
Q 1456 2553 1204 2497 
Q 953 2441 691 2322 
L 691 4666 
z
" transform="scale(0.015625)"/>
       </defs>
       <use xlink:href="#DejaVuSans-32"/>
       <use xlink:href="#DejaVuSans-30" x="63.623047"/>
       <use xlink:href="#DejaVuSans-3a" x="127.246094"/>
       <use xlink:href="#DejaVuSans-31" x="160.9375"/>
       <use xlink:href="#DejaVuSans-36" x="224.560547"/>
       <use xlink:href="#DejaVuSans-3a" x="288.183594"/>
       <use xlink:href="#DejaVuSans-35" x="321.875"/>
       <use xlink:href="#DejaVuSans-30" x="385.498047"/>
      </g>
     </g>
    </g>
    <g id="xtick_6">
     <g id="line2d_11">
      <path d="M 641.929314 256.32 
L 641.929314 34.56 
" clip-path="url(#p69595d84e5)" style="fill: none; stroke: #b0b0b0; stroke-width: 0.8; stroke-linecap: square"/>
     </g>
     <g id="line2d_12">
      <g>
       <use xlink:href="#m4fed139ca7" x="641.929314" y="256.32" style="stroke: #000000; stroke-width: 0.8"/>
      </g>
     </g>
     <g id="text_6">
      <!-- 20:17:00 -->
      <g transform="translate(619.473064 270.918437)scale(0.1 -0.1)">
       <defs>
        <path id="DejaVuSans-37" d="M 525 4666 
L 3525 4666 
L 3525 4397 
L 1831 0 
L 1172 0 
L 2766 4134 
L 525 4134 
L 525 4666 
z
" transform="scale(0.015625)"/>
       </defs>
       <use xlink:href="#DejaVuSans-32"/>
       <use xlink:href="#DejaVuSans-30" x="63.623047"/>
       <use xlink:href="#DejaVuSans-3a" x="127.246094"/>
       <use xlink:href="#DejaVuSans-31" x="160.9375"/>
       <use xlink:href="#DejaVuSans-37" x="224.560547"/>
       <use xlink:href="#DejaVuSans-3a" x="288.183594"/>
       <use xlink:href="#DejaVuSans-30" x="321.875"/>
       <use xlink:href="#DejaVuSans-30" x="385.498047"/>
      </g>
     </g>
    </g>
    <g id="text_7">
     <!-- Time -->
     <g transform="translate(356.766406 284.596563)scale(0.1 -0.1)">
      <defs>
       <path id="DejaVuSans-54" d="M -19 4666 
L 3928 4666 
L 3928 4134 
L 2272 4134 
L 2272 0 
L 1638 0 
L 1638 4134 
L -19 4134 
L -19 4666 
z
" transform="scale(0.015625)"/>
       <path id="DejaVuSans-69" d="M 603 3500 
L 1178 3500 
L 1178 0 
L 603 0 
L 603 3500 
z
M 603 4863 
L 1178 4863 
L 1178 4134 
L 603 4134 
L 603 4863 
z
" transform="scale(0.015625)"/>
       <path id="DejaVuSans-6d" d="M 3328 2828 
Q 3544 3216 3844 3400 
Q 4144 3584 4550 3584 
Q 5097 3584 5394 3201 
Q 5691 2819 5691 2113 
L 5691 0 
L 5113 0 
L 5113 2094 
Q 5113 2597 4934 2840 
Q 4756 3084 4391 3084 
Q 3944 3084 3684 2787 
Q 3425 2491 3425 1978 
L 3425 0 
L 2847 0 
L 2847 2094 
Q 2847 2600 2669 2842 
Q 2491 3084 2119 3084 
Q 1678 3084 1418 2786 
Q 1159 2488 1159 1978 
L 1159 0 
L 581 0 
L 581 3500 
L 1159 3500 
L 1159 2956 
Q 1356 3278 1631 3431 
Q 1906 3584 2284 3584 
Q 2666 3584 2933 3390 
Q 3200 3197 3328 2828 
z
" transform="scale(0.015625)"/>
       <path id="DejaVuSans-65" d="M 3597 1894 
L 3597 1613 
L 953 1613 
Q 991 1019 1311 708 
Q 1631 397 2203 397 
Q 2534 397 2845 478 
Q 3156 559 3463 722 
L 3463 178 
Q 3153 47 2828 -22 
Q 2503 -91 2169 -91 
Q 1331 -91 842 396 
Q 353 884 353 1716 
Q 353 2575 817 3079 
Q 1281 3584 2069 3584 
Q 2775 3584 3186 3129 
Q 3597 2675 3597 1894 
z
M 3022 2063 
Q 3016 2534 2758 2815 
Q 2500 3097 2075 3097 
Q 1594 3097 1305 2825 
Q 1016 2553 972 2059 
L 3022 2063 
z
" transform="scale(0.015625)"/>
      </defs>
      <use xlink:href="#DejaVuSans-54"/>
      <use xlink:href="#DejaVuSans-69" x="57.958984"/>
      <use xlink:href="#DejaVuSans-6d" x="85.742188"/>
      <use xlink:href="#DejaVuSans-65" x="183.154297"/>
     </g>
    </g>
   </g>
   <g id="matplotlib.axis_2">
    <g id="ytick_1">
     <g id="line2d_13">
      <path d="M 90 249.513805 
L 648 249.513805 
" clip-path="url(#p69595d84e5)" style="fill: none; stroke: #b0b0b0; stroke-width: 0.8; stroke-linecap: square"/>
     </g>
     <g id="line2d_14">
      <defs>
       <path id="me27c9abf61" d="M 0 0 
L -3.5 0 
" style="stroke: #000000; stroke-width: 0.8"/>
      </defs>
      <g>
       <use xlink:href="#me27c9abf61" x="90" y="249.513805" style="stroke: #000000; stroke-width: 0.8"/>
      </g>
     </g>
     <g id="text_8">
      <!-- −2.0 -->
      <g transform="translate(58.717187 253.313024)scale(0.1 -0.1)">
       <defs>
        <path id="DejaVuSans-2212" d="M 678 2272 
L 4684 2272 
L 4684 1741 
L 678 1741 
L 678 2272 
z
" transform="scale(0.015625)"/>
        <path id="DejaVuSans-2e" d="M 684 794 
L 1344 794 
L 1344 0 
L 684 0 
L 684 794 
z
" transform="scale(0.015625)"/>
       </defs>
       <use xlink:href="#DejaVuSans-2212"/>
       <use xlink:href="#DejaVuSans-32" x="83.789062"/>
       <use xlink:href="#DejaVuSans-2e" x="147.412109"/>
       <use xlink:href="#DejaVuSans-30" x="179.199219"/>
      </g>
     </g>
    </g>
    <g id="ytick_2">
     <g id="line2d_15">
      <path d="M 90 224.562922 
L 648 224.562922 
" clip-path="url(#p69595d84e5)" style="fill: none; stroke: #b0b0b0; stroke-width: 0.8; stroke-linecap: square"/>
     </g>
     <g id="line2d_16">
      <g>
       <use xlink:href="#me27c9abf61" x="90" y="224.562922" style="stroke: #000000; stroke-width: 0.8"/>
      </g>
     </g>
     <g id="text_9">
      <!-- −1.5 -->
      <g transform="translate(58.717187 228.362141)scale(0.1 -0.1)">
       <use xlink:href="#DejaVuSans-2212"/>
       <use xlink:href="#DejaVuSans-31" x="83.789062"/>
       <use xlink:href="#DejaVuSans-2e" x="147.412109"/>
       <use xlink:href="#DejaVuSans-35" x="179.199219"/>
      </g>
     </g>
    </g>
    <g id="ytick_3">
     <g id="line2d_17">
      <path d="M 90 199.612039 
L 648 199.612039 
" clip-path="url(#p69595d84e5)" style="fill: none; stroke: #b0b0b0; stroke-width: 0.8; stroke-linecap: square"/>
     </g>
     <g id="line2d_18">
      <g>
       <use xlink:href="#me27c9abf61" x="90" y="199.612039" style="stroke: #000000; stroke-width: 0.8"/>
      </g>
     </g>
     <g id="text_10">
      <!-- −1.0 -->
      <g transform="translate(58.717187 203.411258)scale(0.1 -0.1)">
       <use xlink:href="#DejaVuSans-2212"/>
       <use xlink:href="#DejaVuSans-31" x="83.789062"/>
       <use xlink:href="#DejaVuSans-2e" x="147.412109"/>
       <use xlink:href="#DejaVuSans-30" x="179.199219"/>
      </g>
     </g>
    </g>
    <g id="ytick_4">
     <g id="line2d_19">
      <path d="M 90 174.661156 
L 648 174.661156 
" clip-path="url(#p69595d84e5)" style="fill: none; stroke: #b0b0b0; stroke-width: 0.8; stroke-linecap: square"/>
     </g>
     <g id="line2d_20">
      <g>
       <use xlink:href="#me27c9abf61" x="90" y="174.661156" style="stroke: #000000; stroke-width: 0.8"/>
      </g>
     </g>
     <g id="text_11">
      <!-- −0.5 -->
      <g transform="translate(58.717187 178.460375)scale(0.1 -0.1)">
       <use xlink:href="#DejaVuSans-2212"/>
       <use xlink:href="#DejaVuSans-30" x="83.789062"/>
       <use xlink:href="#DejaVuSans-2e" x="147.412109"/>
       <use xlink:href="#DejaVuSans-35" x="179.199219"/>
      </g>
     </g>
    </g>
    <g id="ytick_5">
     <g id="line2d_21">
      <path d="M 90 149.710273 
L 648 149.710273 
" clip-path="url(#p69595d84e5)" style="fill: none; stroke: #b0b0b0; stroke-width: 0.8; stroke-linecap: square"/>
     </g>
     <g id="line2d_22">
      <g>
       <use xlink:href="#me27c9abf61" x="90" y="149.710273" style="stroke: #000000; stroke-width: 0.8"/>
      </g>
     </g>
     <g id="text_12">
      <!-- 0.0 -->
      <g transform="translate(67.096875 153.509491)scale(0.1 -0.1)">
       <use xlink:href="#DejaVuSans-30"/>
       <use xlink:href="#DejaVuSans-2e" x="63.623047"/>
       <use xlink:href="#DejaVuSans-30" x="95.410156"/>
      </g>
     </g>
    </g>
    <g id="ytick_6">
     <g id="line2d_23">
      <path d="M 90 124.75939 
L 648 124.75939 
" clip-path="url(#p69595d84e5)" style="fill: none; stroke: #b0b0b0; stroke-width: 0.8; stroke-linecap: square"/>
     </g>
     <g id="line2d_24">
      <g>
       <use xlink:href="#me27c9abf61" x="90" y="124.75939" style="stroke: #000000; stroke-width: 0.8"/>
      </g>
     </g>
     <g id="text_13">
      <!-- 0.5 -->
      <g transform="translate(67.096875 128.558608)scale(0.1 -0.1)">
       <use xlink:href="#DejaVuSans-30"/>
       <use xlink:href="#DejaVuSans-2e" x="63.623047"/>
       <use xlink:href="#DejaVuSans-35" x="95.410156"/>
      </g>
     </g>
    </g>
    <g id="ytick_7">
     <g id="line2d_25">
      <path d="M 90 99.808506 
L 648 99.808506 
" clip-path="url(#p69595d84e5)" style="fill: none; stroke: #b0b0b0; stroke-width: 0.8; stroke-linecap: square"/>
     </g>
     <g id="line2d_26">
      <g>
       <use xlink:href="#me27c9abf61" x="90" y="99.808506" style="stroke: #000000; stroke-width: 0.8"/>
      </g>
     </g>
     <g id="text_14">
      <!-- 1.0 -->
      <g transform="translate(67.096875 103.607725)scale(0.1 -0.1)">
       <use xlink:href="#DejaVuSans-31"/>
       <use xlink:href="#DejaVuSans-2e" x="63.623047"/>
       <use xlink:href="#DejaVuSans-30" x="95.410156"/>
      </g>
     </g>
    </g>
    <g id="ytick_8">
     <g id="line2d_27">
      <path d="M 90 74.857623 
L 648 74.857623 
" clip-path="url(#p69595d84e5)" style="fill: none; stroke: #b0b0b0; stroke-width: 0.8; stroke-linecap: square"/>
     </g>
     <g id="line2d_28">
      <g>
       <use xlink:href="#me27c9abf61" x="90" y="74.857623" style="stroke: #000000; stroke-width: 0.8"/>
      </g>
     </g>
     <g id="text_15">
      <!-- 1.5 -->
      <g transform="translate(67.096875 78.656842)scale(0.1 -0.1)">
       <use xlink:href="#DejaVuSans-31"/>
       <use xlink:href="#DejaVuSans-2e" x="63.623047"/>
       <use xlink:href="#DejaVuSans-35" x="95.410156"/>
      </g>
     </g>
    </g>
    <g id="ytick_9">
     <g id="line2d_29">
      <path d="M 90 49.90674 
L 648 49.90674 
" clip-path="url(#p69595d84e5)" style="fill: none; stroke: #b0b0b0; stroke-width: 0.8; stroke-linecap: square"/>
     </g>
     <g id="line2d_30">
      <g>
       <use xlink:href="#me27c9abf61" x="90" y="49.90674" style="stroke: #000000; stroke-width: 0.8"/>
      </g>
     </g>
     <g id="text_16">
      <!-- 2.0 -->
      <g transform="translate(67.096875 53.705959)scale(0.1 -0.1)">
       <use xlink:href="#DejaVuSans-32"/>
       <use xlink:href="#DejaVuSans-2e" x="63.623047"/>
       <use xlink:href="#DejaVuSans-30" x="95.410156"/>
      </g>
     </g>
    </g>
    <g id="text_17">
     <!-- Torque (Nm) -->
     <g transform="translate(52.6375 176.192344)rotate(-90)scale(0.1 -0.1)">
      <defs>
       <path id="DejaVuSans-6f" d="M 1959 3097 
Q 1497 3097 1228 2736 
Q 959 2375 959 1747 
Q 959 1119 1226 758 
Q 1494 397 1959 397 
Q 2419 397 2687 759 
Q 2956 1122 2956 1747 
Q 2956 2369 2687 2733 
Q 2419 3097 1959 3097 
z
M 1959 3584 
Q 2709 3584 3137 3096 
Q 3566 2609 3566 1747 
Q 3566 888 3137 398 
Q 2709 -91 1959 -91 
Q 1206 -91 779 398 
Q 353 888 353 1747 
Q 353 2609 779 3096 
Q 1206 3584 1959 3584 
z
" transform="scale(0.015625)"/>
       <path id="DejaVuSans-72" d="M 2631 2963 
Q 2534 3019 2420 3045 
Q 2306 3072 2169 3072 
Q 1681 3072 1420 2755 
Q 1159 2438 1159 1844 
L 1159 0 
L 581 0 
L 581 3500 
L 1159 3500 
L 1159 2956 
Q 1341 3275 1631 3429 
Q 1922 3584 2338 3584 
Q 2397 3584 2469 3576 
Q 2541 3569 2628 3553 
L 2631 2963 
z
" transform="scale(0.015625)"/>
       <path id="DejaVuSans-71" d="M 947 1747 
Q 947 1113 1208 752 
Q 1469 391 1925 391 
Q 2381 391 2643 752 
Q 2906 1113 2906 1747 
Q 2906 2381 2643 2742 
Q 2381 3103 1925 3103 
Q 1469 3103 1208 2742 
Q 947 2381 947 1747 
z
M 2906 525 
Q 2725 213 2448 61 
Q 2172 -91 1784 -91 
Q 1150 -91 751 415 
Q 353 922 353 1747 
Q 353 2572 751 3078 
Q 1150 3584 1784 3584 
Q 2172 3584 2448 3432 
Q 2725 3281 2906 2969 
L 2906 3500 
L 3481 3500 
L 3481 -1331 
L 2906 -1331 
L 2906 525 
z
" transform="scale(0.015625)"/>
       <path id="DejaVuSans-75" d="M 544 1381 
L 544 3500 
L 1119 3500 
L 1119 1403 
Q 1119 906 1312 657 
Q 1506 409 1894 409 
Q 2359 409 2629 706 
Q 2900 1003 2900 1516 
L 2900 3500 
L 3475 3500 
L 3475 0 
L 2900 0 
L 2900 538 
Q 2691 219 2414 64 
Q 2138 -91 1772 -91 
Q 1169 -91 856 284 
Q 544 659 544 1381 
z
M 1991 3584 
L 1991 3584 
z
" transform="scale(0.015625)"/>
       <path id="DejaVuSans-20" transform="scale(0.015625)"/>
       <path id="DejaVuSans-28" d="M 1984 4856 
Q 1566 4138 1362 3434 
Q 1159 2731 1159 2009 
Q 1159 1288 1364 580 
Q 1569 -128 1984 -844 
L 1484 -844 
Q 1016 -109 783 600 
Q 550 1309 550 2009 
Q 550 2706 781 3412 
Q 1013 4119 1484 4856 
L 1984 4856 
z
" transform="scale(0.015625)"/>
       <path id="DejaVuSans-4e" d="M 628 4666 
L 1478 4666 
L 3547 763 
L 3547 4666 
L 4159 4666 
L 4159 0 
L 3309 0 
L 1241 3903 
L 1241 0 
L 628 0 
L 628 4666 
z
" transform="scale(0.015625)"/>
       <path id="DejaVuSans-29" d="M 513 4856 
L 1013 4856 
Q 1481 4119 1714 3412 
Q 1947 2706 1947 2009 
Q 1947 1309 1714 600 
Q 1481 -109 1013 -844 
L 513 -844 
Q 928 -128 1133 580 
Q 1338 1288 1338 2009 
Q 1338 2731 1133 3434 
Q 928 4138 513 4856 
z
" transform="scale(0.015625)"/>
      </defs>
      <use xlink:href="#DejaVuSans-54"/>
      <use xlink:href="#DejaVuSans-6f" x="44.083984"/>
      <use xlink:href="#DejaVuSans-72" x="105.265625"/>
      <use xlink:href="#DejaVuSans-71" x="144.628906"/>
      <use xlink:href="#DejaVuSans-75" x="208.105469"/>
      <use xlink:href="#DejaVuSans-65" x="271.484375"/>
      <use xlink:href="#DejaVuSans-20" x="333.007812"/>
      <use xlink:href="#DejaVuSans-28" x="364.794922"/>
      <use xlink:href="#DejaVuSans-4e" x="403.808594"/>
      <use xlink:href="#DejaVuSans-6d" x="478.613281"/>
      <use xlink:href="#DejaVuSans-29" x="576.025391"/>
     </g>
    </g>
   </g>
   <g id="line2d_31">
    <path d="M 115.363636 206.081204 
L 116.006378 205.723559 
L 116.659832 203.790982 
L 117.291862 203.163233 
L 117.934601 203.315861 
L 118.577339 203.923695 
L 119.220085 203.641965 
L 119.862827 203.57977 
L 120.505566 202.473625 
L 121.148304 203.051649 
L 121.801758 202.332283 
L 122.433788 203.19958 
L 123.07653 202.883791 
L 123.72998 202.735822 
L 125.015465 201.613046 
L 125.647495 202.522226 
L 126.932976 200.272416 
L 127.575714 200.934464 
L 128.871914 201.126796 
L 129.503941 202.104361 
L 130.146683 201.353549 
L 131.432163 201.139048 
L 132.074905 202.341314 
L 132.717648 204.27466 
L 133.36039 203.135252 
L 134.003128 203.623488 
L 134.64587 203.606906 
L 135.288612 206.077382 
L 135.931355 207.971503 
L 136.574093 211.496684 
L 137.216835 211.266558 
L 137.859573 208.682116 
L 138.502316 209.196399 
L 139.145061 210.38717 
L 139.7878 213.582363 
L 140.430538 209.858681 
L 141.07328 204.571052 
L 142.358765 210.106308 
L 144.286987 205.493817 
L 144.929726 207.674895 
L 145.583179 208.483829 
L 146.21521 209.938822 
L 146.857952 207.501295 
L 147.500694 209.229729 
L 148.786175 206.857566 
L 149.428917 208.528675 
L 150.071659 205.170003 
L 150.714397 206.614467 
L 151.367851 203.119774 
L 151.999882 205.781498 
L 152.653336 204.762811 
L 153.285362 207.36925 
L 153.928104 206.449917 
L 154.581558 206.704109 
L 155.2243 206.457648 
L 155.856327 207.603592 
L 157.152523 204.185845 
L 157.78455 205.735871 
L 158.427296 203.872694 
L 159.08075 208.866289 
L 159.712772 208.2344 
L 160.355515 206.69447 
L 160.998257 209.356224 
L 161.640999 209.3975 
L 162.283737 206.977104 
L 162.926483 207.713201 
L 163.569221 207.328655 
L 164.21196 205.905773 
L 164.854706 203.510198 
L 165.50816 204.888365 
L 166.140186 200.397073 
L 166.782928 202.017256 
L 167.425667 202.250899 
L 168.068409 202.798751 
L 168.711151 200.048061 
L 169.364601 198.704921 
L 169.996632 196.470647 
L 170.639374 196.999921 
L 171.292828 198.628176 
L 171.924858 200.617589 
L 172.567596 203.834264 
L 173.22105 206.375905 
L 173.853081 206.347187 
L 174.506535 203.960813 
L 175.138561 204.557167 
L 175.781303 203.079325 
L 176.424046 202.703281 
L 177.066784 203.817614 
L 177.709526 201.641786 
L 178.99501 201.167088 
L 181.565971 206.254201 
L 182.851456 215.033542 
L 183.494194 214.066166 
L 184.136936 214.805906 
L 184.779678 213.057926 
L 185.422421 214.50898 
L 186.065159 212.36512 
L 186.718613 209.57496 
L 187.350643 210.036361 
L 187.993385 207.909484 
L 188.636127 207.507214 
L 189.278866 204.628326 
L 189.921608 203.651886 
L 190.56435 204.900784 
L 191.217804 205.3916 
L 191.849831 203.541075 
L 192.503284 203.326446 
L 193.135315 202.981731 
L 193.778053 207.417944 
L 194.420795 207.185059 
L 195.70628 214.068265 
L 196.349018 210.878659 
L 197.002472 208.445691 
L 197.634502 208.535147 
L 198.277245 210.214021 
L 199.573437 208.016901 
L 200.205467 208.035634 
L 200.848206 208.456351 
L 201.490948 205.765217 
L 202.13369 207.531374 
L 202.776432 205.16013 
L 203.429882 205.621256 
L 204.061913 205.027143 
L 204.704655 205.126756 
L 205.347393 204.281357 
L 205.990139 204.795675 
L 206.632877 203.859131 
L 207.275616 202.64603 
L 207.929073 202.540813 
L 208.561104 201.817619 
L 209.203842 201.935859 
L 209.846581 200.667152 
L 210.489323 199.921267 
L 211.132065 200.360953 
L 211.849792 201.148028 
L 212.492535 201.591082 
L 213.135273 201.159365 
L 213.778015 201.728344 
L 214.420757 201.574232 
L 215.063499 200.999658 
L 215.706238 191.03528 
L 216.34898 198.146312 
L 216.991722 198.728567 
L 217.634464 199.614766 
L 218.277203 198.967195 
L 218.919949 195.694608 
L 219.562687 200.799636 
L 220.205425 203.026687 
L 220.848167 202.615032 
L 221.490913 204.167633 
L 222.133652 201.32619 
L 222.77639 199.639088 
L 223.419132 199.720686 
L 224.061874 200.498632 
L 224.704617 202.287373 
L 225.347359 201.882756 
L 225.990097 202.507824 
L 226.632839 198.249237 
L 227.275578 200.781992 
L 227.918324 201.040956 
L 228.561062 199.73116 
L 229.2038 202.309179 
L 229.846546 201.47756 
L 230.489285 202.120228 
L 231.067753 202.21572 
L 231.774769 201.005346 
L 232.417511 203.652337 
L 233.060249 202.676236 
L 233.702991 205.027576 
L 234.345734 204.622673 
L 234.988476 202.905212 
L 235.631214 206.773737 
L 236.273956 203.866276 
L 236.916698 205.04504 
L 237.559441 204.200521 
L 238.202179 200.320971 
L 238.844921 205.193333 
L 240.130402 201.338314 
L 240.773148 202.162364 
L 241.415886 200.834468 
L 242.058624 202.480475 
L 242.70137 205.020978 
L 243.344109 202.573148 
L 243.986851 201.72978 
L 244.629589 203.102221 
L 245.272331 202.098613 
L 245.915073 201.819168 
L 246.557812 201.995782 
L 247.843296 201.547226 
L 248.486038 205.58041 
L 249.12878 202.091852 
L 249.771519 201.073442 
L 250.414261 203.814674 
L 251.699745 201.518196 
L 252.342484 200.984608 
L 253.627968 202.980072 
L 254.27071 201.732687 
L 254.913448 203.580947 
L 255.55619 203.829313 
L 256.198933 201.174457 
L 256.841671 200.119063 
L 257.484413 200.074293 
L 258.127155 199.005086 
L 258.769897 198.28601 
L 259.412636 196.825148 
L 260.055378 195.947597 
L 260.69812 197.296398 
L 261.340858 195.659577 
L 261.983601 194.742144 
L 262.626343 194.61903 
L 263.269085 194.135245 
L 263.911823 195.368383 
L 264.554569 196.059598 
L 265.197308 194.877361 
L 265.840046 194.005131 
L 266.482792 195.862875 
L 267.125534 195.644992 
L 267.768272 195.253371 
L 268.411011 194.223067 
L 269.053753 192.66801 
L 269.696495 198.981386 
L 270.339237 180.602456 
L 270.981979 199.089211 
L 271.624718 192.007038 
L 272.26746 199.520434 
L 272.910202 199.249051 
L 273.552944 194.257097 
L 274.195683 196.345274 
L 274.838425 195.175792 
L 275.481167 200.189142 
L 277.409389 199.428847 
L 278.052132 198.328835 
L 278.69487 199.895571 
L 279.337612 195.180264 
L 279.980354 198.483757 
L 280.623096 195.158726 
L 281.265835 192.458786 
L 281.908577 193.695905 
L 282.551315 193.397569 
L 283.194057 192.791034 
L 283.836803 196.357228 
L 284.479542 192.630318 
L 285.12228 193.59056 
L 285.765022 194.873619 
L 286.407764 195.486358 
L 287.050507 199.786705 
L 287.693245 202.460193 
L 288.335991 199.381018 
L 288.978729 200.516874 
L 289.621468 195.275571 
L 290.264214 193.499871 
L 290.906956 192.708352 
L 291.549694 190.968937 
L 292.192432 192.268264 
L 292.835175 189.167557 
L 293.477917 191.190098 
L 294.120659 190.281098 
L 294.763401 191.95757 
L 295.406139 194.82989 
L 296.048882 191.368555 
L 296.691624 192.280688 
L 297.334366 188.977269 
L 297.977104 189.014201 
L 298.619843 188.106274 
L 299.262589 188.10227 
L 299.905331 188.498465 
L 300.548069 188.273339 
L 301.190811 186.042778 
L 301.833553 183.299611 
L 302.476292 185.715588 
L 303.119034 185.543081 
L 303.761776 185.887467 
L 304.404518 184.147712 
L 305.047256 185.586722 
L 305.689999 185.338212 
L 306.332741 187.834834 
L 306.975483 188.72743 
L 307.618225 186.091395 
L 308.260963 185.669069 
L 309.546444 185.151671 
L 310.18919 184.646886 
L 310.831928 184.841191 
L 311.474667 183.306395 
L 312.117409 183.928123 
L 312.760151 185.146644 
L 313.402893 185.195067 
L 314.045635 185.964907 
L 314.688374 186.102081 
L 315.331116 185.149672 
L 315.973854 183.868322 
L 316.6166 185.830537 
L 317.259338 182.282291 
L 317.902081 186.600485 
L 318.544823 189.033278 
L 319.187561 198.161659 
L 319.830303 193.975292 
L 320.473045 196.39571 
L 321.115788 195.465541 
L 322.401264 205.979215 
L 323.044014 202.458976 
L 323.686752 205.115591 
L 324.972233 197.151832 
L 325.614975 196.84082 
L 326.257717 198.071293 
L 326.900455 196.544337 
L 327.543198 196.397892 
L 328.185936 195.577157 
L 328.828678 194.57189 
L 329.471424 195.338403 
L 330.114162 194.665138 
L 330.756901 194.793358 
L 331.399647 193.347678 
L 332.042385 194.098413 
L 332.685127 193.89799 
L 333.327866 193.836309 
L 333.970612 192.306124 
L 334.61335 193.30872 
L 335.256088 193.166967 
L 335.898834 191.638198 
L 336.541576 191.661877 
L 337.184315 193.39575 
L 337.827057 191.626965 
L 339.112537 193.39971 
L 339.75528 193.486861 
L 340.398022 195.409237 
L 341.04076 195.759863 
L 341.683498 195.959431 
L 342.326244 195.15812 
L 342.968987 195.621722 
L 343.611725 194.156953 
L 344.254467 194.848117 
L 344.972195 194.183122 
L 345.614937 192.550298 
L 346.900421 194.07828 
L 347.543159 192.819137 
L 348.185898 193.399116 
L 348.828644 194.613026 
L 349.471382 192.970995 
L 350.114124 194.048239 
L 350.756866 194.88394 
L 351.399605 192.408057 
L 352.042347 192.535593 
L 352.685089 194.952751 
L 353.327831 192.767115 
L 354.613308 196.096705 
L 355.256054 195.51648 
L 355.898796 196.571479 
L 357.173565 194.69675 
L 357.827019 194.143398 
L 359.112499 194.638711 
L 359.755241 194.598582 
L 360.397984 194.878132 
L 361.040722 193.47442 
L 361.683464 194.9882 
L 362.326206 193.487834 
L 362.968948 194.790424 
L 363.611687 194.350674 
L 364.254429 190.646305 
L 364.897167 193.569115 
L 365.539909 192.951311 
L 366.182655 191.940166 
L 366.825394 192.269918 
L 367.468132 194.684728 
L 368.753616 193.414649 
L 369.396358 191.772891 
L 370.039097 190.875212 
L 370.681839 191.36283 
L 371.324581 190.42332 
L 371.967323 194.173309 
L 372.610065 189.669779 
L 373.252804 192.95305 
L 373.895546 190.585657 
L 374.538288 188.753021 
L 375.18103 189.729764 
L 375.823769 191.499161 
L 376.466511 188.74298 
L 377.109253 195.114211 
L 377.751991 190.730864 
L 378.394733 193.885804 
L 379.037476 192.563796 
L 379.680218 190.638773 
L 380.965698 192.104996 
L 381.60844 189.306263 
L 382.251183 194.799206 
L 382.893921 192.792582 
L 383.536663 191.210697 
L 384.179401 191.333281 
L 384.822144 188.393639 
L 386.107628 189.953894 
L 387.393108 188.579502 
L 388.035851 189.651183 
L 388.678593 190.344622 
L 389.321331 189.589016 
L 389.964077 191.438831 
L 390.606815 188.896546 
L 391.249554 189.308154 
L 391.8923 192.143466 
L 392.535042 193.102105 
L 393.17778 190.278151 
L 394.463261 191.78841 
L 395.106003 190.620121 
L 395.748745 195.225541 
L 396.391487 193.824334 
L 397.034225 196.08663 
L 397.676964 193.970283 
L 398.31971 193.011217 
L 398.962452 193.821047 
L 399.60519 193.074055 
L 400.247929 196.366539 
L 400.890675 194.063725 
L 401.533417 195.155314 
L 402.176155 195.957803 
L 402.818897 191.990296 
L 403.461639 193.576522 
L 404.104378 193.473142 
L 404.74712 192.980259 
L 405.389862 193.468554 
L 406.032604 191.998973 
L 407.318085 193.204355 
L 407.960827 189.840823 
L 408.603569 190.709397 
L 409.246311 196.214527 
L 409.88905 198.92791 
L 410.531788 185.410107 
L 411.17453 192.325395 
L 411.817276 192.251129 
L 412.460014 190.798878 
L 413.745495 185.608612 
L 414.388237 187.078856 
L 415.030979 185.540093 
L 415.673721 190.471602 
L 416.31646 189.137671 
L 416.959202 191.96686 
L 417.60194 193.205172 
L 418.244686 194.068305 
L 418.887424 192.086308 
L 419.530167 192.431909 
L 420.172909 192.406854 
L 420.815647 193.049779 
L 421.458389 192.340418 
L 422.101131 189.078266 
L 422.743874 190.002963 
L 423.386612 188.849348 
L 424.02935 189.359763 
L 424.672096 187.507481 
L 425.957577 183.074413 
L 426.600319 183.630399 
L 427.243061 185.271342 
L 427.885799 183.312813 
L 428.528542 184.471796 
L 429.171284 186.630663 
L 429.814022 184.728666 
L 430.456764 184.710661 
L 431.09951 186.070836 
L 431.742249 183.80852 
L 432.384987 186.623646 
L 433.027733 182.419954 
L 433.670471 178.998775 
L 434.313213 178.058993 
L 434.955952 174.776222 
L 436.241436 179.789998 
L 436.884174 179.059612 
L 437.52692 181.452335 
L 438.169662 180.763308 
L 438.812401 180.72375 
L 439.455143 176.15788 
L 440.097881 177.625162 
L 440.740623 179.472472 
L 441.383366 179.859193 
L 442.026108 179.866563 
L 442.668846 179.479764 
L 443.311588 179.884133 
L 443.95433 180.846435 
L 444.597073 177.581681 
L 445.239811 176.745628 
L 445.882553 177.609262 
L 446.525295 178.124683 
L 447.168034 178.464621 
L 447.810776 178.18309 
L 448.453518 180.819331 
L 449.09626 177.997134 
L 449.738998 179.721436 
L 450.381741 180.254001 
L 451.024483 181.251736 
L 451.667225 181.746362 
L 452.309963 182.625494 
L 452.952705 180.082179 
L 453.595444 180.911697 
L 454.238186 180.43312 
L 454.880932 181.616501 
L 455.52367 181.650866 
L 456.230686 180.716823 
L 456.809155 181.793758 
L 457.451893 180.172927 
L 458.094635 180.802034 
L 458.737373 179.298359 
L 459.380119 180.076804 
L 460.022858 178.733158 
L 460.6656 179.801664 
L 461.308342 179.796553 
L 461.95108 180.247917 
L 462.593822 179.484699 
L 463.300838 180.136626 
L 463.879307 180.995767 
L 464.522045 180.199755 
L 465.164787 181.054206 
L 466.450268 180.787214 
L 467.09301 179.875671 
L 467.735752 181.193473 
L 468.378494 180.459809 
L 469.021233 181.578098 
L 469.663975 181.454681 
L 470.306717 182.665579 
L 470.949459 182.822053 
L 471.592197 181.52272 
L 472.23494 182.455228 
L 472.941952 181.540074 
L 473.584698 181.590828 
L 474.227436 180.82035 
L 474.870178 181.121439 
L 475.512917 182.339227 
L 476.155663 181.301503 
L 476.798401 181.249075 
L 477.441143 181.525124 
L 478.083885 180.604629 
L 478.726627 181.211262 
L 479.380077 180.902295 
L 480.012108 179.797897 
L 480.65485 181.3484 
L 481.297592 180.96329 
L 481.940331 183.032815 
L 482.583073 182.636317 
L 483.225811 184.734796 
L 483.868553 185.87862 
L 484.511299 184.842252 
L 485.154037 188.543583 
L 485.796776 184.064501 
L 486.439518 185.689939 
L 487.08226 184.955388 
L 487.725002 185.179483 
L 488.367741 186.236794 
L 489.010483 186.149072 
L 489.653225 185.336934 
L 490.295963 185.435635 
L 490.949417 183.495327 
L 491.581448 185.283776 
L 492.22419 187.601058 
L 492.866928 184.153496 
L 493.50967 183.795387 
L 494.152412 183.23091 
L 494.795155 181.546965 
L 495.437897 182.457989 
L 496.080635 185.59604 
L 496.723373 178.913399 
L 497.366119 181.883089 
L 498.008862 185.459502 
L 499.305054 180.762215 
L 499.93708 184.918057 
L 500.590538 182.672936 
L 501.222565 181.293957 
L 501.865307 184.846746 
L 502.508045 184.158308 
L 503.150787 181.948844 
L 503.79353 184.115693 
L 504.436272 183.282125 
L 505.07901 184.183638 
L 505.732464 182.305787 
L 506.364494 182.007728 
L 507.017948 181.385371 
L 507.649975 180.944409 
L 508.292721 182.321416 
L 508.946171 181.671455 
L 509.588913 181.66747 
L 510.22094 182.249115 
L 510.863686 182.239138 
L 511.506424 180.54106 
L 512.149162 181.344817 
L 512.791904 181.552153 
L 513.434647 181.92953 
L 514.077389 182.541949 
L 514.720131 184.004818 
L 515.362869 183.150641 
L 516.005608 182.95331 
L 516.64835 183.549782 
L 517.291096 184.820525 
L 517.933834 185.689189 
L 518.576572 185.734086 
L 519.219318 183.747538 
L 519.862057 182.856003 
L 520.504799 183.34478 
L 521.158253 185.524044 
L 521.790283 183.128076 
L 522.433022 183.640679 
L 523.07576 184.400742 
L 524.361248 183.446899 
L 525.003986 183.260944 
L 525.646729 182.794743 
L 527.574951 181.993449 
L 528.217693 182.693681 
L 528.860432 181.708362 
L 529.503174 182.778044 
L 530.156628 182.234095 
L 530.788658 180.447153 
L 531.431396 180.45103 
L 532.074139 179.674491 
L 532.716881 179.744002 
L 533.370335 180.909881 
L 534.002361 180.59659 
L 534.645103 179.003254 
L 535.298557 179.002484 
L 535.930584 179.225548 
L 536.57333 178.865238 
L 537.216068 179.324384 
L 537.85881 180.131962 
L 538.501553 178.368996 
L 539.144291 177.01028 
L 539.787033 177.891728 
L 540.429775 180.592966 
L 541.072517 178.981274 
L 541.715256 178.691702 
L 542.357994 178.228057 
L 543.00074 176.105451 
L 543.643482 177.152307 
L 544.286221 177.05106 
L 544.928963 176.590641 
L 545.571705 177.352393 
L 546.214443 176.405307 
L 546.857185 177.409995 
L 547.499928 174.39564 
L 548.153381 174.795772 
L 548.785408 176.602369 
L 549.42815 175.371981 
L 550.070892 176.906301 
L 550.713631 174.151907 
L 551.356373 175.158323 
L 551.999115 177.615752 
L 552.641853 181.928633 
L 553.284595 177.788778 
L 553.938049 174.880966 
L 554.57008 181.699941 
L 555.212818 177.916779 
L 555.85556 177.345167 
L 556.509018 177.227378 
L 557.141045 179.329272 
L 557.783783 179.773262 
L 558.426525 183.593076 
L 559.079979 184.20966 
L 559.712006 186.082659 
L 560.354752 179.425297 
L 560.99749 174.868552 
L 561.640232 182.370386 
L 562.282974 181.120062 
L 563.568455 177.869062 
L 564.211193 177.443725 
L 564.864647 177.704876 
L 565.496677 175.679184 
L 566.13942 174.829515 
L 566.782162 174.662759 
L 567.424904 173.742009 
L 568.067642 174.07701 
L 568.710384 173.153521 
L 569.353127 174.925342 
L 570.00658 174.200167 
L 570.638607 174.647959 
L 571.281349 174.112843 
L 573.209576 173.676168 
L 574.495052 172.207336 
L 575.137794 173.095544 
L 575.780537 171.778919 
L 576.423279 171.904469 
L 577.066017 172.151841 
L 578.351501 170.30295 
L 578.99424 169.877088 
L 579.636986 167.883021 
L 580.279724 166.869612 
L 580.922466 166.807397 
L 581.565205 166.996703 
L 582.207947 164.105974 
L 582.850689 158.192438 
L 583.493431 153.677486 
L 584.136173 148.204783 
L 584.853897 149.907636 
L 585.496639 138.774176 
L 586.139385 149.103422 
L 586.782124 145.568909 
L 587.424862 149.449778 
L 588.067604 147.858193 
L 588.710346 149.304581 
L 589.353088 148.375019 
L 589.931553 149.333727 
L 590.638569 149.364621 
L 591.281311 149.562207 
L 591.924049 148.827145 
L 592.566795 148.820127 
L 593.209534 147.826471 
L 593.852276 147.12832 
L 595.137756 144.018122 
L 595.780499 142.661348 
L 596.423241 143.689525 
L 597.065983 143.047805 
L 597.708721 145.059857 
L 598.35146 142.567045 
L 598.994205 144.067444 
L 599.636948 144.303097 
L 600.922424 143.628769 
L 601.56517 143.797217 
L 602.207909 144.712438 
L 602.850651 143.514629 
L 603.493393 144.218491 
L 604.778873 144.482813 
L 605.421616 143.919772 
L 606.707096 144.270852 
L 607.349838 143.278627 
L 607.99258 144.052118 
L 608.635319 143.397935 
L 609.278061 144.351053 
L 609.920807 143.570015 
L 610.563545 144.501726 
L 611.206284 144.074355 
L 611.849026 143.465572 
L 612.491772 144.061627 
L 613.13451 144.494447 
L 613.777248 143.391925 
L 614.419991 144.170813 
L 615.705475 144.518726 
L 616.348217 144.201014 
L 616.990955 144.386884 
L 617.633698 144.238108 
L 618.276436 144.394679 
L 619.56192 144.131992 
L 620.204659 144.355088 
L 621.490143 144.290633 
L 622.132885 144.711473 
L 622.636364 144.307413 
L 622.636364 144.307413 
" clip-path="url(#p69595d84e5)" style="fill: none; stroke: #800080; stroke-width: 2.5; stroke-linecap: square"/>
   </g>
   <g id="line2d_32">
    <path d="M 115.363636 210.82874 
L 116.006378 210.897457 
L 116.659832 209.005767 
L 117.291862 208.170294 
L 117.934601 208.069029 
L 118.577339 208.397983 
L 119.220085 208.091203 
L 119.862827 207.342956 
L 120.505566 209.341145 
L 121.148304 210.385456 
L 121.801758 209.52933 
L 122.433788 209.831014 
L 123.07653 208.971055 
L 123.72998 209.109276 
L 124.362011 208.306609 
L 125.015465 208.382808 
L 125.647495 209.349981 
L 126.290237 208.200737 
L 126.932976 207.898146 
L 128.229168 206.900743 
L 128.871914 207.924243 
L 129.503941 208.451197 
L 130.146683 208.490484 
L 131.432163 208.172856 
L 132.717648 209.879364 
L 133.36039 209.772711 
L 134.003128 209.193746 
L 134.64587 210.076392 
L 135.288612 211.731655 
L 135.931355 212.992114 
L 136.574093 213.549445 
L 137.216835 214.299715 
L 137.859573 216.352931 
L 139.145061 216.813732 
L 139.7878 215.569129 
L 140.430538 218.267174 
L 141.07328 218.340653 
L 141.716022 215.996618 
L 142.358765 218.392586 
L 143.001507 217.601619 
L 143.644245 215.070887 
L 144.286987 216.412978 
L 144.929726 216.229366 
L 145.583179 216.84828 
L 146.21521 217.696154 
L 146.857952 218.118848 
L 148.154148 216.529621 
L 148.786175 215.928855 
L 149.428917 217.377564 
L 150.071659 215.153338 
L 150.714397 215.793709 
L 151.367851 213.939809 
L 151.999882 214.320167 
L 152.653336 216.245555 
L 153.928104 215.522176 
L 155.2243 216.484405 
L 155.856327 215.377983 
L 156.499069 213.009348 
L 157.152523 213.901411 
L 157.78455 213.518997 
L 158.427296 211.526676 
L 159.08075 212.795724 
L 159.712772 215.489474 
L 160.355515 210.804375 
L 160.998257 212.106097 
L 161.640999 212.985309 
L 162.283737 211.6286 
L 162.926483 212.105192 
L 163.569221 213.580154 
L 164.21196 210.414102 
L 164.854706 211.293353 
L 165.50816 209.069102 
L 166.140186 208.392232 
L 166.782928 209.587347 
L 168.068409 206.844935 
L 168.711151 206.508877 
L 169.364601 205.524925 
L 169.996632 204.979276 
L 170.639374 205.83685 
L 171.292828 204.427569 
L 171.924858 207.154821 
L 172.567596 210.431367 
L 173.22105 210.210588 
L 173.853081 208.460659 
L 174.506535 207.71012 
L 175.138561 208.26849 
L 175.781303 206.416873 
L 176.424046 203.173352 
L 177.066784 204.226088 
L 177.709526 200.407048 
L 178.352268 200.739576 
L 178.99501 198.958909 
L 179.64846 199.72308 
L 180.923229 200.693904 
L 181.565971 200.831116 
L 182.208717 202.73193 
L 182.851456 202.703667 
L 183.494194 202.389699 
L 184.136936 202.52762 
L 184.779678 201.050607 
L 185.422421 198.97828 
L 186.065159 196.260727 
L 186.718613 198.551866 
L 187.350643 193.1628 
L 187.993385 192.695588 
L 188.636127 192.599316 
L 189.278866 191.467485 
L 189.921608 192.63342 
L 190.56435 192.536015 
L 191.217804 188.8784 
L 191.849831 190.557866 
L 192.503284 191.013615 
L 193.135315 194.106236 
L 193.778053 198.965546 
L 194.420795 199.488835 
L 195.70628 205.011946 
L 196.349018 205.31991 
L 197.002472 205.422767 
L 197.634502 204.584749 
L 198.277245 204.835267 
L 198.930695 205.493309 
L 199.573437 204.443176 
L 200.205467 207.091075 
L 200.848206 206.232903 
L 201.490948 206.351036 
L 202.13369 205.494806 
L 202.776432 206.426073 
L 203.429882 205.281378 
L 204.061913 205.619853 
L 204.704655 205.077802 
L 205.347393 205.040457 
L 205.990139 204.393222 
L 206.632877 204.89989 
L 207.929073 203.790001 
L 208.561104 204.738528 
L 209.203842 203.613917 
L 209.846581 203.235864 
L 210.489323 204.299731 
L 211.132065 203.58281 
L 211.849792 203.760557 
L 213.135273 205.646945 
L 214.420757 204.314469 
L 215.063499 201.941681 
L 215.706238 194.950038 
L 216.34898 196.366164 
L 216.991722 194.523498 
L 217.634464 194.789892 
L 218.277203 193.812093 
L 218.919949 193.731284 
L 219.562687 193.192627 
L 220.205425 193.116283 
L 220.848167 193.546307 
L 221.490913 192.223331 
L 222.133652 193.121385 
L 222.77639 188.492565 
L 223.419132 189.210137 
L 224.061874 188.250065 
L 224.704617 189.863748 
L 225.347359 189.069656 
L 225.990097 186.513013 
L 226.632839 187.137145 
L 227.275578 187.395083 
L 227.918324 186.126865 
L 228.561062 188.042161 
L 229.2038 187.285165 
L 229.846546 186.010578 
L 230.489285 187.261173 
L 231.067753 187.787277 
L 231.774769 186.357191 
L 232.417511 187.01399 
L 233.060249 187.955426 
L 233.702991 190.114579 
L 234.345734 189.732953 
L 234.988476 186.432088 
L 235.631214 188.303407 
L 236.916698 191.156325 
L 237.559441 185.477933 
L 238.202179 186.806243 
L 238.844921 190.713214 
L 240.130402 186.642522 
L 240.773148 186.434289 
L 241.415886 186.062191 
L 242.058624 188.582829 
L 242.70137 188.642508 
L 243.344109 188.221468 
L 243.986851 189.223698 
L 245.272331 187.184139 
L 245.915073 187.662123 
L 246.557812 187.807758 
L 247.200558 186.397059 
L 247.843296 185.898939 
L 248.486038 189.347863 
L 249.12878 186.60286 
L 249.771519 187.97336 
L 250.414261 188.863755 
L 251.057003 187.652321 
L 251.699745 188.429729 
L 252.342484 187.753108 
L 252.985222 186.70011 
L 253.627968 189.418635 
L 254.27071 188.196636 
L 254.913448 189.898466 
L 255.55619 189.631501 
L 256.198933 188.654074 
L 256.841671 189.210241 
L 257.484413 191.210562 
L 258.127155 187.718143 
L 258.769897 187.598427 
L 259.412636 186.099064 
L 260.055378 188.008155 
L 260.69812 187.558469 
L 261.340858 186.7815 
L 261.983601 186.444321 
L 262.626343 185.785948 
L 263.911823 186.329446 
L 264.554569 186.149825 
L 265.197308 186.971855 
L 265.840046 185.388339 
L 266.482792 186.850493 
L 267.125534 185.03548 
L 267.768272 186.186342 
L 268.411011 184.579182 
L 269.053753 186.599248 
L 269.696495 180.18991 
L 270.339237 206.742343 
L 270.981979 188.557908 
L 271.624718 189.048145 
L 272.26746 192.504241 
L 272.910202 191.035752 
L 273.552944 191.13589 
L 274.195683 193.212068 
L 274.838425 191.336667 
L 275.481167 193.434283 
L 276.123905 197.141315 
L 276.766647 198.93631 
L 277.409389 199.042843 
L 278.052132 200.567418 
L 278.69487 201.761618 
L 279.337612 195.4687 
L 279.980354 195.065701 
L 280.623096 198.717947 
L 281.265835 200.92735 
L 281.908577 199.467926 
L 282.551315 197.444737 
L 283.194057 196.690672 
L 283.836803 197.707478 
L 285.12228 194.938347 
L 285.765022 197.231589 
L 286.407764 197.981199 
L 287.050507 200.796321 
L 287.693245 202.793627 
L 288.335991 201.70184 
L 288.978729 200.849662 
L 289.621468 197.677919 
L 290.264214 196.325173 
L 290.906956 194.373429 
L 292.192432 189.997298 
L 292.835175 192.510084 
L 293.477917 199.573207 
L 294.120659 195.447967 
L 294.763401 194.67882 
L 295.406139 195.546587 
L 296.048882 197.272948 
L 296.691624 197.573308 
L 297.334366 197.266709 
L 297.977104 194.520729 
L 298.619843 194.40612 
L 299.262589 194.56346 
L 299.905331 195.200417 
L 300.548069 194.502093 
L 301.190811 194.756766 
L 301.833553 194.024934 
L 302.476292 193.482749 
L 303.119034 192.51068 
L 303.761776 193.369331 
L 304.404518 192.447531 
L 305.047256 194.644936 
L 305.689999 193.572563 
L 306.332741 194.024774 
L 306.975483 194.228653 
L 308.260963 192.361813 
L 308.903702 192.436427 
L 309.546444 192.122429 
L 310.18919 192.962404 
L 310.831928 193.066661 
L 311.474667 191.189898 
L 312.117409 192.705889 
L 312.760151 193.182999 
L 313.402893 192.006663 
L 314.045635 193.298073 
L 314.688374 193.224186 
L 315.331116 192.934484 
L 315.973854 193.628603 
L 316.6166 194.763279 
L 317.259338 194.322538 
L 317.902081 196.110401 
L 318.544823 198.799179 
L 319.187561 203.472961 
L 319.830303 203.417742 
L 320.473045 200.815104 
L 321.115788 200.177975 
L 321.758526 202.47115 
L 322.401264 203.535729 
L 323.044014 203.0925 
L 323.686752 201.559321 
L 324.329491 197.443693 
L 324.972233 197.990598 
L 325.614975 199.815146 
L 326.257717 197.63081 
L 326.900455 199.97191 
L 327.543198 199.356455 
L 328.185936 199.764756 
L 328.828678 198.358062 
L 329.471424 199.910759 
L 330.114162 200.266109 
L 330.756901 198.727561 
L 331.399647 198.240014 
L 332.042385 198.955869 
L 332.685127 198.766219 
L 333.327866 198.162804 
L 333.970612 197.393631 
L 334.61335 197.629812 
L 335.256088 198.060916 
L 335.898834 197.278892 
L 336.541576 196.992814 
L 337.184315 197.100382 
L 337.827057 196.803427 
L 338.469795 197.181478 
L 339.112537 197.0844 
L 339.75528 198.36103 
L 341.04076 199.280107 
L 341.683498 199.005595 
L 342.326244 198.403107 
L 342.968987 195.894739 
L 343.611725 197.688992 
L 344.254467 198.141195 
L 344.972195 196.913119 
L 346.257675 198.498713 
L 346.900421 197.218287 
L 347.543159 198.140179 
L 348.185898 197.891856 
L 348.828644 197.452108 
L 349.471382 197.955713 
L 350.114124 197.376671 
L 350.756866 196.010925 
L 351.399605 195.796768 
L 352.042347 191.568378 
L 352.685089 190.467714 
L 353.327831 189.674818 
L 353.959858 189.878727 
L 354.613308 188.298003 
L 355.256054 188.689773 
L 356.541534 185.416022 
L 357.173565 184.19723 
L 357.827019 185.469033 
L 358.469757 185.036584 
L 359.112499 183.860889 
L 359.755241 183.259501 
L 360.397984 184.943835 
L 361.040722 183.238932 
L 361.683464 183.706033 
L 362.326206 184.739222 
L 362.968948 182.97361 
L 363.611687 184.80338 
L 364.897167 181.159016 
L 365.539909 183.392447 
L 366.182655 182.913792 
L 366.825394 182.913947 
L 367.468132 183.103722 
L 368.110874 182.393319 
L 368.753616 182.437465 
L 369.396358 180.853859 
L 370.039097 181.650602 
L 370.681839 180.805077 
L 371.324581 181.294689 
L 371.967323 182.105971 
L 372.610065 180.784392 
L 373.252804 181.287193 
L 373.895546 181.307261 
L 374.538288 181.062159 
L 375.18103 181.064974 
L 375.823769 179.773712 
L 376.466511 179.650554 
L 377.109253 185.489498 
L 377.751991 180.969231 
L 378.394733 182.543902 
L 379.037476 180.621968 
L 379.680218 179.550352 
L 380.322956 181.204381 
L 380.965698 181.078479 
L 381.60844 180.720451 
L 382.251183 183.543912 
L 382.893921 181.586731 
L 384.179401 181.448081 
L 384.822144 180.252465 
L 385.46489 179.624447 
L 386.107628 179.69339 
L 386.750366 179.174545 
L 387.393108 179.170783 
L 388.035851 179.420637 
L 388.678593 181.032582 
L 389.321331 180.20979 
L 389.964077 181.260699 
L 390.606815 181.54849 
L 391.249554 180.648874 
L 391.8923 180.367757 
L 392.535042 182.265011 
L 393.17778 183.396137 
L 393.820518 181.178487 
L 394.463261 181.723096 
L 395.106003 182.826681 
L 395.748745 186.23246 
L 396.391487 186.014146 
L 397.034225 186.26634 
L 397.676964 185.259394 
L 398.31971 186.248515 
L 398.962452 186.875614 
L 399.60519 186.71674 
L 400.247929 187.201275 
L 400.890675 186.709479 
L 401.533417 187.283058 
L 402.176155 186.206091 
L 402.818897 185.700351 
L 403.461639 186.719823 
L 404.104378 186.288388 
L 404.74712 185.3932 
L 405.389862 186.120056 
L 406.032604 184.917846 
L 406.675343 185.325697 
L 407.318085 184.886907 
L 407.960827 184.939698 
L 408.603569 182.901988 
L 409.246311 184.483091 
L 409.88905 181.658531 
L 410.531788 195.250318 
L 411.17453 177.616182 
L 411.817276 184.411715 
L 413.102753 182.980381 
L 413.745495 185.939384 
L 414.388237 184.40299 
L 415.030979 185.082547 
L 415.673721 189.214535 
L 416.31646 188.300196 
L 416.959202 189.851151 
L 417.60194 187.850427 
L 418.244686 190.289695 
L 418.887424 189.730571 
L 419.530167 191.584046 
L 420.172909 192.286783 
L 420.815647 191.74224 
L 421.458389 189.329813 
L 422.101131 190.726391 
L 422.743874 191.213207 
L 423.386612 192.508989 
L 424.02935 190.975459 
L 424.672096 191.274188 
L 425.314838 191.936691 
L 425.957577 191.458216 
L 426.600319 189.635698 
L 427.243061 191.763165 
L 427.885799 190.041055 
L 428.528542 192.775312 
L 429.171284 194.239348 
L 429.814022 193.500133 
L 430.456764 191.928077 
L 431.09951 193.833373 
L 431.742249 189.982171 
L 434.313213 191.032252 
L 434.955952 190.920161 
L 435.598698 189.209669 
L 436.241436 188.695966 
L 436.884174 191.114076 
L 438.169662 189.964783 
L 438.812401 187.855891 
L 439.455143 187.30144 
L 440.097881 188.274338 
L 441.383366 190.682682 
L 442.026108 189.267201 
L 442.668846 190.754344 
L 443.311588 191.493725 
L 443.95433 189.660334 
L 444.597073 187.446002 
L 445.239811 187.100407 
L 445.882553 186.349698 
L 447.168034 189.043684 
L 447.810776 186.938745 
L 448.453518 188.881014 
L 449.09626 189.723113 
L 449.738998 187.330127 
L 450.381741 186.996615 
L 451.024483 189.743397 
L 452.309963 188.191994 
L 452.952705 189.002715 
L 453.595444 190.091463 
L 454.238186 190.292748 
L 454.880932 189.605018 
L 455.52367 188.698013 
L 456.230686 188.504344 
L 456.809155 188.895787 
L 457.451893 188.662761 
L 458.094635 189.239272 
L 458.737373 188.523936 
L 459.380119 187.52592 
L 460.022858 187.729636 
L 460.6656 187.167314 
L 461.308342 187.346452 
L 461.95108 188.530177 
L 462.593822 187.85403 
L 463.300838 188.212875 
L 463.879307 189.163741 
L 464.522045 187.963995 
L 465.164787 188.182888 
L 465.807529 189.505341 
L 466.450268 188.860687 
L 467.09301 188.014393 
L 467.735752 188.999207 
L 468.378494 188.381287 
L 469.021233 190.067676 
L 469.663975 189.297901 
L 470.306717 189.691092 
L 470.949459 189.413307 
L 471.592197 189.74587 
L 472.23494 190.801373 
L 472.941952 190.240606 
L 473.584698 190.051226 
L 474.227436 189.50205 
L 474.870178 190.105495 
L 475.512917 189.941157 
L 476.155663 189.637788 
L 476.798401 190.13828 
L 477.441143 188.913193 
L 478.083885 190.361156 
L 478.726627 190.472421 
L 479.380077 188.937987 
L 480.012108 189.981619 
L 480.65485 190.411837 
L 481.297592 190.280239 
L 481.940331 190.922572 
L 482.583073 191.290804 
L 483.225811 192.021832 
L 483.868553 190.844972 
L 484.511299 191.964497 
L 485.154037 191.213875 
L 485.796776 189.026713 
L 486.439518 188.147776 
L 487.08226 185.598859 
L 487.725002 186.375791 
L 488.367741 183.990947 
L 489.010483 185.39943 
L 489.653225 182.274557 
L 490.295963 182.642695 
L 491.581448 180.65707 
L 492.22419 181.3735 
L 492.866928 181.377938 
L 493.50967 178.534781 
L 494.152412 178.111071 
L 494.795155 178.007132 
L 495.437897 180.521631 
L 496.080635 179.504755 
L 496.723373 177.602651 
L 497.366119 176.595487 
L 498.008862 179.672276 
L 498.6516 178.58071 
L 499.305054 179.564207 
L 499.93708 178.471752 
L 501.222565 178.734989 
L 501.865307 178.371242 
L 502.508045 177.587456 
L 503.150787 178.131992 
L 503.79353 176.289601 
L 504.436272 177.110322 
L 505.07901 180.283146 
L 505.732464 176.291769 
L 506.364494 176.031208 
L 507.017948 176.182189 
L 507.649975 176.627777 
L 508.292721 177.289507 
L 508.946171 176.551799 
L 510.22094 176.725958 
L 510.863686 176.088086 
L 511.506424 175.049231 
L 512.149162 174.911176 
L 512.791904 176.014562 
L 513.434647 176.041433 
L 514.077389 176.305083 
L 514.720131 177.911711 
L 515.362869 177.140595 
L 516.005608 177.342666 
L 516.64835 178.7792 
L 517.291096 179.054617 
L 517.933834 178.285081 
L 518.576572 179.270606 
L 519.219318 178.411142 
L 519.862057 177.115094 
L 520.504799 178.310677 
L 521.158253 178.510904 
L 521.790283 179.391774 
L 523.07576 177.975355 
L 523.729218 180.772475 
L 524.361248 178.478415 
L 525.003986 179.56284 
L 525.646729 178.169493 
L 526.289467 177.360407 
L 526.932209 179.39316 
L 527.574951 178.501795 
L 528.217693 178.165838 
L 528.860432 178.161607 
L 530.156628 176.712843 
L 531.431396 176.153324 
L 532.074139 175.328867 
L 532.716881 175.873412 
L 533.370335 174.370323 
L 534.002361 176.88793 
L 534.645103 175.761509 
L 535.298557 174.266583 
L 535.930584 174.873786 
L 536.57333 174.862657 
L 537.216068 175.168937 
L 537.85881 174.22579 
L 538.501553 174.897251 
L 539.144291 174.061067 
L 539.787033 172.92908 
L 540.429775 174.102338 
L 541.072517 174.880526 
L 541.715256 172.834958 
L 542.357994 172.852385 
L 543.00074 172.209498 
L 543.643482 172.795659 
L 544.928963 170.050703 
L 545.571705 171.300898 
L 546.214443 172.004704 
L 546.857185 170.39909 
L 547.499928 169.730894 
L 548.785408 170.899871 
L 549.42815 171.883506 
L 550.070892 171.092812 
L 550.713631 169.186063 
L 551.356373 170.01137 
L 551.999115 166.182885 
L 552.641853 189.580041 
L 553.938049 170.521026 
L 554.57008 174.139056 
L 555.212818 172.271818 
L 556.509018 176.817135 
L 557.141045 178.254847 
L 557.783783 180.11314 
L 558.426525 183.800227 
L 559.079979 184.468181 
L 559.712006 184.424733 
L 560.99749 181.149013 
L 561.640232 185.576766 
L 562.925713 182.91112 
L 563.568455 184.675042 
L 564.211193 182.796931 
L 566.13942 179.89454 
L 567.424904 179.63522 
L 568.067642 179.065688 
L 568.710384 178.8858 
L 570.00658 180.723663 
L 570.638607 181.034911 
L 571.281349 179.680533 
L 571.924088 179.898126 
L 572.56683 179.970289 
L 573.209576 179.022703 
L 573.852314 179.121567 
L 574.495052 179.523653 
L 575.137794 178.332057 
L 575.780537 177.398829 
L 576.423279 177.770964 
L 577.066017 178.401634 
L 577.719471 178.665682 
L 578.351501 177.381027 
L 579.636986 173.720901 
L 580.279724 174.405338 
L 580.922466 175.283985 
L 581.565205 174.075125 
L 582.207947 171.12945 
L 582.850689 165.419205 
L 583.493431 162.436205 
L 584.136173 155.883796 
L 584.853897 151.22475 
L 585.496639 137.766581 
L 586.139385 155.841605 
L 586.782124 159.742675 
L 587.424862 162.68352 
L 588.067604 159.589127 
L 589.353088 164.172546 
L 589.931553 165.247136 
L 590.638569 164.23361 
L 591.281311 163.741104 
L 591.924049 163.46096 
L 593.209534 160.173907 
L 593.852276 155.090975 
L 594.495014 153.338319 
L 595.137756 152.85397 
L 595.780499 151.129343 
L 596.423241 150.544751 
L 597.065983 149.676059 
L 597.708721 150.312739 
L 598.35146 151.855052 
L 598.994205 150.70033 
L 599.636948 150.372863 
L 600.279686 150.215051 
L 600.922424 151.588368 
L 601.56517 150.645425 
L 602.207909 150.422207 
L 602.850651 150.937347 
L 603.493393 151.753014 
L 604.778873 151.041602 
L 605.421616 151.294053 
L 606.064358 151.851286 
L 606.707096 151.091316 
L 607.349838 151.077517 
L 607.99258 151.292813 
L 608.635319 151.197517 
L 609.278061 151.659216 
L 609.920807 151.04979 
L 610.563545 151.281407 
L 611.849026 151.39718 
L 612.491772 150.917432 
L 613.13451 151.353979 
L 613.777248 151.13726 
L 615.062733 151.35031 
L 617.633698 150.999187 
L 618.919182 151.312126 
L 620.204659 151.405269 
L 620.847404 151.217365 
L 621.490143 151.686819 
L 622.132885 151.519362 
L 622.636364 150.859725 
L 622.636364 150.859725 
" clip-path="url(#p69595d84e5)" style="fill: none; stroke: #dc143c; stroke-width: 2.5; stroke-linecap: square"/>
   </g>
   <g id="line2d_33">
    <path d="M 115.363636 146.895866 
L 116.659832 147.452325 
L 117.291862 147.600722 
L 117.934601 147.41681 
L 119.220085 147.466591 
L 119.862827 147.79772 
L 120.505566 147.988321 
L 121.801758 148.839712 
L 122.433788 148.327864 
L 123.07653 148.743091 
L 123.72998 148.351281 
L 124.362011 148.532199 
L 125.015465 147.922625 
L 125.647495 147.808495 
L 126.290237 148.119869 
L 128.229168 148.032874 
L 128.871914 147.93678 
L 129.503941 148.194007 
L 131.432163 148.265872 
L 132.074905 148.017815 
L 132.717648 148.15567 
L 133.36039 147.666316 
L 134.003128 147.74244 
L 134.64587 147.425173 
L 135.288612 145.623415 
L 135.931355 145.922586 
L 136.574093 144.56656 
L 137.216835 144.349312 
L 138.502316 144.678992 
L 139.145061 144.025208 
L 139.7878 144.547634 
L 140.430538 146.128538 
L 141.07328 146.366864 
L 141.716022 147.499814 
L 142.358765 146.779654 
L 143.644245 147.032769 
L 144.286987 146.964539 
L 144.929726 147.132941 
L 145.583179 147.494201 
L 146.21521 147.02337 
L 146.857952 147.463503 
L 147.500694 147.15092 
L 148.154148 147.647903 
L 148.786175 147.154961 
L 149.428917 147.373794 
L 150.714397 147.359739 
L 151.367851 147.740017 
L 151.999882 147.271841 
L 153.285362 147.368021 
L 154.581558 147.823394 
L 156.499069 150.124847 
L 158.427296 150.84423 
L 159.08075 149.359095 
L 159.712772 149.619888 
L 160.355515 148.242385 
L 160.998257 147.208092 
L 161.640999 146.542004 
L 162.283737 146.764394 
L 162.926483 146.454198 
L 163.569221 145.539413 
L 164.21196 145.824217 
L 165.50816 146.084898 
L 166.140186 146.016243 
L 166.782928 146.338594 
L 167.425667 146.354208 
L 168.068409 146.486519 
L 168.711151 145.72956 
L 169.996632 145.492273 
L 170.639374 145.592293 
L 171.292828 146.029372 
L 171.924858 145.490106 
L 173.22105 145.416187 
L 174.506535 144.987063 
L 175.138561 144.432623 
L 175.781303 144.448534 
L 176.424046 143.308043 
L 177.066784 141.689961 
L 177.709526 141.789889 
L 178.99501 140.558877 
L 179.64846 139.804005 
L 180.280491 137.970214 
L 180.923229 136.984905 
L 181.565971 137.253521 
L 182.208717 138.007734 
L 182.851456 137.279795 
L 183.494194 136.275748 
L 184.136936 134.602298 
L 184.779678 134.957822 
L 185.422421 134.660763 
L 186.718613 133.275744 
L 187.350643 133.930478 
L 187.993385 133.406982 
L 188.636127 133.731573 
L 189.278866 133.262755 
L 189.921608 134.051613 
L 190.56435 133.93189 
L 191.217804 134.332937 
L 191.849831 135.031011 
L 192.503284 135.258563 
L 193.778053 136.617151 
L 195.063538 139.219481 
L 195.70628 139.52376 
L 196.349018 139.564701 
L 197.634502 140.019911 
L 198.277245 140.554278 
L 198.930695 140.529877 
L 200.205467 139.949259 
L 200.848206 140.068355 
L 202.13369 140.623478 
L 202.776432 140.33577 
L 203.429882 140.900497 
L 204.704655 141.492034 
L 205.347393 141.382075 
L 206.632877 141.705245 
L 208.561104 143.679894 
L 209.846581 143.436338 
L 210.489323 143.529981 
L 211.132065 143.883249 
L 211.849792 143.847468 
L 212.492535 143.258411 
L 213.135273 144.167683 
L 213.778015 143.448199 
L 214.420757 143.116198 
L 215.063499 142.271002 
L 215.706238 142.974524 
L 216.34898 141.49064 
L 216.991722 140.299126 
L 218.277203 138.875537 
L 218.919949 137.250837 
L 219.562687 137.804688 
L 220.205425 136.651508 
L 220.848167 136.908145 
L 221.490913 136.16895 
L 222.133652 135.780576 
L 222.77639 135.663231 
L 223.419132 135.960752 
L 224.061874 134.811708 
L 225.347359 133.695362 
L 225.990097 133.819967 
L 226.632839 133.422282 
L 227.275578 132.838075 
L 227.918324 134.308175 
L 228.561062 134.19492 
L 229.2038 134.648362 
L 229.846546 133.975253 
L 230.489285 133.985966 
L 231.067753 132.992316 
L 231.774769 134.135246 
L 232.417511 134.91238 
L 233.060249 133.829782 
L 233.702991 133.957752 
L 234.345734 134.863678 
L 234.988476 134.660394 
L 235.631214 134.235468 
L 236.273956 134.620978 
L 236.916698 134.346713 
L 237.559441 135.607667 
L 238.202179 134.74446 
L 238.844921 135.596696 
L 239.487659 134.457251 
L 240.130402 136.338855 
L 240.773148 136.410271 
L 241.415886 136.296561 
L 242.058624 136.696252 
L 242.70137 136.612832 
L 243.344109 136.071602 
L 243.986851 136.826155 
L 244.629589 136.967706 
L 245.272331 136.52637 
L 245.915073 137.711364 
L 246.557812 137.535328 
L 247.200558 137.801075 
L 247.843296 138.971272 
L 248.486038 138.046168 
L 249.12878 138.278074 
L 249.771519 139.086891 
L 250.414261 138.594651 
L 251.057003 137.906994 
L 251.699745 138.825135 
L 252.342484 139.011543 
L 252.985222 139.33283 
L 253.627968 138.420395 
L 254.27071 138.184878 
L 255.55619 138.452219 
L 256.198933 138.258024 
L 257.484413 138.376143 
L 258.769897 139.333915 
L 259.412636 140.274542 
L 260.055378 139.104891 
L 260.69812 139.501566 
L 261.340858 139.113427 
L 261.983601 139.776863 
L 262.626343 139.518391 
L 263.269085 139.717479 
L 265.197308 139.097972 
L 265.840046 138.693528 
L 266.482792 138.129366 
L 267.125534 138.448308 
L 268.411011 138.587858 
L 269.053753 138.870493 
L 269.696495 138.328229 
L 270.339237 129.184184 
L 270.981979 140.910972 
L 271.624718 141.448949 
L 272.26746 143.008543 
L 272.910202 143.231949 
L 273.552944 142.54113 
L 274.838425 143.828135 
L 275.481167 143.736671 
L 276.123905 142.88295 
L 276.766647 143.308551 
L 277.409389 145.032528 
L 278.052132 144.371962 
L 278.69487 144.062545 
L 279.337612 144.595734 
L 279.980354 144.618874 
L 280.623096 143.883735 
L 281.265835 143.4242 
L 281.908577 143.856931 
L 283.194057 145.567515 
L 283.836803 145.240839 
L 284.479542 145.616949 
L 285.12228 146.556189 
L 285.765022 147.207205 
L 286.407764 147.618562 
L 287.050507 147.504556 
L 287.693245 147.734018 
L 288.335991 147.296583 
L 288.978729 147.279849 
L 289.621468 148.815819 
L 290.264214 148.475706 
L 290.906956 148.890587 
L 291.549694 147.734951 
L 292.192432 147.800191 
L 292.835175 149.346152 
L 293.477917 147.193048 
L 294.120659 147.430815 
L 294.763401 147.396216 
L 295.406139 146.964384 
L 296.048882 145.931171 
L 296.691624 145.829187 
L 297.334366 146.862825 
L 297.977104 146.407643 
L 298.619843 146.098599 
L 299.262589 145.175367 
L 299.905331 145.207128 
L 300.548069 145.05348 
L 301.190811 144.727404 
L 301.833553 144.919 
L 302.476292 144.491677 
L 303.119034 144.503448 
L 303.761776 143.679167 
L 304.404518 144.348511 
L 305.047256 144.351173 
L 305.689999 144.635265 
L 306.332741 145.613088 
L 306.975483 144.987351 
L 308.903702 146.139937 
L 309.546444 146.018114 
L 310.18919 145.633226 
L 310.831928 145.609701 
L 312.760151 144.941238 
L 313.402893 145.617087 
L 314.045635 144.6313 
L 314.688374 145.177638 
L 315.331116 144.579818 
L 315.973854 144.494657 
L 316.6166 144.527573 
L 317.259338 144.417064 
L 317.902081 144.664788 
L 318.544823 146.113563 
L 319.187561 145.840881 
L 319.830303 144.342869 
L 320.473045 144.096915 
L 321.115788 141.948231 
L 321.758526 140.540123 
L 322.401264 140.194399 
L 323.044014 138.570391 
L 324.329491 139.584495 
L 324.972233 139.676458 
L 325.614975 140.07201 
L 326.257717 141.162354 
L 326.900455 140.899648 
L 328.185936 141.817304 
L 328.828678 142.800538 
L 330.114162 142.640876 
L 331.399647 143.554981 
L 332.042385 143.427412 
L 332.685127 143.024919 
L 333.327866 143.393223 
L 333.970612 143.597949 
L 334.61335 142.83834 
L 335.256088 143.267361 
L 336.541576 142.844402 
L 337.184315 143.378179 
L 337.827057 143.070344 
L 338.469795 143.035165 
L 339.112537 143.502527 
L 339.75528 143.235521 
L 340.398022 143.165463 
L 341.683498 142.499416 
L 342.326244 141.706574 
L 342.968987 141.628698 
L 343.611725 141.236968 
L 344.254467 141.133442 
L 344.972195 142.202346 
L 345.614937 141.295813 
L 346.257675 141.629842 
L 346.900421 142.795471 
L 347.543159 141.520484 
L 348.828644 142.030906 
L 349.471382 140.519739 
L 350.114124 141.445243 
L 351.399605 138.682283 
L 352.042347 137.822012 
L 352.685089 136.094629 
L 353.327831 134.778326 
L 353.959858 133.760585 
L 354.613308 133.59914 
L 355.256054 132.380047 
L 355.898796 132.006046 
L 356.541534 132.63565 
L 357.173565 131.951211 
L 357.827019 131.640454 
L 358.469757 131.641096 
L 359.112499 132.190614 
L 359.755241 131.900459 
L 361.040722 131.8678 
L 362.326206 130.783251 
L 362.968948 131.281791 
L 363.611687 130.640943 
L 364.254429 131.404926 
L 364.897167 131.603223 
L 366.182655 130.432961 
L 366.825394 130.197325 
L 367.468132 129.294313 
L 368.110874 128.937606 
L 368.753616 129.671079 
L 369.396358 129.766642 
L 370.039097 129.353767 
L 370.681839 129.672648 
L 371.324581 129.710947 
L 371.967323 129.595703 
L 374.538288 129.793785 
L 375.18103 130.212863 
L 375.823769 129.532027 
L 376.466511 130.52829 
L 377.109253 129.222946 
L 377.751991 128.945718 
L 378.394733 129.934247 
L 379.037476 130.219397 
L 379.680218 129.618001 
L 380.322956 130.914651 
L 380.965698 129.811181 
L 381.60844 130.22698 
L 382.251183 130.376862 
L 382.893921 129.637531 
L 384.179401 131.130948 
L 384.822144 130.584434 
L 385.46489 130.673125 
L 386.107628 131.131916 
L 386.750366 130.69011 
L 387.393108 130.707093 
L 388.035851 131.005406 
L 388.678593 131.138003 
L 389.321331 131.762621 
L 389.964077 131.549441 
L 391.249554 132.14691 
L 391.8923 132.927007 
L 392.535042 133.088391 
L 393.17778 133.061326 
L 393.820518 133.699504 
L 394.463261 133.399963 
L 395.106003 133.404808 
L 395.748745 133.076983 
L 396.391487 133.823879 
L 397.034225 134.76827 
L 397.676964 134.852014 
L 398.31971 135.235267 
L 398.962452 134.40072 
L 399.60519 134.091425 
L 400.247929 134.729446 
L 400.890675 134.732812 
L 401.533417 134.941141 
L 402.176155 134.941156 
L 402.818897 134.661926 
L 404.104378 134.680699 
L 405.389862 135.384324 
L 406.032604 136.003099 
L 406.675343 135.456141 
L 407.318085 135.545829 
L 408.603569 136.986812 
L 409.246311 136.321858 
L 409.88905 137.85163 
L 410.531788 133.173057 
L 411.17453 139.89185 
L 411.817276 140.605159 
L 412.460014 141.105434 
L 413.102753 140.982012 
L 413.745495 141.382543 
L 414.388237 142.598921 
L 415.030979 143.515607 
L 415.673721 142.49243 
L 416.31646 142.683221 
L 416.959202 142.428313 
L 417.60194 142.770587 
L 418.244686 142.523961 
L 418.887424 143.189706 
L 419.530167 142.780224 
L 420.815647 143.270749 
L 421.458389 143.678547 
L 422.101131 142.851039 
L 422.743874 142.216861 
L 423.386612 142.199792 
L 424.02935 142.838907 
L 424.672096 143.209072 
L 425.314838 143.249342 
L 425.957577 143.914958 
L 426.600319 144.038548 
L 427.243061 143.513811 
L 427.885799 143.997604 
L 428.528542 143.335141 
L 429.171284 143.208044 
L 429.814022 143.26453 
L 430.456764 143.705418 
L 431.09951 143.140438 
L 431.742249 143.010637 
L 432.384987 142.605288 
L 433.027733 142.389619 
L 434.313213 144.254013 
L 434.955952 143.774689 
L 435.598698 144.037059 
L 436.241436 144.784597 
L 436.884174 143.549412 
L 437.52692 143.904253 
L 438.169662 143.184858 
L 439.455143 143.915307 
L 440.097881 143.821437 
L 440.740623 143.275695 
L 441.383366 143.279869 
L 442.026108 143.082341 
L 442.668846 142.727637 
L 443.311588 142.775012 
L 443.95433 143.552225 
L 445.239811 144.248342 
L 445.882553 144.498421 
L 446.525295 144.122985 
L 447.168034 144.192072 
L 448.453518 145.435706 
L 449.09626 144.68122 
L 450.381741 146.073773 
L 451.024483 146.212088 
L 451.667225 146.120646 
L 452.309963 146.307857 
L 452.952705 145.330371 
L 453.595444 145.323606 
L 454.238186 144.942682 
L 454.880932 145.550093 
L 456.809155 146.118523 
L 457.451893 145.505991 
L 458.737373 145.008977 
L 460.022858 145.277727 
L 460.6656 144.942665 
L 461.308342 144.426199 
L 461.95108 144.438986 
L 462.593822 143.829304 
L 463.300838 144.024639 
L 463.879307 143.860445 
L 465.164787 144.383902 
L 465.807529 144.201686 
L 466.450268 144.529592 
L 467.09301 144.534542 
L 467.735752 144.781954 
L 468.378494 144.590094 
L 469.021233 144.738147 
L 469.663975 144.66366 
L 470.306717 144.192626 
L 470.949459 143.971445 
L 471.592197 143.299602 
L 472.23494 143.337315 
L 472.941952 143.511828 
L 474.227436 144.088253 
L 475.512917 144.288979 
L 476.155663 144.211866 
L 477.441143 144.323311 
L 478.083885 143.764682 
L 478.726627 144.044275 
L 479.380077 143.950013 
L 480.012108 143.655783 
L 481.297592 143.759337 
L 481.940331 143.161488 
L 482.583073 142.049454 
L 483.225811 141.499285 
L 484.511299 140.027303 
L 485.154037 138.318642 
L 485.796776 136.929024 
L 486.439518 134.931034 
L 487.725002 132.555882 
L 488.367741 131.79416 
L 489.010483 131.230394 
L 489.653225 131.115435 
L 490.295963 129.735198 
L 492.22419 128.981367 
L 492.866928 128.209787 
L 493.50967 129.455974 
L 494.152412 128.528937 
L 494.795155 128.630297 
L 495.437897 128.50367 
L 496.080635 128.537131 
L 496.723373 128.81809 
L 497.366119 129.455594 
L 498.6516 127.988171 
L 499.305054 128.356418 
L 499.93708 128.052013 
L 500.590538 128.22435 
L 501.222565 127.404375 
L 502.508045 126.775066 
L 503.150787 127.39373 
L 504.436272 127.305915 
L 506.364494 130.039215 
L 507.017948 129.219197 
L 507.649975 128.903079 
L 508.292721 129.103976 
L 508.946171 128.498617 
L 509.588913 129.194276 
L 510.22094 129.657826 
L 510.863686 129.308396 
L 511.506424 130.734193 
L 512.149162 130.765878 
L 512.791904 130.418893 
L 514.720131 131.863896 
L 515.362869 132.097806 
L 516.005608 132.493169 
L 517.291096 133.00698 
L 517.933834 133.943887 
L 518.576572 133.660177 
L 519.219318 133.76152 
L 519.862057 134.152161 
L 520.504799 133.750246 
L 521.158253 133.661484 
L 521.790283 133.375914 
L 522.433022 133.720563 
L 523.07576 133.408581 
L 523.729218 132.837834 
L 525.003986 134.06476 
L 525.646729 134.512022 
L 526.932209 134.213222 
L 528.217693 134.075958 
L 528.860432 134.332548 
L 529.503174 135.381436 
L 530.156628 135.80152 
L 530.788658 135.558229 
L 531.431396 136.012847 
L 532.074139 136.312424 
L 532.716881 135.275885 
L 533.370335 135.713756 
L 534.002361 135.898088 
L 534.645103 135.785578 
L 535.298557 135.948878 
L 535.930584 135.838011 
L 536.57333 136.120379 
L 537.216068 136.084132 
L 537.85881 136.807136 
L 538.501553 136.609621 
L 539.144291 137.512368 
L 539.787033 136.55656 
L 540.429775 137.281554 
L 541.072517 137.057884 
L 541.715256 137.727585 
L 543.00074 137.757132 
L 543.643482 137.21644 
L 544.286221 137.886181 
L 544.928963 137.792703 
L 545.571705 136.737672 
L 546.214443 136.444795 
L 546.857185 136.562114 
L 548.785408 135.686096 
L 549.42815 135.084685 
L 550.713631 135.290265 
L 551.356373 134.099748 
L 551.999115 137.097795 
L 552.641853 133.871107 
L 553.284595 134.463782 
L 553.938049 138.197529 
L 554.57008 139.689977 
L 555.212818 139.757045 
L 555.85556 140.100064 
L 557.141045 141.69665 
L 557.783783 141.68322 
L 558.426525 142.364899 
L 559.079979 142.85854 
L 559.712006 144.101122 
L 560.354752 144.977038 
L 560.99749 144.902194 
L 561.640232 144.553131 
L 562.282974 144.339039 
L 562.925713 144.849542 
L 563.568455 144.959775 
L 564.211193 145.728983 
L 564.864647 145.764498 
L 565.496677 146.323669 
L 568.067642 145.537281 
L 568.710384 144.855804 
L 569.353127 144.912546 
L 570.00658 144.821529 
L 570.638607 144.891659 
L 571.281349 145.186014 
L 573.209576 145.313312 
L 574.495052 145.898774 
L 575.137794 145.824637 
L 575.780537 146.073037 
L 576.423279 145.909973 
L 577.066017 145.881003 
L 577.719471 146.143649 
L 578.351501 146.766178 
L 578.99424 147.06851 
L 579.636986 147.719619 
L 580.922466 146.465053 
L 581.565205 147.157469 
L 582.850689 147.902073 
L 584.136173 146.46438 
L 584.853897 147.008154 
L 585.496639 150.600129 
L 586.782124 148.395733 
L 588.067604 149.351904 
L 588.710346 149.423757 
L 589.353088 149.06058 
L 589.931553 148.969167 
L 591.281311 149.862684 
L 592.566795 150.070696 
L 593.209534 149.671669 
L 593.852276 149.106208 
L 594.495014 149.428165 
L 595.137756 150.055018 
L 595.780499 150.324359 
L 596.423241 150.815135 
L 597.065983 150.629564 
L 597.708721 150.9463 
L 598.35146 150.725279 
L 599.636948 150.836053 
L 600.922424 150.575616 
L 602.207909 151.01223 
L 603.493393 150.893125 
L 607.349838 150.675027 
L 607.99258 150.81169 
L 609.278061 150.777322 
L 611.206284 150.862469 
L 611.849026 150.772356 
L 612.491772 150.988452 
L 614.419991 150.976181 
L 616.348217 151.075794 
L 616.990955 150.959417 
L 618.919182 151.022035 
L 620.847404 151.12419 
L 621.490143 150.974971 
L 622.636364 150.994219 
L 622.636364 150.994219 
" clip-path="url(#p69595d84e5)" style="fill: none; stroke: #008b8b; stroke-width: 2.5; stroke-linecap: square"/>
   </g>
   <g id="patch_3">
    <path d="M 90 256.32 
L 90 34.56 
" style="fill: none; stroke: #000000; stroke-width: 0.8; stroke-linejoin: miter; stroke-linecap: square"/>
   </g>
   <g id="patch_4">
    <path d="M 648 256.32 
L 648 34.56 
" style="fill: none; stroke: #000000; stroke-width: 0.8; stroke-linejoin: miter; stroke-linecap: square"/>
   </g>
   <g id="patch_5">
    <path d="M 90 256.32 
L 648 256.32 
" style="fill: none; stroke: #000000; stroke-width: 0.8; stroke-linejoin: miter; stroke-linecap: square"/>
   </g>
   <g id="patch_6">
    <path d="M 90 34.56 
L 648 34.56 
" style="fill: none; stroke: #000000; stroke-width: 0.8; stroke-linejoin: miter; stroke-linecap: square"/>
   </g>
   <g id="text_18">
    <!-- design_without_locking_ft_data_mapped_to_robot - Torques -->
    <g transform="translate(190.692188 28.56)scale(0.12 -0.12)">
     <defs>
      <path id="DejaVuSans-64" d="M 2906 2969 
L 2906 4863 
L 3481 4863 
L 3481 0 
L 2906 0 
L 2906 525 
Q 2725 213 2448 61 
Q 2172 -91 1784 -91 
Q 1150 -91 751 415 
Q 353 922 353 1747 
Q 353 2572 751 3078 
Q 1150 3584 1784 3584 
Q 2172 3584 2448 3432 
Q 2725 3281 2906 2969 
z
M 947 1747 
Q 947 1113 1208 752 
Q 1469 391 1925 391 
Q 2381 391 2643 752 
Q 2906 1113 2906 1747 
Q 2906 2381 2643 2742 
Q 2381 3103 1925 3103 
Q 1469 3103 1208 2742 
Q 947 2381 947 1747 
z
" transform="scale(0.015625)"/>
      <path id="DejaVuSans-73" d="M 2834 3397 
L 2834 2853 
Q 2591 2978 2328 3040 
Q 2066 3103 1784 3103 
Q 1356 3103 1142 2972 
Q 928 2841 928 2578 
Q 928 2378 1081 2264 
Q 1234 2150 1697 2047 
L 1894 2003 
Q 2506 1872 2764 1633 
Q 3022 1394 3022 966 
Q 3022 478 2636 193 
Q 2250 -91 1575 -91 
Q 1294 -91 989 -36 
Q 684 19 347 128 
L 347 722 
Q 666 556 975 473 
Q 1284 391 1588 391 
Q 1994 391 2212 530 
Q 2431 669 2431 922 
Q 2431 1156 2273 1281 
Q 2116 1406 1581 1522 
L 1381 1569 
Q 847 1681 609 1914 
Q 372 2147 372 2553 
Q 372 3047 722 3315 
Q 1072 3584 1716 3584 
Q 2034 3584 2315 3537 
Q 2597 3491 2834 3397 
z
" transform="scale(0.015625)"/>
      <path id="DejaVuSans-67" d="M 2906 1791 
Q 2906 2416 2648 2759 
Q 2391 3103 1925 3103 
Q 1463 3103 1205 2759 
Q 947 2416 947 1791 
Q 947 1169 1205 825 
Q 1463 481 1925 481 
Q 2391 481 2648 825 
Q 2906 1169 2906 1791 
z
M 3481 434 
Q 3481 -459 3084 -895 
Q 2688 -1331 1869 -1331 
Q 1566 -1331 1297 -1286 
Q 1028 -1241 775 -1147 
L 775 -588 
Q 1028 -725 1275 -790 
Q 1522 -856 1778 -856 
Q 2344 -856 2625 -561 
Q 2906 -266 2906 331 
L 2906 616 
Q 2728 306 2450 153 
Q 2172 0 1784 0 
Q 1141 0 747 490 
Q 353 981 353 1791 
Q 353 2603 747 3093 
Q 1141 3584 1784 3584 
Q 2172 3584 2450 3431 
Q 2728 3278 2906 2969 
L 2906 3500 
L 3481 3500 
L 3481 434 
z
" transform="scale(0.015625)"/>
      <path id="DejaVuSans-6e" d="M 3513 2113 
L 3513 0 
L 2938 0 
L 2938 2094 
Q 2938 2591 2744 2837 
Q 2550 3084 2163 3084 
Q 1697 3084 1428 2787 
Q 1159 2491 1159 1978 
L 1159 0 
L 581 0 
L 581 3500 
L 1159 3500 
L 1159 2956 
Q 1366 3272 1645 3428 
Q 1925 3584 2291 3584 
Q 2894 3584 3203 3211 
Q 3513 2838 3513 2113 
z
" transform="scale(0.015625)"/>
      <path id="DejaVuSans-5f" d="M 3263 -1063 
L 3263 -1509 
L -63 -1509 
L -63 -1063 
L 3263 -1063 
z
" transform="scale(0.015625)"/>
      <path id="DejaVuSans-77" d="M 269 3500 
L 844 3500 
L 1563 769 
L 2278 3500 
L 2956 3500 
L 3675 769 
L 4391 3500 
L 4966 3500 
L 4050 0 
L 3372 0 
L 2619 2869 
L 1863 0 
L 1184 0 
L 269 3500 
z
" transform="scale(0.015625)"/>
      <path id="DejaVuSans-74" d="M 1172 4494 
L 1172 3500 
L 2356 3500 
L 2356 3053 
L 1172 3053 
L 1172 1153 
Q 1172 725 1289 603 
Q 1406 481 1766 481 
L 2356 481 
L 2356 0 
L 1766 0 
Q 1100 0 847 248 
Q 594 497 594 1153 
L 594 3053 
L 172 3053 
L 172 3500 
L 594 3500 
L 594 4494 
L 1172 4494 
z
" transform="scale(0.015625)"/>
      <path id="DejaVuSans-68" d="M 3513 2113 
L 3513 0 
L 2938 0 
L 2938 2094 
Q 2938 2591 2744 2837 
Q 2550 3084 2163 3084 
Q 1697 3084 1428 2787 
Q 1159 2491 1159 1978 
L 1159 0 
L 581 0 
L 581 4863 
L 1159 4863 
L 1159 2956 
Q 1366 3272 1645 3428 
Q 1925 3584 2291 3584 
Q 2894 3584 3203 3211 
Q 3513 2838 3513 2113 
z
" transform="scale(0.015625)"/>
      <path id="DejaVuSans-6c" d="M 603 4863 
L 1178 4863 
L 1178 0 
L 603 0 
L 603 4863 
z
" transform="scale(0.015625)"/>
      <path id="DejaVuSans-63" d="M 3122 3366 
L 3122 2828 
Q 2878 2963 2633 3030 
Q 2388 3097 2138 3097 
Q 1578 3097 1268 2742 
Q 959 2388 959 1747 
Q 959 1106 1268 751 
Q 1578 397 2138 397 
Q 2388 397 2633 464 
Q 2878 531 3122 666 
L 3122 134 
Q 2881 22 2623 -34 
Q 2366 -91 2075 -91 
Q 1284 -91 818 406 
Q 353 903 353 1747 
Q 353 2603 823 3093 
Q 1294 3584 2113 3584 
Q 2378 3584 2631 3529 
Q 2884 3475 3122 3366 
z
" transform="scale(0.015625)"/>
      <path id="DejaVuSans-6b" d="M 581 4863 
L 1159 4863 
L 1159 1991 
L 2875 3500 
L 3609 3500 
L 1753 1863 
L 3688 0 
L 2938 0 
L 1159 1709 
L 1159 0 
L 581 0 
L 581 4863 
z
" transform="scale(0.015625)"/>
      <path id="DejaVuSans-66" d="M 2375 4863 
L 2375 4384 
L 1825 4384 
Q 1516 4384 1395 4259 
Q 1275 4134 1275 3809 
L 1275 3500 
L 2222 3500 
L 2222 3053 
L 1275 3053 
L 1275 0 
L 697 0 
L 697 3053 
L 147 3053 
L 147 3500 
L 697 3500 
L 697 3744 
Q 697 4328 969 4595 
Q 1241 4863 1831 4863 
L 2375 4863 
z
" transform="scale(0.015625)"/>
      <path id="DejaVuSans-61" d="M 2194 1759 
Q 1497 1759 1228 1600 
Q 959 1441 959 1056 
Q 959 750 1161 570 
Q 1363 391 1709 391 
Q 2188 391 2477 730 
Q 2766 1069 2766 1631 
L 2766 1759 
L 2194 1759 
z
M 3341 1997 
L 3341 0 
L 2766 0 
L 2766 531 
Q 2569 213 2275 61 
Q 1981 -91 1556 -91 
Q 1019 -91 701 211 
Q 384 513 384 1019 
Q 384 1609 779 1909 
Q 1175 2209 1959 2209 
L 2766 2209 
L 2766 2266 
Q 2766 2663 2505 2880 
Q 2244 3097 1772 3097 
Q 1472 3097 1187 3025 
Q 903 2953 641 2809 
L 641 3341 
Q 956 3463 1253 3523 
Q 1550 3584 1831 3584 
Q 2591 3584 2966 3190 
Q 3341 2797 3341 1997 
z
" transform="scale(0.015625)"/>
      <path id="DejaVuSans-70" d="M 1159 525 
L 1159 -1331 
L 581 -1331 
L 581 3500 
L 1159 3500 
L 1159 2969 
Q 1341 3281 1617 3432 
Q 1894 3584 2278 3584 
Q 2916 3584 3314 3078 
Q 3713 2572 3713 1747 
Q 3713 922 3314 415 
Q 2916 -91 2278 -91 
Q 1894 -91 1617 61 
Q 1341 213 1159 525 
z
M 3116 1747 
Q 3116 2381 2855 2742 
Q 2594 3103 2138 3103 
Q 1681 3103 1420 2742 
Q 1159 2381 1159 1747 
Q 1159 1113 1420 752 
Q 1681 391 2138 391 
Q 2594 391 2855 752 
Q 3116 1113 3116 1747 
z
" transform="scale(0.015625)"/>
      <path id="DejaVuSans-62" d="M 3116 1747 
Q 3116 2381 2855 2742 
Q 2594 3103 2138 3103 
Q 1681 3103 1420 2742 
Q 1159 2381 1159 1747 
Q 1159 1113 1420 752 
Q 1681 391 2138 391 
Q 2594 391 2855 752 
Q 3116 1113 3116 1747 
z
M 1159 2969 
Q 1341 3281 1617 3432 
Q 1894 3584 2278 3584 
Q 2916 3584 3314 3078 
Q 3713 2572 3713 1747 
Q 3713 922 3314 415 
Q 2916 -91 2278 -91 
Q 1894 -91 1617 61 
Q 1341 213 1159 525 
L 1159 0 
L 581 0 
L 581 4863 
L 1159 4863 
L 1159 2969 
z
" transform="scale(0.015625)"/>
      <path id="DejaVuSans-2d" d="M 313 2009 
L 1997 2009 
L 1997 1497 
L 313 1497 
L 313 2009 
z
" transform="scale(0.015625)"/>
     </defs>
     <use xlink:href="#DejaVuSans-64"/>
     <use xlink:href="#DejaVuSans-65" x="63.476562"/>
     <use xlink:href="#DejaVuSans-73" x="125"/>
     <use xlink:href="#DejaVuSans-69" x="177.099609"/>
     <use xlink:href="#DejaVuSans-67" x="204.882812"/>
     <use xlink:href="#DejaVuSans-6e" x="268.359375"/>
     <use xlink:href="#DejaVuSans-5f" x="331.738281"/>
     <use xlink:href="#DejaVuSans-77" x="381.738281"/>
     <use xlink:href="#DejaVuSans-69" x="463.525391"/>
     <use xlink:href="#DejaVuSans-74" x="491.308594"/>
     <use xlink:href="#DejaVuSans-68" x="530.517578"/>
     <use xlink:href="#DejaVuSans-6f" x="593.896484"/>
     <use xlink:href="#DejaVuSans-75" x="655.078125"/>
     <use xlink:href="#DejaVuSans-74" x="718.457031"/>
     <use xlink:href="#DejaVuSans-5f" x="757.666016"/>
     <use xlink:href="#DejaVuSans-6c" x="807.666016"/>
     <use xlink:href="#DejaVuSans-6f" x="835.449219"/>
     <use xlink:href="#DejaVuSans-63" x="896.630859"/>
     <use xlink:href="#DejaVuSans-6b" x="951.611328"/>
     <use xlink:href="#DejaVuSans-69" x="1009.521484"/>
     <use xlink:href="#DejaVuSans-6e" x="1037.304688"/>
     <use xlink:href="#DejaVuSans-67" x="1100.683594"/>
     <use xlink:href="#DejaVuSans-5f" x="1164.160156"/>
     <use xlink:href="#DejaVuSans-66" x="1214.160156"/>
     <use xlink:href="#DejaVuSans-74" x="1247.615234"/>
     <use xlink:href="#DejaVuSans-5f" x="1286.824219"/>
     <use xlink:href="#DejaVuSans-64" x="1336.824219"/>
     <use xlink:href="#DejaVuSans-61" x="1400.300781"/>
     <use xlink:href="#DejaVuSans-74" x="1461.580078"/>
     <use xlink:href="#DejaVuSans-61" x="1500.789062"/>
     <use xlink:href="#DejaVuSans-5f" x="1562.068359"/>
     <use xlink:href="#DejaVuSans-6d" x="1612.068359"/>
     <use xlink:href="#DejaVuSans-61" x="1709.480469"/>
     <use xlink:href="#DejaVuSans-70" x="1770.759766"/>
     <use xlink:href="#DejaVuSans-70" x="1834.236328"/>
     <use xlink:href="#DejaVuSans-65" x="1897.712891"/>
     <use xlink:href="#DejaVuSans-64" x="1959.236328"/>
     <use xlink:href="#DejaVuSans-5f" x="2022.712891"/>
     <use xlink:href="#DejaVuSans-74" x="2072.712891"/>
     <use xlink:href="#DejaVuSans-6f" x="2111.921875"/>
     <use xlink:href="#DejaVuSans-5f" x="2173.103516"/>
     <use xlink:href="#DejaVuSans-72" x="2223.103516"/>
     <use xlink:href="#DejaVuSans-6f" x="2261.966797"/>
     <use xlink:href="#DejaVuSans-62" x="2323.148438"/>
     <use xlink:href="#DejaVuSans-6f" x="2386.625"/>
     <use xlink:href="#DejaVuSans-74" x="2447.806641"/>
     <use xlink:href="#DejaVuSans-20" x="2487.015625"/>
     <use xlink:href="#DejaVuSans-2d" x="2518.802734"/>
     <use xlink:href="#DejaVuSans-20" x="2554.886719"/>
     <use xlink:href="#DejaVuSans-54" x="2586.673828"/>
     <use xlink:href="#DejaVuSans-6f" x="2630.757812"/>
     <use xlink:href="#DejaVuSans-72" x="2691.939453"/>
     <use xlink:href="#DejaVuSans-71" x="2731.302734"/>
     <use xlink:href="#DejaVuSans-75" x="2794.779297"/>
     <use xlink:href="#DejaVuSans-65" x="2858.158203"/>
     <use xlink:href="#DejaVuSans-73" x="2919.681641"/>
    </g>
   </g>
   <g id="legend_1">
    <g id="patch_7">
     <path d="M 565.267187 251.32 
L 641 251.32 
Q 643 251.32 643 249.32 
L 643 205.45125 
Q 643 203.45125 641 203.45125 
L 565.267187 203.45125 
Q 563.267187 203.45125 563.267187 205.45125 
L 563.267187 249.32 
Q 563.267187 251.32 565.267187 251.32 
z
" style="fill: #ffffff; opacity: 0.8; stroke: #cccccc; stroke-linejoin: miter"/>
    </g>
    <g id="line2d_34">
     <path d="M 567.267187 211.549688 
L 577.267187 211.549688 
L 587.267187 211.549688 
" style="fill: none; stroke: #800080; stroke-width: 2.5; stroke-linecap: square"/>
    </g>
    <g id="text_19">
     <!-- torque_x -->
     <g transform="translate(595.267187 215.049688)scale(0.1 -0.1)">
      <defs>
       <path id="DejaVuSans-78" d="M 3513 3500 
L 2247 1797 
L 3578 0 
L 2900 0 
L 1881 1375 
L 863 0 
L 184 0 
L 1544 1831 
L 300 3500 
L 978 3500 
L 1906 2253 
L 2834 3500 
L 3513 3500 
z
" transform="scale(0.015625)"/>
      </defs>
      <use xlink:href="#DejaVuSans-74"/>
      <use xlink:href="#DejaVuSans-6f" x="39.208984"/>
      <use xlink:href="#DejaVuSans-72" x="100.390625"/>
      <use xlink:href="#DejaVuSans-71" x="139.753906"/>
      <use xlink:href="#DejaVuSans-75" x="203.230469"/>
      <use xlink:href="#DejaVuSans-65" x="266.609375"/>
      <use xlink:href="#DejaVuSans-5f" x="328.132812"/>
      <use xlink:href="#DejaVuSans-78" x="378.132812"/>
     </g>
    </g>
    <g id="line2d_35">
     <path d="M 567.267187 226.505938 
L 577.267187 226.505938 
L 587.267187 226.505938 
" style="fill: none; stroke: #dc143c; stroke-width: 2.5; stroke-linecap: square"/>
    </g>
    <g id="text_20">
     <!-- torque_y -->
     <g transform="translate(595.267187 230.005938)scale(0.1 -0.1)">
      <defs>
       <path id="DejaVuSans-79" d="M 2059 -325 
Q 1816 -950 1584 -1140 
Q 1353 -1331 966 -1331 
L 506 -1331 
L 506 -850 
L 844 -850 
Q 1081 -850 1212 -737 
Q 1344 -625 1503 -206 
L 1606 56 
L 191 3500 
L 800 3500 
L 1894 763 
L 2988 3500 
L 3597 3500 
L 2059 -325 
z
" transform="scale(0.015625)"/>
      </defs>
      <use xlink:href="#DejaVuSans-74"/>
      <use xlink:href="#DejaVuSans-6f" x="39.208984"/>
      <use xlink:href="#DejaVuSans-72" x="100.390625"/>
      <use xlink:href="#DejaVuSans-71" x="139.753906"/>
      <use xlink:href="#DejaVuSans-75" x="203.230469"/>
      <use xlink:href="#DejaVuSans-65" x="266.609375"/>
      <use xlink:href="#DejaVuSans-5f" x="328.132812"/>
      <use xlink:href="#DejaVuSans-79" x="378.132812"/>
     </g>
    </g>
    <g id="line2d_36">
     <path d="M 567.267187 241.462187 
L 577.267187 241.462187 
L 587.267187 241.462187 
" style="fill: none; stroke: #008b8b; stroke-width: 2.5; stroke-linecap: square"/>
    </g>
    <g id="text_21">
     <!-- torque_z -->
     <g transform="translate(595.267187 244.962187)scale(0.1 -0.1)">
      <defs>
       <path id="DejaVuSans-7a" d="M 353 3500 
L 3084 3500 
L 3084 2975 
L 922 459 
L 3084 459 
L 3084 0 
L 275 0 
L 275 525 
L 2438 3041 
L 353 3041 
L 353 3500 
z
" transform="scale(0.015625)"/>
      </defs>
      <use xlink:href="#DejaVuSans-74"/>
      <use xlink:href="#DejaVuSans-6f" x="39.208984"/>
      <use xlink:href="#DejaVuSans-72" x="100.390625"/>
      <use xlink:href="#DejaVuSans-71" x="139.753906"/>
      <use xlink:href="#DejaVuSans-75" x="203.230469"/>
      <use xlink:href="#DejaVuSans-65" x="266.609375"/>
      <use xlink:href="#DejaVuSans-5f" x="328.132812"/>
      <use xlink:href="#DejaVuSans-7a" x="378.132812"/>
     </g>
    </g>
   </g>
  </g>
 </g>
 <defs>
  <clipPath id="p69595d84e5">
   <rect x="90" y="34.56" width="558" height="221.76"/>
  </clipPath>
 </defs>
</svg>
