<?xml version="1.0" encoding="utf-8" standalone="no"?>
<!DOCTYPE svg PUBLIC "-//W3C//DTD SVG 1.1//EN"
  "http://www.w3.org/Graphics/SVG/1.1/DTD/svg11.dtd">
<svg xmlns:xlink="http://www.w3.org/1999/xlink" width="720pt" height="288pt" viewBox="0 0 720 288" xmlns="http://www.w3.org/2000/svg" version="1.1">
 <metadata>
  <rdf:RDF xmlns:dc="http://purl.org/dc/elements/1.1/" xmlns:cc="http://creativecommons.org/ns#" xmlns:rdf="http://www.w3.org/1999/02/22-rdf-syntax-ns#">
   <cc:Work>
    <dc:type rdf:resource="http://purl.org/dc/dcmitype/StillImage"/>
    <dc:date>2025-09-21T11:11:08.075018</dc:date>
    <dc:format>image/svg+xml</dc:format>
    <dc:creator>
     <cc:Agent>
      <dc:title>Matplotlib v3.5.3, https://matplotlib.org/</dc:title>
     </cc:Agent>
    </dc:creator>
   </cc:Work>
  </rdf:RDF>
 </metadata>
 <defs>
  <style type="text/css">*{stroke-linejoin: round; stroke-linecap: butt}</style>
 </defs>
 <g id="figure_1">
  <g id="patch_1">
   <path d="M 0 288 
L 720 288 
L 720 0 
L 0 0 
z
" style="fill: #ffffff"/>
  </g>
  <g id="axes_1">
   <g id="patch_2">
    <path d="M 90 256.32 
L 648 256.32 
L 648 34.56 
L 90 34.56 
z
" style="fill: #ffffff"/>
   </g>
   <g id="matplotlib.axis_1">
    <g id="xtick_1">
     <g id="line2d_1">
      <path d="M 106.311699 256.32 
L 106.311699 34.56 
" clip-path="url(#p56ecefcaad)" style="fill: none; stroke: #b0b0b0; stroke-width: 0.8; stroke-linecap: square"/>
     </g>
     <g id="line2d_2">
      <defs>
       <path id="m740b7deee1" d="M 0 0 
L 0 3.5 
" style="stroke: #000000; stroke-width: 0.8"/>
      </defs>
      <g>
       <use xlink:href="#m740b7deee1" x="106.311699" y="256.32" style="stroke: #000000; stroke-width: 0.8"/>
      </g>
     </g>
     <g id="text_1">
      <!-- 20:16:10 -->
      <g transform="translate(83.855449 270.918437)scale(0.1 -0.1)">
       <defs>
        <path id="DejaVuSans-32" d="M 1228 531 
L 3431 531 
L 3431 0 
L 469 0 
L 469 531 
Q 828 903 1448 1529 
Q 2069 2156 2228 2338 
Q 2531 2678 2651 2914 
Q 2772 3150 2772 3378 
Q 2772 3750 2511 3984 
Q 2250 4219 1831 4219 
Q 1534 4219 1204 4116 
Q 875 4013 500 3803 
L 500 4441 
Q 881 4594 1212 4672 
Q 1544 4750 1819 4750 
Q 2544 4750 2975 4387 
Q 3406 4025 3406 3419 
Q 3406 3131 3298 2873 
Q 3191 2616 2906 2266 
Q 2828 2175 2409 1742 
Q 1991 1309 1228 531 
z
" transform="scale(0.015625)"/>
        <path id="DejaVuSans-30" d="M 2034 4250 
Q 1547 4250 1301 3770 
Q 1056 3291 1056 2328 
Q 1056 1369 1301 889 
Q 1547 409 2034 409 
Q 2525 409 2770 889 
Q 3016 1369 3016 2328 
Q 3016 3291 2770 3770 
Q 2525 4250 2034 4250 
z
M 2034 4750 
Q 2819 4750 3233 4129 
Q 3647 3509 3647 2328 
Q 3647 1150 3233 529 
Q 2819 -91 2034 -91 
Q 1250 -91 836 529 
Q 422 1150 422 2328 
Q 422 3509 836 4129 
Q 1250 4750 2034 4750 
z
" transform="scale(0.015625)"/>
        <path id="DejaVuSans-3a" d="M 750 794 
L 1409 794 
L 1409 0 
L 750 0 
L 750 794 
z
M 750 3309 
L 1409 3309 
L 1409 2516 
L 750 2516 
L 750 3309 
z
" transform="scale(0.015625)"/>
        <path id="DejaVuSans-31" d="M 794 531 
L 1825 531 
L 1825 4091 
L 703 3866 
L 703 4441 
L 1819 4666 
L 2450 4666 
L 2450 531 
L 3481 531 
L 3481 0 
L 794 0 
L 794 531 
z
" transform="scale(0.015625)"/>
        <path id="DejaVuSans-36" d="M 2113 2584 
Q 1688 2584 1439 2293 
Q 1191 2003 1191 1497 
Q 1191 994 1439 701 
Q 1688 409 2113 409 
Q 2538 409 2786 701 
Q 3034 994 3034 1497 
Q 3034 2003 2786 2293 
Q 2538 2584 2113 2584 
z
M 3366 4563 
L 3366 3988 
Q 3128 4100 2886 4159 
Q 2644 4219 2406 4219 
Q 1781 4219 1451 3797 
Q 1122 3375 1075 2522 
Q 1259 2794 1537 2939 
Q 1816 3084 2150 3084 
Q 2853 3084 3261 2657 
Q 3669 2231 3669 1497 
Q 3669 778 3244 343 
Q 2819 -91 2113 -91 
Q 1303 -91 875 529 
Q 447 1150 447 2328 
Q 447 3434 972 4092 
Q 1497 4750 2381 4750 
Q 2619 4750 2861 4703 
Q 3103 4656 3366 4563 
z
" transform="scale(0.015625)"/>
       </defs>
       <use xlink:href="#DejaVuSans-32"/>
       <use xlink:href="#DejaVuSans-30" x="63.623047"/>
       <use xlink:href="#DejaVuSans-3a" x="127.246094"/>
       <use xlink:href="#DejaVuSans-31" x="160.9375"/>
       <use xlink:href="#DejaVuSans-36" x="224.560547"/>
       <use xlink:href="#DejaVuSans-3a" x="288.183594"/>
       <use xlink:href="#DejaVuSans-31" x="321.875"/>
       <use xlink:href="#DejaVuSans-30" x="385.498047"/>
      </g>
     </g>
    </g>
    <g id="xtick_2">
     <g id="line2d_3">
      <path d="M 213.435223 256.32 
L 213.435223 34.56 
" clip-path="url(#p56ecefcaad)" style="fill: none; stroke: #b0b0b0; stroke-width: 0.8; stroke-linecap: square"/>
     </g>
     <g id="line2d_4">
      <g>
       <use xlink:href="#m740b7deee1" x="213.435223" y="256.32" style="stroke: #000000; stroke-width: 0.8"/>
      </g>
     </g>
     <g id="text_2">
      <!-- 20:16:20 -->
      <g transform="translate(190.978973 270.918437)scale(0.1 -0.1)">
       <use xlink:href="#DejaVuSans-32"/>
       <use xlink:href="#DejaVuSans-30" x="63.623047"/>
       <use xlink:href="#DejaVuSans-3a" x="127.246094"/>
       <use xlink:href="#DejaVuSans-31" x="160.9375"/>
       <use xlink:href="#DejaVuSans-36" x="224.560547"/>
       <use xlink:href="#DejaVuSans-3a" x="288.183594"/>
       <use xlink:href="#DejaVuSans-32" x="321.875"/>
       <use xlink:href="#DejaVuSans-30" x="385.498047"/>
      </g>
     </g>
    </g>
    <g id="xtick_3">
     <g id="line2d_5">
      <path d="M 320.558743 256.32 
L 320.558743 34.56 
" clip-path="url(#p56ecefcaad)" style="fill: none; stroke: #b0b0b0; stroke-width: 0.8; stroke-linecap: square"/>
     </g>
     <g id="line2d_6">
      <g>
       <use xlink:href="#m740b7deee1" x="320.558743" y="256.32" style="stroke: #000000; stroke-width: 0.8"/>
      </g>
     </g>
     <g id="text_3">
      <!-- 20:16:30 -->
      <g transform="translate(298.102493 270.918437)scale(0.1 -0.1)">
       <defs>
        <path id="DejaVuSans-33" d="M 2597 2516 
Q 3050 2419 3304 2112 
Q 3559 1806 3559 1356 
Q 3559 666 3084 287 
Q 2609 -91 1734 -91 
Q 1441 -91 1130 -33 
Q 819 25 488 141 
L 488 750 
Q 750 597 1062 519 
Q 1375 441 1716 441 
Q 2309 441 2620 675 
Q 2931 909 2931 1356 
Q 2931 1769 2642 2001 
Q 2353 2234 1838 2234 
L 1294 2234 
L 1294 2753 
L 1863 2753 
Q 2328 2753 2575 2939 
Q 2822 3125 2822 3475 
Q 2822 3834 2567 4026 
Q 2313 4219 1838 4219 
Q 1578 4219 1281 4162 
Q 984 4106 628 3988 
L 628 4550 
Q 988 4650 1302 4700 
Q 1616 4750 1894 4750 
Q 2613 4750 3031 4423 
Q 3450 4097 3450 3541 
Q 3450 3153 3228 2886 
Q 3006 2619 2597 2516 
z
" transform="scale(0.015625)"/>
       </defs>
       <use xlink:href="#DejaVuSans-32"/>
       <use xlink:href="#DejaVuSans-30" x="63.623047"/>
       <use xlink:href="#DejaVuSans-3a" x="127.246094"/>
       <use xlink:href="#DejaVuSans-31" x="160.9375"/>
       <use xlink:href="#DejaVuSans-36" x="224.560547"/>
       <use xlink:href="#DejaVuSans-3a" x="288.183594"/>
       <use xlink:href="#DejaVuSans-33" x="321.875"/>
       <use xlink:href="#DejaVuSans-30" x="385.498047"/>
      </g>
     </g>
    </g>
    <g id="xtick_4">
     <g id="line2d_7">
      <path d="M 427.682266 256.32 
L 427.682266 34.56 
" clip-path="url(#p56ecefcaad)" style="fill: none; stroke: #b0b0b0; stroke-width: 0.8; stroke-linecap: square"/>
     </g>
     <g id="line2d_8">
      <g>
       <use xlink:href="#m740b7deee1" x="427.682266" y="256.32" style="stroke: #000000; stroke-width: 0.8"/>
      </g>
     </g>
     <g id="text_4">
      <!-- 20:16:40 -->
      <g transform="translate(405.226016 270.918437)scale(0.1 -0.1)">
       <defs>
        <path id="DejaVuSans-34" d="M 2419 4116 
L 825 1625 
L 2419 1625 
L 2419 4116 
z
M 2253 4666 
L 3047 4666 
L 3047 1625 
L 3713 1625 
L 3713 1100 
L 3047 1100 
L 3047 0 
L 2419 0 
L 2419 1100 
L 313 1100 
L 313 1709 
L 2253 4666 
z
" transform="scale(0.015625)"/>
       </defs>
       <use xlink:href="#DejaVuSans-32"/>
       <use xlink:href="#DejaVuSans-30" x="63.623047"/>
       <use xlink:href="#DejaVuSans-3a" x="127.246094"/>
       <use xlink:href="#DejaVuSans-31" x="160.9375"/>
       <use xlink:href="#DejaVuSans-36" x="224.560547"/>
       <use xlink:href="#DejaVuSans-3a" x="288.183594"/>
       <use xlink:href="#DejaVuSans-34" x="321.875"/>
       <use xlink:href="#DejaVuSans-30" x="385.498047"/>
      </g>
     </g>
    </g>
    <g id="xtick_5">
     <g id="line2d_9">
      <path d="M 534.80579 256.32 
L 534.80579 34.56 
" clip-path="url(#p56ecefcaad)" style="fill: none; stroke: #b0b0b0; stroke-width: 0.8; stroke-linecap: square"/>
     </g>
     <g id="line2d_10">
      <g>
       <use xlink:href="#m740b7deee1" x="534.80579" y="256.32" style="stroke: #000000; stroke-width: 0.8"/>
      </g>
     </g>
     <g id="text_5">
      <!-- 20:16:50 -->
      <g transform="translate(512.34954 270.918437)scale(0.1 -0.1)">
       <defs>
        <path id="DejaVuSans-35" d="M 691 4666 
L 3169 4666 
L 3169 4134 
L 1269 4134 
L 1269 2991 
Q 1406 3038 1543 3061 
Q 1681 3084 1819 3084 
Q 2600 3084 3056 2656 
Q 3513 2228 3513 1497 
Q 3513 744 3044 326 
Q 2575 -91 1722 -91 
Q 1428 -91 1123 -41 
Q 819 9 494 109 
L 494 744 
Q 775 591 1075 516 
Q 1375 441 1709 441 
Q 2250 441 2565 725 
Q 2881 1009 2881 1497 
Q 2881 1984 2565 2268 
Q 2250 2553 1709 2553 
Q 1456 2553 1204 2497 
Q 953 2441 691 2322 
L 691 4666 
z
" transform="scale(0.015625)"/>
       </defs>
       <use xlink:href="#DejaVuSans-32"/>
       <use xlink:href="#DejaVuSans-30" x="63.623047"/>
       <use xlink:href="#DejaVuSans-3a" x="127.246094"/>
       <use xlink:href="#DejaVuSans-31" x="160.9375"/>
       <use xlink:href="#DejaVuSans-36" x="224.560547"/>
       <use xlink:href="#DejaVuSans-3a" x="288.183594"/>
       <use xlink:href="#DejaVuSans-35" x="321.875"/>
       <use xlink:href="#DejaVuSans-30" x="385.498047"/>
      </g>
     </g>
    </g>
    <g id="xtick_6">
     <g id="line2d_11">
      <path d="M 641.929314 256.32 
L 641.929314 34.56 
" clip-path="url(#p56ecefcaad)" style="fill: none; stroke: #b0b0b0; stroke-width: 0.8; stroke-linecap: square"/>
     </g>
     <g id="line2d_12">
      <g>
       <use xlink:href="#m740b7deee1" x="641.929314" y="256.32" style="stroke: #000000; stroke-width: 0.8"/>
      </g>
     </g>
     <g id="text_6">
      <!-- 20:17:00 -->
      <g transform="translate(619.473064 270.918437)scale(0.1 -0.1)">
       <defs>
        <path id="DejaVuSans-37" d="M 525 4666 
L 3525 4666 
L 3525 4397 
L 1831 0 
L 1172 0 
L 2766 4134 
L 525 4134 
L 525 4666 
z
" transform="scale(0.015625)"/>
       </defs>
       <use xlink:href="#DejaVuSans-32"/>
       <use xlink:href="#DejaVuSans-30" x="63.623047"/>
       <use xlink:href="#DejaVuSans-3a" x="127.246094"/>
       <use xlink:href="#DejaVuSans-31" x="160.9375"/>
       <use xlink:href="#DejaVuSans-37" x="224.560547"/>
       <use xlink:href="#DejaVuSans-3a" x="288.183594"/>
       <use xlink:href="#DejaVuSans-30" x="321.875"/>
       <use xlink:href="#DejaVuSans-30" x="385.498047"/>
      </g>
     </g>
    </g>
    <g id="text_7">
     <!-- Time -->
     <g transform="translate(356.766406 284.596563)scale(0.1 -0.1)">
      <defs>
       <path id="DejaVuSans-54" d="M -19 4666 
L 3928 4666 
L 3928 4134 
L 2272 4134 
L 2272 0 
L 1638 0 
L 1638 4134 
L -19 4134 
L -19 4666 
z
" transform="scale(0.015625)"/>
       <path id="DejaVuSans-69" d="M 603 3500 
L 1178 3500 
L 1178 0 
L 603 0 
L 603 3500 
z
M 603 4863 
L 1178 4863 
L 1178 4134 
L 603 4134 
L 603 4863 
z
" transform="scale(0.015625)"/>
       <path id="DejaVuSans-6d" d="M 3328 2828 
Q 3544 3216 3844 3400 
Q 4144 3584 4550 3584 
Q 5097 3584 5394 3201 
Q 5691 2819 5691 2113 
L 5691 0 
L 5113 0 
L 5113 2094 
Q 5113 2597 4934 2840 
Q 4756 3084 4391 3084 
Q 3944 3084 3684 2787 
Q 3425 2491 3425 1978 
L 3425 0 
L 2847 0 
L 2847 2094 
Q 2847 2600 2669 2842 
Q 2491 3084 2119 3084 
Q 1678 3084 1418 2786 
Q 1159 2488 1159 1978 
L 1159 0 
L 581 0 
L 581 3500 
L 1159 3500 
L 1159 2956 
Q 1356 3278 1631 3431 
Q 1906 3584 2284 3584 
Q 2666 3584 2933 3390 
Q 3200 3197 3328 2828 
z
" transform="scale(0.015625)"/>
       <path id="DejaVuSans-65" d="M 3597 1894 
L 3597 1613 
L 953 1613 
Q 991 1019 1311 708 
Q 1631 397 2203 397 
Q 2534 397 2845 478 
Q 3156 559 3463 722 
L 3463 178 
Q 3153 47 2828 -22 
Q 2503 -91 2169 -91 
Q 1331 -91 842 396 
Q 353 884 353 1716 
Q 353 2575 817 3079 
Q 1281 3584 2069 3584 
Q 2775 3584 3186 3129 
Q 3597 2675 3597 1894 
z
M 3022 2063 
Q 3016 2534 2758 2815 
Q 2500 3097 2075 3097 
Q 1594 3097 1305 2825 
Q 1016 2553 972 2059 
L 3022 2063 
z
" transform="scale(0.015625)"/>
      </defs>
      <use xlink:href="#DejaVuSans-54"/>
      <use xlink:href="#DejaVuSans-69" x="57.958984"/>
      <use xlink:href="#DejaVuSans-6d" x="85.742188"/>
      <use xlink:href="#DejaVuSans-65" x="183.154297"/>
     </g>
    </g>
   </g>
   <g id="matplotlib.axis_2">
    <g id="ytick_1">
     <g id="line2d_13">
      <path d="M 90 240.777303 
L 648 240.777303 
" clip-path="url(#p56ecefcaad)" style="fill: none; stroke: #b0b0b0; stroke-width: 0.8; stroke-linecap: square"/>
     </g>
     <g id="line2d_14">
      <defs>
       <path id="m759a28a9fd" d="M 0 0 
L -3.5 0 
" style="stroke: #000000; stroke-width: 0.8"/>
      </defs>
      <g>
       <use xlink:href="#m759a28a9fd" x="90" y="240.777303" style="stroke: #000000; stroke-width: 0.8"/>
      </g>
     </g>
     <g id="text_8">
      <!-- −40 -->
      <g transform="translate(61.895313 244.576521)scale(0.1 -0.1)">
       <defs>
        <path id="DejaVuSans-2212" d="M 678 2272 
L 4684 2272 
L 4684 1741 
L 678 1741 
L 678 2272 
z
" transform="scale(0.015625)"/>
       </defs>
       <use xlink:href="#DejaVuSans-2212"/>
       <use xlink:href="#DejaVuSans-34" x="83.789062"/>
       <use xlink:href="#DejaVuSans-30" x="147.412109"/>
      </g>
     </g>
    </g>
    <g id="ytick_2">
     <g id="line2d_15">
      <path d="M 90 202.536053 
L 648 202.536053 
" clip-path="url(#p56ecefcaad)" style="fill: none; stroke: #b0b0b0; stroke-width: 0.8; stroke-linecap: square"/>
     </g>
     <g id="line2d_16">
      <g>
       <use xlink:href="#m759a28a9fd" x="90" y="202.536053" style="stroke: #000000; stroke-width: 0.8"/>
      </g>
     </g>
     <g id="text_9">
      <!-- −30 -->
      <g transform="translate(61.895313 206.335272)scale(0.1 -0.1)">
       <use xlink:href="#DejaVuSans-2212"/>
       <use xlink:href="#DejaVuSans-33" x="83.789062"/>
       <use xlink:href="#DejaVuSans-30" x="147.412109"/>
      </g>
     </g>
    </g>
    <g id="ytick_3">
     <g id="line2d_17">
      <path d="M 90 164.294803 
L 648 164.294803 
" clip-path="url(#p56ecefcaad)" style="fill: none; stroke: #b0b0b0; stroke-width: 0.8; stroke-linecap: square"/>
     </g>
     <g id="line2d_18">
      <g>
       <use xlink:href="#m759a28a9fd" x="90" y="164.294803" style="stroke: #000000; stroke-width: 0.8"/>
      </g>
     </g>
     <g id="text_10">
      <!-- −20 -->
      <g transform="translate(61.895313 168.094022)scale(0.1 -0.1)">
       <use xlink:href="#DejaVuSans-2212"/>
       <use xlink:href="#DejaVuSans-32" x="83.789062"/>
       <use xlink:href="#DejaVuSans-30" x="147.412109"/>
      </g>
     </g>
    </g>
    <g id="ytick_4">
     <g id="line2d_19">
      <path d="M 90 126.053554 
L 648 126.053554 
" clip-path="url(#p56ecefcaad)" style="fill: none; stroke: #b0b0b0; stroke-width: 0.8; stroke-linecap: square"/>
     </g>
     <g id="line2d_20">
      <g>
       <use xlink:href="#m759a28a9fd" x="90" y="126.053554" style="stroke: #000000; stroke-width: 0.8"/>
      </g>
     </g>
     <g id="text_11">
      <!-- −10 -->
      <g transform="translate(61.895313 129.852773)scale(0.1 -0.1)">
       <use xlink:href="#DejaVuSans-2212"/>
       <use xlink:href="#DejaVuSans-31" x="83.789062"/>
       <use xlink:href="#DejaVuSans-30" x="147.412109"/>
      </g>
     </g>
    </g>
    <g id="ytick_5">
     <g id="line2d_21">
      <path d="M 90 87.812304 
L 648 87.812304 
" clip-path="url(#p56ecefcaad)" style="fill: none; stroke: #b0b0b0; stroke-width: 0.8; stroke-linecap: square"/>
     </g>
     <g id="line2d_22">
      <g>
       <use xlink:href="#m759a28a9fd" x="90" y="87.812304" style="stroke: #000000; stroke-width: 0.8"/>
      </g>
     </g>
     <g id="text_12">
      <!-- 0 -->
      <g transform="translate(76.6375 91.611523)scale(0.1 -0.1)">
       <use xlink:href="#DejaVuSans-30"/>
      </g>
     </g>
    </g>
    <g id="ytick_6">
     <g id="line2d_23">
      <path d="M 90 49.571055 
L 648 49.571055 
" clip-path="url(#p56ecefcaad)" style="fill: none; stroke: #b0b0b0; stroke-width: 0.8; stroke-linecap: square"/>
     </g>
     <g id="line2d_24">
      <g>
       <use xlink:href="#m759a28a9fd" x="90" y="49.571055" style="stroke: #000000; stroke-width: 0.8"/>
      </g>
     </g>
     <g id="text_13">
      <!-- 10 -->
      <g transform="translate(70.275 53.370274)scale(0.1 -0.1)">
       <use xlink:href="#DejaVuSans-31"/>
       <use xlink:href="#DejaVuSans-30" x="63.623047"/>
      </g>
     </g>
    </g>
    <g id="text_14">
     <!-- Force (N) -->
     <g transform="translate(55.815625 168.193906)rotate(-90)scale(0.1 -0.1)">
      <defs>
       <path id="DejaVuSans-46" d="M 628 4666 
L 3309 4666 
L 3309 4134 
L 1259 4134 
L 1259 2759 
L 3109 2759 
L 3109 2228 
L 1259 2228 
L 1259 0 
L 628 0 
L 628 4666 
z
" transform="scale(0.015625)"/>
       <path id="DejaVuSans-6f" d="M 1959 3097 
Q 1497 3097 1228 2736 
Q 959 2375 959 1747 
Q 959 1119 1226 758 
Q 1494 397 1959 397 
Q 2419 397 2687 759 
Q 2956 1122 2956 1747 
Q 2956 2369 2687 2733 
Q 2419 3097 1959 3097 
z
M 1959 3584 
Q 2709 3584 3137 3096 
Q 3566 2609 3566 1747 
Q 3566 888 3137 398 
Q 2709 -91 1959 -91 
Q 1206 -91 779 398 
Q 353 888 353 1747 
Q 353 2609 779 3096 
Q 1206 3584 1959 3584 
z
" transform="scale(0.015625)"/>
       <path id="DejaVuSans-72" d="M 2631 2963 
Q 2534 3019 2420 3045 
Q 2306 3072 2169 3072 
Q 1681 3072 1420 2755 
Q 1159 2438 1159 1844 
L 1159 0 
L 581 0 
L 581 3500 
L 1159 3500 
L 1159 2956 
Q 1341 3275 1631 3429 
Q 1922 3584 2338 3584 
Q 2397 3584 2469 3576 
Q 2541 3569 2628 3553 
L 2631 2963 
z
" transform="scale(0.015625)"/>
       <path id="DejaVuSans-63" d="M 3122 3366 
L 3122 2828 
Q 2878 2963 2633 3030 
Q 2388 3097 2138 3097 
Q 1578 3097 1268 2742 
Q 959 2388 959 1747 
Q 959 1106 1268 751 
Q 1578 397 2138 397 
Q 2388 397 2633 464 
Q 2878 531 3122 666 
L 3122 134 
Q 2881 22 2623 -34 
Q 2366 -91 2075 -91 
Q 1284 -91 818 406 
Q 353 903 353 1747 
Q 353 2603 823 3093 
Q 1294 3584 2113 3584 
Q 2378 3584 2631 3529 
Q 2884 3475 3122 3366 
z
" transform="scale(0.015625)"/>
       <path id="DejaVuSans-20" transform="scale(0.015625)"/>
       <path id="DejaVuSans-28" d="M 1984 4856 
Q 1566 4138 1362 3434 
Q 1159 2731 1159 2009 
Q 1159 1288 1364 580 
Q 1569 -128 1984 -844 
L 1484 -844 
Q 1016 -109 783 600 
Q 550 1309 550 2009 
Q 550 2706 781 3412 
Q 1013 4119 1484 4856 
L 1984 4856 
z
" transform="scale(0.015625)"/>
       <path id="DejaVuSans-4e" d="M 628 4666 
L 1478 4666 
L 3547 763 
L 3547 4666 
L 4159 4666 
L 4159 0 
L 3309 0 
L 1241 3903 
L 1241 0 
L 628 0 
L 628 4666 
z
" transform="scale(0.015625)"/>
       <path id="DejaVuSans-29" d="M 513 4856 
L 1013 4856 
Q 1481 4119 1714 3412 
Q 1947 2706 1947 2009 
Q 1947 1309 1714 600 
Q 1481 -109 1013 -844 
L 513 -844 
Q 928 -128 1133 580 
Q 1338 1288 1338 2009 
Q 1338 2731 1133 3434 
Q 928 4138 513 4856 
z
" transform="scale(0.015625)"/>
      </defs>
      <use xlink:href="#DejaVuSans-46"/>
      <use xlink:href="#DejaVuSans-6f" x="53.894531"/>
      <use xlink:href="#DejaVuSans-72" x="115.076172"/>
      <use xlink:href="#DejaVuSans-63" x="153.939453"/>
      <use xlink:href="#DejaVuSans-65" x="208.919922"/>
      <use xlink:href="#DejaVuSans-20" x="270.443359"/>
      <use xlink:href="#DejaVuSans-28" x="302.230469"/>
      <use xlink:href="#DejaVuSans-4e" x="341.244141"/>
      <use xlink:href="#DejaVuSans-29" x="416.048828"/>
     </g>
    </g>
   </g>
   <g id="line2d_25">
    <path d="M 115.363636 77.43634 
L 116.006378 77.471082 
L 117.291862 78.161982 
L 117.934601 78.205809 
L 118.577339 77.578031 
L 119.220085 77.491282 
L 119.862827 77.899276 
L 120.505566 78.591265 
L 121.148304 79.100608 
L 121.801758 80.514226 
L 122.433788 79.095993 
L 123.07653 79.019852 
L 123.72998 78.442783 
L 124.362011 80.507128 
L 125.015465 79.000818 
L 125.647495 79.508776 
L 126.290237 79.696206 
L 126.932976 80.503315 
L 127.575714 80.468579 
L 128.229168 79.16861 
L 128.871914 78.984112 
L 129.503941 79.703253 
L 130.146683 79.104221 
L 130.789425 79.501562 
L 131.432163 79.038226 
L 132.074905 77.877511 
L 132.717648 77.856263 
L 133.36039 77.50193 
L 134.003128 77.431681 
L 134.64587 76.418019 
L 135.288612 72.758766 
L 135.931355 74.833757 
L 136.574093 73.816598 
L 137.216835 75.345328 
L 137.859573 72.806982 
L 138.502316 71.404362 
L 139.145061 69.659783 
L 139.7878 70.650723 
L 140.430538 74.04801 
L 141.07328 69.035644 
L 141.716022 73.863051 
L 143.001507 72.955154 
L 143.644245 74.058653 
L 144.286987 74.306926 
L 145.583179 75.296614 
L 146.21521 73.695627 
L 146.857952 74.929586 
L 147.500694 74.213244 
L 148.154148 76.529376 
L 148.786175 72.830085 
L 149.428917 75.505441 
L 150.071659 72.98127 
L 150.714397 75.915547 
L 151.367851 76.426202 
L 151.999882 75.296717 
L 152.653336 76.26922 
L 153.285362 75.095659 
L 153.928104 76.511372 
L 154.581558 75.865876 
L 155.2243 75.707556 
L 155.856327 77.391261 
L 156.499069 77.208058 
L 157.152523 78.386927 
L 157.78455 77.354448 
L 158.427296 74.661878 
L 159.08075 75.732096 
L 159.712772 77.257745 
L 160.355515 75.07298 
L 160.998257 76.354347 
L 161.640999 78.15868 
L 162.283737 79.435047 
L 162.926483 78.618874 
L 163.569221 78.738264 
L 164.21196 76.652329 
L 164.854706 79.05445 
L 165.50816 79.66221 
L 166.140186 79.381964 
L 166.782928 80.092311 
L 167.425667 79.414602 
L 168.068409 79.169381 
L 168.711151 80.761532 
L 169.364601 79.685268 
L 169.996632 79.616498 
L 170.639374 80.787899 
L 171.292828 80.139883 
L 172.567596 82.116303 
L 173.22105 80.120219 
L 173.853081 78.639241 
L 174.506535 79.809855 
L 175.138561 78.837784 
L 175.781303 79.17821 
L 176.424046 75.465707 
L 177.066784 75.039471 
L 177.709526 73.324783 
L 178.352268 73.496813 
L 178.99501 72.097357 
L 179.64846 71.036571 
L 180.280491 69.167908 
L 180.923229 68.050524 
L 181.565971 67.64042 
L 182.208717 68.761333 
L 182.851456 65.971455 
L 183.494194 64.682979 
L 184.136936 61.644219 
L 184.779678 63.206151 
L 185.422421 62.087612 
L 186.065159 61.649973 
L 186.718613 61.79613 
L 187.350643 61.058489 
L 187.993385 59.196745 
L 188.636127 61.317957 
L 189.278866 59.041392 
L 189.921608 61.492118 
L 190.56435 60.948987 
L 191.217804 59.010446 
L 191.849831 60.802779 
L 193.135315 62.702338 
L 193.778053 65.233343 
L 194.420795 65.355696 
L 195.70628 67.676917 
L 196.349018 68.498111 
L 197.002472 68.28637 
L 197.634502 68.908494 
L 198.277245 68.565521 
L 198.930695 68.353514 
L 199.573437 69.139248 
L 200.205467 67.873659 
L 200.848206 69.503426 
L 201.490948 69.744309 
L 202.13369 69.022524 
L 202.776432 69.438645 
L 203.429882 70.767422 
L 204.061913 70.80543 
L 204.704655 71.063836 
L 205.347393 71.163121 
L 205.990139 71.723376 
L 207.275616 73.276075 
L 207.929073 73.513519 
L 208.561104 73.540954 
L 209.203842 72.671359 
L 209.846581 74.014119 
L 210.489323 73.991976 
L 211.132065 74.280067 
L 211.849792 75.022595 
L 212.492535 74.185095 
L 213.135273 76.288627 
L 213.778015 74.532381 
L 214.420757 74.915598 
L 215.063499 75.864865 
L 215.706238 71.689887 
L 216.34898 73.575983 
L 216.991722 68.769059 
L 217.634464 70.002569 
L 218.277203 70.650447 
L 218.919949 67.357077 
L 219.562687 67.28049 
L 220.205425 66.911364 
L 220.848167 66.672708 
L 221.490913 66.09996 
L 222.133652 64.536178 
L 222.77639 61.86559 
L 223.419132 64.179674 
L 224.061874 60.416668 
L 224.704617 62.827561 
L 225.990097 59.833228 
L 226.632839 60.832675 
L 227.275578 59.244388 
L 227.918324 61.206847 
L 228.561062 60.56739 
L 229.2038 62.752242 
L 229.846546 59.247685 
L 230.489285 59.472809 
L 231.067753 59.426142 
L 231.774769 58.320531 
L 232.417511 61.81965 
L 233.060249 60.645456 
L 233.702991 61.493943 
L 234.345734 63.926795 
L 234.988476 60.90755 
L 235.631214 61.657496 
L 236.916698 64.238658 
L 237.559441 63.143439 
L 238.202179 61.416899 
L 238.844921 66.338881 
L 239.487659 64.358889 
L 240.130402 63.996079 
L 240.773148 66.121882 
L 241.415886 64.701551 
L 242.058624 66.184497 
L 242.70137 67.207267 
L 243.344109 64.908863 
L 244.629589 68.514671 
L 245.272331 66.800565 
L 245.915073 69.599382 
L 246.557812 70.442088 
L 247.200558 68.407079 
L 247.843296 70.836646 
L 248.486038 72.010253 
L 249.12878 69.151795 
L 249.771519 72.143193 
L 250.414261 72.319774 
L 251.057003 70.305857 
L 251.699745 72.181383 
L 253.627968 72.422291 
L 254.27071 70.744205 
L 254.913448 72.298117 
L 255.55619 71.754224 
L 256.198933 71.457321 
L 256.841671 72.955316 
L 257.484413 73.560861 
L 258.127155 72.27424 
L 258.769897 72.486499 
L 259.412636 73.780767 
L 260.055378 73.075222 
L 260.69812 73.740657 
L 261.340858 72.608425 
L 261.983601 73.977377 
L 262.626343 74.008714 
L 263.269085 73.690651 
L 263.911823 73.958094 
L 264.554569 72.858543 
L 265.197308 73.990194 
L 265.840046 72.907127 
L 266.482792 73.229192 
L 267.125534 72.859887 
L 267.768272 74.240634 
L 268.411011 73.282773 
L 269.053753 74.748919 
L 269.696495 69.796106 
L 270.339237 86.304421 
L 270.981979 73.050553 
L 271.624718 79.216437 
L 272.26746 78.468395 
L 272.910202 76.124269 
L 274.195683 77.129261 
L 274.838425 77.530245 
L 275.481167 76.903175 
L 276.123905 77.770674 
L 276.766647 79.046165 
L 277.409389 80.046793 
L 278.052132 79.12882 
L 278.69487 81.850358 
L 279.337612 73.896704 
L 279.980354 80.436419 
L 280.623096 78.803783 
L 281.265835 80.595588 
L 281.908577 80.188099 
L 282.551315 80.622188 
L 283.194057 80.537292 
L 283.836803 82.183934 
L 284.479542 79.562384 
L 285.12228 81.473106 
L 285.765022 82.794377 
L 286.407764 81.23789 
L 287.050507 83.525288 
L 287.693245 85.115449 
L 288.335991 82.239133 
L 288.978729 85.269407 
L 289.621468 86.133667 
L 290.264214 85.13408 
L 290.906956 86.791936 
L 291.549694 81.623092 
L 292.192432 79.88403 
L 292.835175 82.399137 
L 293.477917 85.792714 
L 294.120659 82.663019 
L 294.763401 81.759529 
L 295.406139 82.471011 
L 296.048882 82.089655 
L 296.691624 80.527046 
L 297.334366 82.940981 
L 297.977104 81.405212 
L 298.619843 81.230257 
L 299.262589 80.473089 
L 299.905331 81.294687 
L 301.190811 82.023348 
L 301.833553 82.242323 
L 302.476292 80.788889 
L 303.119034 81.034234 
L 303.761776 80.391783 
L 304.404518 82.370491 
L 305.047256 82.052649 
L 305.689999 81.430739 
L 306.332741 82.410611 
L 306.975483 80.857147 
L 307.618225 81.321459 
L 308.903702 81.670046 
L 309.546444 81.26455 
L 310.18919 81.652321 
L 310.831928 81.562713 
L 311.474667 81.205707 
L 312.117409 81.747712 
L 312.760151 81.776986 
L 313.402893 81.305914 
L 314.045635 79.695908 
L 314.688374 80.575005 
L 315.331116 80.29339 
L 315.973854 79.640637 
L 316.6166 81.602066 
L 317.259338 81.123111 
L 317.902081 83.290803 
L 318.544823 88.649994 
L 319.187561 89.804448 
L 321.115788 79.934877 
L 321.758526 78.697862 
L 322.401264 76.275861 
L 323.044014 75.970234 
L 323.686752 74.753073 
L 324.329491 74.38052 
L 324.972233 75.525748 
L 325.614975 76.105119 
L 326.257717 75.919804 
L 326.900455 77.713896 
L 327.543198 76.620995 
L 328.185936 78.276345 
L 328.828678 78.192113 
L 329.471424 79.450325 
L 330.114162 79.404129 
L 330.756901 79.505799 
L 331.399647 80.209892 
L 332.042385 80.319636 
L 332.685127 80.828143 
L 333.327866 80.815529 
L 333.970612 80.667755 
L 334.61335 80.204026 
L 335.256088 80.902635 
L 335.898834 81.236117 
L 336.541576 80.753603 
L 337.184315 80.886751 
L 337.827057 80.576265 
L 338.469795 80.712702 
L 339.112537 80.193543 
L 339.75528 80.251786 
L 340.398022 80.932983 
L 341.04076 78.96494 
L 341.683498 77.923894 
L 342.326244 77.999346 
L 342.968987 78.77164 
L 343.611725 77.626891 
L 344.254467 80.781723 
L 344.972195 80.550187 
L 345.614937 77.835236 
L 346.257675 80.121523 
L 346.900421 80.321921 
L 347.543159 78.961693 
L 348.185898 80.457021 
L 348.828644 79.163091 
L 349.471382 77.401445 
L 350.114124 81.18382 
L 350.756866 78.0705 
L 351.399605 77.569794 
L 352.685089 72.60819 
L 353.327831 71.787249 
L 353.959858 72.023609 
L 354.613308 69.173519 
L 355.898796 68.408342 
L 356.541534 66.219877 
L 357.173565 66.98459 
L 357.827019 67.018198 
L 358.469757 66.169693 
L 359.112499 66.705909 
L 359.755241 67.613252 
L 360.397984 67.510363 
L 361.040722 66.279434 
L 361.683464 66.177521 
L 362.326206 66.715741 
L 362.968948 66.172829 
L 363.611687 67.573338 
L 364.254429 66.580673 
L 364.897167 66.367849 
L 365.539909 66.963325 
L 366.182655 66.644124 
L 366.825394 66.071124 
L 367.468132 66.310142 
L 368.110874 64.942415 
L 368.753616 66.20404 
L 369.396358 65.243667 
L 370.039097 65.031776 
L 370.681839 66.150816 
L 371.324581 66.03808 
L 371.967323 67.550131 
L 372.610065 65.049415 
L 373.252804 66.802249 
L 373.895546 66.220791 
L 374.538288 66.063902 
L 375.18103 66.992691 
L 375.823769 65.307859 
L 376.466511 64.993014 
L 377.109253 67.708798 
L 377.751991 64.165059 
L 378.394733 67.596184 
L 379.037476 66.994392 
L 379.680218 63.634943 
L 380.322956 66.698497 
L 380.965698 67.1061 
L 381.60844 65.311339 
L 382.251183 69.167403 
L 382.893921 65.671063 
L 383.536663 65.461374 
L 384.179401 68.162521 
L 384.822144 66.525783 
L 386.750366 67.604077 
L 387.393108 66.856401 
L 388.035851 67.557197 
L 388.678593 69.484154 
L 389.321331 68.126511 
L 389.964077 69.569156 
L 390.606815 70.198576 
L 391.249554 68.845873 
L 391.8923 70.404209 
L 392.535042 71.557139 
L 393.17778 71.475538 
L 393.820518 71.995411 
L 395.106003 71.973594 
L 395.748745 74.304341 
L 396.391487 73.108155 
L 397.034225 75.723345 
L 397.676964 74.596432 
L 398.31971 76.65442 
L 398.962452 76.063097 
L 399.60519 74.40112 
L 400.247929 77.648391 
L 400.890675 76.478972 
L 401.533417 77.111928 
L 402.176155 76.814103 
L 402.818897 76.143319 
L 403.461639 77.171488 
L 404.104378 76.925597 
L 404.74712 75.758671 
L 405.389862 77.471934 
L 406.032604 76.835495 
L 406.675343 76.880788 
L 407.318085 77.35245 
L 407.960827 77.036793 
L 408.603569 77.314439 
L 409.246311 82.529181 
L 409.88905 76.677077 
L 410.531788 76.874317 
L 411.17453 75.638505 
L 411.817276 82.62749 
L 412.460014 78.694788 
L 413.102753 78.951874 
L 413.745495 82.072048 
L 414.388237 80.741078 
L 415.030979 81.793062 
L 415.673721 82.421497 
L 416.31646 81.088353 
L 416.959202 81.09799 
L 417.60194 80.568145 
L 418.244686 82.39225 
L 418.887424 80.891275 
L 419.530167 81.66381 
L 420.172909 81.295384 
L 420.815647 81.899091 
L 421.458389 81.634312 
L 422.743874 80.650732 
L 424.02935 81.668615 
L 424.672096 80.55208 
L 425.957577 81.474034 
L 426.600319 82.474789 
L 427.243061 82.458795 
L 427.885799 82.29903 
L 428.528542 83.40303 
L 429.171284 85.045411 
L 429.814022 82.393997 
L 430.456764 83.916261 
L 431.09951 83.456743 
L 431.742249 81.650109 
L 432.384987 82.796694 
L 433.027733 82.983307 
L 433.670471 84.495672 
L 434.313213 82.857498 
L 434.955952 80.33698 
L 435.598698 80.387059 
L 436.241436 81.677136 
L 436.884174 78.283705 
L 437.52692 78.884259 
L 438.169662 76.977572 
L 438.812401 77.375856 
L 439.455143 75.551718 
L 440.097881 75.423911 
L 440.740623 76.443849 
L 441.383366 76.409932 
L 442.026108 75.685659 
L 443.311588 74.924643 
L 443.95433 76.009746 
L 444.597073 75.758555 
L 445.239811 75.191918 
L 445.882553 77.191233 
L 446.525295 75.401932 
L 447.168034 76.51112 
L 447.810776 76.327871 
L 448.453518 76.681017 
L 449.09626 77.68333 
L 449.738998 77.27862 
L 450.381741 77.074272 
L 451.024483 77.321212 
L 451.667225 77.697507 
L 452.309963 77.312024 
L 452.952705 78.139346 
L 453.595444 78.347967 
L 454.238186 77.363677 
L 454.880932 78.328544 
L 455.52367 77.394968 
L 456.230686 78.014848 
L 456.809155 78.832122 
L 457.451893 77.559532 
L 458.094635 78.502253 
L 458.737373 77.98682 
L 459.380119 78.401508 
L 460.6656 78.200725 
L 461.308342 77.171902 
L 461.95108 78.335831 
L 463.300838 76.653938 
L 463.879307 77.905926 
L 465.164787 78.927813 
L 465.807529 78.126799 
L 466.450268 78.625783 
L 467.09301 78.383977 
L 468.378494 77.531056 
L 469.021233 78.518678 
L 469.663975 78.574178 
L 470.306717 77.550933 
L 470.949459 77.175066 
L 471.592197 76.519024 
L 472.23494 78.438786 
L 472.941952 77.983957 
L 473.584698 79.805634 
L 474.227436 78.441874 
L 474.870178 79.431037 
L 475.512917 79.382891 
L 476.155663 79.173534 
L 476.798401 80.378755 
L 477.441143 78.793316 
L 478.726627 80.008625 
L 479.380077 78.285438 
L 480.012108 78.921643 
L 480.65485 80.690769 
L 481.297592 79.945347 
L 481.940331 78.820862 
L 482.583073 79.456642 
L 483.225811 79.555932 
L 483.868553 77.503401 
L 484.511299 79.192214 
L 485.154037 76.559345 
L 486.439518 74.138068 
L 487.08226 72.285406 
L 487.725002 72.490709 
L 488.367741 69.858862 
L 489.010483 71.039354 
L 489.653225 68.639891 
L 490.295963 68.526591 
L 490.949417 67.349955 
L 491.581448 66.573201 
L 492.22419 68.376572 
L 492.866928 67.840196 
L 493.50967 66.171702 
L 494.152412 66.923391 
L 494.795155 66.171915 
L 495.437897 67.465299 
L 496.080635 67.19147 
L 496.723373 66.728542 
L 497.366119 65.521326 
L 498.008862 69.446906 
L 498.6516 67.252638 
L 499.305054 65.710667 
L 499.93708 67.669175 
L 500.590538 67.043081 
L 501.222565 66.880137 
L 501.865307 65.653525 
L 502.508045 65.777411 
L 503.150787 65.782741 
L 503.79353 64.342602 
L 504.436272 66.114752 
L 505.07901 68.393697 
L 505.732464 66.313179 
L 506.364494 67.732799 
L 507.017948 68.407779 
L 507.649975 66.565395 
L 508.292721 67.868567 
L 508.946171 67.689967 
L 509.588913 67.830783 
L 510.22094 68.196327 
L 510.863686 68.077451 
L 511.506424 67.752268 
L 512.149162 68.917972 
L 512.791904 68.972699 
L 513.434647 70.045339 
L 514.077389 69.833484 
L 514.720131 72.32369 
L 515.362869 72.068975 
L 516.005608 72.007701 
L 516.64835 72.934638 
L 517.291096 72.277304 
L 517.933834 73.835283 
L 518.576572 74.289623 
L 519.219318 73.881445 
L 519.862057 72.701826 
L 520.504799 73.869582 
L 521.158253 73.839361 
L 521.790283 73.688393 
L 522.433022 74.386055 
L 523.07576 72.886019 
L 523.729218 74.23535 
L 524.361248 73.266516 
L 525.003986 74.028662 
L 525.646729 75.322668 
L 526.289467 73.974508 
L 526.932209 74.573774 
L 527.574951 74.420803 
L 528.217693 74.552802 
L 528.860432 74.373016 
L 529.503174 75.011397 
L 530.156628 74.8294 
L 530.788658 74.349037 
L 532.074139 74.86557 
L 533.370335 73.140807 
L 534.002361 74.663425 
L 534.645103 74.875334 
L 535.298557 74.116101 
L 535.930584 73.915924 
L 536.57333 74.033126 
L 537.216068 74.980587 
L 537.85881 74.147781 
L 539.144291 75.457985 
L 539.787033 72.874343 
L 540.429775 75.4359 
L 541.072517 75.303618 
L 541.715256 74.957792 
L 542.357994 75.311714 
L 543.00074 74.955997 
L 543.643482 75.3596 
L 544.286221 74.764241 
L 544.928963 73.68808 
L 545.571705 73.251403 
L 546.214443 73.569907 
L 546.857185 73.191484 
L 547.499928 72.338813 
L 548.153381 72.46412 
L 548.785408 73.196683 
L 549.42815 72.877744 
L 550.070892 72.962709 
L 550.713631 72.52057 
L 551.356373 71.047555 
L 551.999115 65.622617 
L 552.641853 72.284986 
L 553.284595 72.338075 
L 553.938049 73.626284 
L 554.57008 73.999515 
L 555.212818 73.303015 
L 555.85556 75.636858 
L 556.509018 76.586037 
L 557.141045 78.020732 
L 557.783783 78.337367 
L 558.426525 79.827439 
L 559.079979 80.317435 
L 559.712006 82.327528 
L 560.354752 81.649641 
L 560.99749 79.140864 
L 561.640232 84.817853 
L 562.282974 79.601377 
L 562.925713 81.89673 
L 563.568455 81.202597 
L 564.211193 82.79091 
L 564.864647 80.676321 
L 565.496677 81.993644 
L 566.13942 81.496426 
L 566.782162 82.115635 
L 567.424904 81.629425 
L 568.067642 81.494452 
L 568.710384 80.82498 
L 569.353127 81.689223 
L 570.00658 80.926044 
L 570.638607 81.114799 
L 571.281349 80.932315 
L 571.924088 81.171995 
L 572.56683 80.79905 
L 573.209576 80.259765 
L 573.852314 81.637405 
L 574.495052 80.42093 
L 575.137794 80.709024 
L 576.423279 80.714697 
L 577.066017 80.420403 
L 577.719471 80.993254 
L 578.351501 80.797999 
L 578.99424 79.922455 
L 579.636986 80.452749 
L 580.279724 79.303384 
L 580.922466 79.409534 
L 581.565205 79.928728 
L 582.207947 80.042561 
L 582.850689 80.566109 
L 583.493431 80.530886 
L 584.136173 80.265771 
L 584.853897 80.83038 
L 585.496639 75.485607 
L 586.139385 81.766008 
L 586.782124 80.449509 
L 587.424862 76.584606 
L 588.067604 78.904583 
L 588.710346 77.896648 
L 589.931553 73.796399 
L 591.281311 75.712415 
L 591.924049 75.230375 
L 592.566795 75.513031 
L 593.209534 76.079498 
L 593.852276 79.270489 
L 594.495014 81.867854 
L 595.137756 82.460563 
L 595.780499 84.300893 
L 596.423241 84.83391 
L 597.065983 83.254868 
L 597.708721 84.003026 
L 598.35146 82.09937 
L 598.994205 82.375599 
L 599.636948 82.991019 
L 600.279686 82.992704 
L 600.922424 82.209169 
L 601.56517 82.066721 
L 602.207909 82.805529 
L 602.850651 82.241718 
L 603.493393 82.935126 
L 604.136131 82.214866 
L 604.778873 82.560016 
L 605.421616 82.686688 
L 606.064358 81.531576 
L 606.707096 82.328834 
L 607.349838 82.589712 
L 607.99258 82.312121 
L 608.635319 82.586864 
L 609.278061 81.938338 
L 609.920807 82.126765 
L 610.563545 82.456077 
L 611.849026 82.547385 
L 613.13451 83.035036 
L 613.777248 82.827848 
L 614.419991 82.87246 
L 615.062733 82.488047 
L 615.705475 82.69527 
L 616.348217 82.362681 
L 616.990955 82.224406 
L 617.633698 82.376715 
L 618.276436 82.299977 
L 618.919182 82.675076 
L 619.56192 82.292292 
L 620.847404 82.882708 
L 621.490143 82.136313 
L 622.132885 81.90057 
L 622.636364 82.321212 
L 622.636364 82.321212 
" clip-path="url(#p56ecefcaad)" style="fill: none; stroke: #1f77b4; stroke-width: 2.5; stroke-linecap: square"/>
   </g>
   <g id="line2d_26">
    <path d="M 115.363636 89.265661 
L 116.006378 90.182544 
L 116.659832 90.301826 
L 117.934601 89.646388 
L 118.577339 89.800684 
L 119.220085 89.272962 
L 119.862827 90.274726 
L 120.505566 89.636093 
L 121.148304 90.917723 
L 121.801758 90.250887 
L 122.433788 90.25643 
L 123.07653 91.789732 
L 124.362011 89.600978 
L 125.015465 90.298697 
L 125.647495 89.69508 
L 126.290237 90.457015 
L 126.932976 90.12614 
L 127.575714 90.193671 
L 128.229168 90.39248 
L 128.871914 89.851478 
L 129.503941 90.726951 
L 130.146683 91.101723 
L 130.789425 90.494001 
L 131.432163 91.643294 
L 132.074905 90.286513 
L 132.717648 91.139072 
L 133.36039 89.406591 
L 134.003128 90.405438 
L 134.64587 89.735771 
L 135.288612 88.296191 
L 135.931355 88.453476 
L 136.574093 87.982047 
L 137.216835 86.367198 
L 137.859573 86.237298 
L 138.502316 88.504791 
L 139.7878 87.092226 
L 140.430538 89.071544 
L 141.07328 89.317092 
L 141.716022 92.716266 
L 142.358765 88.923929 
L 143.001507 89.094959 
L 143.644245 89.590086 
L 144.286987 88.991393 
L 144.929726 87.722132 
L 145.583179 89.730122 
L 146.857952 88.836672 
L 147.500694 88.006548 
L 148.154148 90.59407 
L 148.786175 89.454972 
L 149.428917 89.283608 
L 150.071659 88.736859 
L 150.714397 88.993367 
L 151.367851 89.114582 
L 151.999882 89.101465 
L 152.653336 88.092949 
L 153.285362 88.93543 
L 153.928104 88.868618 
L 154.581558 88.020555 
L 155.2243 87.58641 
L 155.856327 88.670066 
L 156.499069 87.532582 
L 157.152523 87.758502 
L 157.78455 86.884875 
L 158.427296 88.070648 
L 159.08075 85.491449 
L 159.712772 82.334729 
L 160.998257 77.595691 
L 161.640999 70.932689 
L 162.283737 74.210508 
L 162.926483 73.393426 
L 163.569221 73.179669 
L 164.21196 74.825588 
L 165.50816 77.127474 
L 166.140186 77.58918 
L 166.782928 78.240378 
L 167.425667 77.816851 
L 168.068409 78.760142 
L 168.711151 80.187642 
L 169.364601 80.115928 
L 170.639374 80.792972 
L 171.292828 79.857427 
L 171.924858 81.10571 
L 172.567596 79.875953 
L 173.22105 78.241278 
L 173.853081 79.671837 
L 174.506535 80.186688 
L 175.138561 78.70316 
L 175.781303 78.639062 
L 176.424046 78.073194 
L 177.066784 76.401995 
L 178.352268 76.639699 
L 178.99501 74.928794 
L 179.64846 75.263484 
L 180.280491 73.788722 
L 180.923229 71.862563 
L 181.565971 72.762438 
L 182.208717 72.477194 
L 182.851456 70.108317 
L 183.494194 69.523325 
L 184.136936 67.165919 
L 185.422421 68.070702 
L 186.065159 65.786738 
L 187.350643 66.826497 
L 187.993385 65.183069 
L 188.636127 67.105396 
L 189.278866 65.624859 
L 189.921608 68.442224 
L 190.56435 68.087826 
L 191.217804 67.34128 
L 191.849831 68.98748 
L 195.063538 74.115149 
L 195.70628 74.408588 
L 197.002472 76.180108 
L 197.634502 76.426794 
L 198.277245 77.31429 
L 198.930695 76.596179 
L 200.205467 78.846056 
L 200.848206 78.545532 
L 201.490948 79.060299 
L 202.13369 78.229551 
L 202.776432 78.273965 
L 203.429882 78.946325 
L 204.061913 79.223627 
L 204.704655 79.103924 
L 205.347393 79.420735 
L 205.990139 79.124061 
L 206.632877 79.122141 
L 207.275616 80.214169 
L 207.929073 79.585317 
L 208.561104 81.56194 
L 209.846581 81.446901 
L 211.132065 81.456828 
L 211.849792 81.779598 
L 212.492535 80.225851 
L 213.135273 81.626527 
L 213.778015 80.562834 
L 214.420757 80.493153 
L 215.063499 79.596231 
L 215.706238 78.364357 
L 216.34898 78.630355 
L 216.991722 76.4216 
L 217.634464 75.910951 
L 218.277203 74.99205 
L 218.919949 71.623653 
L 219.562687 72.529253 
L 220.205425 70.627295 
L 220.848167 71.590412 
L 221.490913 70.611649 
L 222.77639 70.274122 
L 223.419132 71.306507 
L 224.061874 68.963232 
L 224.704617 67.93396 
L 225.347359 68.302635 
L 225.990097 67.80115 
L 226.632839 68.213484 
L 227.275578 68.249151 
L 227.918324 68.02646 
L 228.561062 68.2123 
L 229.2038 69.125592 
L 229.846546 66.996728 
L 230.489285 69.001441 
L 231.067753 66.076265 
L 231.774769 67.228829 
L 232.417511 68.914418 
L 233.060249 67.553303 
L 233.702991 67.51908 
L 234.345734 68.809925 
L 234.988476 67.723324 
L 235.631214 65.193482 
L 236.273956 66.501092 
L 236.916698 67.18644 
L 237.559441 68.413261 
L 238.202179 66.108678 
L 238.844921 68.831304 
L 239.487659 66.354278 
L 240.130402 67.970816 
L 240.773148 69.116001 
L 241.415886 68.177009 
L 242.058624 68.512584 
L 242.70137 70.036865 
L 243.344109 67.899975 
L 243.986851 68.135499 
L 244.629589 69.792423 
L 245.272331 66.89492 
L 245.915073 68.589133 
L 246.557812 68.157564 
L 247.200558 67.148824 
L 247.843296 69.350773 
L 248.486038 68.778847 
L 249.12878 66.863366 
L 249.771519 69.452941 
L 250.414261 69.726246 
L 251.057003 67.05429 
L 251.699745 68.850694 
L 252.342484 69.340679 
L 252.985222 69.14348 
L 253.627968 68.48885 
L 254.27071 68.021039 
L 254.913448 67.774634 
L 255.55619 69.740042 
L 256.198933 68.67426 
L 256.841671 69.918067 
L 257.484413 70.833526 
L 258.127155 70.725861 
L 258.769897 71.113737 
L 259.412636 72.816092 
L 260.055378 71.807805 
L 260.69812 72.524986 
L 261.340858 71.446791 
L 261.983601 72.101264 
L 262.626343 71.823754 
L 263.269085 71.254327 
L 263.911823 71.175682 
L 264.554569 71.322299 
L 265.197308 70.803573 
L 265.840046 71.590101 
L 266.482792 70.659854 
L 267.768272 70.360057 
L 268.411011 71.306637 
L 269.053753 73.093897 
L 269.696495 70.089924 
L 270.339237 65.587321 
L 270.981979 81.469923 
L 271.624718 73.710053 
L 272.26746 76.658332 
L 272.910202 75.064811 
L 273.552944 78.862575 
L 274.195683 79.849697 
L 274.838425 78.911865 
L 275.481167 77.671437 
L 276.766647 80.75701 
L 277.409389 81.589273 
L 278.052132 80.787266 
L 278.69487 82.051427 
L 279.337612 81.155598 
L 279.980354 82.800318 
L 280.623096 83.775109 
L 281.265835 82.742751 
L 282.551315 83.421469 
L 283.194057 84.637584 
L 283.836803 82.591859 
L 284.479542 83.486404 
L 285.765022 83.771156 
L 286.407764 82.24642 
L 287.050507 82.429807 
L 287.693245 83.053172 
L 288.335991 81.631464 
L 288.978729 81.90494 
L 289.621468 83.829739 
L 290.264214 82.522894 
L 290.906956 83.538195 
L 291.549694 82.028134 
L 292.192432 84.80314 
L 292.835175 88.403167 
L 293.477917 84.22871 
L 294.120659 83.76572 
L 294.763401 83.619087 
L 295.406139 85.415711 
L 296.048882 84.242561 
L 296.691624 84.18882 
L 297.334366 86.719359 
L 297.977104 84.121694 
L 298.619843 84.964559 
L 299.262589 84.869292 
L 299.905331 84.282732 
L 300.548069 83.520297 
L 301.833553 84.04873 
L 302.476292 83.16574 
L 303.119034 83.729835 
L 303.761776 82.837101 
L 304.404518 83.814277 
L 305.047256 83.971335 
L 305.689999 81.118398 
L 306.332741 84.259872 
L 306.975483 81.511466 
L 307.618225 82.707266 
L 308.260963 82.307778 
L 308.903702 82.651351 
L 309.546444 82.750141 
L 310.18919 82.537437 
L 310.831928 83.589653 
L 311.474667 82.811602 
L 312.117409 83.506598 
L 312.760151 82.033299 
L 313.402893 84.024624 
L 314.045635 81.111367 
L 314.688374 82.811591 
L 315.331116 83.636669 
L 315.973854 81.704071 
L 316.6166 83.02833 
L 317.259338 82.331812 
L 317.902081 80.623594 
L 318.544823 78.288343 
L 319.187561 77.527854 
L 319.830303 74.420543 
L 320.473045 77.713345 
L 321.115788 75.437715 
L 321.758526 75.917895 
L 322.401264 72.887214 
L 323.044014 72.65576 
L 323.686752 73.14682 
L 324.329491 73.071104 
L 324.972233 75.025021 
L 325.614975 75.430546 
L 326.257717 76.075666 
L 326.900455 77.107391 
L 327.543198 76.777398 
L 328.185936 78.377136 
L 328.828678 78.080927 
L 329.471424 78.31438 
L 330.114162 77.762102 
L 330.756901 78.656339 
L 332.042385 79.361856 
L 332.685127 78.077845 
L 333.327866 78.62184 
L 333.970612 78.948364 
L 334.61335 78.268241 
L 335.256088 78.173628 
L 335.898834 78.903049 
L 337.184315 79.171341 
L 337.827057 78.714901 
L 339.112537 79.234346 
L 339.75528 77.931974 
L 340.398022 80.34062 
L 341.04076 78.920274 
L 342.326244 79.00502 
L 342.968987 76.345505 
L 343.611725 76.56408 
L 344.254467 77.04019 
L 344.972195 77.195427 
L 345.614937 76.660401 
L 346.257675 79.310514 
L 346.900421 78.043833 
L 348.185898 78.097146 
L 348.828644 77.408532 
L 349.471382 75.622803 
L 350.114124 78.68156 
L 350.756866 74.769005 
L 351.399605 74.571933 
L 352.685089 69.941317 
L 353.327831 68.824222 
L 353.959858 69.524804 
L 354.613308 67.781964 
L 355.256054 66.662595 
L 355.898796 66.793512 
L 356.541534 65.163524 
L 357.173565 65.880022 
L 357.827019 65.383813 
L 358.469757 65.333499 
L 359.112499 65.41528 
L 359.755241 65.121105 
L 360.397984 65.089424 
L 361.040722 64.797499 
L 361.683464 63.917826 
L 362.326206 63.773881 
L 362.968948 64.605137 
L 363.611687 64.301522 
L 364.254429 65.303202 
L 364.897167 65.577711 
L 365.539909 64.033 
L 366.182655 64.492013 
L 366.825394 63.337044 
L 367.468132 63.073344 
L 368.110874 62.033193 
L 368.753616 62.940726 
L 369.396358 63.05716 
L 370.039097 63.330584 
L 371.324581 63.518931 
L 371.967323 63.086959 
L 372.610065 62.083207 
L 373.252804 63.405722 
L 373.895546 63.182266 
L 374.538288 63.797419 
L 375.18103 64.99263 
L 375.823769 62.854542 
L 376.466511 64.455537 
L 377.109253 64.294305 
L 377.751991 62.175673 
L 378.394733 64.615158 
L 379.037476 64.053916 
L 379.680218 61.927359 
L 380.322956 64.944943 
L 380.965698 64.360641 
L 381.60844 62.866442 
L 382.251183 65.16185 
L 382.893921 61.530935 
L 383.536663 63.397702 
L 384.179401 66.109059 
L 384.822144 64.127018 
L 386.107628 65.104813 
L 386.750366 65.206659 
L 387.393108 64.892709 
L 388.035851 65.081761 
L 388.678593 64.666398 
L 389.321331 64.646217 
L 389.964077 65.76842 
L 390.606815 65.711873 
L 391.249554 65.497889 
L 391.8923 66.445718 
L 392.535042 65.910046 
L 393.17778 66.490838 
L 393.820518 66.870813 
L 394.463261 65.883897 
L 395.106003 65.205158 
L 395.748745 65.233486 
L 396.391487 65.523584 
L 397.034225 66.460653 
L 397.676964 65.584904 
L 398.31971 66.837443 
L 398.962452 67.244769 
L 399.60519 65.417265 
L 400.247929 67.107909 
L 400.890675 65.447286 
L 401.533417 66.293977 
L 402.818897 65.714985 
L 403.461639 66.370707 
L 404.104378 66.393297 
L 404.74712 66.084512 
L 405.389862 67.624293 
L 406.675343 66.966286 
L 407.318085 67.066074 
L 407.960827 68.128971 
L 408.603569 67.680592 
L 409.246311 66.686266 
L 409.88905 64.986048 
L 410.531788 66.862496 
L 411.17453 75.034715 
L 411.817276 72.624268 
L 412.460014 71.809866 
L 413.102753 76.881566 
L 413.745495 75.659413 
L 414.388237 75.5202 
L 415.030979 78.531068 
L 415.673721 76.659 
L 416.31646 76.948554 
L 416.959202 77.560197 
L 418.244686 76.589279 
L 418.887424 78.247706 
L 419.530167 78.422307 
L 420.172909 78.369911 
L 420.815647 77.801822 
L 421.458389 79.66399 
L 422.101131 80.366084 
L 422.743874 81.352778 
L 423.386612 81.120245 
L 424.02935 80.583085 
L 424.672096 82.199564 
L 425.957577 84.243921 
L 426.600319 82.309479 
L 427.243061 81.995318 
L 427.885799 83.811462 
L 428.528542 82.350764 
L 429.171284 81.528856 
L 429.814022 82.368465 
L 430.456764 81.766324 
L 431.09951 82.210169 
L 431.742249 81.101638 
L 432.384987 81.957683 
L 433.027733 81.948262 
L 433.670471 83.254852 
L 434.313213 85.447749 
L 434.955952 84.404894 
L 435.598698 85.775308 
L 436.241436 86.700693 
L 436.884174 84.278838 
L 437.52692 84.35052 
L 438.169662 83.448604 
L 438.812401 85.17924 
L 439.455143 84.883992 
L 440.097881 85.219434 
L 440.740623 84.468956 
L 441.383366 84.556646 
L 442.026108 85.56915 
L 442.668846 84.844721 
L 443.311588 83.71063 
L 443.95433 85.635086 
L 444.597073 84.927535 
L 445.239811 86.215898 
L 447.168034 85.561041 
L 447.810776 84.918074 
L 448.453518 86.95596 
L 449.09626 85.442746 
L 449.738998 84.870104 
L 451.024483 85.26841 
L 451.667225 84.557059 
L 452.309963 84.984888 
L 452.952705 84.833739 
L 453.595444 85.357514 
L 454.238186 84.301003 
L 454.880932 84.818802 
L 455.52367 84.36576 
L 456.809155 84.976882 
L 457.451893 84.585931 
L 458.094635 85.265108 
L 458.737373 84.868865 
L 459.380119 84.987198 
L 460.022858 84.460376 
L 461.308342 83.888869 
L 461.95108 85.042507 
L 462.593822 83.575414 
L 463.879307 84.238385 
L 464.522045 84.128522 
L 465.164787 84.477906 
L 465.807529 84.154359 
L 467.09301 84.471438 
L 467.735752 85.0983 
L 468.378494 84.355672 
L 469.021233 85.146237 
L 469.663975 84.165579 
L 470.306717 83.793559 
L 470.949459 83.892855 
L 471.592197 81.934574 
L 472.23494 84.077713 
L 472.941952 83.807041 
L 473.584698 83.77897 
L 475.512917 83.309582 
L 476.155663 83.344565 
L 476.798401 84.286934 
L 477.441143 82.58681 
L 478.083885 83.826751 
L 478.726627 84.310084 
L 479.380077 83.135011 
L 480.65485 84.132556 
L 481.297592 83.06268 
L 481.940331 81.370335 
L 482.583073 81.199357 
L 483.225811 80.426057 
L 483.868553 78.431869 
L 484.511299 78.37 
L 485.154037 75.637453 
L 485.796776 75.201131 
L 486.439518 73.522477 
L 487.08226 70.439946 
L 487.725002 70.705058 
L 488.367741 67.191421 
L 489.010483 68.111587 
L 489.653225 67.583418 
L 490.295963 65.949314 
L 490.949417 65.244402 
L 491.581448 64.891273 
L 492.22419 65.189626 
L 492.866928 64.428878 
L 493.50967 65.901771 
L 494.152412 65.287519 
L 494.795155 65.282835 
L 495.437897 65.760543 
L 496.080635 65.265986 
L 496.723373 66.15124 
L 497.366119 65.065258 
L 498.008862 65.981744 
L 498.6516 63.425575 
L 499.305054 64.968212 
L 499.93708 65.17991 
L 500.590538 64.544542 
L 501.222565 64.903217 
L 502.508045 62.915857 
L 503.150787 63.757937 
L 503.79353 63.382643 
L 504.436272 62.502413 
L 505.07901 64.278938 
L 505.732464 65.115689 
L 506.364494 65.710299 
L 507.017948 65.793106 
L 507.649975 65.122089 
L 508.292721 65.872232 
L 508.946171 64.75485 
L 509.588913 64.971208 
L 510.22094 65.744579 
L 510.863686 64.677771 
L 511.506424 65.156604 
L 512.149162 65.803251 
L 512.791904 65.442797 
L 513.434647 64.951379 
L 514.077389 63.72014 
L 514.720131 65.164651 
L 515.362869 64.63986 
L 516.64835 65.501099 
L 517.291096 65.196305 
L 517.933834 66.169909 
L 518.576572 65.66098 
L 519.219318 66.245517 
L 519.862057 66.62231 
L 520.504799 67.257219 
L 521.158253 66.139126 
L 521.790283 66.654375 
L 522.433022 67.81016 
L 523.07576 65.38112 
L 523.729218 67.634971 
L 524.361248 66.47768 
L 525.003986 67.024545 
L 525.646729 66.856625 
L 526.289467 66.033075 
L 526.932209 67.360666 
L 527.574951 66.799234 
L 528.217693 66.882279 
L 528.860432 67.437761 
L 529.503174 67.586225 
L 530.788658 68.727762 
L 531.431396 69.173736 
L 532.716881 69.281712 
L 533.370335 67.31021 
L 534.002361 69.095074 
L 534.645103 68.709964 
L 535.298557 69.044811 
L 535.930584 68.771419 
L 536.57333 69.585605 
L 537.216068 70.062191 
L 537.85881 68.216805 
L 538.501553 69.431541 
L 539.144291 71.039992 
L 539.787033 69.228187 
L 540.429775 69.226481 
L 541.072517 69.860049 
L 541.715256 70.249869 
L 542.357994 69.50759 
L 543.00074 70.627541 
L 543.643482 70.356237 
L 544.286221 70.815208 
L 546.214443 70.694858 
L 547.499928 69.852929 
L 548.153381 70.313112 
L 548.785408 70.479969 
L 549.42815 69.173922 
L 550.070892 68.748781 
L 550.713631 69.953823 
L 551.356373 69.06746 
L 551.999115 74.494269 
L 552.641853 71.414905 
L 553.284595 74.008073 
L 553.938049 73.440514 
L 554.57008 74.665099 
L 555.212818 74.976772 
L 555.85556 75.549252 
L 556.509018 77.06802 
L 557.141045 78.157996 
L 557.783783 78.059627 
L 558.426525 78.842944 
L 559.079979 80.26463 
L 559.712006 79.575147 
L 560.354752 83.445594 
L 560.99749 83.698327 
L 561.640232 83.38763 
L 562.282974 82.662108 
L 562.925713 83.818644 
L 563.568455 83.831608 
L 564.211193 85.308892 
L 564.864647 83.845447 
L 565.496677 85.372178 
L 566.13942 84.830143 
L 566.782162 84.785656 
L 567.424904 85.063193 
L 568.067642 85.81763 
L 568.710384 85.092967 
L 569.353127 85.45843 
L 570.00658 85.258729 
L 570.638607 85.400141 
L 571.281349 85.248083 
L 571.924088 85.772599 
L 572.56683 86.067001 
L 573.209576 85.769335 
L 573.852314 86.701577 
L 574.495052 86.454602 
L 575.137794 86.056869 
L 575.780537 87.084335 
L 576.423279 86.186907 
L 577.066017 86.311911 
L 577.719471 86.626669 
L 578.351501 87.176525 
L 578.99424 87.183664 
L 579.636986 88.429788 
L 580.279724 88.397954 
L 580.922466 87.917111 
L 581.565205 88.724943 
L 582.207947 88.862458 
L 582.850689 88.541748 
L 583.493431 87.909894 
L 584.136173 87.467755 
L 584.853897 82.273815 
L 585.496639 90.835132 
L 586.139385 92.886728 
L 586.782124 87.323853 
L 587.424862 89.952669 
L 588.067604 90.79482 
L 588.710346 92.430314 
L 589.353088 91.227078 
L 590.638569 92.734657 
L 591.281311 93.889571 
L 591.924049 92.1382 
L 592.566795 92.950344 
L 593.209534 91.808604 
L 593.852276 88.693489 
L 594.495014 89.50198 
L 595.137756 89.202548 
L 595.780499 88.256009 
L 596.423241 90.45493 
L 597.065983 88.790554 
L 597.708721 91.138696 
L 598.35146 90.210823 
L 598.994205 89.975448 
L 599.636948 90.820649 
L 600.279686 90.236818 
L 600.922424 89.995215 
L 601.56517 90.08185 
L 602.207909 91.662271 
L 602.850651 90.451193 
L 603.493393 90.883968 
L 604.136131 90.74599 
L 604.778873 90.98122 
L 605.421616 90.855213 
L 606.064358 90.924848 
L 606.707096 90.673313 
L 607.349838 90.203925 
L 607.99258 90.83252 
L 608.635319 90.696738 
L 609.278061 91.009463 
L 609.920807 90.847893 
L 610.563545 90.917404 
L 611.206284 90.765998 
L 611.849026 90.107847 
L 612.491772 91.300004 
L 613.13451 90.859361 
L 613.777248 90.62908 
L 614.419991 91.001608 
L 616.348217 91.118351 
L 616.990955 90.784637 
L 617.633698 91.331501 
L 618.919182 90.842877 
L 619.56192 91.062109 
L 620.204659 91.442119 
L 620.847404 91.001376 
L 621.490143 91.005451 
L 622.132885 91.216625 
L 622.636364 91.110217 
L 622.636364 91.110217 
" clip-path="url(#p56ecefcaad)" style="fill: none; stroke: #ff7f0e; stroke-width: 2.5; stroke-linecap: square"/>
   </g>
   <g id="line2d_27">
    <path d="M 115.363636 195.346048 
L 116.006378 195.146803 
L 116.659832 192.385992 
L 117.291862 191.133763 
L 117.934601 191.043636 
L 118.577339 192.267704 
L 119.220085 192.506501 
L 119.862827 191.767738 
L 120.505566 191.827421 
L 121.801758 190.809202 
L 122.433788 190.716734 
L 123.07653 191.176195 
L 123.72998 189.15092 
L 124.362011 188.638736 
L 125.015465 188.421942 
L 125.647495 188.063029 
L 126.290237 188.268503 
L 126.932976 187.158486 
L 127.575714 186.631946 
L 128.229168 187.31043 
L 128.871914 186.876093 
L 129.503941 187.885559 
L 130.146683 188.698667 
L 131.432163 188.250048 
L 132.717648 190.68652 
L 134.003128 192.764068 
L 134.64587 195.46772 
L 135.288612 198.980018 
L 135.931355 199.679114 
L 136.574093 203.500325 
L 137.216835 203.184946 
L 138.502316 208.561654 
L 139.145061 207.517419 
L 139.7878 208.849549 
L 140.430538 209.922044 
L 141.07328 208.242194 
L 141.716022 209.265874 
L 142.358765 209.465953 
L 143.001507 207.730094 
L 143.644245 208.517191 
L 144.286987 205.204371 
L 144.929726 206.843937 
L 145.583179 209.23823 
L 146.21521 209.592003 
L 146.857952 208.614584 
L 147.500694 209.308433 
L 148.154148 207.984574 
L 149.428917 209.385845 
L 150.071659 207.672526 
L 150.714397 207.490421 
L 151.367851 204.926533 
L 151.999882 206.857016 
L 152.653336 207.172147 
L 153.285362 210.112035 
L 153.928104 210.484401 
L 154.581558 213.622099 
L 155.2243 212.413164 
L 155.856327 212.489814 
L 156.499069 211.936586 
L 157.152523 211.577221 
L 157.78455 211.78437 
L 158.427296 210.018707 
L 159.08075 212.753449 
L 159.712772 211.711574 
L 160.355515 211.706664 
L 160.998257 211.508062 
L 161.640999 209.817615 
L 162.283737 206.206219 
L 162.926483 208.078231 
L 163.569221 207.949737 
L 164.21196 204.671127 
L 165.50816 197.223135 
L 166.140186 195.63529 
L 166.782928 194.499138 
L 167.425667 192.702744 
L 168.068409 193.744459 
L 168.711151 188.921212 
L 169.364601 187.232387 
L 169.996632 188.193986 
L 170.639374 186.920717 
L 171.292828 187.059594 
L 171.924858 188.45416 
L 172.567596 194.497999 
L 173.22105 196.267616 
L 173.853081 195.016267 
L 174.506535 194.378074 
L 175.138561 194.038075 
L 175.781303 194.661759 
L 176.424046 196.134108 
L 177.066784 194.155552 
L 177.709526 194.441306 
L 178.352268 193.959826 
L 178.99501 194.444893 
L 179.64846 196.513335 
L 180.280491 199.106761 
L 180.923229 200.186786 
L 181.565971 201.558396 
L 182.208717 204.772791 
L 182.851456 209.324877 
L 183.494194 212.397213 
L 184.136936 214.69874 
L 184.779678 212.971811 
L 185.422421 212.844735 
L 186.065159 213.048117 
L 186.718613 212.587486 
L 187.350643 211.306791 
L 187.993385 210.610352 
L 188.636127 208.588209 
L 189.278866 204.926219 
L 189.921608 204.95815 
L 190.56435 203.723413 
L 191.217804 206.240318 
L 191.849831 204.016414 
L 192.503284 200.705188 
L 193.135315 198.891738 
L 193.778053 197.970878 
L 194.420795 198.269756 
L 195.063538 198.01162 
L 195.70628 196.93228 
L 196.349018 193.625444 
L 197.002472 191.963292 
L 197.634502 191.828369 
L 198.277245 192.588483 
L 198.930695 191.106505 
L 199.573437 192.223508 
L 200.205467 192.974027 
L 200.848206 190.268019 
L 201.490948 189.873863 
L 202.776432 189.799579 
L 203.429882 189.430631 
L 204.061913 188.733027 
L 204.704655 188.413667 
L 205.347393 188.843732 
L 205.990139 188.870871 
L 206.632877 188.083828 
L 207.275616 187.581919 
L 207.929073 185.95459 
L 208.561104 186.692302 
L 209.846581 185.747586 
L 210.489323 185.824543 
L 211.132065 185.390589 
L 211.849792 185.086383 
L 212.492535 187.033376 
L 213.135273 187.682547 
L 213.778015 187.59883 
L 214.420757 188.390175 
L 215.063499 187.179331 
L 215.706238 184.867005 
L 216.34898 188.238874 
L 216.991722 192.337708 
L 217.634464 193.967726 
L 218.277203 195.264938 
L 218.919949 195.81274 
L 219.562687 198.470553 
L 220.205425 199.676346 
L 220.848167 202.690991 
L 221.490913 204.916456 
L 222.133652 203.508134 
L 222.77639 203.614181 
L 223.419132 202.919269 
L 224.704617 208.170316 
L 225.347359 208.800161 
L 225.990097 209.009624 
L 226.632839 206.350469 
L 227.275578 208.251135 
L 227.918324 208.201911 
L 228.561062 208.955757 
L 229.2038 210.476982 
L 229.846546 209.484909 
L 230.489285 212.636519 
L 231.067753 214.158555 
L 231.774769 211.868654 
L 232.417511 212.554496 
L 233.060249 214.308583 
L 233.702991 215.707487 
L 234.345734 214.148112 
L 235.631214 215.532414 
L 236.273956 216.340544 
L 236.916698 215.498265 
L 237.559441 213.057957 
L 238.202179 212.110962 
L 238.844921 214.680342 
L 239.487659 214.484562 
L 240.130402 212.678443 
L 240.773148 211.978777 
L 241.415886 211.936356 
L 242.058624 211.480632 
L 242.70137 213.728506 
L 243.344109 213.676899 
L 243.986851 212.675384 
L 244.629589 213.570045 
L 245.272331 213.8304 
L 245.915073 212.854288 
L 246.557812 212.539776 
L 247.200558 212.795022 
L 247.843296 211.416195 
L 248.486038 214.911568 
L 249.12878 211.657972 
L 249.771519 209.731117 
L 250.414261 210.057438 
L 251.057003 210.0259 
L 251.699745 208.950174 
L 252.342484 208.976204 
L 252.985222 209.858323 
L 253.627968 209.408193 
L 254.27071 210.060983 
L 254.913448 208.824169 
L 255.55619 209.827145 
L 256.198933 208.599092 
L 257.484413 204.908643 
L 258.127155 204.235253 
L 258.769897 202.79669 
L 259.412636 201.024793 
L 260.69812 199.150196 
L 261.340858 199.323134 
L 261.983601 198.821095 
L 262.626343 199.386194 
L 263.269085 198.655293 
L 263.911823 199.060711 
L 264.554569 200.18027 
L 265.197308 199.11509 
L 265.840046 199.997675 
L 266.482792 200.599172 
L 267.125534 200.973565 
L 267.768272 200.476425 
L 269.053753 193.177184 
L 269.696495 181.26253 
L 270.339237 199.466872 
L 270.981979 189.661815 
L 271.624718 192.035675 
L 272.26746 188.382343 
L 272.910202 184.011323 
L 273.552944 182.131058 
L 274.195683 178.799713 
L 274.838425 179.890824 
L 275.481167 178.930036 
L 276.123905 181.953412 
L 277.409389 180.019108 
L 278.69487 175.166022 
L 279.337612 170.405897 
L 279.980354 168.663633 
L 280.623096 167.744321 
L 281.265835 167.467286 
L 281.908577 166.694526 
L 282.551315 167.467229 
L 283.194057 166.551615 
L 283.836803 167.948927 
L 284.479542 165.686693 
L 285.12228 165.404668 
L 286.407764 166.583802 
L 287.693245 171.545941 
L 288.335991 169.561205 
L 290.264214 161.523082 
L 290.906956 162.082375 
L 291.549694 162.271853 
L 292.192432 166.071006 
L 292.835175 165.680284 
L 293.477917 163.585662 
L 294.120659 162.826863 
L 294.763401 165.02323 
L 295.406139 166.282607 
L 296.048882 164.143751 
L 296.691624 165.455135 
L 297.334366 164.945643 
L 297.977104 162.293474 
L 298.619843 161.730036 
L 299.905331 164.425137 
L 300.548069 163.796627 
L 301.190811 165.090711 
L 301.833553 163.83849 
L 302.476292 163.171276 
L 303.119034 161.77238 
L 304.404518 163.758925 
L 305.047256 163.399366 
L 305.689999 164.067387 
L 306.975483 169.022374 
L 308.260963 167.039963 
L 308.903702 165.834136 
L 309.546444 166.686924 
L 310.18919 165.457598 
L 310.831928 165.763941 
L 311.474667 165.134099 
L 312.117409 165.658104 
L 312.760151 166.495867 
L 313.402893 166.410661 
L 314.045635 166.495821 
L 314.688374 167.340237 
L 315.331116 166.995267 
L 315.973854 167.880666 
L 316.6166 167.897944 
L 317.259338 167.017305 
L 317.902081 169.372588 
L 318.544823 174.449324 
L 319.187561 178.622113 
L 319.830303 179.98967 
L 320.473045 182.439714 
L 321.115788 182.455076 
L 321.758526 186.959252 
L 322.401264 192.284767 
L 323.044014 192.05579 
L 323.686752 192.45847 
L 324.972233 186.181563 
L 325.614975 183.566164 
L 326.257717 183.291706 
L 326.900455 181.222866 
L 327.543198 180.726139 
L 328.185936 179.309832 
L 328.828678 179.957609 
L 329.471424 178.859129 
L 330.114162 179.297458 
L 330.756901 178.359342 
L 331.399647 177.716905 
L 332.042385 176.843306 
L 332.685127 177.657004 
L 333.327866 177.236728 
L 333.970612 177.864994 
L 334.61335 177.237245 
L 335.898834 177.872638 
L 336.541576 176.386736 
L 337.184315 176.193702 
L 337.827057 176.59436 
L 338.469795 176.098107 
L 339.75528 178.165406 
L 340.398022 179.66265 
L 341.04076 180.579847 
L 341.683498 179.573961 
L 342.326244 181.997045 
L 342.968987 183.732735 
L 343.611725 184.53709 
L 344.254467 183.317664 
L 344.972195 181.017771 
L 345.614937 179.655461 
L 346.257675 180.219297 
L 346.900421 181.597986 
L 347.543159 179.584913 
L 348.185898 180.216888 
L 348.828644 180.593316 
L 349.471382 180.433188 
L 350.114124 182.542881 
L 350.756866 183.232865 
L 352.042347 188.22017 
L 352.685089 188.576976 
L 353.327831 189.644756 
L 353.959858 192.461117 
L 354.613308 193.199272 
L 355.256054 193.209165 
L 355.898796 195.532306 
L 356.541534 192.773494 
L 357.173565 194.431543 
L 357.827019 194.96707 
L 358.469757 194.286437 
L 359.112499 194.195541 
L 359.755241 195.572949 
L 360.397984 194.119097 
L 361.683464 195.61389 
L 362.326206 194.978791 
L 362.968948 196.199814 
L 363.611687 194.532855 
L 364.254429 194.119234 
L 364.897167 195.316663 
L 365.539909 194.615518 
L 366.182655 195.601236 
L 366.825394 195.544474 
L 367.468132 198.612375 
L 368.110874 197.314826 
L 368.753616 197.925214 
L 369.396358 195.548474 
L 370.039097 195.787157 
L 370.681839 194.657503 
L 371.324581 195.105476 
L 371.967323 197.37158 
L 372.610065 194.779829 
L 373.252804 196.474941 
L 374.538288 193.715495 
L 375.18103 195.0319 
L 375.823769 194.92889 
L 376.466511 194.684624 
L 377.109253 197.764891 
L 377.751991 198.560749 
L 378.394733 198.700475 
L 379.037476 198.29968 
L 379.680218 196.437587 
L 380.322956 196.967661 
L 380.965698 197.975421 
L 381.60844 197.45103 
L 382.251183 199.139243 
L 382.893921 199.17854 
L 384.179401 195.64368 
L 384.822144 194.191028 
L 385.46489 194.602894 
L 386.107628 194.486882 
L 387.393108 193.69712 
L 388.035851 194.717603 
L 388.678593 194.835107 
L 389.321331 193.80026 
L 389.964077 195.304009 
L 390.606815 194.285767 
L 391.249554 194.659774 
L 391.8923 195.715566 
L 392.535042 196.367927 
L 393.17778 194.056018 
L 394.463261 194.262505 
L 395.106003 195.148868 
L 395.748745 197.468521 
L 397.034225 194.432713 
L 397.676964 193.013806 
L 398.31971 191.934347 
L 398.962452 193.275502 
L 399.60519 192.983136 
L 400.247929 195.19015 
L 400.890675 193.641911 
L 401.533417 194.925834 
L 402.176155 194.392051 
L 402.818897 192.950043 
L 403.461639 194.036614 
L 404.104378 193.21814 
L 404.74712 192.068608 
L 405.389862 192.517993 
L 406.032604 192.455652 
L 406.675343 191.899571 
L 407.318085 192.366508 
L 407.960827 189.521539 
L 408.603569 187.270169 
L 409.246311 174.197444 
L 409.88905 181.098009 
L 410.531788 185.29946 
L 411.17453 177.980314 
L 411.817276 179.65826 
L 412.460014 174.440964 
L 413.745495 171.593027 
L 414.388237 168.833145 
L 415.030979 167.394391 
L 415.673721 169.47408 
L 416.31646 169.220108 
L 416.959202 168.539334 
L 417.60194 167.461141 
L 418.244686 167.963776 
L 418.887424 167.69094 
L 419.530167 167.094614 
L 420.172909 166.786879 
L 420.815647 166.156644 
L 421.458389 164.352693 
L 422.101131 162.934853 
L 422.743874 162.333004 
L 425.957577 154.523614 
L 426.600319 154.73703 
L 427.243061 154.068084 
L 427.885799 154.306051 
L 428.528542 154.199018 
L 429.171284 154.378136 
L 431.09951 154.358002 
L 431.742249 152.822681 
L 432.384987 154.084237 
L 433.027733 150.751887 
L 433.670471 150.717313 
L 434.313213 152.008265 
L 434.955952 150.508921 
L 435.598698 149.717339 
L 436.241436 152.662756 
L 436.884174 153.844135 
L 437.52692 156.688386 
L 438.169662 154.481659 
L 438.812401 155.144097 
L 439.455143 152.201509 
L 440.097881 152.089921 
L 440.740623 155.097424 
L 441.383366 155.869553 
L 442.026108 156.464265 
L 442.668846 156.638921 
L 443.311588 156.221636 
L 443.95433 156.47111 
L 444.597073 154.14839 
L 445.239811 153.129123 
L 445.882553 153.590879 
L 446.525295 153.895761 
L 447.168034 154.656663 
L 447.810776 155.003752 
L 448.453518 156.88186 
L 449.738998 157.408694 
L 450.381741 158.677355 
L 451.024483 158.99784 
L 451.667225 159.94498 
L 452.309963 159.534483 
L 452.952705 160.011546 
L 453.595444 160.697931 
L 454.238186 161.036523 
L 454.880932 160.8876 
L 455.52367 161.081556 
L 456.230686 160.769779 
L 456.809155 160.751931 
L 457.451893 160.342333 
L 458.094635 160.785481 
L 458.737373 159.799216 
L 459.380119 158.471973 
L 460.6656 159.470976 
L 461.308342 159.207517 
L 461.95108 160.133016 
L 462.593822 159.464574 
L 463.300838 160.085199 
L 463.879307 160.082121 
L 464.522045 159.338925 
L 465.164787 159.160736 
L 465.807529 159.659884 
L 466.450268 159.603596 
L 467.09301 159.406038 
L 467.735752 159.983015 
L 468.378494 160.87155 
L 469.021233 160.251881 
L 469.663975 161.235997 
L 470.306717 161.147166 
L 470.949459 162.750752 
L 471.592197 161.459375 
L 472.23494 161.636842 
L 474.227436 161.657029 
L 474.870178 162.062983 
L 475.512917 162.153772 
L 476.155663 162.754412 
L 476.798401 162.520589 
L 477.441143 162.617313 
L 478.726627 161.538156 
L 479.380077 161.990841 
L 480.012108 161.225098 
L 480.65485 161.956806 
L 481.297592 162.302587 
L 482.583073 165.131293 
L 483.868553 172.564214 
L 484.511299 176.989786 
L 485.154037 178.053439 
L 485.796776 176.718173 
L 487.08226 182.16157 
L 487.725002 181.766007 
L 488.367741 184.354442 
L 489.653225 185.976865 
L 490.295963 187.724728 
L 490.949417 187.184635 
L 491.581448 189.626924 
L 492.22419 190.23865 
L 492.866928 189.488284 
L 493.50967 186.936801 
L 494.152412 187.003249 
L 494.795155 187.358506 
L 495.437897 188.596005 
L 496.080635 188.560815 
L 496.723373 186.830827 
L 497.366119 187.971147 
L 498.008862 190.940587 
L 498.6516 190.48562 
L 499.305054 188.914784 
L 499.93708 191.032928 
L 500.590538 190.467864 
L 501.222565 190.45009 
L 501.865307 191.905456 
L 502.508045 192.405789 
L 503.150787 190.781878 
L 504.436272 193.703368 
L 505.07901 193.217896 
L 506.364494 188.786871 
L 507.017948 190.971949 
L 507.649975 189.917385 
L 508.292721 191.51863 
L 508.946171 189.294523 
L 509.588913 190.063589 
L 510.22094 191.524374 
L 510.863686 189.041768 
L 511.506424 188.296266 
L 512.149162 189.056257 
L 512.791904 188.890826 
L 513.434647 190.561823 
L 514.077389 191.470431 
L 514.720131 192.138781 
L 515.362869 191.292977 
L 516.005608 191.957533 
L 517.291096 190.117291 
L 517.933834 190.455944 
L 518.576572 190.068763 
L 519.219318 189.814757 
L 519.862057 187.654299 
L 520.504799 188.424489 
L 521.158253 189.908968 
L 521.790283 189.306875 
L 522.433022 188.255019 
L 523.07576 189.74546 
L 524.361248 188.035074 
L 525.003986 184.942784 
L 525.646729 186.731484 
L 526.289467 187.966118 
L 526.932209 186.189135 
L 527.574951 188.564203 
L 528.217693 186.806265 
L 528.860432 188.07631 
L 529.503174 185.8447 
L 530.156628 186.395699 
L 530.788658 186.577593 
L 532.074139 183.708735 
L 532.716881 185.853381 
L 533.370335 184.231978 
L 534.002361 185.43945 
L 534.645103 184.660391 
L 535.298557 184.387307 
L 535.930584 183.474029 
L 536.57333 184.206521 
L 537.216068 183.192539 
L 537.85881 183.832927 
L 538.501553 183.340976 
L 539.144291 180.492585 
L 539.787033 181.574468 
L 540.429775 183.77472 
L 541.072517 182.567708 
L 541.715256 182.122729 
L 542.357994 182.005122 
L 543.00074 181.672927 
L 543.643482 181.812695 
L 544.286221 181.324068 
L 544.928963 180.499128 
L 545.571705 181.353242 
L 547.499928 181.444107 
L 548.153381 181.046341 
L 548.785408 182.628779 
L 549.42815 182.54796 
L 550.070892 182.045042 
L 550.713631 182.696822 
L 551.356373 179.68221 
L 551.999115 179.576405 
L 552.641853 181.318466 
L 553.284595 175.206042 
L 553.938049 177.39546 
L 554.57008 173.694568 
L 555.212818 172.32464 
L 555.85556 167.807056 
L 557.141045 163.82184 
L 557.783783 163.587872 
L 558.426525 161.031968 
L 559.079979 159.45761 
L 559.712006 152.734669 
L 560.354752 150.169128 
L 560.99749 148.0949 
L 561.640232 149.922893 
L 562.282974 148.169998 
L 562.925713 147.870466 
L 563.568455 146.269672 
L 566.13942 142.816135 
L 566.782162 142.053272 
L 567.424904 141.928502 
L 568.067642 141.927439 
L 568.710384 141.765939 
L 569.353127 142.439027 
L 570.00658 142.466304 
L 570.638607 142.775844 
L 571.281349 141.967145 
L 571.924088 142.41061 
L 572.56683 141.18206 
L 573.209576 141.361725 
L 573.852314 141.263556 
L 574.495052 141.02482 
L 575.137794 140.511416 
L 575.780537 141.606618 
L 576.423279 141.276734 
L 577.066017 141.106809 
L 577.719471 140.111726 
L 578.351501 139.684789 
L 578.99424 139.048049 
L 579.636986 136.626085 
L 580.279724 137.247494 
L 580.922466 136.160647 
L 581.565205 135.75438 
L 582.207947 131.028947 
L 583.493431 114.368428 
L 585.496639 93.63034 
L 586.139385 99.259861 
L 586.782124 99.985408 
L 587.424862 103.040578 
L 588.067604 103.258786 
L 589.353088 108.282054 
L 589.931553 109.520313 
L 590.638569 109.447674 
L 591.281311 110.209562 
L 591.924049 109.601331 
L 592.566795 109.390473 
L 593.209534 108.035042 
L 593.852276 104.621896 
L 594.495014 102.480439 
L 595.137756 101.25319 
L 595.780499 99.164797 
L 597.065983 98.179163 
L 597.708721 99.881572 
L 598.35146 99.97184 
L 598.994205 99.795372 
L 599.636948 99.892975 
L 601.56517 99.789231 
L 602.850651 100.484323 
L 603.493393 100.455531 
L 604.136131 100.207555 
L 604.778873 100.163085 
L 606.064358 100.436005 
L 606.707096 99.98537 
L 607.99258 100.357866 
L 608.635319 100.411121 
L 609.278061 100.776207 
L 609.920807 100.380257 
L 610.563545 100.379522 
L 611.206284 100.940587 
L 611.849026 100.296761 
L 615.705475 100.463913 
L 616.348217 100.390716 
L 616.990955 100.186802 
L 617.633698 100.167708 
L 618.276436 100.437512 
L 618.919182 100.2192 
L 619.56192 100.465902 
L 622.636364 100.45654 
L 622.636364 100.45654 
" clip-path="url(#p56ecefcaad)" style="fill: none; stroke: #2ca02c; stroke-width: 2.5; stroke-linecap: square"/>
   </g>
   <g id="patch_3">
    <path d="M 90 256.32 
L 90 34.56 
" style="fill: none; stroke: #000000; stroke-width: 0.8; stroke-linejoin: miter; stroke-linecap: square"/>
   </g>
   <g id="patch_4">
    <path d="M 648 256.32 
L 648 34.56 
" style="fill: none; stroke: #000000; stroke-width: 0.8; stroke-linejoin: miter; stroke-linecap: square"/>
   </g>
   <g id="patch_5">
    <path d="M 90 256.32 
L 648 256.32 
" style="fill: none; stroke: #000000; stroke-width: 0.8; stroke-linejoin: miter; stroke-linecap: square"/>
   </g>
   <g id="patch_6">
    <path d="M 90 34.56 
L 648 34.56 
" style="fill: none; stroke: #000000; stroke-width: 0.8; stroke-linejoin: miter; stroke-linecap: square"/>
   </g>
   <g id="text_15">
    <!-- design_without_locking_ft_data_mapped_to_robot - Forces -->
    <g transform="translate(194.445938 28.56)scale(0.12 -0.12)">
     <defs>
      <path id="DejaVuSans-64" d="M 2906 2969 
L 2906 4863 
L 3481 4863 
L 3481 0 
L 2906 0 
L 2906 525 
Q 2725 213 2448 61 
Q 2172 -91 1784 -91 
Q 1150 -91 751 415 
Q 353 922 353 1747 
Q 353 2572 751 3078 
Q 1150 3584 1784 3584 
Q 2172 3584 2448 3432 
Q 2725 3281 2906 2969 
z
M 947 1747 
Q 947 1113 1208 752 
Q 1469 391 1925 391 
Q 2381 391 2643 752 
Q 2906 1113 2906 1747 
Q 2906 2381 2643 2742 
Q 2381 3103 1925 3103 
Q 1469 3103 1208 2742 
Q 947 2381 947 1747 
z
" transform="scale(0.015625)"/>
      <path id="DejaVuSans-73" d="M 2834 3397 
L 2834 2853 
Q 2591 2978 2328 3040 
Q 2066 3103 1784 3103 
Q 1356 3103 1142 2972 
Q 928 2841 928 2578 
Q 928 2378 1081 2264 
Q 1234 2150 1697 2047 
L 1894 2003 
Q 2506 1872 2764 1633 
Q 3022 1394 3022 966 
Q 3022 478 2636 193 
Q 2250 -91 1575 -91 
Q 1294 -91 989 -36 
Q 684 19 347 128 
L 347 722 
Q 666 556 975 473 
Q 1284 391 1588 391 
Q 1994 391 2212 530 
Q 2431 669 2431 922 
Q 2431 1156 2273 1281 
Q 2116 1406 1581 1522 
L 1381 1569 
Q 847 1681 609 1914 
Q 372 2147 372 2553 
Q 372 3047 722 3315 
Q 1072 3584 1716 3584 
Q 2034 3584 2315 3537 
Q 2597 3491 2834 3397 
z
" transform="scale(0.015625)"/>
      <path id="DejaVuSans-67" d="M 2906 1791 
Q 2906 2416 2648 2759 
Q 2391 3103 1925 3103 
Q 1463 3103 1205 2759 
Q 947 2416 947 1791 
Q 947 1169 1205 825 
Q 1463 481 1925 481 
Q 2391 481 2648 825 
Q 2906 1169 2906 1791 
z
M 3481 434 
Q 3481 -459 3084 -895 
Q 2688 -1331 1869 -1331 
Q 1566 -1331 1297 -1286 
Q 1028 -1241 775 -1147 
L 775 -588 
Q 1028 -725 1275 -790 
Q 1522 -856 1778 -856 
Q 2344 -856 2625 -561 
Q 2906 -266 2906 331 
L 2906 616 
Q 2728 306 2450 153 
Q 2172 0 1784 0 
Q 1141 0 747 490 
Q 353 981 353 1791 
Q 353 2603 747 3093 
Q 1141 3584 1784 3584 
Q 2172 3584 2450 3431 
Q 2728 3278 2906 2969 
L 2906 3500 
L 3481 3500 
L 3481 434 
z
" transform="scale(0.015625)"/>
      <path id="DejaVuSans-6e" d="M 3513 2113 
L 3513 0 
L 2938 0 
L 2938 2094 
Q 2938 2591 2744 2837 
Q 2550 3084 2163 3084 
Q 1697 3084 1428 2787 
Q 1159 2491 1159 1978 
L 1159 0 
L 581 0 
L 581 3500 
L 1159 3500 
L 1159 2956 
Q 1366 3272 1645 3428 
Q 1925 3584 2291 3584 
Q 2894 3584 3203 3211 
Q 3513 2838 3513 2113 
z
" transform="scale(0.015625)"/>
      <path id="DejaVuSans-5f" d="M 3263 -1063 
L 3263 -1509 
L -63 -1509 
L -63 -1063 
L 3263 -1063 
z
" transform="scale(0.015625)"/>
      <path id="DejaVuSans-77" d="M 269 3500 
L 844 3500 
L 1563 769 
L 2278 3500 
L 2956 3500 
L 3675 769 
L 4391 3500 
L 4966 3500 
L 4050 0 
L 3372 0 
L 2619 2869 
L 1863 0 
L 1184 0 
L 269 3500 
z
" transform="scale(0.015625)"/>
      <path id="DejaVuSans-74" d="M 1172 4494 
L 1172 3500 
L 2356 3500 
L 2356 3053 
L 1172 3053 
L 1172 1153 
Q 1172 725 1289 603 
Q 1406 481 1766 481 
L 2356 481 
L 2356 0 
L 1766 0 
Q 1100 0 847 248 
Q 594 497 594 1153 
L 594 3053 
L 172 3053 
L 172 3500 
L 594 3500 
L 594 4494 
L 1172 4494 
z
" transform="scale(0.015625)"/>
      <path id="DejaVuSans-68" d="M 3513 2113 
L 3513 0 
L 2938 0 
L 2938 2094 
Q 2938 2591 2744 2837 
Q 2550 3084 2163 3084 
Q 1697 3084 1428 2787 
Q 1159 2491 1159 1978 
L 1159 0 
L 581 0 
L 581 4863 
L 1159 4863 
L 1159 2956 
Q 1366 3272 1645 3428 
Q 1925 3584 2291 3584 
Q 2894 3584 3203 3211 
Q 3513 2838 3513 2113 
z
" transform="scale(0.015625)"/>
      <path id="DejaVuSans-75" d="M 544 1381 
L 544 3500 
L 1119 3500 
L 1119 1403 
Q 1119 906 1312 657 
Q 1506 409 1894 409 
Q 2359 409 2629 706 
Q 2900 1003 2900 1516 
L 2900 3500 
L 3475 3500 
L 3475 0 
L 2900 0 
L 2900 538 
Q 2691 219 2414 64 
Q 2138 -91 1772 -91 
Q 1169 -91 856 284 
Q 544 659 544 1381 
z
M 1991 3584 
L 1991 3584 
z
" transform="scale(0.015625)"/>
      <path id="DejaVuSans-6c" d="M 603 4863 
L 1178 4863 
L 1178 0 
L 603 0 
L 603 4863 
z
" transform="scale(0.015625)"/>
      <path id="DejaVuSans-6b" d="M 581 4863 
L 1159 4863 
L 1159 1991 
L 2875 3500 
L 3609 3500 
L 1753 1863 
L 3688 0 
L 2938 0 
L 1159 1709 
L 1159 0 
L 581 0 
L 581 4863 
z
" transform="scale(0.015625)"/>
      <path id="DejaVuSans-66" d="M 2375 4863 
L 2375 4384 
L 1825 4384 
Q 1516 4384 1395 4259 
Q 1275 4134 1275 3809 
L 1275 3500 
L 2222 3500 
L 2222 3053 
L 1275 3053 
L 1275 0 
L 697 0 
L 697 3053 
L 147 3053 
L 147 3500 
L 697 3500 
L 697 3744 
Q 697 4328 969 4595 
Q 1241 4863 1831 4863 
L 2375 4863 
z
" transform="scale(0.015625)"/>
      <path id="DejaVuSans-61" d="M 2194 1759 
Q 1497 1759 1228 1600 
Q 959 1441 959 1056 
Q 959 750 1161 570 
Q 1363 391 1709 391 
Q 2188 391 2477 730 
Q 2766 1069 2766 1631 
L 2766 1759 
L 2194 1759 
z
M 3341 1997 
L 3341 0 
L 2766 0 
L 2766 531 
Q 2569 213 2275 61 
Q 1981 -91 1556 -91 
Q 1019 -91 701 211 
Q 384 513 384 1019 
Q 384 1609 779 1909 
Q 1175 2209 1959 2209 
L 2766 2209 
L 2766 2266 
Q 2766 2663 2505 2880 
Q 2244 3097 1772 3097 
Q 1472 3097 1187 3025 
Q 903 2953 641 2809 
L 641 3341 
Q 956 3463 1253 3523 
Q 1550 3584 1831 3584 
Q 2591 3584 2966 3190 
Q 3341 2797 3341 1997 
z
" transform="scale(0.015625)"/>
      <path id="DejaVuSans-70" d="M 1159 525 
L 1159 -1331 
L 581 -1331 
L 581 3500 
L 1159 3500 
L 1159 2969 
Q 1341 3281 1617 3432 
Q 1894 3584 2278 3584 
Q 2916 3584 3314 3078 
Q 3713 2572 3713 1747 
Q 3713 922 3314 415 
Q 2916 -91 2278 -91 
Q 1894 -91 1617 61 
Q 1341 213 1159 525 
z
M 3116 1747 
Q 3116 2381 2855 2742 
Q 2594 3103 2138 3103 
Q 1681 3103 1420 2742 
Q 1159 2381 1159 1747 
Q 1159 1113 1420 752 
Q 1681 391 2138 391 
Q 2594 391 2855 752 
Q 3116 1113 3116 1747 
z
" transform="scale(0.015625)"/>
      <path id="DejaVuSans-62" d="M 3116 1747 
Q 3116 2381 2855 2742 
Q 2594 3103 2138 3103 
Q 1681 3103 1420 2742 
Q 1159 2381 1159 1747 
Q 1159 1113 1420 752 
Q 1681 391 2138 391 
Q 2594 391 2855 752 
Q 3116 1113 3116 1747 
z
M 1159 2969 
Q 1341 3281 1617 3432 
Q 1894 3584 2278 3584 
Q 2916 3584 3314 3078 
Q 3713 2572 3713 1747 
Q 3713 922 3314 415 
Q 2916 -91 2278 -91 
Q 1894 -91 1617 61 
Q 1341 213 1159 525 
L 1159 0 
L 581 0 
L 581 4863 
L 1159 4863 
L 1159 2969 
z
" transform="scale(0.015625)"/>
      <path id="DejaVuSans-2d" d="M 313 2009 
L 1997 2009 
L 1997 1497 
L 313 1497 
L 313 2009 
z
" transform="scale(0.015625)"/>
     </defs>
     <use xlink:href="#DejaVuSans-64"/>
     <use xlink:href="#DejaVuSans-65" x="63.476562"/>
     <use xlink:href="#DejaVuSans-73" x="125"/>
     <use xlink:href="#DejaVuSans-69" x="177.099609"/>
     <use xlink:href="#DejaVuSans-67" x="204.882812"/>
     <use xlink:href="#DejaVuSans-6e" x="268.359375"/>
     <use xlink:href="#DejaVuSans-5f" x="331.738281"/>
     <use xlink:href="#DejaVuSans-77" x="381.738281"/>
     <use xlink:href="#DejaVuSans-69" x="463.525391"/>
     <use xlink:href="#DejaVuSans-74" x="491.308594"/>
     <use xlink:href="#DejaVuSans-68" x="530.517578"/>
     <use xlink:href="#DejaVuSans-6f" x="593.896484"/>
     <use xlink:href="#DejaVuSans-75" x="655.078125"/>
     <use xlink:href="#DejaVuSans-74" x="718.457031"/>
     <use xlink:href="#DejaVuSans-5f" x="757.666016"/>
     <use xlink:href="#DejaVuSans-6c" x="807.666016"/>
     <use xlink:href="#DejaVuSans-6f" x="835.449219"/>
     <use xlink:href="#DejaVuSans-63" x="896.630859"/>
     <use xlink:href="#DejaVuSans-6b" x="951.611328"/>
     <use xlink:href="#DejaVuSans-69" x="1009.521484"/>
     <use xlink:href="#DejaVuSans-6e" x="1037.304688"/>
     <use xlink:href="#DejaVuSans-67" x="1100.683594"/>
     <use xlink:href="#DejaVuSans-5f" x="1164.160156"/>
     <use xlink:href="#DejaVuSans-66" x="1214.160156"/>
     <use xlink:href="#DejaVuSans-74" x="1247.615234"/>
     <use xlink:href="#DejaVuSans-5f" x="1286.824219"/>
     <use xlink:href="#DejaVuSans-64" x="1336.824219"/>
     <use xlink:href="#DejaVuSans-61" x="1400.300781"/>
     <use xlink:href="#DejaVuSans-74" x="1461.580078"/>
     <use xlink:href="#DejaVuSans-61" x="1500.789062"/>
     <use xlink:href="#DejaVuSans-5f" x="1562.068359"/>
     <use xlink:href="#DejaVuSans-6d" x="1612.068359"/>
     <use xlink:href="#DejaVuSans-61" x="1709.480469"/>
     <use xlink:href="#DejaVuSans-70" x="1770.759766"/>
     <use xlink:href="#DejaVuSans-70" x="1834.236328"/>
     <use xlink:href="#DejaVuSans-65" x="1897.712891"/>
     <use xlink:href="#DejaVuSans-64" x="1959.236328"/>
     <use xlink:href="#DejaVuSans-5f" x="2022.712891"/>
     <use xlink:href="#DejaVuSans-74" x="2072.712891"/>
     <use xlink:href="#DejaVuSans-6f" x="2111.921875"/>
     <use xlink:href="#DejaVuSans-5f" x="2173.103516"/>
     <use xlink:href="#DejaVuSans-72" x="2223.103516"/>
     <use xlink:href="#DejaVuSans-6f" x="2261.966797"/>
     <use xlink:href="#DejaVuSans-62" x="2323.148438"/>
     <use xlink:href="#DejaVuSans-6f" x="2386.625"/>
     <use xlink:href="#DejaVuSans-74" x="2447.806641"/>
     <use xlink:href="#DejaVuSans-20" x="2487.015625"/>
     <use xlink:href="#DejaVuSans-2d" x="2518.802734"/>
     <use xlink:href="#DejaVuSans-20" x="2554.886719"/>
     <use xlink:href="#DejaVuSans-46" x="2586.673828"/>
     <use xlink:href="#DejaVuSans-6f" x="2640.568359"/>
     <use xlink:href="#DejaVuSans-72" x="2701.75"/>
     <use xlink:href="#DejaVuSans-63" x="2740.613281"/>
     <use xlink:href="#DejaVuSans-65" x="2795.59375"/>
     <use xlink:href="#DejaVuSans-73" x="2857.117188"/>
    </g>
   </g>
   <g id="legend_1">
    <g id="patch_7">
     <path d="M 572.904688 251.32 
L 641 251.32 
Q 643 251.32 643 249.32 
L 643 205.45125 
Q 643 203.45125 641 203.45125 
L 572.904688 203.45125 
Q 570.904688 203.45125 570.904688 205.45125 
L 570.904688 249.32 
Q 570.904688 251.32 572.904688 251.32 
z
" style="fill: #ffffff; opacity: 0.8; stroke: #cccccc; stroke-linejoin: miter"/>
    </g>
    <g id="line2d_28">
     <path d="M 574.904688 211.549688 
L 584.904688 211.549688 
L 594.904688 211.549688 
" style="fill: none; stroke: #1f77b4; stroke-width: 2.5; stroke-linecap: square"/>
    </g>
    <g id="text_16">
     <!-- force_x -->
     <g transform="translate(602.904688 215.049688)scale(0.1 -0.1)">
      <defs>
       <path id="DejaVuSans-78" d="M 3513 3500 
L 2247 1797 
L 3578 0 
L 2900 0 
L 1881 1375 
L 863 0 
L 184 0 
L 1544 1831 
L 300 3500 
L 978 3500 
L 1906 2253 
L 2834 3500 
L 3513 3500 
z
" transform="scale(0.015625)"/>
      </defs>
      <use xlink:href="#DejaVuSans-66"/>
      <use xlink:href="#DejaVuSans-6f" x="35.205078"/>
      <use xlink:href="#DejaVuSans-72" x="96.386719"/>
      <use xlink:href="#DejaVuSans-63" x="135.25"/>
      <use xlink:href="#DejaVuSans-65" x="190.230469"/>
      <use xlink:href="#DejaVuSans-5f" x="251.753906"/>
      <use xlink:href="#DejaVuSans-78" x="301.753906"/>
     </g>
    </g>
    <g id="line2d_29">
     <path d="M 574.904688 226.505938 
L 584.904688 226.505938 
L 594.904688 226.505938 
" style="fill: none; stroke: #ff7f0e; stroke-width: 2.5; stroke-linecap: square"/>
    </g>
    <g id="text_17">
     <!-- force_y -->
     <g transform="translate(602.904688 230.005938)scale(0.1 -0.1)">
      <defs>
       <path id="DejaVuSans-79" d="M 2059 -325 
Q 1816 -950 1584 -1140 
Q 1353 -1331 966 -1331 
L 506 -1331 
L 506 -850 
L 844 -850 
Q 1081 -850 1212 -737 
Q 1344 -625 1503 -206 
L 1606 56 
L 191 3500 
L 800 3500 
L 1894 763 
L 2988 3500 
L 3597 3500 
L 2059 -325 
z
" transform="scale(0.015625)"/>
      </defs>
      <use xlink:href="#DejaVuSans-66"/>
      <use xlink:href="#DejaVuSans-6f" x="35.205078"/>
      <use xlink:href="#DejaVuSans-72" x="96.386719"/>
      <use xlink:href="#DejaVuSans-63" x="135.25"/>
      <use xlink:href="#DejaVuSans-65" x="190.230469"/>
      <use xlink:href="#DejaVuSans-5f" x="251.753906"/>
      <use xlink:href="#DejaVuSans-79" x="301.753906"/>
     </g>
    </g>
    <g id="line2d_30">
     <path d="M 574.904688 241.462187 
L 584.904688 241.462187 
L 594.904688 241.462187 
" style="fill: none; stroke: #2ca02c; stroke-width: 2.5; stroke-linecap: square"/>
    </g>
    <g id="text_18">
     <!-- force_z -->
     <g transform="translate(602.904688 244.962187)scale(0.1 -0.1)">
      <defs>
       <path id="DejaVuSans-7a" d="M 353 3500 
L 3084 3500 
L 3084 2975 
L 922 459 
L 3084 459 
L 3084 0 
L 275 0 
L 275 525 
L 2438 3041 
L 353 3041 
L 353 3500 
z
" transform="scale(0.015625)"/>
      </defs>
      <use xlink:href="#DejaVuSans-66"/>
      <use xlink:href="#DejaVuSans-6f" x="35.205078"/>
      <use xlink:href="#DejaVuSans-72" x="96.386719"/>
      <use xlink:href="#DejaVuSans-63" x="135.25"/>
      <use xlink:href="#DejaVuSans-65" x="190.230469"/>
      <use xlink:href="#DejaVuSans-5f" x="251.753906"/>
      <use xlink:href="#DejaVuSans-7a" x="301.753906"/>
     </g>
    </g>
   </g>
  </g>
 </g>
 <defs>
  <clipPath id="p56ecefcaad">
   <rect x="90" y="34.56" width="558" height="221.76"/>
  </clipPath>
 </defs>
</svg>
